<svg width="863" height="338" viewBox="0 0 863 338" fill="none" xmlns="http://www.w3.org/2000/svg">
<path d="M185.74 1.74414L201.844 64H189.434L186.986 54.5371H170.176L167.728 64H155.318L171.422 1.74414H185.74ZM173.331 42.4595H183.831L178.56 22.1641L173.331 42.4595ZM205.888 17.2666C205.888 12.5075 207.714 8.48161 211.367 5.18896C214.908 2.03467 219.1 0.45752 223.942 0.45752C231.275 0.45752 236.947 3.93001 240.959 10.875L230.541 16.8931C228.881 13.9601 226.682 12.4937 223.942 12.4937C222.337 12.4937 220.968 12.9087 219.833 13.7388C218.561 14.6795 217.924 15.9108 217.924 17.4326C217.924 19.3141 218.851 21.168 220.705 22.9941C221.867 24.1009 224.053 25.7334 227.263 27.8916C228.397 28.6663 229.255 29.2612 229.836 29.6763C230.832 30.368 231.703 31.0044 232.451 31.5854C234.36 33.0519 235.937 34.5046 237.182 35.9434C240.364 39.5957 241.955 43.7738 241.955 48.4775C241.955 53.2367 240.115 57.2487 236.435 60.5137C232.893 63.6956 228.729 65.2866 223.942 65.2866C216.582 65.2866 210.882 61.8003 206.843 54.8276L217.26 48.8096C218.948 51.7702 221.175 53.2505 223.942 53.2505C225.519 53.2505 226.875 52.8354 228.01 52.0054C229.282 51.0646 229.919 49.8195 229.919 48.27C229.919 46.4162 228.978 44.5762 227.097 42.75C225.962 41.6156 223.79 39.9831 220.58 37.8525L219.294 36.9395L217.966 36.0679C216.997 35.3761 216.14 34.7397 215.392 34.1587C213.483 32.6646 211.906 31.2119 210.661 29.8008C207.479 26.1208 205.888 21.9427 205.888 17.2666ZM250.025 1.74414H262.103V64H250.025V1.74414ZM299.391 1.74414L315.495 64H303.085L300.637 54.5371H283.827L281.379 64H268.969L285.073 1.74414H299.391ZM286.982 42.4595H297.482L292.211 22.1641L286.982 42.4595ZM326.346 0.416016C328.393 0.416016 330.012 1.12158 331.202 2.53271C332.336 3.86084 332.903 5.54867 332.903 7.59619C332.903 11.0272 331.824 13.9186 329.666 16.2705C327.591 18.5117 324.852 19.9782 321.448 20.6699L320.286 14.7764C322.195 14.389 323.565 13.8494 324.395 13.1577C323.039 12.715 321.932 11.9264 321.075 10.792C320.245 9.62988 319.83 8.34326 319.83 6.93213C319.83 5.13363 320.466 3.59798 321.739 2.3252C323.012 1.05241 324.547 0.416016 326.346 0.416016ZM336.449 17.2666C336.449 12.5075 338.276 8.48161 341.928 5.18896C345.47 2.03467 349.661 0.45752 354.504 0.45752C361.836 0.45752 367.508 3.93001 371.52 10.875L361.103 16.8931C359.443 13.9601 357.243 12.4937 354.504 12.4937C352.899 12.4937 351.529 12.9087 350.395 13.7388C349.122 14.6795 348.486 15.9108 348.486 17.4326C348.486 19.3141 349.412 21.168 351.266 22.9941C352.428 24.1009 354.614 25.7334 357.824 27.8916C358.958 28.6663 359.816 29.2612 360.397 29.6763C361.393 30.368 362.265 31.0044 363.012 31.5854C364.921 33.0519 366.498 34.5046 367.743 35.9434C370.925 39.5957 372.516 43.7738 372.516 48.4775C372.516 53.2367 370.676 57.2487 366.996 60.5137C363.455 63.6956 359.29 65.2866 354.504 65.2866C347.144 65.2866 341.444 61.8003 337.404 54.8276L347.821 48.8096C349.509 51.7702 351.737 53.2505 354.504 53.2505C356.081 53.2505 357.437 52.8354 358.571 52.0054C359.844 51.0646 360.48 49.8195 360.48 48.27C360.48 46.4162 359.539 44.5762 357.658 42.75C356.523 41.6156 354.351 39.9831 351.142 37.8525L349.855 36.9395L348.527 36.0679C347.559 35.3761 346.701 34.7397 345.954 34.1587C344.045 32.6646 342.467 31.2119 341.222 29.8008C338.04 26.1208 336.449 21.9427 336.449 17.2666ZM411.359 1.74414V51.9639H431.322V64H399.323V1.74414H411.359ZM468.362 1.74414L484.466 64H472.056L469.607 54.5371H452.798L450.349 64H437.94L454.043 1.74414H468.362ZM455.952 42.4595H466.453L461.182 22.1641L455.952 42.4595ZM503.783 38.8901V64H491.747V1.74414H514.699C519.79 1.74414 524.162 3.57031 527.814 7.22266C531.439 10.8473 533.251 15.2191 533.251 20.3379C533.251 24.2393 532.117 27.7948 529.848 31.0044C527.606 34.1864 524.646 36.4414 520.966 37.7695L531.757 64H518.725L508.39 38.8901H503.783ZM503.783 13.7803V26.854H514.699C516.47 26.854 517.991 26.2176 519.264 24.9448C520.565 23.6444 521.215 22.1087 521.215 20.3379C521.215 18.5394 520.565 17.0037 519.264 15.731C517.991 14.4305 516.47 13.7803 514.699 13.7803H503.783ZM540.449 21.915C540.449 16.0215 542.552 10.9718 546.758 6.76611C550.964 2.56038 556.013 0.45752 561.907 0.45752C570.125 0.45752 576.489 4.33122 580.999 12.0786L570.581 18.0967C568.395 14.389 565.504 12.5352 561.907 12.5352C559.306 12.5352 557.092 13.4482 555.266 15.2744C553.412 17.1283 552.486 19.3418 552.486 21.915V43.8291C552.486 46.4023 553.412 48.6159 555.266 50.4697C557.12 52.3236 559.334 53.2505 561.907 53.2505C564.508 53.2505 566.721 52.3236 568.548 50.4697C570.401 48.6159 571.328 46.4023 571.328 43.8291V38.8901H559.085V26.854H583.364V43.8291C583.364 49.7227 581.262 54.7723 577.056 58.978C572.878 63.1838 567.828 65.2866 561.907 65.2866C556.013 65.2866 550.964 63.1838 546.758 58.978C542.552 54.7723 540.449 49.7227 540.449 43.8291V21.915ZM623.475 1.74414V13.7803H603.512V26.854H618.827V38.8901H603.512V51.9639H623.475V64H591.476V1.74414H623.475ZM627.81 17.2666C627.81 12.5075 629.636 8.48161 633.289 5.18896C636.83 2.03467 641.022 0.45752 645.864 0.45752C653.197 0.45752 658.869 3.93001 662.881 10.875L652.464 16.8931C650.803 13.9601 648.604 12.4937 645.864 12.4937C644.26 12.4937 642.89 12.9087 641.755 13.7388C640.483 14.6795 639.846 15.9108 639.846 17.4326C639.846 19.3141 640.773 21.168 642.627 22.9941C643.789 24.1009 645.975 25.7334 649.185 27.8916C650.319 28.6663 651.177 29.2612 651.758 29.6763C652.754 30.368 653.626 31.0044 654.373 31.5854C656.282 33.0519 657.859 34.5046 659.104 35.9434C662.286 39.5957 663.877 43.7738 663.877 48.4775C663.877 53.2367 662.037 57.2487 658.357 60.5137C654.815 63.6956 650.651 65.2866 645.864 65.2866C638.504 65.2866 632.804 61.8003 628.765 54.8276L639.182 48.8096C640.87 51.7702 643.097 53.2505 645.864 53.2505C647.442 53.2505 648.797 52.8354 649.932 52.0054C651.205 51.0646 651.841 49.8195 651.841 48.27C651.841 46.4162 650.9 44.5762 649.019 42.75C647.884 41.6156 645.712 39.9831 642.503 37.8525L641.216 36.9395L639.888 36.0679C638.919 35.3761 638.062 34.7397 637.315 34.1587C635.405 32.6646 633.828 31.2119 632.583 29.8008C629.401 26.1208 627.81 21.9427 627.81 17.2666ZM704.86 1.74414V13.7803H692.616V64H680.538V13.7803H668.295V1.74414H704.86ZM22.2964 117.535C19.7231 117.535 17.5096 118.448 15.6558 120.274C13.8296 122.128 12.9165 124.342 12.9165 126.915V148.829C12.9165 151.402 13.8296 153.616 15.6558 155.47C17.5096 157.324 19.7231 158.25 22.2964 158.25C25.9211 158.25 28.8125 156.383 30.9707 152.647L41.3882 158.666C36.9058 166.413 30.5418 170.287 22.2964 170.287C16.4028 170.287 11.3532 168.184 7.14746 163.978C2.94173 159.772 0.838867 154.723 0.838867 148.829V126.915C0.838867 121.021 2.94173 115.972 7.14746 111.766C11.3532 107.56 16.4028 105.458 22.2964 105.458C30.5418 105.458 36.9058 109.331 41.3882 117.079L30.9707 123.097C28.8125 119.389 25.9211 117.535 22.2964 117.535ZM68.3425 117.535C65.7692 117.535 63.5557 118.448 61.7019 120.274C59.848 122.128 58.9211 124.342 58.9211 126.915V148.829C58.9211 151.402 59.848 153.616 61.7019 155.47C63.5557 157.324 65.7692 158.25 68.3425 158.25C70.9434 158.25 73.1569 157.324 74.9831 155.47C76.8369 153.644 77.7639 151.43 77.7639 148.829V126.915C77.7639 124.342 76.8369 122.128 74.9831 120.274C73.1569 118.448 70.9434 117.535 68.3425 117.535ZM68.3425 105.458C74.2637 105.458 79.3272 107.56 83.5329 111.766C87.711 115.972 89.8 121.021 89.8 126.915V148.829C89.8 154.723 87.711 159.772 83.5329 163.978C79.3272 168.184 74.2637 170.287 68.3425 170.287C62.4489 170.287 57.3993 168.184 53.1936 163.978C48.9878 159.772 46.885 154.723 46.885 148.829V126.915C46.885 121.021 48.9878 115.972 53.1936 111.766C57.3993 107.56 62.4489 105.458 68.3425 105.458ZM112.479 106.744V156.964H132.443V169H100.443V106.744H112.479ZM150.806 106.744V156.964H170.769V169H138.77V106.744H150.806ZM209.096 106.744V118.78H189.132V131.854H204.447V143.89H189.132V156.964H209.096V169H177.096V106.744H209.096ZM236.008 170.287C230.115 170.287 225.065 168.184 220.859 163.978C216.654 159.772 214.551 154.723 214.551 148.829V126.915C214.551 121.021 216.654 115.972 220.859 111.766C225.065 107.56 230.115 105.458 236.008 105.458C244.226 105.458 250.59 109.331 255.1 117.079L249.871 120.067L244.641 123.097C242.483 119.389 239.605 117.535 236.008 117.535C233.435 117.535 231.222 118.448 229.368 120.274C227.514 122.128 226.587 124.342 226.587 126.915V148.829C226.587 151.402 227.514 153.616 229.368 155.47C231.222 157.324 233.435 158.25 236.008 158.25C236.645 158.25 237.447 158.167 238.416 158.001C239.55 157.808 240.588 157.545 241.528 157.213C244.102 156.355 245.402 155.262 245.43 153.934V143.89H233.186V131.854H257.507V169H252.112L248.667 167.174C244.876 169.249 240.657 170.287 236.008 170.287ZM300.192 106.744V118.78H280.228V131.854H295.543V143.89H280.228V156.964H300.192V169H268.192V106.744H300.192ZM345.758 117.535C343.185 117.535 340.971 118.448 339.117 120.274C337.291 122.128 336.378 124.342 336.378 126.915V148.829C336.378 151.402 337.291 153.616 339.117 155.47C340.971 157.324 343.185 158.25 345.758 158.25C349.383 158.25 352.274 156.383 354.432 152.647L364.85 158.666C360.367 166.413 354.003 170.287 345.758 170.287C339.864 170.287 334.815 168.184 330.609 163.978C326.403 159.772 324.3 154.723 324.3 148.829V126.915C324.3 121.021 326.403 115.972 330.609 111.766C334.815 107.56 339.864 105.458 345.758 105.458C354.003 105.458 360.367 109.331 364.85 117.079L354.432 123.097C352.274 119.389 349.383 117.535 345.758 117.535ZM414.839 148.829C414.839 154.723 412.736 159.772 408.53 163.978C404.352 168.184 399.302 170.287 393.381 170.287C387.488 170.287 382.438 168.184 378.232 163.978C374.027 159.772 371.924 154.723 371.924 148.829V106.744H383.96V148.829C383.96 151.402 384.887 153.616 386.741 155.47C388.594 157.324 390.808 158.25 393.381 158.25C395.982 158.25 398.196 157.324 400.022 155.47C401.876 153.616 402.803 151.402 402.803 148.829V106.744H414.839V148.829ZM438.846 106.744V156.964H458.81V169H426.81V106.744H438.846ZM491.906 106.744V118.78H479.663V169H467.585V118.78H455.341V106.744H491.906ZM542.103 148.829C542.103 154.723 540 159.772 535.794 163.978C531.616 168.184 526.567 170.287 520.645 170.287C514.752 170.287 509.702 168.184 505.496 163.978C501.291 159.772 499.188 154.723 499.188 148.829V106.744H511.224V148.829C511.224 151.402 512.151 153.616 514.005 155.47C515.859 157.324 518.072 158.25 520.645 158.25C523.246 158.25 525.46 157.324 527.286 155.47C529.14 153.616 530.067 151.402 530.067 148.829V106.744H542.103V148.829ZM566.11 143.89V169H554.074V106.744H577.026C582.117 106.744 586.489 108.57 590.141 112.223C593.766 115.847 595.578 120.219 595.578 125.338C595.578 129.239 594.444 132.795 592.175 136.004C589.934 139.186 586.973 141.441 583.293 142.77L594.084 169H581.052L570.717 143.89H566.11ZM566.11 118.78V131.854H577.026C578.797 131.854 580.319 131.218 581.591 129.945C582.892 128.644 583.542 127.109 583.542 125.338C583.542 123.539 582.892 122.004 581.591 120.731C580.319 119.431 578.797 118.78 577.026 118.78H566.11ZM629.837 106.744L645.941 169H633.531L631.082 159.537H614.273L611.825 169H599.415L615.518 106.744H629.837ZM617.428 147.459H627.928L622.657 127.164L617.428 147.459ZM665.258 106.744V156.964H685.222V169H653.222V106.744H665.258ZM742.202 106.744V118.78H722.28V131.854H737.553V143.89H722.28V169H710.202V106.744H742.202ZM781.358 106.744V118.78H761.395V131.854H776.71V143.89H761.395V156.964H781.358V169H749.359V106.744H781.358ZM785.693 122.267C785.693 117.507 787.519 113.482 791.171 110.189C794.713 107.035 798.905 105.458 803.747 105.458C811.079 105.458 816.751 108.93 820.763 115.875L810.346 121.893C808.686 118.96 806.486 117.494 803.747 117.494C802.142 117.494 800.772 117.909 799.638 118.739C798.365 119.68 797.729 120.911 797.729 122.433C797.729 124.314 798.656 126.168 800.51 127.994C801.672 129.101 803.858 130.733 807.067 132.892C808.202 133.666 809.059 134.261 809.64 134.676C810.637 135.368 811.508 136.004 812.255 136.585C814.164 138.052 815.742 139.505 816.987 140.943C820.169 144.596 821.76 148.774 821.76 153.478C821.76 158.237 819.92 162.249 816.24 165.514C812.698 168.696 808.534 170.287 803.747 170.287C796.387 170.287 790.687 166.8 786.647 159.828L797.065 153.81C798.753 156.77 800.98 158.25 803.747 158.25C805.324 158.25 806.68 157.835 807.814 157.005C809.087 156.065 809.723 154.819 809.723 153.27C809.723 151.416 808.783 149.576 806.901 147.75C805.767 146.616 803.595 144.983 800.385 142.853L799.098 141.939L797.77 141.068C796.802 140.376 795.944 139.74 795.197 139.159C793.288 137.665 791.711 136.212 790.466 134.801C787.284 131.121 785.693 126.943 785.693 122.267ZM862.742 106.744V118.78H850.499V169H838.421V118.78H826.177V106.744H862.742Z" fill="url(#paint0_linear_1133_21619)"/>
<path d="M159.728 326.64C160.102 326.64 160.428 326.792 160.708 327.095L163.403 330C161.35 332.38 158.853 334.235 155.913 335.565C152.997 336.895 149.462 337.56 145.308 337.56C141.715 337.56 138.448 336.942 135.508 335.705C132.568 334.445 130.06 332.695 127.983 330.455C125.907 328.192 124.297 325.485 123.153 322.335C122.01 319.185 121.438 315.72 121.438 311.94C121.438 308.16 122.033 304.695 123.223 301.545C124.413 298.395 126.082 295.688 128.228 293.425C130.398 291.162 132.988 289.412 135.998 288.175C139.008 286.915 142.333 286.285 145.973 286.285C149.543 286.285 152.693 286.857 155.423 288C158.153 289.143 160.557 290.695 162.633 292.655L160.393 295.77C160.253 296.003 160.067 296.202 159.833 296.365C159.623 296.505 159.332 296.575 158.958 296.575C158.538 296.575 158.025 296.353 157.418 295.91C156.812 295.443 156.018 294.93 155.038 294.37C154.058 293.81 152.833 293.308 151.363 292.865C149.893 292.398 148.085 292.165 145.938 292.165C143.348 292.165 140.98 292.62 138.833 293.53C136.687 294.417 134.832 295.712 133.268 297.415C131.728 299.118 130.527 301.195 129.663 303.645C128.8 306.095 128.368 308.86 128.368 311.94C128.368 315.067 128.812 317.855 129.698 320.305C130.608 322.755 131.833 324.832 133.373 326.535C134.937 328.215 136.768 329.498 138.868 330.385C140.992 331.272 143.278 331.715 145.728 331.715C147.222 331.715 148.563 331.633 149.753 331.47C150.967 331.283 152.075 331.003 153.078 330.63C154.105 330.257 155.05 329.79 155.913 329.23C156.8 328.647 157.675 327.958 158.538 327.165C158.935 326.815 159.332 326.64 159.728 326.64ZM218.759 311.94C218.759 315.697 218.164 319.15 216.974 322.3C215.784 325.427 214.104 328.122 211.934 330.385C209.764 332.648 207.151 334.41 204.094 335.67C201.061 336.907 197.701 337.525 194.014 337.525C190.327 337.525 186.967 336.907 183.934 335.67C180.901 334.41 178.299 332.648 176.129 330.385C173.959 328.122 172.279 325.427 171.089 322.3C169.899 319.15 169.304 315.697 169.304 311.94C169.304 308.183 169.899 304.742 171.089 301.615C172.279 298.465 173.959 295.758 176.129 293.495C178.299 291.208 180.901 289.435 183.934 288.175C186.967 286.915 190.327 286.285 194.014 286.285C197.701 286.285 201.061 286.915 204.094 288.175C207.151 289.435 209.764 291.208 211.934 293.495C214.104 295.758 215.784 298.465 216.974 301.615C218.164 304.742 218.759 308.183 218.759 311.94ZM211.794 311.94C211.794 308.86 211.374 306.095 210.534 303.645C209.694 301.195 208.504 299.13 206.964 297.45C205.424 295.747 203.557 294.44 201.364 293.53C199.171 292.62 196.721 292.165 194.014 292.165C191.331 292.165 188.892 292.62 186.699 293.53C184.506 294.44 182.627 295.747 181.064 297.45C179.524 299.13 178.334 301.195 177.494 303.645C176.654 306.095 176.234 308.86 176.234 311.94C176.234 315.02 176.654 317.785 177.494 320.235C178.334 322.662 179.524 324.727 181.064 326.43C182.627 328.11 184.506 329.405 186.699 330.315C188.892 331.202 191.331 331.645 194.014 331.645C196.721 331.645 199.171 331.202 201.364 330.315C203.557 329.405 205.424 328.11 206.964 326.43C208.504 324.727 209.694 322.662 210.534 320.235C211.374 317.785 211.794 315.02 211.794 311.94ZM282.759 286.845V337H276.809V300.145C276.809 299.655 276.82 299.13 276.844 298.57C276.89 298.01 276.937 297.438 276.984 296.855L259.764 328.215C259.227 329.265 258.41 329.79 257.314 329.79H256.334C255.237 329.79 254.42 329.265 253.884 328.215L236.314 296.715C236.454 297.952 236.524 299.095 236.524 300.145V337H230.574V286.845H235.579C236.185 286.845 236.652 286.903 236.979 287.02C237.305 287.137 237.62 287.463 237.924 288L255.249 318.87C255.529 319.43 255.797 320.013 256.054 320.62C256.334 321.227 256.59 321.845 256.824 322.475C257.057 321.845 257.302 321.227 257.559 320.62C257.815 319.99 258.095 319.395 258.399 318.835L275.409 288C275.689 287.463 275.992 287.137 276.319 287.02C276.669 286.903 277.147 286.845 277.754 286.845H282.759ZM304.474 337H297.684V286.845H304.474V337ZM360.038 286.845V337H356.643C356.106 337 355.651 336.907 355.278 336.72C354.928 336.533 354.578 336.218 354.228 335.775L325.213 297.975C325.259 298.558 325.294 299.13 325.318 299.69C325.341 300.25 325.353 300.775 325.353 301.265V337H319.403V286.845H322.903C323.206 286.845 323.463 286.868 323.673 286.915C323.883 286.938 324.069 286.997 324.233 287.09C324.396 287.16 324.559 287.277 324.723 287.44C324.886 287.58 325.061 287.767 325.248 288L354.263 325.765C354.216 325.158 354.169 324.575 354.123 324.015C354.099 323.432 354.088 322.883 354.088 322.37V286.845H360.038ZM415.7 312.885V332.135C413.18 333.955 410.485 335.32 407.615 336.23C404.768 337.117 401.641 337.56 398.235 337.56C394.198 337.56 390.558 336.942 387.315 335.705C384.071 334.445 381.295 332.695 378.985 330.455C376.698 328.192 374.936 325.485 373.7 322.335C372.463 319.185 371.845 315.72 371.845 311.94C371.845 308.113 372.44 304.625 373.63 301.475C374.843 298.325 376.558 295.63 378.775 293.39C380.991 291.127 383.686 289.377 386.86 288.14C390.033 286.903 393.58 286.285 397.5 286.285C399.483 286.285 401.326 286.437 403.03 286.74C404.733 287.02 406.308 287.44 407.755 288C409.201 288.537 410.543 289.202 411.78 289.995C413.016 290.765 414.171 291.64 415.245 292.62L413.32 295.7C413.016 296.167 412.62 296.47 412.13 296.61C411.663 296.727 411.138 296.61 410.555 296.26C409.995 295.933 409.353 295.537 408.63 295.07C407.906 294.603 407.02 294.16 405.97 293.74C404.943 293.297 403.718 292.923 402.295 292.62C400.895 292.317 399.226 292.165 397.29 292.165C394.466 292.165 391.911 292.632 389.625 293.565C387.338 294.475 385.39 295.793 383.78 297.52C382.17 299.223 380.933 301.3 380.07 303.75C379.206 306.177 378.775 308.907 378.775 311.94C378.775 315.09 379.218 317.913 380.105 320.41C381.015 322.883 382.298 324.995 383.955 326.745C385.635 328.472 387.665 329.79 390.045 330.7C392.425 331.61 395.096 332.065 398.06 332.065C400.393 332.065 402.458 331.808 404.255 331.295C406.075 330.758 407.848 330.023 409.575 329.09V318.065H401.77C401.326 318.065 400.965 317.937 400.685 317.68C400.428 317.423 400.3 317.108 400.3 316.735V312.885H415.7ZM473.858 294.685C473.648 295.035 473.414 295.303 473.158 295.49C472.924 295.653 472.633 295.735 472.283 295.735C471.886 295.735 471.419 295.537 470.883 295.14C470.346 294.743 469.669 294.312 468.853 293.845C468.059 293.355 467.091 292.912 465.948 292.515C464.828 292.118 463.463 291.92 461.853 291.92C460.336 291.92 458.994 292.13 457.828 292.55C456.684 292.947 455.716 293.495 454.923 294.195C454.153 294.895 453.569 295.723 453.173 296.68C452.776 297.613 452.578 298.628 452.578 299.725C452.578 301.125 452.916 302.292 453.593 303.225C454.293 304.135 455.203 304.917 456.323 305.57C457.466 306.223 458.749 306.795 460.173 307.285C461.619 307.752 463.089 308.242 464.583 308.755C466.099 309.268 467.569 309.852 468.993 310.505C470.439 311.135 471.723 311.94 472.843 312.92C473.986 313.9 474.896 315.102 475.573 316.525C476.273 317.948 476.623 319.698 476.623 321.775C476.623 323.968 476.249 326.033 475.503 327.97C474.756 329.883 473.659 331.552 472.213 332.975C470.789 334.398 469.028 335.518 466.928 336.335C464.851 337.152 462.483 337.56 459.823 337.56C456.556 337.56 453.593 336.977 450.933 335.81C448.273 334.62 445.998 333.022 444.108 331.015L446.068 327.795C446.254 327.538 446.476 327.328 446.733 327.165C447.013 326.978 447.316 326.885 447.643 326.885C447.946 326.885 448.284 327.013 448.658 327.27C449.054 327.503 449.498 327.807 449.988 328.18C450.478 328.553 451.038 328.962 451.668 329.405C452.298 329.848 453.009 330.257 453.803 330.63C454.619 331.003 455.541 331.318 456.568 331.575C457.594 331.808 458.749 331.925 460.033 331.925C461.643 331.925 463.078 331.703 464.338 331.26C465.598 330.817 466.659 330.198 467.523 329.405C468.409 328.588 469.086 327.62 469.553 326.5C470.019 325.38 470.253 324.132 470.253 322.755C470.253 321.238 469.903 320.002 469.203 319.045C468.526 318.065 467.628 317.248 466.508 316.595C465.388 315.942 464.104 315.393 462.658 314.95C461.211 314.483 459.741 314.017 458.248 313.55C456.754 313.06 455.284 312.5 453.838 311.87C452.391 311.24 451.108 310.423 449.988 309.42C448.868 308.417 447.958 307.168 447.258 305.675C446.581 304.158 446.243 302.292 446.243 300.075C446.243 298.302 446.581 296.587 447.258 294.93C447.958 293.273 448.961 291.803 450.268 290.52C451.598 289.237 453.219 288.21 455.133 287.44C457.069 286.67 459.286 286.285 461.783 286.285C464.583 286.285 467.126 286.728 469.413 287.615C471.723 288.502 473.753 289.785 475.503 291.465L473.858 294.685ZM534.65 311.94C534.65 315.697 534.055 319.15 532.865 322.3C531.675 325.427 529.995 328.122 527.825 330.385C525.655 332.648 523.042 334.41 519.985 335.67C516.952 336.907 513.592 337.525 509.905 337.525C506.219 337.525 502.859 336.907 499.825 335.67C496.792 334.41 494.19 332.648 492.02 330.385C489.85 328.122 488.17 325.427 486.98 322.3C485.79 319.15 485.195 315.697 485.195 311.94C485.195 308.183 485.79 304.742 486.98 301.615C488.17 298.465 489.85 295.758 492.02 293.495C494.19 291.208 496.792 289.435 499.825 288.175C502.859 286.915 506.219 286.285 509.905 286.285C513.592 286.285 516.952 286.915 519.985 288.175C523.042 289.435 525.655 291.208 527.825 293.495C529.995 295.758 531.675 298.465 532.865 301.615C534.055 304.742 534.65 308.183 534.65 311.94ZM527.685 311.94C527.685 308.86 527.265 306.095 526.425 303.645C525.585 301.195 524.395 299.13 522.855 297.45C521.315 295.747 519.449 294.44 517.255 293.53C515.062 292.62 512.612 292.165 509.905 292.165C507.222 292.165 504.784 292.62 502.59 293.53C500.397 294.44 498.519 295.747 496.955 297.45C495.415 299.13 494.225 301.195 493.385 303.645C492.545 306.095 492.125 308.86 492.125 311.94C492.125 315.02 492.545 317.785 493.385 320.235C494.225 322.662 495.415 324.727 496.955 326.43C498.519 328.11 500.397 329.405 502.59 330.315C504.784 331.202 507.222 331.645 509.905 331.645C512.612 331.645 515.062 331.202 517.255 330.315C519.449 329.405 521.315 328.11 522.855 326.43C524.395 324.727 525.585 322.662 526.425 320.235C527.265 317.785 527.685 315.02 527.685 311.94ZM592.805 311.94C592.805 315.697 592.21 319.15 591.02 322.3C589.83 325.427 588.15 328.122 585.98 330.385C583.81 332.648 581.197 334.41 578.14 335.67C575.107 336.907 571.747 337.525 568.06 337.525C564.374 337.525 561.014 336.907 557.98 335.67C554.947 334.41 552.345 332.648 550.175 330.385C548.005 328.122 546.325 325.427 545.135 322.3C543.945 319.15 543.35 315.697 543.35 311.94C543.35 308.183 543.945 304.742 545.135 301.615C546.325 298.465 548.005 295.758 550.175 293.495C552.345 291.208 554.947 289.435 557.98 288.175C561.014 286.915 564.374 286.285 568.06 286.285C571.747 286.285 575.107 286.915 578.14 288.175C581.197 289.435 583.81 291.208 585.98 293.495C588.15 295.758 589.83 298.465 591.02 301.615C592.21 304.742 592.805 308.183 592.805 311.94ZM585.84 311.94C585.84 308.86 585.42 306.095 584.58 303.645C583.74 301.195 582.55 299.13 581.01 297.45C579.47 295.747 577.604 294.44 575.41 293.53C573.217 292.62 570.767 292.165 568.06 292.165C565.377 292.165 562.939 292.62 560.745 293.53C558.552 294.44 556.674 295.747 555.11 297.45C553.57 299.13 552.38 301.195 551.54 303.645C550.7 306.095 550.28 308.86 550.28 311.94C550.28 315.02 550.7 317.785 551.54 320.235C552.38 322.662 553.57 324.727 555.11 326.43C556.674 328.11 558.552 329.405 560.745 330.315C562.939 331.202 565.377 331.645 568.06 331.645C570.767 331.645 573.217 331.202 575.41 330.315C577.604 329.405 579.47 328.11 581.01 326.43C582.55 324.727 583.74 322.662 584.58 320.235C585.42 317.785 585.84 315.02 585.84 311.94ZM645.255 286.845V337H641.86C641.323 337 640.868 336.907 640.495 336.72C640.145 336.533 639.795 336.218 639.445 335.775L610.43 297.975C610.477 298.558 610.512 299.13 610.535 299.69C610.558 300.25 610.57 300.775 610.57 301.265V337H604.62V286.845H608.12C608.423 286.845 608.68 286.868 608.89 286.915C609.1 286.938 609.287 286.997 609.45 287.09C609.613 287.16 609.777 287.277 609.94 287.44C610.103 287.58 610.278 287.767 610.465 288L639.48 325.765C639.433 325.158 639.387 324.575 639.34 324.015C639.317 323.432 639.305 322.883 639.305 322.37V286.845H645.255ZM657.657 333.15C657.657 332.543 657.762 331.972 657.972 331.435C658.205 330.898 658.509 330.432 658.882 330.035C659.279 329.638 659.745 329.323 660.282 329.09C660.819 328.857 661.39 328.74 661.997 328.74C662.604 328.74 663.175 328.857 663.712 329.09C664.249 329.323 664.715 329.638 665.112 330.035C665.509 330.432 665.824 330.898 666.057 331.435C666.29 331.972 666.407 332.543 666.407 333.15C666.407 333.78 666.29 334.363 666.057 334.9C665.824 335.413 665.509 335.868 665.112 336.265C664.715 336.662 664.249 336.965 663.712 337.175C663.175 337.408 662.604 337.525 661.997 337.525C661.39 337.525 660.819 337.408 660.282 337.175C659.745 336.965 659.279 336.662 658.882 336.265C658.509 335.868 658.205 335.413 657.972 334.9C657.762 334.363 657.657 333.78 657.657 333.15ZM676.3 333.15C676.3 332.543 676.405 331.972 676.615 331.435C676.848 330.898 677.152 330.432 677.525 330.035C677.922 329.638 678.388 329.323 678.925 329.09C679.462 328.857 680.033 328.74 680.64 328.74C681.247 328.74 681.818 328.857 682.355 329.09C682.892 329.323 683.358 329.638 683.755 330.035C684.152 330.432 684.467 330.898 684.7 331.435C684.933 331.972 685.05 332.543 685.05 333.15C685.05 333.78 684.933 334.363 684.7 334.9C684.467 335.413 684.152 335.868 683.755 336.265C683.358 336.662 682.892 336.965 682.355 337.175C681.818 337.408 681.247 337.525 680.64 337.525C680.033 337.525 679.462 337.408 678.925 337.175C678.388 336.965 677.922 336.662 677.525 336.265C677.152 335.868 676.848 335.413 676.615 334.9C676.405 334.363 676.3 333.78 676.3 333.15ZM694.943 333.15C694.943 332.543 695.048 331.972 695.258 331.435C695.491 330.898 695.794 330.432 696.168 330.035C696.564 329.638 697.031 329.323 697.568 329.09C698.104 328.857 698.676 328.74 699.283 328.74C699.889 328.74 700.461 328.857 700.998 329.09C701.534 329.323 702.001 329.638 702.398 330.035C702.794 330.432 703.109 330.898 703.343 331.435C703.576 331.972 703.693 332.543 703.693 333.15C703.693 333.78 703.576 334.363 703.343 334.9C703.109 335.413 702.794 335.868 702.398 336.265C702.001 336.662 701.534 336.965 700.998 337.175C700.461 337.408 699.889 337.525 699.283 337.525C698.676 337.525 698.104 337.408 697.568 337.175C697.031 336.965 696.564 336.662 696.168 336.265C695.794 335.868 695.491 335.413 695.258 334.9C695.048 334.363 694.943 333.78 694.943 333.15ZM713.586 333.15C713.586 332.543 713.691 331.972 713.901 331.435C714.134 330.898 714.437 330.432 714.811 330.035C715.207 329.638 715.674 329.323 716.211 329.09C716.747 328.857 717.319 328.74 717.926 328.74C718.532 328.74 719.104 328.857 719.641 329.09C720.177 329.323 720.644 329.638 721.041 330.035C721.437 330.432 721.752 330.898 721.986 331.435C722.219 331.972 722.336 332.543 722.336 333.15C722.336 333.78 722.219 334.363 721.986 334.9C721.752 335.413 721.437 335.868 721.041 336.265C720.644 336.662 720.177 336.965 719.641 337.175C719.104 337.408 718.532 337.525 717.926 337.525C717.319 337.525 716.747 337.408 716.211 337.175C715.674 336.965 715.207 336.662 714.811 336.265C714.437 335.868 714.134 335.413 713.901 334.9C713.691 334.363 713.586 333.78 713.586 333.15ZM732.229 333.15C732.229 332.543 732.334 331.972 732.544 331.435C732.777 330.898 733.08 330.432 733.454 330.035C733.85 329.638 734.317 329.323 734.854 329.09C735.39 328.857 735.962 328.74 736.569 328.74C737.175 328.74 737.747 328.857 738.284 329.09C738.82 329.323 739.287 329.638 739.684 330.035C740.08 330.432 740.395 330.898 740.629 331.435C740.862 331.972 740.979 332.543 740.979 333.15C740.979 333.78 740.862 334.363 740.629 334.9C740.395 335.413 740.08 335.868 739.684 336.265C739.287 336.662 738.82 336.965 738.284 337.175C737.747 337.408 737.175 337.525 736.569 337.525C735.962 337.525 735.39 337.408 734.854 337.175C734.317 336.965 733.85 336.662 733.454 336.265C733.08 335.868 732.777 335.413 732.544 334.9C732.334 334.363 732.229 333.78 732.229 333.15Z" fill="#E1E6CF"/>
<defs>
<linearGradient id="paint0_linear_1133_21619" x1="216" y1="-171.5" x2="691" y2="145" gradientUnits="userSpaceOnUse">
<stop stop-color="#F5DBA5"/>
<stop offset="0.895771" stop-color="#EFC36A"/>
</linearGradient>
</defs>
</svg>
