<svg width="110" height="110" viewBox="0 0 110 110" fill="none" xmlns="http://www.w3.org/2000/svg">
<path id="Subtract" fill-rule="evenodd" clip-rule="evenodd" d="M55.1003 109.124C85.2341 109.124 109.662 84.696 109.662 54.5622C109.662 24.4283 85.2341 0 55.1003 0C24.9664 0 0.538086 24.4283 0.538086 54.5622C0.538086 84.696 24.9664 109.124 55.1003 109.124ZM85.353 62.3185C85.353 60.851 84.7702 59.4436 83.7327 58.4058C82.6948 57.3683 81.2874 56.7854 79.82 56.7854C78.3525 56.7854 76.9451 57.3683 75.9072 58.4058L60.4501 73.387V20.8117C60.4501 19.3439 59.867 17.9362 58.8291 16.8984C57.7913 15.8605 56.3836 15.2774 54.9158 15.2774C53.4481 15.2774 52.0404 15.8605 51.0025 16.8984C49.9647 17.9362 49.3816 19.3439 49.3816 20.8117V73.387L33.9244 58.4058C32.8807 57.3977 31.4827 56.8399 30.0317 56.8525C28.5806 56.8651 27.1925 57.4471 26.1664 58.4732C25.1403 59.4993 24.5583 60.8874 24.5457 62.3384C24.5331 63.7895 25.0909 65.1875 26.099 66.2312L51.0031 91.1353C52.041 92.1729 53.4484 92.7557 54.9158 92.7557C56.3833 92.7557 57.7907 92.1729 58.8286 91.1353L83.7327 66.2312C84.7702 65.1934 85.353 63.786 85.353 62.3185Z" fill="#EFC36A"/>
</svg>
