<svg width="18" height="66" viewBox="0 0 36 66" fill="white" xmlns="http://www.w3.org/2000/svg">
<path d="M33.6411 36.8447L35.5068 24.9903H23.8356V17.301C23.8356 14.0571 25.463 10.8932 30.6905 10.8932H36V0.80097C36 0.80097 31.1835 0 26.5808 0C16.9645 0 10.685 5.67882 10.685 15.9553V24.9903H0V36.8447H10.685V65.3652V65.5034C12.8301 65.8319 15.0247 66 17.2603 66C17.3849 66 17.5093 65.9995 17.6336 65.9984C19.7403 65.9808 21.81 65.8136 23.8356 65.5034V36.8447H33.6411Z" fill="white"/>
<path fill-rule="evenodd" clip-rule="evenodd" d="M10.685 65.3652C12.9442 65.762 15.2655 65.9782 17.6336 65.9984C19.7403 65.9808 21.81 65.8136 23.8356 65.5034V36.8447H33.6411L35.5068 24.9903H23.8356V17.301C23.8356 14.0571 25.463 10.8932 30.6905 10.8932H36V0.80097C36 0.80097 31.1835 0 26.5808 0C16.9645 0 10.685 5.67882 10.685 15.9553V24.9903H0V36.8447H10.685V65.3652Z" fill="white"/>
</svg>
