<svg width="32" height="66" viewBox="0 0 66 66" fill="none" xmlns="http://www.w3.org/2000/svg">
<path d="M56.1 14.85C56.1 17.5838 53.8838 19.8 51.15 19.8C48.4162 19.8 46.2 17.5838 46.2 14.85C46.2 12.1162 48.4162 9.9 51.15 9.9C53.8838 9.9 56.1 12.1162 56.1 14.85Z" fill="white"/>
<path fill-rule="evenodd" clip-rule="evenodd" d="M33 49.5C42.1127 49.5 49.5 42.1127 49.5 33C49.5 23.8873 42.1127 16.5 33 16.5C23.8873 16.5 16.5 23.8873 16.5 33C16.5 42.1127 23.8873 49.5 33 49.5ZM33 42.9C38.4676 42.9 42.9 38.4676 42.9 33C42.9 27.5324 38.4676 23.1 33 23.1C27.5324 23.1 23.1 27.5324 23.1 33C23.1 38.4676 27.5324 42.9 33 42.9Z" fill="white"/>
<path fill-rule="evenodd" clip-rule="evenodd" d="M0 31.68C0 20.591 -5.90086e-07 15.0464 2.15807 10.811C4.05636 7.08538 7.08538 4.05636 10.811 2.15807C15.0464 -5.90086e-07 20.591 0 31.68 0H34.32C45.409 0 50.9536 -5.90086e-07 55.189 2.15807C58.9146 4.05636 61.9436 7.08538 63.8419 10.811C66 15.0464 66 20.591 66 31.68V34.32C66 45.409 66 50.9536 63.8419 55.189C61.9436 58.9146 58.9146 61.9436 55.189 63.8419C50.9536 66 45.409 66 34.32 66H31.68C20.591 66 15.0464 66 10.811 63.8419C7.08538 61.9436 4.05636 58.9146 2.15807 55.189C-5.90086e-07 50.9536 0 45.409 0 34.32V31.68ZM31.68 6.6H34.32C39.9734 6.6 43.8166 6.60513 46.7872 6.84784C49.6807 7.08425 51.1604 7.51276 52.1927 8.03871C54.6764 9.30424 56.6958 11.3236 57.9613 13.8073C58.4872 14.8396 58.9157 16.3193 59.1522 19.2128C59.3949 22.1834 59.4 26.0266 59.4 31.68V34.32C59.4 39.9734 59.3949 43.8166 59.1522 46.7872C58.9157 49.6807 58.4872 51.1604 57.9613 52.1927C56.6958 54.6764 54.6764 56.6958 52.1927 57.9613C51.1604 58.4872 49.6807 58.9157 46.7872 59.1522C43.8166 59.3949 39.9734 59.4 34.32 59.4H31.68C26.0266 59.4 22.1834 59.3949 19.2128 59.1522C16.3193 58.9157 14.8396 58.4872 13.8073 57.9613C11.3236 56.6958 9.30424 54.6764 8.03871 52.1927C7.51276 51.1604 7.08425 49.6807 6.84784 46.7872C6.60513 43.8166 6.6 39.9734 6.6 34.32V31.68C6.6 26.0266 6.60513 22.1834 6.84784 19.2128C7.08425 16.3193 7.51276 14.8396 8.03871 13.8073C9.30424 11.3236 11.3236 9.30424 13.8073 8.03871C14.8396 7.51276 16.3193 7.08425 19.2128 6.84784C22.1834 6.60513 26.0266 6.6 31.68 6.6Z" fill="white"/>
<path fill-rule="evenodd" clip-rule="evenodd" d="M2.15807 10.811C-5.90086e-07 15.0464 0 20.591 0 31.68V34.32C0 45.409 -5.90086e-07 50.9536 2.15807 55.189C4.05636 58.9146 7.08538 61.9436 10.811 63.8419C15.0464 66 20.591 66 31.68 66H34.32C45.409 66 50.9536 66 55.189 63.8419C58.9146 61.9436 61.9436 58.9146 63.8419 55.189C66 50.9536 66 45.409 66 34.32V31.68C66 20.591 66 15.0464 63.8419 10.811C61.9436 7.08538 58.9146 4.05636 55.189 2.15807C50.9536 -5.90086e-07 45.409 0 34.32 0H31.68C20.591 0 15.0464 -5.90086e-07 10.811 2.15807C7.08538 4.05636 4.05636 7.08538 2.15807 10.811ZM34.32 6.6H31.68C26.0266 6.6 22.1834 6.60513 19.2128 6.84784C16.3193 7.08425 14.8396 7.51276 13.8073 8.03871C11.3236 9.30424 9.30424 11.3236 8.03871 13.8073C7.51276 14.8396 7.08425 16.3193 6.84784 19.2128C6.60513 22.1834 6.6 26.0266 6.6 31.68V34.32C6.6 39.9734 6.60513 43.8166 6.84784 46.7872C7.08425 49.6807 7.51276 51.1604 8.03871 52.1927C9.30424 54.6764 11.3236 56.6958 13.8073 57.9613C14.8396 58.4872 16.3193 58.9157 19.2128 59.1522C22.1834 59.3949 26.0266 59.4 31.68 59.4H34.32C39.9734 59.4 43.8166 59.3949 46.7872 59.1522C49.6807 58.9157 51.1604 58.4872 52.1927 57.9613C54.6764 56.6958 56.6958 54.6764 57.9613 52.1927C58.4872 51.1604 58.9157 49.6807 59.1522 46.7872C59.3949 43.8166 59.4 39.9734 59.4 34.32V31.68C59.4 26.0266 59.3949 22.1834 59.1522 19.2128C58.9157 16.3193 58.4872 14.8396 57.9613 13.8073C56.6958 11.3236 54.6764 9.30424 52.1927 8.03871C51.1604 7.51276 49.6807 7.08425 46.7872 6.84784C43.8166 6.60513 39.9734 6.6 34.32 6.6ZM56.1 14.85C56.1 17.5838 53.8838 19.8 51.15 19.8C48.4162 19.8 46.2 17.5838 46.2 14.85C46.2 12.1162 48.4162 9.9 51.15 9.9C53.8838 9.9 56.1 12.1162 56.1 14.85ZM33 49.5C42.1127 49.5 49.5 42.1127 49.5 33C49.5 23.8873 42.1127 16.5 33 16.5C23.8873 16.5 16.5 23.8873 16.5 33C16.5 42.1127 23.8873 49.5 33 49.5ZM33 42.9C38.4676 42.9 42.9 38.4676 42.9 33C42.9 27.5324 38.4676 23.1 33 23.1C27.5324 23.1 23.1 27.5324 23.1 33C23.1 38.4676 27.5324 42.9 33 42.9Z" fill="white"/>
</svg>
