<svg width="93" height="93" viewBox="0 0 93 93" fill="none" xmlns="http://www.w3.org/2000/svg">
<g clip-path="url(#clip0_2051_78)">
<path d="M43.0667 0.0605788C39.7345 0.383706 37.7351 0.706833 35.2915 1.3127C17.4892 5.69511 3.78661 20.357 0.66641 38.3713C0.201915 41.0371 0.0807419 42.3397 0.0302533 45.5104C-0.0707239 51.458 0.585628 55.8808 2.37292 61.2427C5.37195 70.2397 11.0974 78.1261 18.7817 83.8313C30.9697 92.8788 46.8938 95.3831 61.3537 90.5261C77.1465 85.2147 89.0316 71.5827 92.1316 55.2345C94.3935 43.3091 91.97 31.0404 85.356 20.9629C80.7918 14.0055 74.4303 8.3811 66.9983 4.73582C62.1716 2.37296 57.3752 0.959276 51.8013 0.242338C50.5996 0.090872 44.1371 -0.0403984 43.0667 0.0605788ZM48.4387 2.12051C57.2338 2.54462 65.312 5.35179 72.3905 10.4309C75.9853 13.016 79.7114 16.7218 82.3065 20.2964C90.8088 32.0098 93.111 46.8332 88.557 60.5055C86.6788 66.1502 83.8716 71.0476 79.8628 75.6824C78.8026 76.9042 76.3185 79.3479 75.0765 80.3879C61.5153 91.758 42.683 94.0704 26.9003 86.2951C22.3664 84.0635 18.7211 81.4482 15.086 77.813C13.2785 75.9954 12.4 74.9958 11.0065 73.158C3.65533 63.4743 0.605823 50.8218 2.73644 38.7752C5.76576 21.5889 18.5899 7.76514 35.5035 3.44331C38.9368 2.57491 41.34 2.25178 46.0961 2.03973C46.2677 2.02963 47.3179 2.07003 48.4387 2.12051Z" fill="#ECECEC"/>
<path d="M45.9143 19.4482C44.4501 19.7612 42.683 20.5387 41.2693 21.4778C40.8755 21.7504 40.098 22.3967 39.5527 22.9117C37.1495 25.214 35.8873 28.2029 35.6853 32.0299C35.6146 33.3224 35.7762 35.5136 35.9579 35.6853C36.0185 35.7459 36.0488 35.7358 36.0488 35.655C36.0488 35.5843 36.3215 34.9482 36.6547 34.2514C38.8762 29.6267 42.2488 26.8296 46.8332 25.84C48.9234 25.3957 52.3465 25.4866 54.5176 26.042L55.2547 26.2439L55.2042 25.8703C55.1335 25.325 54.5882 24.0123 54.043 23.0833C53.74 22.5583 53.2452 21.9423 52.6495 21.3465C51.8518 20.5488 51.5892 20.3469 50.7814 19.9631C50.2563 19.7107 49.5899 19.4583 49.297 19.3977C48.5498 19.2462 46.7423 19.2765 45.9143 19.4482Z" fill="#ECECEC"/>
<path d="M52.6091 19.6501C52.6091 19.6804 52.9322 20.0641 53.326 20.4882C54.3257 21.5485 54.9618 22.4775 55.598 23.7801C56.3553 25.3452 56.5876 26.355 56.5876 28.0716C56.5876 29.2329 56.5472 29.5863 56.3149 30.4446C55.7696 32.454 54.4367 34.6452 52.6999 36.4022C52.2657 36.8465 51.9022 37.2706 51.9022 37.3312C51.9022 37.5938 53.013 37.8159 54.2247 37.8058C55.2042 37.7957 55.5273 37.7553 56.2442 37.513C57.9508 36.9576 59.4351 35.9781 60.9296 34.4231C62.424 32.868 62.8885 31.7371 62.7775 29.8892C62.7169 28.7886 62.4644 27.9504 61.8889 26.8801C60.3439 23.982 56.6885 20.9224 53.4775 19.8319C52.7403 19.5794 52.6091 19.5491 52.6091 19.6501Z" fill="#ECECEC"/>
<path d="M34.3423 28.213C32.0198 33.2215 30.7374 37.5938 30.283 42.057C30.1214 43.6625 30.1517 46.8736 30.3335 48.4489C31.0908 54.9013 33.8778 60.6267 38.7348 65.726C41.5218 68.6544 45.5003 71.6635 48.7315 73.2892L49.5495 73.7032L49.7211 73.1277C50.0947 71.9462 51.0338 69.6743 51.7609 68.2505C52.9625 65.8674 54.3863 63.7065 55.9615 61.8586C56.2947 61.4749 56.527 61.1316 56.4765 61.0912C56.4361 61.0609 55.7192 60.8085 54.8811 60.5459C49.6908 58.8899 45.47 56.4462 42.2084 53.215C40.2192 51.2459 38.8257 49.3374 37.5837 46.8736C36.0488 43.8443 35.14 40.6736 34.7159 36.9072C34.5644 35.4834 34.5644 31.6866 34.726 30.2023C34.8573 28.9804 35.1804 26.9205 35.3016 26.6277C35.3319 26.5368 35.3218 26.456 35.2612 26.456C35.2107 26.456 34.7967 27.2436 34.3423 28.213Z" fill="#ECECEC"/>
<path d="M49.8827 30.6668C49.2465 32.3632 49.3778 34.0293 50.2866 35.7258C50.4482 36.0388 50.7006 36.4326 50.8319 36.6043L51.0742 36.8971L51.4378 36.6144C52.1042 36.1095 53.114 34.9785 53.114 34.7362C53.114 34.7059 52.9524 34.5948 52.7606 34.5039C52.1042 34.1909 51.0843 32.5147 50.4785 30.7678C50.3472 30.3942 50.2058 30.0912 50.1654 30.0912C50.1351 30.0912 50.0039 30.3538 49.8827 30.6668Z" fill="#ECECEC"/>
</g>
<defs>
<clipPath id="clip0_2051_78">
<rect width="93" height="93" fill="white"/>
</clipPath>
</defs>
</svg>
