<svg width="854" height="207" viewBox="0 0 854 207" fill="none" xmlns="http://www.w3.org/2000/svg">
<mask id="mask0_502_27" style="mask-type:alpha" maskUnits="userSpaceOnUse" x="0" y="0" width="854" height="207">
<path d="M247.402 155.459C219.507 149.029 207.89 157.154 203.34 162.94C203.34 162.94 203.34 162.947 203.317 162.969C203.288 163.006 203.236 163.08 203.155 163.184C202.748 163.754 201.727 165.278 200.75 167.438C200.52 167.956 200.291 168.497 200.076 169.074C200.076 169.081 200.069 169.081 200.069 169.088C192.285 183.051 182.733 186.307 172.196 186.307C154.068 186.307 141.985 176.739 127.127 148.289L106.239 108.245C102.207 100.712 94.6596 96.6795 86.0986 94.6522C109.761 91.6481 124.626 72.4988 124.626 51.3518C124.626 22.147 96.169 1 60.4159 1C24.6628 1 1 23.6565 1 53.3644C1 73.5347 11.5883 87.8153 28.4068 92.351C17.3449 86.8386 -0.709224 68.7474 9.21315 38.0184C10.2934 34.6443 11.6253 31.6106 13.1495 28.8729C13.1643 28.8581 13.1643 28.8433 13.1939 28.8285C25.9354 11.0852 39.3946 8.06627 60.6009 7.98488C81.8219 7.89609 92.3214 11.7733 101.171 25.6099C101.171 25.6247 101.186 25.6543 101.2 25.6691C105.396 33.3939 107.505 42.5171 107.505 52.1139C107.505 53.4606 107.46 54.7999 107.379 56.1243C106.143 76.0357 95.725 92.6544 77.7967 92.6544H75.5103C71.9809 91.5593 67.9853 87.9854 67.9853 77.3971V92.7135C67.9853 92.7135 68.0001 92.7284 68.0001 92.7579C68.0001 92.7801 67.9853 92.7949 67.9853 92.8245V105.61C67.9853 105.61 68.5772 99.4617 72.7948 95.7102C80.8156 96.8201 84.1156 100.068 88.6144 108.511L116.31 161.378C129.658 186.81 145.515 196.621 164.901 196.621C181.586 196.621 193.277 189.163 199.633 173.876C199.633 173.876 199.633 173.868 199.633 173.854C199.67 173.743 199.869 173.151 200.247 172.322C201.194 170.243 203.229 166.684 206.521 165.448C206.558 165.433 206.603 165.418 206.64 165.404C206.817 165.337 206.98 165.278 207.135 165.219C220.099 160.38 224.775 160.75 233.676 160.498C243.917 160.202 272.574 166.632 286.292 167.801C299.604 168.933 312.471 159.61 313.218 159.055C293.492 169.932 288.179 164.871 247.395 155.459H247.402ZM95.5179 91.4483C95.5179 91.4483 94.4672 91.7221 92.9873 91.6777C93.7642 91.5223 94.6226 91.4483 95.5179 91.4483Z" fill="white" stroke="white" stroke-miterlimit="10"/>
<path d="M200.75 167.438C201.001 166.743 201.682 165.108 203.155 163.184C202.748 163.754 201.726 165.278 200.75 167.438Z" fill="white" stroke="white" stroke-miterlimit="10"/>
<path d="M203.317 162.969C203.288 163.006 203.236 163.08 203.155 163.184C203.199 163.117 203.258 163.043 203.317 162.969Z" fill="white" stroke="white" stroke-miterlimit="10"/>
<path d="M83.25 91.3748C83.25 91.3748 83.2351 91.4046 83.2351 91.4344V91.3152C83.2351 91.3152 83.25 91.345 83.25 91.3748Z" fill="white" stroke="white" stroke-miterlimit="10"/>
<path d="M95.5177 91.4482C95.5177 91.4482 94.467 91.722 92.9872 91.6776C93.7641 91.5222 94.6224 91.4482 95.5177 91.4482Z" fill="white" stroke="white" stroke-miterlimit="10"/>
<path d="M418.539 195.652C419.708 195.652 420.381 195.385 420.566 194.853C420.751 194.32 420.64 193.513 420.256 192.418L417.962 185.914H410.096L407.84 192.263C407.425 193.402 407.3 194.253 407.47 194.816C407.64 195.371 408.321 195.652 409.512 195.652V196.429H402.194V195.652C402.897 195.652 403.482 195.57 403.962 195.415C404.443 195.26 404.85 195.023 405.191 194.712C405.531 194.401 405.82 194.002 406.064 193.506C406.308 193.01 406.552 192.44 406.782 191.789L414.839 169.177H416.045L424.103 191.789C424.34 192.44 424.577 193.01 424.821 193.506C425.065 194.002 425.361 194.401 425.694 194.712C426.034 195.023 426.441 195.26 426.922 195.415C427.403 195.57 428.003 195.652 428.735 195.652V196.429H418.539V195.652ZM417.525 184.753L414.025 174.904L410.526 184.753H417.533H417.525Z" fill="white" stroke="white" stroke-miterlimit="10"/>
<path d="M456.8 196.821C454.647 196.821 452.672 196.466 450.866 195.748C449.061 195.038 447.507 194.054 446.197 192.811C444.888 191.567 443.867 190.088 443.141 188.371C442.416 186.654 442.054 184.805 442.054 182.807C442.054 180.809 442.416 178.944 443.141 177.22C443.867 175.496 444.873 174.002 446.16 172.744C447.448 171.486 448.965 170.502 450.718 169.784C452.472 169.074 454.359 168.711 456.379 168.711C457.932 168.711 459.435 168.911 460.877 169.318C462.32 169.717 463.556 170.287 464.592 171.012L465.021 175.252H464.244C463.955 173.41 463.186 171.989 461.928 170.99C460.67 169.991 459.028 169.488 457.008 169.488C455.372 169.488 453.885 169.814 452.553 170.457C451.214 171.109 450.074 172.019 449.127 173.203C448.18 174.386 447.463 175.792 446.967 177.427C446.471 179.063 446.264 180.853 446.345 182.799C446.427 184.745 446.76 186.529 447.359 188.149C447.958 189.769 448.757 191.168 449.771 192.337C450.785 193.506 451.969 194.416 453.33 195.06C454.692 195.711 456.194 196.029 457.829 196.029C459.723 196.029 461.196 195.563 462.246 194.631C463.297 193.698 463.963 192.241 464.251 190.273H465.028L464.599 194.512C463.511 195.267 462.328 195.837 461.055 196.229C459.782 196.621 458.369 196.813 456.815 196.813L456.8 196.821Z" fill="white" stroke="white" stroke-miterlimit="10"/>
<path d="M467.781 186.699C467.781 185.167 468.003 183.783 468.439 182.555C468.883 181.319 469.497 180.261 470.289 179.366C471.081 178.471 472.043 177.783 473.167 177.302C474.3 176.821 475.535 176.584 476.882 176.584C478.229 176.584 479.501 176.821 480.618 177.302C481.736 177.783 482.69 178.471 483.482 179.366C484.274 180.261 484.888 181.327 485.332 182.555C485.776 183.791 485.99 185.167 485.99 186.699C485.99 188.23 485.768 189.577 485.332 190.828C484.888 192.071 484.274 193.143 483.482 194.039C482.69 194.934 481.736 195.622 480.618 196.103C479.501 196.584 478.258 196.821 476.882 196.821C475.506 196.821 474.292 196.577 473.167 196.103C472.035 195.622 471.081 194.934 470.289 194.039C469.497 193.143 468.883 192.071 468.439 190.828C467.995 189.584 467.781 188.208 467.781 186.699ZM471.673 186.699C471.776 188.097 471.998 189.37 472.331 190.517C472.664 191.664 473.101 192.64 473.634 193.454C474.166 194.268 474.766 194.904 475.446 195.363C476.12 195.815 476.845 196.044 477.629 196.044C478.413 196.044 479.102 195.815 479.708 195.363C480.315 194.912 480.818 194.276 481.21 193.454C481.603 192.64 481.869 191.656 482.024 190.517C482.18 189.377 482.209 188.105 482.106 186.699C482.002 185.3 481.78 184.02 481.447 182.866C481.107 181.712 480.678 180.728 480.145 179.906C479.612 179.085 479.013 178.456 478.332 178.019C477.659 177.575 476.934 177.361 476.149 177.361C475.365 177.361 474.677 177.583 474.07 178.019C473.456 178.463 472.96 179.092 472.568 179.906C472.176 180.72 471.91 181.712 471.754 182.866C471.599 184.02 471.569 185.3 471.673 186.699Z" fill="white" stroke="white" stroke-miterlimit="10"/>
<path d="M500.944 195.652C501.721 195.652 502.32 195.556 502.735 195.363C503.149 195.171 503.452 194.86 503.652 194.446C503.845 194.031 503.956 193.514 503.985 192.892C504.015 192.27 504.022 191.531 504.022 190.672V183.939C504.022 182.666 503.97 181.608 503.867 180.765C503.763 179.921 503.593 179.248 503.364 178.737C503.127 178.234 502.809 177.872 502.409 177.664C502.01 177.457 501.506 177.354 500.907 177.354C500.648 177.354 500.404 177.383 500.167 177.435C499.93 177.487 499.642 177.583 499.294 177.724C498.946 177.864 498.524 178.071 498.029 178.33C497.533 178.589 496.897 178.937 496.12 179.381L494.758 180.158V190.665C494.758 191.523 494.773 192.263 494.795 192.885C494.817 193.506 494.928 194.024 495.128 194.438C495.321 194.853 495.624 195.156 496.046 195.356C496.46 195.548 497.059 195.644 497.836 195.644V196.421H488.18V195.644C488.957 195.644 489.557 195.548 489.971 195.356C490.385 195.164 490.689 194.853 490.888 194.438C491.081 194.024 491.192 193.506 491.221 192.885C491.244 192.263 491.258 191.523 491.258 190.665V182.215C491.258 181.616 491.236 181.149 491.199 180.816C491.162 180.476 491.044 180.217 490.851 180.04C490.659 179.862 490.348 179.744 489.934 179.692C489.52 179.64 488.92 179.61 488.143 179.61V178.833C490.119 178.833 492.072 178.212 494.018 176.969H494.758V179.263L496.393 178.33C497.015 177.99 497.563 177.716 498.029 177.494C498.495 177.272 498.939 177.095 499.353 176.947C499.768 176.806 500.167 176.71 500.559 176.658C500.951 176.606 501.351 176.577 501.765 176.577C505.606 176.577 507.529 178.434 507.529 182.141V190.665C507.529 191.523 507.544 192.263 507.566 192.885C507.589 193.506 507.7 194.024 507.899 194.438C508.092 194.853 508.395 195.156 508.817 195.356C509.231 195.548 509.83 195.644 510.607 195.644V196.421H500.951V195.644L500.944 195.652Z" fill="white" stroke="white" stroke-miterlimit="10"/>
<path d="M523.016 193.861C521.64 195.837 520.086 196.821 518.347 196.821C516.32 196.821 515.314 195.341 515.314 192.381V177.746H512.591V176.969C514.33 176.969 515.669 176.495 516.616 175.548C517.563 174.601 518.037 173.388 518.037 171.908H518.814V176.969H522.476V177.746H518.814V192.692C518.814 193.861 519.154 194.549 519.827 194.757C520.19 194.89 520.604 194.823 521.07 194.564C521.537 194.305 522.003 193.913 522.469 193.395L523.016 193.861Z" fill="white" stroke="white" stroke-miterlimit="10"/>
<path d="M528.736 185.219C528.662 186.802 528.765 188.253 529.069 189.577C529.365 190.901 529.816 192.034 530.415 192.981C531.015 193.928 531.747 194.668 532.613 195.2C533.479 195.733 534.448 196 535.513 196C536.32 196 537.208 195.859 538.177 195.57C539.146 195.282 540.049 194.897 540.885 194.401L541.78 193.854L542.21 194.631L540.922 195.334C539.938 195.852 538.924 196.229 537.888 196.466C536.853 196.703 535.824 196.813 534.81 196.813C533.279 196.813 531.895 196.577 530.667 196.111C529.431 195.644 528.38 194.971 527.515 194.083C526.649 193.195 525.976 192.13 525.51 190.872C525.043 189.614 524.807 188.208 524.807 186.647C524.807 185.086 525.029 183.724 525.465 182.481C525.909 181.238 526.531 180.173 527.337 179.292C528.144 178.412 529.098 177.738 530.201 177.265C531.303 176.799 532.517 176.562 533.841 176.562C534.907 176.562 535.898 176.71 536.816 177.013C537.733 177.316 538.577 177.731 539.324 178.278C540.079 178.826 540.715 179.484 541.248 180.261C541.781 181.038 542.173 181.919 542.432 182.91C542.639 183.635 542.557 184.205 542.195 184.605C541.832 185.004 541.233 185.211 540.404 185.211H528.728L528.736 185.219ZM538.31 181.09C537.274 178.597 535.78 177.353 533.834 177.353C532.354 177.353 531.163 177.997 530.253 179.277C529.342 180.557 528.839 182.281 528.736 184.435H535.824C537.067 184.435 537.903 184.139 538.332 183.539C538.762 182.94 538.754 182.126 538.31 181.09Z" fill="white" stroke="white" stroke-miterlimit="10"/>
<path d="M557.504 195.652C558.281 195.652 558.881 195.556 559.295 195.363C559.709 195.171 560.013 194.86 560.212 194.446C560.405 194.031 560.516 193.514 560.545 192.892C560.575 192.27 560.582 191.531 560.582 190.672V183.939C560.582 182.666 560.538 181.608 560.449 180.765C560.36 179.921 560.198 179.248 559.961 178.737C559.724 178.234 559.421 177.872 559.043 177.664C558.666 177.457 558.192 177.354 557.623 177.354C557.334 177.354 557.06 177.383 556.787 177.435C556.513 177.487 556.202 177.583 555.854 177.724C555.507 177.864 555.085 178.071 554.589 178.33C554.093 178.589 553.457 178.937 552.68 179.381L551.319 180.158V190.665C551.319 191.523 551.333 192.263 551.356 192.885C551.378 193.506 551.489 194.024 551.688 194.438C551.881 194.853 552.184 195.156 552.606 195.356C553.02 195.548 553.62 195.644 554.397 195.644V196.421H544.741V195.644C545.518 195.644 546.117 195.548 546.531 195.356C546.946 195.164 547.249 194.853 547.449 194.438C547.641 194.024 547.752 193.506 547.782 192.885C547.804 192.263 547.819 191.523 547.819 190.665V182.215C547.819 181.616 547.796 181.149 547.76 180.816C547.723 180.476 547.604 180.217 547.412 180.04C547.219 179.862 546.909 179.744 546.494 179.692C546.08 179.64 545.481 179.61 544.704 179.61V178.833C546.679 178.833 548.633 178.212 550.579 176.969H551.319V179.263L552.954 178.33C553.575 177.968 554.123 177.679 554.589 177.457C555.055 177.235 555.499 177.065 555.913 176.932C556.328 176.806 556.727 176.71 557.12 176.658C557.512 176.606 557.911 176.577 558.326 176.577C559.724 176.577 560.864 176.821 561.729 177.317C562.595 177.812 563.231 178.537 563.616 179.499L565.68 178.33C566.302 177.968 566.85 177.679 567.316 177.457C567.782 177.235 568.226 177.065 568.64 176.932C569.054 176.806 569.461 176.71 569.846 176.658C570.238 176.606 570.638 176.577 571.052 176.577C572.998 176.577 574.441 177.058 575.396 178.02C576.343 178.981 576.816 180.358 576.816 182.148V190.672C576.816 191.531 576.831 192.27 576.853 192.892C576.876 193.514 576.987 194.031 577.186 194.446C577.379 194.86 577.682 195.164 578.104 195.363C578.518 195.556 579.117 195.652 579.894 195.652V196.429H570.238V195.652C571.015 195.652 571.615 195.556 572.029 195.363C572.443 195.171 572.747 194.86 572.946 194.446C573.146 194.031 573.25 193.514 573.279 192.892C573.302 192.27 573.316 191.531 573.316 190.672V183.939C573.316 182.666 573.272 181.608 573.183 180.765C573.094 179.921 572.932 179.248 572.695 178.737C572.458 178.234 572.155 177.872 571.777 177.664C571.4 177.457 570.926 177.354 570.357 177.354C570.068 177.354 569.794 177.383 569.521 177.435C569.247 177.487 568.936 177.583 568.588 177.724C568.241 177.864 567.819 178.071 567.323 178.33C566.827 178.589 566.191 178.937 565.414 179.381L563.897 180.239C563.979 180.528 564.023 180.824 564.053 181.135C564.075 181.445 564.09 181.786 564.09 182.148V190.672C564.09 191.531 564.104 192.27 564.127 192.892C564.149 193.514 564.26 194.031 564.46 194.446C564.652 194.86 564.955 195.164 565.377 195.363C565.791 195.556 566.391 195.652 567.168 195.652V196.429H557.512V195.652H557.504Z" fill="white" stroke="white" stroke-miterlimit="10"/>
<path d="M593.509 176.577C594.781 176.577 595.958 176.828 597.031 177.339C598.111 177.842 599.043 178.552 599.835 179.462C600.627 180.372 601.248 181.445 601.707 182.696C602.158 183.939 602.388 185.3 602.388 186.78C602.388 188.26 602.158 189.607 601.707 190.828C601.256 192.048 600.612 193.107 599.783 194.002C598.954 194.897 597.963 195.593 596.823 196.081C595.684 196.577 594.411 196.821 593.005 196.821C591.008 196.821 589.498 196.266 588.492 195.149V200.402C588.492 201.261 588.507 202 588.529 202.622C588.551 203.244 588.662 203.761 588.862 204.176C589.054 204.59 589.365 204.894 589.779 205.093C590.194 205.286 590.793 205.382 591.57 205.382V206.159H581.914V205.382C582.691 205.382 583.29 205.286 583.705 205.093C584.119 204.901 584.422 204.59 584.622 204.176C584.814 203.761 584.925 203.244 584.955 202.622C584.985 202 584.992 201.261 584.992 200.402V182.222C584.992 181.623 584.97 181.157 584.933 180.824C584.896 180.483 584.777 180.224 584.585 180.047C584.393 179.869 584.082 179.751 583.668 179.699C583.253 179.647 582.654 179.618 581.877 179.618V178.841C583.853 178.841 585.806 178.219 587.752 176.976H588.492V178.182C589.476 177.613 590.356 177.206 591.119 176.954C591.881 176.71 592.68 176.584 593.516 176.584L593.509 176.577ZM588.484 193.395C588.766 194.253 589.247 194.905 589.927 195.363C590.601 195.815 591.429 196.044 592.421 196.044C593.412 196.044 594.337 195.807 595.144 195.341C595.95 194.875 596.616 194.209 597.149 193.358C597.682 192.5 598.066 191.479 598.296 190.28C598.533 189.089 598.584 187.75 598.451 186.27C598.348 184.997 598.126 183.821 597.793 182.725C597.452 181.638 597.031 180.698 596.527 179.906C596.024 179.115 595.44 178.5 594.774 178.057C594.115 177.613 593.405 177.398 592.65 177.398C592.154 177.398 591.622 177.524 591.037 177.768C590.453 178.012 589.602 178.478 588.484 179.152V193.395Z" fill="white" stroke="white" stroke-miterlimit="10"/>
<path d="M605.148 186.699C605.148 185.167 605.37 183.783 605.806 182.555C606.25 181.319 606.864 180.261 607.656 179.366C608.448 178.471 609.41 177.783 610.534 177.302C611.666 176.821 612.902 176.584 614.249 176.584C615.595 176.584 616.868 176.821 617.985 177.302C619.103 177.783 620.057 178.471 620.849 179.366C621.641 180.261 622.255 181.327 622.699 182.555C623.143 183.791 623.357 185.167 623.357 186.699C623.357 188.23 623.135 189.577 622.699 190.828C622.255 192.071 621.641 193.143 620.849 194.039C620.057 194.934 619.103 195.622 617.985 196.103C616.868 196.584 615.625 196.821 614.249 196.821C612.873 196.821 611.659 196.577 610.534 196.103C609.402 195.622 608.448 194.934 607.656 194.039C606.864 193.143 606.25 192.071 605.806 190.828C605.362 189.584 605.148 188.208 605.148 186.699ZM609.04 186.699C609.143 188.097 609.365 189.37 609.698 190.517C610.031 191.664 610.468 192.64 611 193.454C611.533 194.268 612.133 194.904 612.813 195.363C613.487 195.815 614.212 196.044 614.996 196.044C615.78 196.044 616.469 195.815 617.075 195.363C617.682 194.912 618.185 194.276 618.577 193.454C618.97 192.64 619.236 191.656 619.391 190.517C619.547 189.377 619.576 188.105 619.473 186.699C619.369 185.3 619.147 184.02 618.814 182.866C618.474 181.712 618.045 180.728 617.512 179.906C616.979 179.085 616.38 178.456 615.699 178.019C615.026 177.575 614.301 177.361 613.516 177.361C612.732 177.361 612.044 177.583 611.437 178.019C610.823 178.463 610.327 179.092 609.935 179.906C609.543 180.72 609.276 181.712 609.121 182.866C608.966 184.02 608.936 185.3 609.04 186.699Z" fill="white" stroke="white" stroke-miterlimit="10"/>
<path d="M625.547 195.652C626.324 195.652 626.924 195.556 627.338 195.363C627.752 195.171 628.056 194.86 628.256 194.446C628.448 194.031 628.559 193.513 628.589 192.892C628.611 192.27 628.626 191.53 628.626 190.672V182.222C628.626 181.623 628.603 181.157 628.566 180.824C628.529 180.483 628.411 180.224 628.219 180.047C628.026 179.869 627.715 179.751 627.301 179.699C626.887 179.647 626.287 179.618 625.51 179.618V178.841C627.486 178.841 629.439 178.219 631.385 176.976H632.125V178.611L632.747 178.064C633.265 177.598 633.812 177.235 634.382 176.976C634.952 176.717 635.566 176.584 636.21 176.584C636.728 176.584 637.238 176.665 637.749 176.836C638.252 177.006 638.726 177.228 639.147 177.494C639.576 177.768 639.932 178.093 640.22 178.471C640.509 178.848 640.686 179.233 640.768 179.618C640.871 180.136 640.797 180.624 640.553 181.075C640.309 181.527 639.924 181.786 639.406 181.837C639.221 181.867 639.007 181.837 638.763 181.778C638.518 181.712 638.274 181.586 638.045 181.386C637.815 181.186 637.616 180.913 637.46 180.55C637.305 180.187 637.201 179.736 637.149 179.189C637.068 177.968 636.654 177.361 635.906 177.361C635.544 177.361 635.115 177.487 634.619 177.731C634.123 177.975 633.657 178.308 633.22 178.722L632.133 179.699V190.672C632.133 191.53 632.148 192.27 632.17 192.892C632.192 193.513 632.303 194.031 632.503 194.446C632.695 194.86 632.999 195.163 633.42 195.363C633.835 195.556 634.434 195.652 635.211 195.652V196.429H625.555V195.652H625.547Z" fill="white" stroke="white" stroke-miterlimit="10"/>
<path d="M641.774 193.24C641.774 192.618 641.937 192.056 642.262 191.545C642.588 191.042 643.128 190.546 643.875 190.065C644.63 189.584 645.614 189.089 646.835 188.586C648.056 188.082 649.558 187.513 651.349 186.891L653.798 186.033V183.813C653.798 181.763 653.45 180.173 652.769 179.048C652.081 177.916 651.141 177.354 649.95 177.354C649.144 177.354 648.463 177.598 647.908 178.093C647.353 178.589 646.99 179.248 646.835 180.076C646.702 180.728 646.465 181.245 646.117 181.63C645.77 182.015 645.333 182.215 644.815 182.215C644.475 182.215 644.193 182.133 643.957 181.963C643.72 181.793 643.542 181.571 643.409 181.305C643.276 181.038 643.224 180.72 643.232 180.372C643.246 180.025 643.328 179.677 643.483 179.344C643.898 178.537 644.682 177.879 645.836 177.361C646.99 176.843 648.285 176.584 649.706 176.584C650.845 176.584 651.881 176.762 652.799 177.109C653.716 177.457 654.515 177.96 655.196 178.611C655.869 179.263 656.387 180.039 656.75 180.95C657.113 181.86 657.298 182.873 657.298 183.983V192.315C657.298 193.402 657.52 194.105 657.956 194.416C658.348 194.727 658.903 194.653 659.628 194.179L660.057 194.801L657.49 196.436C657.076 196.695 656.646 196.828 656.202 196.843C655.758 196.858 655.366 196.762 655.019 196.569C654.671 196.377 654.375 196.096 654.145 195.733C653.909 195.371 653.798 194.941 653.798 194.446V193.743L651.852 195.141C651.023 195.741 650.209 196.17 649.417 196.429C648.626 196.688 647.79 196.821 646.909 196.821C645.377 196.821 644.142 196.488 643.195 195.829C642.247 195.171 641.774 194.305 641.774 193.24ZM653.805 186.891L651.585 187.668C650.468 188.06 649.528 188.438 648.766 188.815C648.004 189.192 647.39 189.584 646.939 189.999C646.487 190.413 646.162 190.872 645.962 191.36C645.769 191.856 645.673 192.411 645.673 193.032C645.673 195.008 646.45 195.992 648.011 195.992C648.611 195.992 649.247 195.792 649.935 195.385C650.623 194.986 651.423 194.461 652.333 193.809L653.813 192.759V186.884L653.805 186.891Z" fill="white" stroke="white" stroke-miterlimit="10"/>
<path d="M661.471 195.652C662.248 195.652 662.847 195.556 663.261 195.363C663.676 195.171 663.979 194.86 664.179 194.446C664.371 194.031 664.482 193.513 664.512 192.892C664.534 192.27 664.549 191.53 664.549 190.672V182.222C664.549 181.623 664.526 181.157 664.489 180.824C664.452 180.483 664.334 180.224 664.142 180.047C663.949 179.869 663.639 179.751 663.224 179.699C662.81 179.647 662.211 179.618 661.434 179.618V178.841C663.409 178.841 665.363 178.219 667.309 176.976H668.049V178.611L668.67 178.064C669.188 177.598 669.736 177.235 670.305 176.976C670.875 176.717 671.489 176.584 672.133 176.584C672.651 176.584 673.161 176.665 673.672 176.836C674.175 177.006 674.649 177.228 675.07 177.494C675.5 177.768 675.855 178.093 676.143 178.471C676.432 178.848 676.609 179.233 676.691 179.618C676.794 180.136 676.72 180.624 676.476 181.075C676.232 181.527 675.847 181.786 675.329 181.837C675.144 181.867 674.93 181.837 674.686 181.778C674.441 181.712 674.197 181.586 673.968 181.386C673.739 181.186 673.539 180.913 673.383 180.55C673.228 180.187 673.124 179.736 673.073 179.189C672.991 177.968 672.577 177.361 671.83 177.361C671.467 177.361 671.038 177.487 670.542 177.731C670.046 177.975 669.58 178.308 669.144 178.722L668.056 179.699V190.672C668.056 191.53 668.071 192.27 668.093 192.892C668.115 193.513 668.226 194.031 668.426 194.446C668.618 194.86 668.922 195.163 669.343 195.363C669.758 195.556 670.357 195.652 671.134 195.652V196.429H661.478V195.652H661.471Z" fill="white" stroke="white" stroke-miterlimit="10"/>
<path d="M683.661 205.345C683.195 205.5 682.684 205.582 682.144 205.596C681.597 205.611 681.071 205.559 680.568 205.441C680.065 205.323 679.591 205.153 679.17 204.916C678.741 204.679 678.408 204.413 678.178 204.102C677.838 203.606 677.69 203.11 677.734 202.6C677.771 202.097 677.986 201.734 678.378 201.527C678.896 201.238 679.458 201.253 680.072 201.564C680.679 201.875 681.205 202.422 681.648 203.199C682.011 203.798 682.359 204.176 682.699 204.346C683.04 204.516 683.424 204.494 683.868 204.287C684.26 204.102 684.593 203.798 684.882 203.369C685.171 202.94 685.518 202.193 685.933 201.127L687.76 196.377L682.544 182.718C682.152 181.704 681.804 180.883 681.493 180.247C681.182 179.61 680.849 179.107 680.502 178.73C680.154 178.352 679.769 178.094 679.355 177.953C678.94 177.812 678.459 177.738 677.912 177.738V176.961H687.368V177.738C686.28 177.738 685.644 178.005 685.459 178.537C685.274 179.07 685.474 180.099 686.044 181.63L689.706 191.242L693.48 181.357C693.998 179.98 694.153 179.033 693.946 178.515C693.739 177.997 693.065 177.738 691.919 177.738V176.961H698.733V177.738C697.594 177.738 696.713 177.968 696.107 178.419C695.492 178.87 694.967 179.67 694.531 180.816L686.591 201.682C686.177 202.822 685.748 203.665 685.304 204.213C684.86 204.76 684.32 205.13 683.668 205.345H683.661Z" fill="white" stroke="white" stroke-miterlimit="10"/>
<path d="M711.645 195.652C712.422 195.652 713.021 195.556 713.435 195.363C713.85 195.171 714.153 194.86 714.353 194.446C714.545 194.031 714.656 193.513 714.686 192.892C714.708 192.27 714.723 191.53 714.723 190.672V174.949C714.723 174.09 714.708 173.351 714.686 172.729C714.656 172.107 714.553 171.589 714.353 171.175C714.161 170.761 713.85 170.457 713.435 170.258C713.021 170.065 712.422 169.969 711.645 169.969V169.192H729.98L730.757 173.432H729.98C729.847 172.729 729.647 172.159 729.373 171.723C729.1 171.279 728.745 170.931 728.301 170.672C727.857 170.413 727.309 170.228 726.643 170.124C725.985 170.021 725.193 169.969 724.29 169.969C723.173 169.969 722.248 170.05 721.508 170.206C720.768 170.361 720.184 170.628 719.754 171.005C719.325 171.382 719.029 171.885 718.859 172.522C718.689 173.158 718.608 173.972 718.608 174.956V181.46H720.591C721.885 181.46 722.973 181.393 723.839 181.268C724.704 181.142 725.393 180.927 725.903 180.624C726.406 180.328 726.762 179.928 726.954 179.44C727.146 178.944 727.205 178.338 727.131 177.612H727.908L728.611 186.099H727.834C727.753 185.374 727.575 184.76 727.287 184.272C726.998 183.776 726.569 183.384 725.999 183.081C725.43 182.785 724.697 182.57 723.802 182.437C722.906 182.304 721.811 182.244 720.509 182.244H718.6V190.694C718.6 191.553 718.615 192.293 718.637 192.914C718.659 193.536 718.77 194.054 718.97 194.468C719.163 194.882 719.466 195.186 719.888 195.385C720.302 195.578 720.901 195.674 721.678 195.674V196.451H711.637V195.674L711.645 195.652Z" fill="white" stroke="white" stroke-miterlimit="10"/>
<path d="M730.602 193.24C730.602 192.618 730.764 192.056 731.09 191.545C731.416 191.042 731.956 190.546 732.703 190.065C733.458 189.584 734.442 189.089 735.663 188.586C736.884 188.082 738.386 187.513 740.176 186.891L742.625 186.033V183.813C742.625 181.763 742.278 180.173 741.597 179.048C740.909 177.916 739.969 177.354 738.778 177.354C737.971 177.354 737.291 177.598 736.736 178.093C736.181 178.589 735.818 179.248 735.663 180.076C735.529 180.728 735.293 181.245 734.945 181.63C734.597 182.015 734.161 182.215 733.643 182.215C733.302 182.215 733.021 182.133 732.784 181.963C732.548 181.793 732.37 181.571 732.237 181.305C732.104 181.038 732.052 180.72 732.059 180.372C732.074 180.025 732.155 179.677 732.311 179.344C732.725 178.537 733.509 177.879 734.664 177.361C735.818 176.843 737.113 176.584 738.534 176.584C739.673 176.584 740.709 176.762 741.626 177.109C742.544 177.457 743.343 177.96 744.024 178.611C744.697 179.263 745.215 180.039 745.578 180.95C745.94 181.86 746.125 182.873 746.125 183.983V192.315C746.125 193.402 746.347 194.105 746.784 194.416C747.176 194.727 747.731 194.653 748.456 194.179L748.885 194.801L746.318 196.436C745.903 196.695 745.474 196.828 745.03 196.843C744.586 196.858 744.194 196.762 743.846 196.569C743.498 196.377 743.202 196.096 742.973 195.733C742.736 195.371 742.625 194.941 742.625 194.446V193.743L740.679 195.141C739.851 195.741 739.037 196.17 738.245 196.429C737.453 196.688 736.617 196.821 735.737 196.821C734.205 196.821 732.969 196.488 732.022 195.829C731.075 195.171 730.602 194.305 730.602 193.24ZM742.633 186.891L740.413 187.668C739.296 188.06 738.356 188.438 737.594 188.815C736.832 189.192 736.218 189.584 735.766 189.999C735.315 190.413 734.989 190.872 734.79 191.36C734.597 191.856 734.501 192.411 734.501 193.032C734.501 195.008 735.278 195.992 736.839 195.992C737.438 195.992 738.075 195.792 738.763 195.385C739.451 194.986 740.25 194.461 741.16 193.809L742.64 192.759V186.884L742.633 186.891Z" fill="white" stroke="white" stroke-miterlimit="10"/>
<path d="M763.07 195.652C763.846 195.652 764.446 195.556 764.86 195.363C765.274 195.171 765.578 194.86 765.778 194.446C765.97 194.031 766.081 193.514 766.111 192.892C766.14 192.27 766.148 191.531 766.148 190.672V183.939C766.148 182.666 766.096 181.608 765.992 180.765C765.889 179.921 765.718 179.248 765.489 178.737C765.252 178.234 764.934 177.872 764.535 177.664C764.135 177.457 763.632 177.354 763.032 177.354C762.774 177.354 762.529 177.383 762.293 177.435C762.056 177.487 761.767 177.583 761.419 177.724C761.072 177.864 760.65 178.071 760.154 178.33C759.658 178.589 759.022 178.937 758.245 179.381L756.884 180.158V190.665C756.884 191.523 756.899 192.263 756.921 192.885C756.943 193.506 757.054 194.024 757.254 194.438C757.446 194.853 757.749 195.156 758.171 195.356C758.586 195.548 759.185 195.644 759.962 195.644V196.421H750.306V195.644C751.083 195.644 751.682 195.548 752.096 195.356C752.511 195.164 752.814 194.853 753.014 194.438C753.206 194.024 753.317 193.506 753.347 192.885C753.369 192.263 753.384 191.523 753.384 190.665V182.215C753.384 181.616 753.362 181.149 753.325 180.816C753.288 180.476 753.169 180.217 752.977 180.04C752.785 179.862 752.474 179.744 752.059 179.692C751.645 179.64 751.046 179.61 750.269 179.61V178.833C752.244 178.833 754.198 178.212 756.144 176.969H756.884V179.263L758.519 178.33C759.141 177.99 759.688 177.716 760.154 177.494C760.62 177.272 761.064 177.095 761.479 176.947C761.893 176.806 762.293 176.71 762.685 176.658C763.077 176.606 763.476 176.577 763.891 176.577C767.731 176.577 769.655 178.434 769.655 182.141V190.665C769.655 191.523 769.67 192.263 769.692 192.885C769.714 193.506 769.825 194.024 770.025 194.438C770.217 194.853 770.52 195.156 770.942 195.356C771.357 195.548 771.956 195.644 772.733 195.644V196.421H763.077V195.644L763.07 195.652Z" fill="white" stroke="white" stroke-miterlimit="10"/>
<path d="M785.141 193.861C783.765 195.837 782.211 196.821 780.472 196.821C778.445 196.821 777.439 195.341 777.439 192.381V177.746H774.716V176.969C776.455 176.969 777.794 176.495 778.741 175.548C779.688 174.601 780.162 173.388 780.162 171.908H780.939V176.969H784.601V177.746H780.939V192.692C780.939 193.861 781.279 194.549 781.952 194.757C782.315 194.89 782.729 194.823 783.195 194.564C783.661 194.305 784.128 193.913 784.594 193.395L785.141 193.861Z" fill="white" stroke="white" stroke-miterlimit="10"/>
<path d="M787.125 193.24C787.125 192.618 787.288 192.056 787.613 191.545C787.939 191.042 788.479 190.546 789.226 190.065C789.981 189.584 790.965 189.089 792.186 188.586C793.407 188.082 794.909 187.513 796.699 186.891L799.149 186.033V183.813C799.149 181.763 798.801 180.173 798.12 179.048C797.432 177.916 796.492 177.354 795.301 177.354C794.494 177.354 793.814 177.598 793.259 178.093C792.704 178.589 792.341 179.248 792.186 180.076C792.053 180.728 791.816 181.245 791.468 181.63C791.12 182.015 790.684 182.215 790.166 182.215C789.826 182.215 789.544 182.133 789.308 181.963C789.071 181.793 788.893 181.571 788.76 181.305C788.627 181.038 788.575 180.72 788.582 180.372C788.597 180.025 788.679 179.677 788.834 179.344C789.248 178.537 790.033 177.879 791.187 177.361C792.341 176.843 793.636 176.584 795.057 176.584C796.196 176.584 797.232 176.762 798.15 177.109C799.067 177.457 799.866 177.96 800.547 178.611C801.22 179.263 801.738 180.039 802.101 180.95C802.463 181.86 802.648 182.873 802.648 183.983V192.315C802.648 193.402 802.87 194.105 803.307 194.416C803.699 194.727 804.254 194.653 804.979 194.179L805.408 194.801L802.841 196.436C802.426 196.695 801.997 196.828 801.553 196.843C801.109 196.858 800.717 196.762 800.369 196.569C800.022 196.377 799.726 196.096 799.496 195.733C799.26 195.371 799.149 194.941 799.149 194.446V193.743L797.203 195.141C796.374 195.741 795.56 196.17 794.768 196.429C793.977 196.688 793.14 196.821 792.26 196.821C790.728 196.821 789.493 196.488 788.545 195.829C787.598 195.171 787.125 194.305 787.125 193.24ZM799.156 186.891L796.936 187.668C795.819 188.06 794.879 188.438 794.117 188.815C793.355 189.192 792.741 189.584 792.29 189.999C791.838 190.413 791.513 190.872 791.313 191.36C791.12 191.856 791.024 192.411 791.024 193.032C791.024 195.008 791.801 195.992 793.362 195.992C793.962 195.992 794.598 195.792 795.286 195.385C795.974 194.986 796.773 194.461 797.683 193.809L799.163 192.759V186.884L799.156 186.891Z" fill="white" stroke="white" stroke-miterlimit="10"/>
<path d="M813.436 196.044C814.035 196.044 814.583 195.963 815.094 195.792C815.597 195.622 816.033 195.393 816.396 195.09C816.758 194.794 817.047 194.446 817.269 194.061C817.491 193.669 817.602 193.247 817.602 192.774C817.602 192.1 817.298 191.397 816.684 190.672C816.07 189.947 814.99 189 813.436 187.831C812.452 187.076 811.616 186.403 810.928 185.804C810.24 185.204 809.685 184.642 809.27 184.109C808.856 183.576 808.56 183.073 808.375 182.592C808.19 182.111 808.101 181.623 808.101 181.135C808.101 179.81 808.656 178.722 809.759 177.864C810.861 177.006 812.348 176.577 814.213 176.577C815.456 176.577 816.61 176.776 817.676 177.183C818.741 177.583 819.607 178.123 820.288 178.796L819.74 181.912H818.963C819.148 180.565 818.845 179.47 818.068 178.619C817.291 177.775 816.196 177.354 814.798 177.354C813.628 177.354 812.778 177.627 812.245 178.175C811.712 178.722 811.446 179.359 811.446 180.084C811.446 180.424 811.512 180.75 811.638 181.075C811.771 181.401 812.015 181.764 812.378 182.163C812.741 182.563 813.236 183.036 813.858 183.584C814.479 184.131 815.286 184.79 816.27 185.567C817.979 186.913 819.185 188.068 819.873 189.015C820.562 189.962 820.902 190.902 820.902 191.834C820.902 192.559 820.724 193.232 820.377 193.839C820.029 194.446 819.555 194.971 818.956 195.415C818.357 195.859 817.646 196.199 816.817 196.444C815.989 196.688 815.079 196.814 814.095 196.814C811.342 196.814 808.997 195.711 807.051 193.506L807.753 189.688H808.53C808.427 190.598 808.464 191.442 808.649 192.219C808.834 192.996 809.145 193.669 809.581 194.224C810.025 194.779 810.573 195.223 811.239 195.548C811.897 195.874 812.63 196.037 813.436 196.037V196.044Z" fill="white" stroke="white" stroke-miterlimit="10"/>
<path d="M822.893 195.652C823.669 195.652 824.269 195.556 824.683 195.363C825.097 195.171 825.401 194.86 825.601 194.446C825.793 194.031 825.904 193.513 825.934 192.892C825.956 192.27 825.971 191.53 825.971 190.672V182.222C825.971 181.623 825.948 181.157 825.911 180.824C825.874 180.483 825.756 180.224 825.564 180.047C825.371 179.869 825.06 179.751 824.646 179.699C824.232 179.647 823.632 179.618 822.855 179.618V178.841C824.831 178.841 826.785 178.219 828.731 176.976H829.47V190.68C829.47 191.538 829.485 192.278 829.507 192.899C829.53 193.521 829.641 194.039 829.84 194.453C830.033 194.868 830.336 195.171 830.758 195.371C831.172 195.563 831.772 195.659 832.548 195.659V196.436H822.893V195.659V195.652ZM825.771 172.292C825.771 171.693 825.948 171.22 826.296 170.872C826.644 170.524 827.117 170.346 827.717 170.346C828.316 170.346 828.79 170.524 829.137 170.872C829.485 171.22 829.663 171.693 829.663 172.292C829.663 172.892 829.485 173.365 829.137 173.713C828.79 174.061 828.316 174.238 827.717 174.238C827.117 174.238 826.644 174.061 826.296 173.713C825.948 173.365 825.771 172.892 825.771 172.292Z" fill="white" stroke="white" stroke-miterlimit="10"/>
<path d="M834.531 193.24C834.531 192.618 834.694 192.056 835.02 191.545C835.345 191.042 835.886 190.546 836.633 190.065C837.388 189.584 838.372 189.089 839.593 188.586C840.813 188.082 842.315 187.513 844.106 186.891L846.555 186.033V183.813C846.555 181.763 846.207 180.173 845.527 179.048C844.839 177.916 843.899 177.354 842.708 177.354C841.901 177.354 841.22 177.598 840.665 178.093C840.111 178.589 839.748 179.248 839.593 180.076C839.459 180.728 839.223 181.245 838.875 181.63C838.527 182.015 838.091 182.215 837.573 182.215C837.232 182.215 836.951 182.133 836.714 181.963C836.477 181.793 836.3 181.571 836.167 181.305C836.034 181.038 835.982 180.72 835.989 180.372C836.004 180.025 836.085 179.677 836.241 179.344C836.655 178.537 837.439 177.879 838.594 177.361C839.748 176.843 841.043 176.584 842.463 176.584C843.603 176.584 844.639 176.762 845.556 177.109C846.474 177.457 847.273 177.96 847.954 178.611C848.627 179.263 849.145 180.039 849.508 180.95C849.87 181.86 850.055 182.873 850.055 183.983V192.315C850.055 193.402 850.277 194.105 850.714 194.416C851.106 194.727 851.661 194.653 852.386 194.179L852.815 194.801L850.247 196.436C849.833 196.695 849.404 196.828 848.96 196.843C848.516 196.858 848.124 196.762 847.776 196.569C847.428 196.377 847.132 196.096 846.903 195.733C846.666 195.371 846.555 194.941 846.555 194.446V193.743L844.609 195.141C843.781 195.741 842.967 196.17 842.175 196.429C841.383 196.688 840.547 196.821 839.667 196.821C838.135 196.821 836.899 196.488 835.952 195.829C835.005 195.171 834.531 194.305 834.531 193.24ZM846.563 186.891L844.343 187.668C843.226 188.06 842.286 188.438 841.524 188.815C840.762 189.192 840.148 189.584 839.696 189.999C839.245 190.413 838.919 190.872 838.719 191.36C838.527 191.856 838.431 192.411 838.431 193.032C838.431 195.008 839.208 195.992 840.769 195.992C841.368 195.992 842.005 195.792 842.693 195.385C843.381 194.986 844.18 194.461 845.09 193.809L846.57 192.759V186.884L846.563 186.891Z" fill="white" stroke="white" stroke-miterlimit="10"/>
<path d="M92.9872 91.6776C93.7641 91.5222 94.6224 91.4482 95.5177 91.4482C95.5177 91.4482 94.467 91.722 92.9872 91.6776Z" fill="white" stroke="white" stroke-miterlimit="10"/>
<path d="M200.254 172.322C200.054 172.847 199.854 173.358 199.64 173.853C199.677 173.742 199.877 173.15 200.254 172.322Z" fill="white" stroke="white" stroke-miterlimit="10"/>
<path d="M83.25 91.3748C83.25 91.3748 83.2351 91.4046 83.2351 91.4344V91.3152C83.2351 91.3152 83.25 91.345 83.25 91.3748Z" fill="white" stroke="white" stroke-miterlimit="10"/>
<path d="M135.674 46.4759V45.662C137.242 45.625 138.293 45.366 138.826 44.8924C139.358 44.4189 139.625 43.4718 139.625 42.0511V23.9748C139.625 22.5911 139.351 21.6588 138.811 21.1631C138.263 20.6673 137.22 20.401 135.674 20.364V19.55H147.934L147.912 20.364C146.314 20.4306 145.256 20.6969 144.738 21.1779C144.22 21.6588 143.961 22.5911 143.961 23.9748V42.0511C143.961 43.4422 144.227 44.3893 144.767 44.8702C145.307 45.3512 146.358 45.6176 147.912 45.662L147.934 46.4759H135.674Z" fill="white" stroke="white" stroke-miterlimit="10"/>
<path d="M150.502 46.4759V45.662C152.07 45.625 153.121 45.366 153.654 44.8924C154.187 44.4189 154.453 43.4718 154.453 42.0511V23.9748C154.453 22.5911 154.179 21.6588 153.639 21.1631C153.091 20.6673 152.048 20.401 150.502 20.364V19.55H162.762L162.74 20.364C161.142 20.4306 160.084 20.6969 159.566 21.1779C159.048 21.6588 158.789 22.5911 158.789 23.9748V42.0511C158.789 43.4422 159.055 44.3893 159.595 44.8702C160.136 45.3512 161.186 45.6176 162.74 45.662L162.762 46.4759H150.502Z" fill="white" stroke="white" stroke-miterlimit="10"/>
<path d="M170.746 46.4758V45.6619C172.44 45.6619 173.55 45.4103 174.061 44.8997C174.571 44.3892 174.83 43.2719 174.83 41.5331V22.2951C174.83 21.7253 174.749 21.385 174.586 21.2666C174.423 21.1556 173.95 21.0964 173.158 21.0964H172.492C169.888 21.0964 168.127 21.4664 167.202 22.2063C166.277 22.9462 165.707 24.3669 165.478 26.4534H164.664L164.893 19.5352H189.296V26.4534H188.438C188.223 24.3373 187.69 22.9166 186.832 22.1841C185.981 21.459 184.013 21.089 180.942 21.089C180.047 21.089 179.514 21.1556 179.359 21.2888C179.203 21.422 179.122 21.7549 179.122 22.2877V41.3703C179.122 43.2941 179.388 44.478 179.928 44.9219C180.469 45.3659 181.564 45.6027 183.229 45.6471L183.251 46.461H170.746V46.4758Z" fill="white" stroke="white" stroke-miterlimit="10"/>
<path d="M200.321 46.4759L200.343 45.662C201.912 45.6398 202.962 45.3808 203.495 44.8924C204.028 44.4041 204.294 43.457 204.294 42.0511V23.9748C204.294 22.5911 204.02 21.6588 203.48 21.1631C202.933 20.6673 201.882 20.3936 200.328 20.3492V19.55H213.099C218.116 19.55 222.015 20.7117 224.797 23.0277C227.58 25.3437 228.971 28.5845 228.971 32.7429C228.971 35.0515 228.512 37.1232 227.594 38.9582C226.677 40.7933 225.308 42.3767 223.495 43.6938C222.126 44.6853 220.58 45.3956 218.848 45.8321C217.117 46.2687 214.831 46.4907 211.975 46.4907H200.321V46.4759ZM208.571 41.4962C208.571 43.1166 208.763 44.1081 209.141 44.4633C209.518 44.8184 210.48 44.996 212.012 44.996C215.874 44.996 218.9 43.9379 221.076 41.8144C223.258 39.6908 224.346 36.7459 224.346 32.9649C224.346 29.1839 223.236 26.1576 221.009 24.0858C218.782 22.0214 215.6 20.9855 211.457 20.9855C210.243 20.9855 209.451 21.1779 209.096 21.5552C208.741 21.9326 208.564 22.8205 208.564 24.219V41.4962H208.571Z" fill="white" stroke="white" stroke-miterlimit="10"/>
<path d="M231.657 46.4759L231.679 45.662C233.262 45.625 234.32 45.3734 234.846 44.9146C235.371 44.4559 235.637 43.5088 235.637 42.0955V23.9822C235.637 22.5911 235.378 21.6514 234.86 21.1779C234.342 20.7043 233.277 20.4306 231.664 20.3492V19.55H254.698L255.06 25.499H254.246C253.965 23.7898 253.447 22.6281 252.7 22.0214C251.945 21.4147 250.606 21.1113 248.682 21.1113H241.875C241.054 21.1113 240.521 21.2149 240.277 21.4147C240.033 21.6144 239.914 22.1472 239.914 23.0129V30.2567C239.914 30.8117 239.981 31.1669 240.121 31.3222C240.262 31.4776 240.624 31.5516 241.202 31.5516H246.559C248.66 31.5516 250.036 31.2926 250.673 30.7599C251.309 30.2345 251.672 29.2356 251.746 27.7632H252.559V37.0196H251.746C251.642 35.4732 251.279 34.4299 250.65 33.8898C250.021 33.3496 248.66 33.0833 246.551 33.0833H241.15C240.632 33.0833 240.291 33.1572 240.136 33.3052C239.981 33.4532 239.899 33.8084 239.899 34.3781V42.4359C239.899 43.4274 240.033 44.0711 240.291 44.3671C240.55 44.6631 241.061 44.811 241.823 44.811H248.112C250.658 44.811 252.5 44.4485 253.632 43.716C254.764 42.9908 255.756 41.585 256.607 39.5058L257.347 39.8684L255.238 46.4833H231.649L231.657 46.4759Z" fill="white" stroke="white" stroke-miterlimit="10"/>
<path d="M258.893 46.4758V45.6619H259.086C260.521 45.6619 261.49 45.3807 262.016 44.8258C262.534 44.2708 262.793 43.1831 262.793 41.5775V24.0561C262.793 22.4727 262.534 21.4664 262.023 21.0372C261.513 20.6081 260.477 20.3861 258.915 20.3713L258.893 19.5574H271.154V20.3713H270.961C269.526 20.3713 268.534 20.6377 267.979 21.1778C267.425 21.718 267.143 22.6799 267.143 24.0561V42.1694C267.143 43.3755 267.314 44.1302 267.654 44.4336C267.994 44.737 268.727 44.8924 269.837 44.8924H274.491C276.496 44.8924 278.139 44.4558 279.433 43.5679C280.728 42.6874 281.764 41.2963 282.549 39.3947H283.362L281.158 46.4832H258.878L258.893 46.4758Z" fill="white" stroke="white" stroke-miterlimit="10"/>
<path d="M283.851 46.4759L283.873 45.662C285.456 45.6398 286.515 45.3808 287.04 44.8998C287.565 44.4189 287.832 43.4644 287.832 42.0511V23.9748C287.832 22.5911 287.558 21.6588 287.018 21.1631C286.47 20.6673 285.419 20.3936 283.866 20.3492V19.55H296.052V20.3492C294.454 20.4232 293.403 20.7043 292.885 21.1853C292.375 21.6662 292.116 22.5985 292.116 23.9822V30.6933C292.116 31.1891 292.197 31.5146 292.36 31.6848C292.523 31.8476 292.848 31.929 293.329 31.929H304.768C305.183 31.929 305.464 31.8402 305.605 31.67C305.745 31.4998 305.812 31.1447 305.812 30.5971V23.9822C305.812 22.6133 305.545 21.6884 305.02 21.2001C304.495 20.7117 303.437 20.438 301.853 20.3714L301.831 19.5574H314.055V20.3714C312.486 20.4084 311.435 20.6673 310.902 21.1483C310.37 21.6292 310.103 22.5763 310.103 23.9822V42.0585C310.103 43.4422 310.37 44.3745 310.91 44.8702C311.45 45.366 312.501 45.6324 314.055 45.6694V46.4833H301.831L301.853 45.6694C303.422 45.6324 304.473 45.366 305.005 44.8776C305.538 44.3893 305.804 43.4644 305.804 42.0955V34.6815C305.804 34.1783 305.738 33.8454 305.597 33.6826C305.457 33.5272 305.183 33.4458 304.761 33.4458H293.277C292.848 33.4458 292.545 33.5346 292.367 33.7196C292.19 33.9046 292.101 34.2227 292.101 34.6815V42.0585C292.101 43.4496 292.36 44.3967 292.893 44.8776C293.418 45.366 294.469 45.625 296.037 45.6694V46.4833H283.851V46.4759Z" fill="white" stroke="white" stroke-miterlimit="10"/>
<path d="M316.089 46.4759V45.662C317.658 45.625 318.709 45.366 319.241 44.8924C319.774 44.4189 320.041 43.4718 320.041 42.0511V23.9748C320.041 22.5911 319.767 21.6588 319.227 21.1631C318.679 20.6673 317.636 20.401 316.089 20.364V19.55H328.35L328.328 20.364C326.729 20.4306 325.671 20.6969 325.153 21.1779C324.635 21.6588 324.377 22.5911 324.377 23.9748V42.0511C324.377 43.4422 324.643 44.3893 325.183 44.8702C325.723 45.3512 326.774 45.6176 328.328 45.662L328.35 46.4759H316.089Z" fill="white" stroke="white" stroke-miterlimit="10"/>
<path d="M331.524 28.836C332.908 27.8963 333.951 26.9862 334.669 26.1057C335.386 25.2252 335.742 24.3964 335.742 23.6269C335.742 23.3088 335.697 23.109 335.601 23.0202C335.505 22.9314 335.32 22.887 335.039 22.887C334.95 22.887 334.78 22.9092 334.535 22.9462C334.291 22.9832 334.077 23.0054 333.899 23.0054C333.278 23.0054 332.782 22.8278 332.405 22.4726C332.027 22.1175 331.842 21.6513 331.842 21.0668C331.842 20.4305 332.057 19.9199 332.478 19.5351C332.9 19.1504 333.47 18.958 334.18 18.958C335.157 18.958 335.919 19.2614 336.459 19.8681C337.007 20.4749 337.273 21.3258 337.273 22.4135C337.273 23.8489 336.829 25.1512 335.949 26.3276C335.068 27.5041 333.759 28.54 332.027 29.4279L331.517 28.836H331.524Z" fill="white" stroke="white" stroke-miterlimit="10"/>
<path d="M342.283 47.0233L340.803 38.3366H341.617C342.556 40.6526 343.74 42.458 345.168 43.7529C346.604 45.0477 348.128 45.6915 349.748 45.6915C351.176 45.6915 352.383 45.2327 353.352 44.3226C354.321 43.4125 354.802 42.273 354.802 40.9041C354.802 39.9052 354.477 38.9655 353.833 38.0998C353.189 37.2341 352.183 36.4054 350.829 35.6211L346.626 33.0758C344.813 32.0103 343.511 30.9152 342.719 29.7979C341.927 28.6732 341.528 27.3857 341.528 25.9281C341.528 23.8785 342.253 22.1989 343.711 20.904C345.168 19.6017 347.07 18.958 349.415 18.958C350.503 18.958 351.665 19.1578 352.886 19.5647C354.107 19.9717 354.832 20.1715 355.061 20.1715C355.35 20.1715 355.586 20.0679 355.757 19.8681C355.927 19.6683 356.038 19.3576 356.09 18.958H356.792L357.688 27.0898H356.874C356.104 24.8848 355.098 23.2052 353.87 22.0509C352.642 20.8966 351.243 20.3195 349.667 20.3195C348.335 20.3195 347.247 20.6968 346.404 21.4515C345.56 22.2063 345.139 23.1756 345.139 24.3669C345.139 25.2918 345.427 26.1353 346.012 26.8974C346.596 27.6595 347.588 28.466 348.994 29.3095L353.67 32.0621C355.586 33.2163 356.926 34.3484 357.688 35.4657C358.457 36.583 358.835 37.9149 358.835 39.4539C358.835 41.7699 358.05 43.6271 356.489 45.0107C354.92 46.4018 352.827 47.0899 350.185 47.0899C348.957 47.0899 347.691 46.9123 346.382 46.5572C345.08 46.202 344.362 46.0244 344.236 46.0244C343.866 46.0244 343.577 46.1058 343.363 46.2686C343.148 46.4314 343.008 46.6829 342.949 47.0085H342.268L342.283 47.0233Z" fill="white" stroke="white" stroke-miterlimit="10"/>
<path d="M852.993 35.6432H852.119C849.374 32.0102 846.244 30.2862 842.264 30.2862C834.983 30.2862 827.036 36.3313 817.365 48.6289L782.182 92.8911L810.514 127.468C814.25 130.457 818.771 132.699 824.609 132.699V133.217H800.746V132.699C803.721 132.699 805.371 131.981 806.059 130.871L778.564 97.3158L760.591 119.913H760.576L760.103 120.505L747.013 136.51L746.939 136.598C746.007 137.649 745.089 138.655 744.209 139.617L738.29 146.802C738.201 146.906 738.105 147.031 738.016 147.135C725.03 162.762 712.614 167.231 699.229 164.375C689.95 162.392 683.602 157.538 680.339 149.68C679.591 147.882 678.999 145.899 678.585 143.761C678.311 142.414 678.112 140.986 677.971 139.506L678.859 139.691C679.347 141.297 679.88 142.762 680.494 144.072C681.804 146.972 683.395 149.185 685.178 150.894C688.167 153.765 691.771 155.215 695.692 156.036C699.703 156.887 703.424 156.968 707.124 156.125C715.026 154.297 722.766 148.141 732.725 135.999L734.205 134.201L734.62 133.713C739.318 128.356 744.246 122.192 749.388 115.74L750.469 114.364L751.001 113.69L771.098 88.1778L741.59 52.1879C738.216 49.317 734.309 47.2304 729.825 47.2304V46.7125H751.778V47.2304C748.663 47.2304 747.021 48.0073 746.377 49.1986L774.723 83.7752L806.629 43.4198C815.464 32.3579 825.134 26.8159 834.657 26.8159C843.662 26.8159 850.758 30.2788 853 35.6358L852.993 35.6432Z" fill="white" stroke="white" stroke-miterlimit="10"/>
<path d="M61.8809 133.58C61.8809 133.58 63.3756 152.27 75.6139 152.27V153.691H74.8962C74.8962 153.691 55.562 159.351 55.562 180.284C55.562 159.351 36.2426 153.691 36.2426 153.691H35.9392V152.929C48.148 152.929 48.148 142.325 48.148 134.238V99.2027C45.462 95.2367 41.5256 91.8774 35.954 91.7887L35.9392 91.7591V91.7443C41.5256 91.6555 45.462 88.2814 48.148 84.3006V46.5053C48.148 38.418 48.148 27.8149 35.9392 27.8149V27.0527H75.6065V27.4819C63.3682 27.4819 61.8735 46.1724 61.8735 46.1724V133.587L61.8809 133.58Z" fill="white" stroke="white" stroke-miterlimit="10"/>
<path d="M464.429 124.856H464.414C464.229 124.797 464.066 124.715 463.867 124.626C459.227 122.688 453.234 118.781 452.516 111.537C451.828 118.648 446.034 122.54 441.44 124.523H428.58C427.877 124.538 427.129 124.538 426.353 124.538C419.627 124.538 413.197 124.434 410.133 124.234C423.792 104.264 437.141 85.07 450.888 65.7802L450.097 64.1968H402.016L401.928 64.5445L401.254 66.9419L398.857 75.3474V75.3918C398.857 75.3918 398.857 75.377 398.872 75.377L398.901 75.3178L400.137 73.209C402.29 69.6352 405.753 68.5993 407.048 68.4513C409.578 68.1776 413.803 68.148 419.634 68.148H439.013C425.065 88.2295 411.317 107.926 397.555 126.905L398.457 128.489H442.143C446.597 130.583 451.865 134.423 452.516 141.171C452.901 137.294 454.788 134.379 457.185 132.218C459.901 129.732 463.275 128.222 465.776 127.349C467.847 126.632 469.327 126.358 469.327 126.358C469.327 126.358 467.189 125.958 464.429 124.863V124.856ZM398.938 75.192C399.183 74.5335 399.441 73.912 399.715 73.3422L398.938 75.192ZM452.509 134.527C452.479 134.223 452.435 133.92 452.353 133.624C452.353 133.594 452.353 133.55 452.339 133.52C452.279 133.291 452.213 133.061 452.139 132.832C452.109 132.743 452.08 132.662 452.05 132.588C451.961 132.344 451.85 132.1 451.732 131.885C451.643 131.685 451.517 131.485 451.414 131.308C451.355 131.219 451.31 131.138 451.244 131.064C451.103 130.849 450.955 130.649 450.785 130.472C450.659 130.302 450.511 130.154 450.356 129.998C450.267 129.895 450.171 129.798 450.067 129.71C449.912 129.554 449.764 129.436 449.608 129.295C449.409 129.125 449.194 128.977 448.979 128.807H448.965C448.809 128.703 448.661 128.592 448.506 128.489C448.491 128.474 448.476 128.474 448.461 128.459C448.247 128.319 448.017 128.185 447.803 128.074C447.329 127.801 446.841 127.556 446.382 127.371C446.242 127.312 446.123 127.246 445.983 127.201C445.827 127.127 445.679 127.076 445.524 127.016C445.021 126.831 444.577 126.698 444.214 126.587C444.088 126.558 443.985 126.528 443.881 126.498C443.467 126.395 443.223 126.343 443.223 126.343C443.223 126.343 443.77 126.254 444.599 125.995C444.725 125.951 444.843 125.921 444.962 125.869C445.117 125.81 445.265 125.766 445.42 125.699V125.67L446.715 125.181L446.774 125.152C446.93 125.093 447.063 125.011 447.218 124.937C447.418 124.834 447.633 124.723 447.847 124.619C448.928 123.99 450.015 123.184 450.866 122.133C450.985 121.977 451.096 121.829 451.199 121.674C451.34 121.489 451.458 121.289 451.562 121.097C451.606 121.053 451.636 120.993 451.651 120.927L451.665 120.912C451.769 120.712 451.865 120.512 451.954 120.305C452.013 120.15 452.072 119.987 452.124 119.832C452.183 119.691 452.228 119.558 452.265 119.402C452.309 119.232 452.353 119.084 452.39 118.899C452.435 118.67 452.464 118.426 452.494 118.182C452.509 118.381 452.538 118.566 452.568 118.744C452.598 118.922 452.642 119.114 452.694 119.277C452.953 120.357 453.456 121.289 454.085 122.066C454.085 122.066 454.085 122.081 454.1 122.081C454.529 122.629 455.032 123.117 455.565 123.531C455.735 123.672 455.898 123.79 456.083 123.916C456.223 124.02 456.342 124.116 456.482 124.19C457.614 124.922 458.783 125.44 459.745 125.773C459.886 125.803 460.004 125.847 460.13 125.899C461.107 126.217 461.78 126.343 461.78 126.343C461.78 126.343 453.145 127.912 452.501 134.519L452.509 134.527Z" fill="white" stroke="white" stroke-miterlimit="10"/>
<path d="M445.435 125.677L446.73 125.189C446.086 125.477 445.495 125.707 444.977 125.877C445.132 125.818 445.28 125.773 445.435 125.707V125.677Z" fill="white" stroke="white" stroke-miterlimit="10"/>
<path d="M452.501 113.225C452.501 113.225 452.487 113.269 452.487 113.284L452.501 113.158V113.217V113.225Z" fill="white" stroke="white" stroke-miterlimit="10"/>
<path d="M329.756 93.4979C329.756 105.063 324.998 114.46 317.384 120.202C309.859 125.847 300.262 128.015 288.105 128.015H264.96V125.255C265.36 125.226 265.723 125.181 266.093 125.13C268.778 124.153 276.925 120.261 277.643 109.599C278.161 117.198 282.43 121.349 285.834 123.472H286.884C288.468 124.116 290.503 124.375 293.048 124.375C310.851 124.375 319.966 112.196 319.966 94.8816C319.966 84.1083 316.304 75.9025 308.49 71.1374C303.925 68.2665 298.19 67.1862 291.568 67.1862C289.097 67.1862 287.269 67.3712 285.967 67.6894C282.948 69.2432 278.138 72.8762 277.635 80.4161C276.947 70.1311 268.283 67.1122 267.017 66.7275C266.389 66.6535 265.708 66.5721 264.96 66.4981V63.7234H292.456C306.404 63.7234 315.223 66.4981 321.357 72.3287C326.197 77.0716 329.763 83.9973 329.763 93.5053L329.756 93.4979Z" fill="white" stroke="white" stroke-miterlimit="10"/>
<path d="M287.262 94.7853C287.262 94.7853 278.309 97.4712 277.635 108.733C276.977 97.4712 268.024 94.7853 268.024 94.7853C268.024 94.7853 276.977 92.1142 277.635 80.8525C278.309 92.1142 287.262 94.7853 287.262 94.7853Z" fill="white" stroke="white" stroke-miterlimit="10"/>
<path d="M180.498 112.529C179.906 115.111 177.235 125.285 176.258 128.26H128.178V125.485C137.361 124.797 138.064 123.916 138.064 115.799V101.763C137.087 97.0348 130.694 95.8731 130.694 95.8731C130.694 95.8731 137.087 94.7114 138.064 89.9833V76.7239C138.064 67.9188 136.983 67.4304 129.547 66.7275V63.9676H159.817C169.126 63.9676 172.988 63.864 174.157 63.7678C174.261 66.2392 174.66 73.6532 175.06 78.9067L172.085 79.395C171.197 76.0358 170.206 73.9492 169.126 71.87C167.542 68.6069 165.263 67.9188 159.329 67.9188H149.932C146.869 67.9188 146.669 68.2074 146.669 71.0783V89.5986C147.461 94.667 154.142 95.8657 154.142 95.8657C154.142 95.8657 147.461 97.0866 146.669 102.14V116.68C146.669 123.605 148.852 124.205 153.794 124.294H162.992C169.022 124.294 170.014 123.406 172.189 120.846C174.068 118.774 176.14 114.712 177.531 111.737L180.491 112.529H180.498Z" fill="white" stroke="white" stroke-miterlimit="10"/>
<path d="M173.055 95.8656C173.055 95.8656 164.878 97.3603 164.264 103.65V103.479C163.657 97.3307 155.518 95.8656 155.518 95.8656C155.518 95.8656 163.65 94.4006 164.264 88.2666V88.0964C164.878 94.3636 173.055 95.8656 173.055 95.8656Z" fill="white" stroke="white" stroke-miterlimit="10"/>
<path d="M381.994 96.1469C381.994 96.1469 373.818 97.6415 373.204 103.931V103.761C372.597 97.6119 364.458 96.1469 364.458 96.1469C364.458 96.1469 372.59 94.6818 373.204 88.5479V88.3777C373.818 94.6448 381.994 96.1469 381.994 96.1469Z" fill="white" stroke="white" stroke-miterlimit="10"/>
<path d="M389.445 112.802C388.853 115.385 386.182 125.559 385.19 128.533H337.125V125.759C346.307 125.07 347.01 124.19 347.01 116.073V102.037C346.034 97.3085 339.641 96.1468 339.641 96.1468C339.641 96.1468 346.034 94.9851 347.01 90.257V76.9976C347.01 68.1925 345.915 67.7041 338.494 67.0012V64.2413H368.764C378.072 64.2413 381.935 64.1377 383.104 64.0415C383.207 66.5128 383.607 73.9269 384.007 79.1803L381.032 79.6687C380.144 76.3094 379.153 74.2229 378.072 72.1437C376.489 68.8806 374.21 68.1925 368.276 68.1925H358.879C355.815 68.1925 355.616 68.4811 355.616 71.352V89.8722C356.407 94.9407 363.074 96.1394 363.074 96.1394C363.074 96.1394 356.407 97.3603 355.616 102.414V116.953C355.616 123.879 357.798 124.478 362.741 124.567H371.938C377.969 124.567 378.96 123.679 381.136 121.119C383.015 119.047 385.087 114.985 386.478 112.011L389.438 112.802H389.445Z" fill="white" stroke="white" stroke-miterlimit="10"/>
<path d="M254.402 66.8087C248.068 67.5043 245.989 68.4884 245.693 73.0389C245.597 76.2058 245.397 80.3568 245.397 89.5614V129.229H241.638L199.299 77.4932V102.221C199.299 111.123 199.595 115.577 199.795 118.448C199.995 123.494 202.466 124.974 209.584 125.573V128.341H185.544V125.573C191.678 125.078 194.046 123.598 194.446 118.744C194.742 115.577 194.941 111.13 194.941 102.125V76.9013C194.941 74.134 194.742 72.5506 192.966 70.3752C191.086 67.9038 189.007 67.3119 184.161 66.8161V64.0488H198.996L240.942 113.809V89.5688C240.942 80.3641 240.743 76.117 240.447 73.1499C240.151 68.6956 237.872 67.3119 229.962 66.8161V64.0488H254.402V66.8161V66.8087Z" fill="white" stroke="white" stroke-miterlimit="10"/>
<path d="M522.683 66.8088C516.054 67.6967 514.374 68.592 510.808 77.4933C508.136 84.0194 494.485 117.161 489.638 129.429H486.375C480.537 113.498 472.036 90.3532 466.397 75.7101C463.623 68.3923 461.943 67.4008 455.913 66.8088V64.0415H481.04V66.8088C473.715 67.6005 473.323 68.7844 474.707 72.447C477.178 79.6687 484.4 99.3507 490.637 115.777C495.876 103.013 502.409 86.8904 507.056 74.43C509.232 68.6882 508.048 67.8003 499.931 66.8162V64.0489H522.683V66.8162V66.8088Z" fill="white" stroke="white" stroke-miterlimit="10"/>
<path d="M685.962 66.8088C679.628 67.201 677.313 68.7844 677.113 73.3349C677.009 75.6139 676.809 79.7649 676.809 88.8659V98.8179C676.809 108.947 675.618 116.694 669.854 122.754C665.185 127.623 658.437 129.11 651.585 129.11C645.821 129.11 639.665 127.919 635.3 124.545C629.343 119.98 626.458 113.128 626.458 101.504V76.9976C626.458 68.0963 625.629 67.5044 617.305 66.8088V64.0415H643.246V66.8088C634.922 67.3046 634.094 68.0963 634.094 76.9976V100.808C634.094 115.622 641.093 123.731 653.265 123.731C667.671 123.731 672.237 114.808 672.237 97.967V88.8659C672.237 79.7649 671.933 76.0061 671.726 73.3349C671.423 68.8806 669.085 67.201 661.552 66.8088V64.0415H685.962V66.8088Z" fill="white" stroke="white" stroke-miterlimit="10"/>
<path d="M725.297 80.4752C723.61 73.9491 720.842 67.5191 711.549 67.5191C703.831 67.5191 701.16 73.1574 701.16 78.2998C701.16 85.1293 705.511 88.5848 713.724 92.8393C725.593 98.9733 730.742 103.524 730.742 112.921C730.742 123.309 721.738 131.219 708.981 131.219C703.047 131.219 697.905 129.54 693.843 127.956C693.051 125.189 691.867 118.456 691.171 113.113L694.235 112.322C696.21 118.951 700.568 127.557 710.853 127.557C717.979 127.557 722.33 122.614 722.33 116.177C722.33 108.563 718.275 105.492 709.566 100.742C699.177 95.1035 693.339 90.3532 693.339 81.1559C693.339 71.9587 700.657 64.0415 713.717 64.0415C719.259 64.0415 724.697 65.5288 726.777 65.9209C727.176 69.4799 727.568 73.4385 728.36 79.8685L725.297 80.4604V80.4752Z" fill="white" stroke="white" stroke-miterlimit="10"/>
<path d="M568.825 100.172C570.999 100.172 572.761 98.4095 572.761 96.2355C572.761 94.0615 570.999 92.2991 568.825 92.2991C566.651 92.2991 564.889 94.0615 564.889 96.2355C564.889 98.4095 566.651 100.172 568.825 100.172Z" fill="white" stroke="white" stroke-miterlimit="10"/>
<path d="M568.825 57.2341C569.831 83.1611 569.839 109.125 568.825 135.052C567.811 109.125 567.819 83.1611 568.825 57.2341Z" fill="white"/>
<path d="M607.738 96.1467C581.811 97.153 555.847 97.1604 529.92 96.1467C555.847 95.133 581.811 95.1404 607.738 96.1467Z" fill="white"/>
<path d="M596.794 123.494C577.63 105.751 559.14 87.2676 541.396 68.0962C560.568 85.8396 579.044 104.323 596.794 123.494Z" fill="white"/>
<path d="M541.396 123.494C559.14 104.33 577.623 85.8396 596.794 68.0962C579.051 87.2676 560.568 105.744 541.396 123.494Z" fill="white"/>
<path d="M583.838 59.5056C574.944 84.0637 565.111 108.281 554.345 132.085C563.231 107.519 573.08 83.309 583.838 59.5056Z" fill="white"/>
<path d="M605.385 110.546C580.826 101.652 556.609 91.8181 532.805 81.0522C557.371 89.9387 581.581 99.7871 605.385 110.546Z" fill="white"/>
<path d="M584.327 131.885C573.25 108.23 563.076 84.1526 553.856 59.7129C564.941 83.3683 575.1 107.453 584.327 131.885Z" fill="white"/>
<path d="M533.005 111.034C556.661 99.9574 580.738 89.7834 605.178 80.564C581.522 91.648 557.438 101.807 533.005 111.034Z" fill="white"/>
<path d="M569.735 135.252C591.643 135.252 609.402 117.492 609.402 95.5843C609.402 73.6767 591.643 55.917 569.735 55.917C547.828 55.917 530.068 73.6767 530.068 95.5843C530.068 117.492 547.828 135.252 569.735 135.252Z" stroke="white" stroke-width="4.25" stroke-miterlimit="10"/>
<path d="M572.132 51.3369H565.821C565.457 51.3369 565.162 51.6317 565.162 51.9954V59.8312C565.162 60.1949 565.457 60.4898 565.821 60.4898H572.132C572.496 60.4898 572.791 60.1949 572.791 59.8312V51.9954C572.791 51.6317 572.496 51.3369 572.132 51.3369Z" fill="white" stroke="white" stroke-miterlimit="10"/>
<path d="M587.205 54.415H580.893C580.529 54.415 580.235 54.7099 580.235 55.0736V62.9094C580.235 63.2731 580.529 63.5679 580.893 63.5679H587.205C587.568 63.5679 587.863 63.2731 587.863 62.9094V55.0736C587.863 54.7099 587.568 54.415 587.205 54.415Z" fill="white" stroke="white" stroke-miterlimit="10"/>
<path d="M600.982 62.4875H594.671C594.307 62.4875 594.012 62.7824 594.012 63.1461V70.9819C594.012 71.3456 594.307 71.6404 594.671 71.6404H600.982C601.346 71.6404 601.641 71.3456 601.641 70.9819V63.1461C601.641 62.7824 601.346 62.4875 600.982 62.4875Z" fill="white" stroke="white" stroke-miterlimit="10"/>
<path d="M610.89 74.9109H604.578C604.214 74.9109 603.919 75.2057 603.919 75.5694V83.4052C603.919 83.7689 604.214 84.0637 604.578 84.0637H610.89C611.253 84.0637 611.548 83.7689 611.548 83.4052V75.5694C611.548 75.2057 611.253 74.9109 610.89 74.9109Z" fill="white" stroke="white" stroke-miterlimit="10"/>
<path d="M614.708 91.2336H608.396C608.032 91.2336 607.738 91.5285 607.738 91.8922V99.728C607.738 100.092 608.032 100.387 608.396 100.387H614.708C615.071 100.387 615.366 100.092 615.366 99.728V91.8922C615.366 91.5285 615.071 91.2336 614.708 91.2336Z" fill="white" stroke="white" stroke-miterlimit="10"/>
<path d="M610.89 106.92H604.578C604.214 106.92 603.919 107.215 603.919 107.578V115.414C603.919 115.778 604.214 116.073 604.578 116.073H610.89C611.253 116.073 611.548 115.778 611.548 115.414V107.578C611.548 107.215 611.253 106.92 610.89 106.92Z" fill="white" stroke="white" stroke-miterlimit="10"/>
<path d="M600.982 119.958H594.671C594.307 119.958 594.012 120.252 594.012 120.616V128.452C594.012 128.816 594.307 129.11 594.671 129.11H600.982C601.346 129.11 601.641 128.816 601.641 128.452V120.616C601.641 120.252 601.346 119.958 600.982 119.958Z" fill="white" stroke="white" stroke-miterlimit="10"/>
<path d="M588.766 127.853H582.454C582.091 127.853 581.796 128.147 581.796 128.511V136.347C581.796 136.711 582.091 137.005 582.454 137.005H588.766C589.129 137.005 589.424 136.711 589.424 136.347V128.511C589.424 128.147 589.129 127.853 588.766 127.853Z" fill="white" stroke="white" stroke-miterlimit="10"/>
<path d="M571.984 130.901H565.673C565.309 130.901 565.014 131.196 565.014 131.559V139.395C565.014 139.759 565.309 140.054 565.673 140.054H571.984C572.348 140.054 572.643 139.759 572.643 139.395V131.559C572.643 131.196 572.348 130.901 571.984 130.901Z" fill="white" stroke="white" stroke-miterlimit="10"/>
<path d="M556.735 127.853H550.423C550.059 127.853 549.765 128.147 549.765 128.511V136.347C549.765 136.711 550.059 137.005 550.423 137.005H556.735C557.098 137.005 557.393 136.711 557.393 136.347V128.511C557.393 128.147 557.098 127.853 556.735 127.853Z" fill="white" stroke="white" stroke-miterlimit="10"/>
<path d="M543.283 119.861H536.971C536.608 119.861 536.313 120.156 536.313 120.52V128.356C536.313 128.719 536.608 129.014 536.971 129.014H543.283C543.647 129.014 543.941 128.719 543.941 128.356V120.52C543.941 120.156 543.647 119.861 543.283 119.861Z" fill="white" stroke="white" stroke-miterlimit="10"/>
<path d="M534.596 106.92H528.285C527.921 106.92 527.626 107.215 527.626 107.578V115.414C527.626 115.778 527.921 116.073 528.285 116.073H534.596C534.96 116.073 535.255 115.778 535.255 115.414V107.578C535.255 107.215 534.96 106.92 534.596 106.92Z" fill="white" stroke="white" stroke-miterlimit="10"/>
<path d="M530.785 91.5667H524.474C524.11 91.5667 523.815 91.8615 523.815 92.2252V100.061C523.815 100.425 524.11 100.72 524.474 100.72H530.785C531.149 100.72 531.444 100.425 531.444 100.061V92.2252C531.444 91.8615 531.149 91.5667 530.785 91.5667Z" fill="white" stroke="white" stroke-miterlimit="10"/>
<path d="M534.596 74.9109H528.285C527.921 74.9109 527.626 75.2057 527.626 75.5694V83.4052C527.626 83.7689 527.921 84.0637 528.285 84.0637H534.596C534.96 84.0637 535.255 83.7689 535.255 83.4052V75.5694C535.255 75.2057 534.96 74.9109 534.596 74.9109Z" fill="white" stroke="white" stroke-miterlimit="10"/>
<path d="M543.283 62.1545H536.971C536.608 62.1545 536.313 62.4494 536.313 62.8131V70.6489C536.313 71.0126 536.608 71.3074 536.971 71.3074H543.283C543.647 71.3074 543.941 71.0126 543.941 70.6489V62.8131C543.941 62.4494 543.647 62.1545 543.283 62.1545Z" fill="white" stroke="white" stroke-miterlimit="10"/>
<path d="M556.394 54.415H550.083C549.719 54.415 549.424 54.7099 549.424 55.0736V62.9094C549.424 63.2731 549.719 63.5679 550.083 63.5679H556.394C556.758 63.5679 557.053 63.2731 557.053 62.9094V55.0736C557.053 54.7099 556.758 54.415 556.394 54.415Z" fill="white" stroke="white" stroke-miterlimit="10"/>
<path d="M568.973 124.434C584.906 124.434 597.823 111.517 597.823 95.5843C597.823 79.651 584.906 66.7346 568.973 66.7346C553.04 66.7346 540.123 79.651 540.123 95.5843C540.123 111.517 553.04 124.434 568.973 124.434Z" stroke="white" stroke-miterlimit="10"/>
<path d="M553.582 139.188H544.822" stroke="white" stroke-width="5.67" stroke-miterlimit="10" stroke-linecap="round"/>
<path d="M593.812 139.188H585.059" stroke="white" stroke-width="5.67" stroke-miterlimit="10" stroke-linecap="round"/>
<path d="M553.656 138.781L568.751 95.1479" stroke="white" stroke-width="5.67" stroke-miterlimit="10" stroke-linecap="round"/>
<path d="M568.507 95.3625L584.896 138.7" stroke="white" stroke-width="5.67" stroke-miterlimit="10" stroke-linecap="round"/>
</mask>
<g mask="url(#mask0_502_27)">
<rect x="-51.7395" y="-93.1619" width="984.279" height="317.188" fill="url(#paint0_linear_502_27)"/>
</g>
<defs>
<linearGradient id="paint0_linear_502_27" x1="834" y1="244" x2="-107.5" y2="-147.5" gradientUnits="userSpaceOnUse">
<stop stop-color="#B49836"/>
<stop offset="0.474774" stop-color="#E0B945"/>
<stop offset="1" stop-color="#EDBC79"/>
</linearGradient>
</defs>
</svg>
