<svg width="337" height="82" viewBox="0 0 337 82" fill="none" xmlns="http://www.w3.org/2000/svg">
<path d="M79.1855 66.3618C79.1855 66.3618 80.602 57.4532 97.0193 59.5026C112.126 61.3885 112.69 63.0545 123.034 58.0647C123.034 58.0647 116.975 63.4809 111.827 63.4595C105.075 63.1636 95.2839 61.5819 91.9303 61.8975C87.914 62.443 83.301 62.8116 79.1855 66.3618Z" fill="#EFC36A"/>
<path d="M120.208 76.938C120.026 76.8718 119.861 76.7892 119.729 76.657C119.596 76.5247 119.481 76.376 119.382 76.1777C119.282 75.9793 119.183 75.7479 119.084 75.5L115.894 66.5583H115.415L112.241 75.5C112.159 75.7645 112.06 75.9793 111.96 76.1777C111.861 76.376 111.746 76.5247 111.613 76.657C111.481 76.7727 111.316 76.8718 111.118 76.938C110.936 77.0041 110.688 77.0206 110.423 77.0206V77.3346H113.316V77.0206C112.853 77.0206 112.572 76.9049 112.506 76.69C112.44 76.4752 112.489 76.1281 112.655 75.6818L113.547 73.1696H116.654L117.563 75.7314C117.712 76.1611 117.762 76.4917 117.679 76.69C117.613 76.9049 117.349 77.0041 116.886 77.0041V77.3181H120.919V77.0041C120.638 77.0371 120.406 77.0041 120.208 76.938ZM113.729 72.7233L115.117 68.8227L116.506 72.7233H113.729Z" fill="#EFC36A"/>
<path d="M134.158 76.6404C133.744 77.004 133.166 77.2024 132.422 77.2024C131.777 77.2024 131.182 77.0702 130.637 76.8222C130.108 76.5578 129.629 76.2107 129.232 75.7479C128.835 75.2851 128.521 74.7397 128.274 74.0951C128.042 73.4505 127.91 72.7563 127.877 71.9795C127.844 71.2192 127.926 70.5085 128.125 69.8639C128.323 69.2193 128.604 68.6574 128.984 68.1946C129.364 67.7318 129.811 67.3682 130.34 67.1037C130.868 66.8558 131.447 66.7236 132.108 66.7236C132.918 66.7236 133.562 66.9219 134.058 67.3186C134.554 67.7153 134.868 68.2772 134.967 69.0045H135.281L135.116 67.3351C134.703 67.0542 134.207 66.8228 133.645 66.674C133.083 66.5253 132.488 66.4426 131.86 66.4426C131.067 66.4426 130.323 66.5749 129.629 66.8724C128.935 67.1533 128.34 67.5335 127.827 68.0458C127.315 68.5417 126.918 69.1367 126.637 69.8143C126.34 70.492 126.208 71.2358 126.208 72.0291C126.208 72.8224 126.356 73.5497 126.637 74.2273C126.935 74.905 127.331 75.4835 127.844 75.9793C128.356 76.4751 128.984 76.8553 129.695 77.1363C130.406 77.4172 131.182 77.566 132.042 77.566C132.653 77.566 133.215 77.4834 133.711 77.3346C134.224 77.1858 134.686 76.9545 135.116 76.6569L135.281 74.9876H134.967C134.835 75.6818 134.571 76.2603 134.158 76.6404Z" fill="#EFC36A"/>
<path d="M143.281 71.864C143.099 71.3682 142.868 70.955 142.554 70.5913C142.24 70.2443 141.86 69.9633 141.43 69.7815C140.984 69.5997 140.488 69.5005 139.959 69.5005C139.43 69.5005 138.934 69.5997 138.488 69.7815C138.042 69.9798 137.662 70.2443 137.348 70.5913C137.034 70.955 136.786 71.3682 136.62 71.864C136.439 72.3433 136.356 72.8887 136.356 73.5003C136.356 74.1118 136.439 74.6407 136.62 75.1365C136.802 75.6324 137.034 76.0456 137.348 76.4092C137.662 76.7728 138.042 77.0373 138.488 77.2191C138.934 77.4174 139.43 77.5166 139.959 77.5166C140.488 77.5166 141 77.4174 141.43 77.2191C141.876 77.0373 142.24 76.7563 142.554 76.4092C142.868 76.0621 143.116 75.6324 143.281 75.1365C143.463 74.6407 143.546 74.0953 143.546 73.5003C143.546 72.8887 143.463 72.3433 143.281 71.864ZM141.975 75.0043C141.909 75.4506 141.794 75.8473 141.645 76.1613C141.496 76.4753 141.298 76.7398 141.05 76.9216C140.802 77.1034 140.538 77.186 140.224 77.186C139.909 77.186 139.629 77.1034 139.364 76.9216C139.1 76.7398 138.868 76.4918 138.653 76.1613C138.438 75.8307 138.273 75.4506 138.141 75.0043C138.009 74.5581 137.926 74.0457 137.877 73.5003C137.827 72.9383 137.843 72.4425 137.91 71.9797C137.976 71.5169 138.075 71.1368 138.24 70.8062C138.389 70.4922 138.587 70.2277 138.835 70.0624C139.083 69.8806 139.348 69.798 139.662 69.798C139.976 69.798 140.257 69.8806 140.521 70.0624C140.785 70.2442 141.033 70.4922 141.232 70.8062C141.447 71.1368 141.612 71.5169 141.744 71.9797C141.876 72.4425 141.959 72.9383 142.009 73.5003C142.042 74.0457 142.042 74.5415 141.975 75.0043Z" fill="#EFC36A"/>
<path d="M152.57 76.9216C152.405 76.8389 152.289 76.7232 152.206 76.558C152.124 76.3927 152.091 76.1943 152.074 75.9464C152.058 75.6985 152.058 75.4175 152.058 75.0704V71.6987C152.058 70.2277 151.297 69.5005 149.777 69.5005C149.612 69.5005 149.446 69.517 149.298 69.5335C149.149 69.5501 148.983 69.5997 148.818 69.6492C148.653 69.7154 148.488 69.7815 148.289 69.8641C148.107 69.9467 147.893 70.0624 147.645 70.1947L147 70.5583V69.6492H146.703C145.942 70.1451 145.165 70.393 144.389 70.393V70.707C144.703 70.707 144.934 70.7236 145.099 70.7401C145.265 70.7566 145.397 70.8062 145.463 70.8723C145.546 70.9384 145.595 71.0541 145.595 71.1863C145.612 71.3186 145.612 71.5004 145.612 71.7483V75.087C145.612 75.4175 145.612 75.715 145.595 75.963C145.579 76.2109 145.546 76.4092 145.463 76.5745C145.38 76.7398 145.265 76.8555 145.099 76.9381C144.934 77.0207 144.703 77.0538 144.389 77.0538V77.3678H148.207V77.0538C147.893 77.0538 147.661 77.0207 147.496 76.9381C147.331 76.8555 147.215 76.7398 147.132 76.5745C147.05 76.4092 147.017 76.2109 147 75.963C147 75.715 146.984 75.4341 146.984 75.087V70.9384L147.512 70.6244C147.827 70.4426 148.074 70.3104 148.273 70.2112L148.769 69.9633C148.901 69.9137 149.017 69.8806 149.116 69.8476C149.215 69.8311 149.314 69.8145 149.413 69.8145C149.645 69.8145 149.843 69.8641 150.008 69.9302C150.157 70.0129 150.289 70.1451 150.388 70.3599C150.471 70.5583 150.537 70.8227 150.587 71.1533C150.636 71.4839 150.653 71.9136 150.653 72.4094V75.0704C150.653 75.401 150.653 75.6985 150.636 75.9464C150.636 76.1943 150.587 76.3927 150.504 76.558C150.421 76.7232 150.306 76.8389 150.14 76.9216C149.975 77.0042 149.744 77.0373 149.43 77.0373V77.3513H153.248V77.0373C152.967 77.0373 152.719 77.0042 152.57 76.9216Z" fill="#EFC36A"/>
<path d="M157.958 76.1446C157.776 76.3429 157.595 76.5082 157.396 76.6074C157.214 76.7065 157.049 76.7396 156.9 76.6735C156.636 76.5908 156.504 76.3264 156.504 75.8636V69.9631H157.958V69.6491H156.504V67.6492H156.206C156.206 68.2277 156.024 68.707 155.644 69.0871C155.264 69.4673 154.735 69.6491 154.058 69.6491V69.9631H155.132V75.7479C155.132 76.9214 155.529 77.4999 156.338 77.4999C157.033 77.4999 157.644 77.1032 158.19 76.3264L157.958 76.1446Z" fill="#EFC36A"/>
<path d="M165.759 72.6737C165.892 72.5084 165.941 72.2936 165.842 72.0126C165.743 71.6159 165.578 71.2688 165.379 70.9713C165.164 70.6573 164.916 70.4094 164.619 70.1945C164.321 69.9796 163.991 69.8144 163.627 69.6987C163.264 69.583 162.867 69.5168 162.454 69.5168C161.925 69.5168 161.446 69.5995 161.016 69.7978C160.57 69.9796 160.206 70.2441 159.875 70.5912C159.561 70.9383 159.313 71.368 159.132 71.8638C158.95 72.3597 158.867 72.9051 158.867 73.5166C158.867 74.1282 158.966 74.6901 159.148 75.186C159.33 75.6818 159.594 76.1115 159.942 76.4586C160.289 76.8057 160.702 77.0702 161.181 77.2685C161.677 77.4503 162.222 77.5495 162.817 77.5495C163.214 77.5495 163.627 77.4999 164.024 77.4172C164.437 77.3181 164.834 77.1693 165.23 76.971L165.743 76.69L165.578 76.376L165.214 76.5908C164.883 76.7892 164.52 76.9379 164.14 77.0536C163.759 77.1693 163.396 77.2189 163.082 77.2189C162.652 77.2189 162.272 77.1197 161.941 76.9049C161.594 76.69 161.313 76.3925 161.065 76.0289C160.834 75.6487 160.652 75.2025 160.537 74.6901C160.421 74.1612 160.371 73.5993 160.404 72.9712H165.016C165.379 72.9051 165.611 72.839 165.759 72.6737ZM164.222 72.2605C164.057 72.4919 163.726 72.6076 163.231 72.6076H160.437C160.487 71.7647 160.685 71.0705 161.032 70.5746C161.396 70.0623 161.859 69.8143 162.454 69.8143C163.231 69.8143 163.809 70.3102 164.222 71.2853C164.388 71.6985 164.404 72.0126 164.222 72.2605Z" fill="#EFC36A"/>
<path d="M179.94 76.9216C179.775 76.8389 179.659 76.7232 179.577 76.558C179.494 76.3927 179.461 76.1943 179.444 75.9464C179.428 75.6985 179.428 75.4175 179.428 75.0704V71.6987C179.428 70.988 179.246 70.4426 178.866 70.0624C178.486 69.6823 177.924 69.5005 177.147 69.5005C176.982 69.5005 176.816 69.517 176.668 69.5335C176.519 69.5501 176.354 69.5831 176.188 69.6492C176.023 69.6988 175.858 69.7649 175.66 69.8476C175.478 69.9302 175.263 70.0459 175.015 70.1947L174.205 70.6575C174.056 70.2773 173.808 69.9963 173.461 69.798C173.114 69.5997 172.668 69.5005 172.123 69.5005C171.957 69.5005 171.792 69.517 171.643 69.5335C171.494 69.5501 171.329 69.5831 171.164 69.6492C170.999 69.6988 170.833 69.7649 170.635 69.8476C170.453 69.9302 170.238 70.0459 169.99 70.1947L169.346 70.5583V69.6492H169.048C168.288 70.1451 167.511 70.393 166.734 70.393V70.707C167.048 70.707 167.28 70.7236 167.445 70.7401C167.61 70.7566 167.726 70.8062 167.809 70.8723C167.891 70.9384 167.941 71.0541 167.941 71.1863C167.957 71.3186 167.957 71.5004 167.957 71.7483V75.087C167.957 75.4175 167.957 75.715 167.941 75.963C167.941 76.2109 167.891 76.4092 167.809 76.5745C167.726 76.7398 167.61 76.8555 167.445 76.9381C167.28 77.0207 167.048 77.0538 166.734 77.0538V77.3678H170.552V77.0538C170.238 77.0538 170.007 77.0207 169.842 76.9381C169.676 76.8555 169.561 76.7398 169.478 76.5745C169.395 76.4092 169.362 76.2109 169.346 75.963C169.329 75.715 169.329 75.4341 169.329 75.087V70.9384L169.858 70.6244C170.172 70.4426 170.42 70.3104 170.618 70.2112C170.817 70.112 170.982 70.0294 171.114 69.9633C171.247 69.9137 171.379 69.8806 171.478 69.8476C171.594 69.8311 171.693 69.8145 171.808 69.8145C172.023 69.8145 172.222 69.8641 172.37 69.9302C172.519 70.0129 172.635 70.1451 172.734 70.3599C172.817 70.5583 172.883 70.8227 172.932 71.1533C172.965 71.4839 172.982 71.9136 172.982 72.4094V75.0704C172.982 75.401 172.982 75.6985 172.965 75.9464C172.965 76.1943 172.916 76.3927 172.833 76.558C172.767 76.7232 172.635 76.8389 172.47 76.9216C172.304 77.0042 172.073 77.0373 171.759 77.0373V77.3513H175.577V77.0373C175.263 77.0373 175.031 77.0042 174.866 76.9216C174.701 76.8389 174.569 76.7232 174.503 76.558C174.42 76.3927 174.387 76.1943 174.37 75.9464C174.354 75.6985 174.354 75.4175 174.354 75.0704V71.6987C174.354 71.55 174.354 71.4177 174.337 71.302C174.321 71.1863 174.304 71.0541 174.271 70.955L174.866 70.6244C175.18 70.4426 175.428 70.3104 175.626 70.2112C175.825 70.112 175.99 70.0294 176.122 69.9633C176.255 69.9137 176.387 69.8806 176.486 69.8476C176.602 69.8311 176.701 69.8145 176.816 69.8145C177.048 69.8145 177.23 69.8641 177.378 69.9302C177.527 70.0129 177.643 70.1451 177.742 70.3599C177.825 70.5583 177.891 70.8227 177.94 71.1533C177.99 71.4839 177.99 71.9136 177.99 72.4094V75.0704C177.99 75.401 177.99 75.6985 177.973 75.9464C177.973 76.1943 177.924 76.3927 177.841 76.558C177.759 76.7232 177.643 76.8389 177.478 76.9216C177.312 77.0042 177.081 77.0373 176.767 77.0373V77.3513H180.585V77.0373C180.337 77.0373 180.106 77.0042 179.94 76.9216Z" fill="#EFC36A"/>
<path d="M189.262 71.9136C189.08 71.4177 188.832 71.0045 188.518 70.6409C188.204 70.2773 187.824 69.9963 187.411 69.798C186.981 69.5997 186.518 69.5005 186.023 69.5005C185.692 69.5005 185.378 69.5501 185.08 69.6492C184.783 69.7484 184.436 69.9137 184.039 70.1451V69.6658H183.742C182.981 70.1616 182.205 70.4095 181.428 70.4095V70.7236C181.742 70.7236 181.973 70.7401 182.138 70.7566C182.304 70.7731 182.419 70.8227 182.502 70.8888C182.568 70.955 182.618 71.0706 182.634 71.2029C182.651 71.3351 182.651 71.5169 182.651 71.7648V78.938C182.651 79.2686 182.651 79.5661 182.634 79.814C182.618 80.0619 182.585 80.2602 182.502 80.4255C182.419 80.5908 182.304 80.7065 182.138 80.7891C181.973 80.8552 181.742 80.9048 181.428 80.9048V81.2189H185.246V80.9048C184.932 80.9048 184.7 80.8552 184.535 80.7891C184.37 80.7065 184.254 80.5908 184.171 80.4255C184.089 80.2602 184.056 80.0619 184.039 79.814C184.039 79.5661 184.023 79.2686 184.023 78.938V76.872C184.419 77.3182 185.014 77.5331 185.808 77.5331C186.37 77.5331 186.865 77.4339 187.312 77.2356C187.758 77.0373 188.155 76.7728 188.485 76.4092C188.816 76.0456 189.064 75.6324 189.246 75.1531C189.427 74.6738 189.51 74.1283 189.51 73.5499C189.543 72.9383 189.444 72.4094 189.262 71.9136ZM187.923 74.9052C187.841 75.3679 187.675 75.7811 187.477 76.1117C187.262 76.4588 186.998 76.7067 186.684 76.905C186.37 77.0869 186.006 77.186 185.609 77.186C185.213 77.186 184.882 77.1034 184.618 76.9216C184.353 76.7398 184.171 76.4753 184.056 76.1448V70.5087C184.502 70.2443 184.833 70.0624 185.064 69.9633C185.295 69.8641 185.51 69.8145 185.708 69.8145C186.006 69.8145 186.287 69.8972 186.551 70.079C186.816 70.2608 187.047 70.4922 187.246 70.8062C187.444 71.1202 187.609 71.5004 187.741 71.9136C187.874 72.3433 187.956 72.8061 188.006 73.3185C188.039 73.9135 188.006 74.4424 187.923 74.9052Z" fill="#EFC36A"/>
<path d="M197.56 71.864C197.378 71.3682 197.146 70.955 196.832 70.5913C196.518 70.2443 196.138 69.9633 195.708 69.7815C195.262 69.5997 194.766 69.5005 194.237 69.5005C193.708 69.5005 193.213 69.5997 192.766 69.7815C192.32 69.9798 191.94 70.2443 191.626 70.5913C191.312 70.955 191.064 71.3682 190.899 71.864C190.717 72.3433 190.634 72.8887 190.634 73.5003C190.634 74.1118 190.717 74.6407 190.899 75.1365C191.081 75.6324 191.312 76.0456 191.626 76.4092C191.94 76.7728 192.32 77.0373 192.766 77.2191C193.213 77.4174 193.708 77.5166 194.237 77.5166C194.766 77.5166 195.279 77.4174 195.708 77.2191C196.155 77.0373 196.518 76.7563 196.832 76.4092C197.146 76.0621 197.394 75.6324 197.56 75.1365C197.741 74.6407 197.824 74.0953 197.824 73.5003C197.824 72.8887 197.741 72.3433 197.56 71.864ZM196.254 75.0043C196.188 75.4506 196.072 75.8473 195.923 76.1613C195.774 76.4753 195.576 76.7398 195.328 76.9216C195.08 77.1034 194.816 77.186 194.502 77.186C194.188 77.186 193.907 77.1034 193.642 76.9216C193.378 76.7398 193.147 76.4918 192.932 76.1613C192.717 75.8307 192.552 75.4506 192.419 75.0043C192.287 74.5581 192.204 74.0457 192.155 73.5003C192.105 72.9383 192.122 72.4425 192.188 71.9797C192.254 71.5169 192.353 71.1368 192.518 70.8062C192.667 70.4922 192.866 70.2277 193.113 70.0624C193.361 69.8806 193.626 69.798 193.94 69.798C194.254 69.798 194.535 69.8806 194.799 70.0624C195.064 70.2442 195.312 70.4922 195.51 70.8062C195.725 71.1368 195.89 71.5169 196.022 71.9797C196.155 72.4425 196.237 72.9383 196.287 73.5003C196.32 74.0457 196.32 74.5415 196.254 75.0043Z" fill="#EFC36A"/>
<path d="M204.7 70.6905C204.667 70.5418 204.601 70.3765 204.485 70.2442C204.369 70.0955 204.237 69.9633 204.055 69.8641C203.89 69.7484 203.708 69.6658 203.493 69.5997C203.295 69.5335 203.097 69.5005 202.898 69.5005C202.634 69.5005 202.402 69.5501 202.171 69.6492C201.94 69.7484 201.725 69.8972 201.526 70.079L201.278 70.2938V69.6492H200.981C200.221 70.1451 199.444 70.393 198.667 70.393V70.707C198.981 70.707 199.212 70.7236 199.378 70.7401C199.543 70.7566 199.675 70.8062 199.741 70.8723C199.824 70.9384 199.874 71.0541 199.874 71.1863C199.89 71.3186 199.89 71.5004 199.89 71.7483V75.087C199.89 75.4175 199.89 75.715 199.874 75.963C199.857 76.2109 199.824 76.4092 199.741 76.5745C199.659 76.7398 199.543 76.8555 199.378 76.9381C199.212 77.0207 198.981 77.0538 198.667 77.0538V77.3678H202.485V77.0538C202.171 77.0538 201.94 77.0207 201.774 76.9381C201.609 76.8555 201.493 76.7398 201.411 76.5745C201.328 76.4092 201.295 76.2109 201.278 75.963C201.278 75.715 201.262 75.4341 201.262 75.087V70.7401L201.692 70.3599C201.873 70.1947 202.055 70.0624 202.254 69.9633C202.452 69.8641 202.617 69.8145 202.766 69.8145C203.063 69.8145 203.229 70.0624 203.262 70.5418C203.278 70.7566 203.328 70.9384 203.377 71.0707C203.444 71.2194 203.51 71.3186 203.609 71.4012C203.692 71.4839 203.791 71.5334 203.89 71.55C203.989 71.5665 204.072 71.583 204.138 71.5665C204.336 71.55 204.501 71.4508 204.584 71.269C204.716 71.0872 204.749 70.9054 204.7 70.6905Z" fill="#EFC36A"/>
<path d="M211.922 76.4422C211.642 76.624 211.41 76.6571 211.261 76.5248C211.096 76.4091 210.997 76.1282 210.997 75.6984V72.4094C210.997 71.9631 210.931 71.5664 210.782 71.2028C210.65 70.8392 210.435 70.5417 210.171 70.2772C209.906 70.0128 209.592 69.8144 209.228 69.6822C208.865 69.55 208.452 69.4839 208.005 69.4839C207.443 69.4839 206.931 69.5831 206.468 69.7979C206.005 69.9963 205.708 70.2607 205.526 70.5747C205.46 70.707 205.444 70.8392 205.427 70.9879C205.427 71.1202 205.444 71.2524 205.493 71.3516C205.543 71.4673 205.625 71.5499 205.708 71.616C205.791 71.6821 205.906 71.7152 206.039 71.7152C206.237 71.7152 206.419 71.6325 206.551 71.4838C206.683 71.335 206.782 71.1202 206.832 70.8722C206.898 70.5417 207.03 70.2772 207.262 70.0789C207.476 69.8806 207.757 69.7814 208.071 69.7814C208.534 69.7814 208.914 69.9963 209.179 70.4425C209.443 70.8888 209.576 71.5168 209.576 72.3267V73.2027L208.617 73.5333C207.906 73.7812 207.311 73.996 206.832 74.1944C206.353 74.3927 205.956 74.591 205.658 74.7729C205.361 74.9547 205.146 75.153 205.014 75.3513C204.882 75.5497 204.815 75.7811 204.815 76.0125C204.815 76.4422 204.997 76.7728 205.377 77.0372C205.758 77.3016 206.253 77.4339 206.848 77.4339C207.195 77.4339 207.526 77.3843 207.84 77.2851C208.154 77.186 208.468 77.0207 208.799 76.7728L209.559 76.2108V76.4918C209.559 76.6901 209.609 76.8554 209.691 77.0041C209.79 77.1529 209.906 77.2521 210.038 77.3347C210.171 77.4173 210.336 77.4504 210.501 77.4504C210.666 77.4504 210.848 77.3843 211.013 77.2851L212.022 76.6405L211.922 76.4422ZM209.625 75.8968L209.047 76.31C208.683 76.5744 208.369 76.7728 208.105 76.938C207.84 77.1033 207.576 77.186 207.344 77.186C206.733 77.186 206.419 76.7893 206.419 76.0125C206.419 75.7645 206.468 75.5497 206.534 75.3513C206.617 75.153 206.733 74.9712 206.915 74.8224C207.096 74.6572 207.344 74.5084 207.642 74.3597C207.939 74.2109 208.319 74.0622 208.749 73.9134L209.625 73.5994V75.8968Z" fill="#EFC36A"/>
<path d="M218.897 70.6905C218.864 70.5418 218.798 70.3765 218.683 70.2442C218.567 70.0955 218.435 69.9633 218.253 69.8641C218.088 69.7484 217.889 69.6658 217.691 69.5997C217.493 69.5335 217.294 69.5005 217.079 69.5005C216.831 69.5005 216.583 69.5501 216.352 69.6492C216.137 69.7484 215.906 69.8972 215.707 70.079L215.46 70.2938V69.6492H215.162C214.385 70.1451 213.625 70.393 212.848 70.393V70.707C213.162 70.707 213.394 70.7236 213.559 70.7401C213.724 70.7566 213.84 70.8062 213.922 70.8723C214.005 70.9384 214.038 71.0541 214.055 71.1863C214.071 71.3186 214.071 71.5004 214.071 71.7483V75.087C214.071 75.4175 214.071 75.715 214.055 75.963C214.055 76.2109 214.005 76.4092 213.922 76.5745C213.84 76.7398 213.724 76.8555 213.559 76.9381C213.394 77.0207 213.162 77.0538 212.848 77.0538V77.3678H216.666V77.0538C216.352 77.0538 216.121 77.0207 215.955 76.9381C215.79 76.8555 215.658 76.7398 215.592 76.5745C215.509 76.4092 215.476 76.2109 215.46 75.963C215.443 75.715 215.443 75.4341 215.443 75.087V70.7401L215.873 70.3599C216.055 70.1947 216.236 70.0624 216.435 69.9633C216.633 69.8641 216.798 69.8145 216.947 69.8145C217.245 69.8145 217.41 70.0624 217.443 70.5418C217.459 70.7566 217.509 70.9384 217.559 71.0707C217.625 71.2194 217.691 71.3186 217.79 71.4012C217.889 71.4839 217.972 71.5334 218.071 71.55C218.17 71.5665 218.253 71.583 218.335 71.5665C218.534 71.55 218.699 71.4508 218.782 71.269C218.914 71.0872 218.93 70.9054 218.897 70.6905Z" fill="#EFC36A"/>
<path d="M224.913 69.6492V69.9632C225.359 69.9632 225.624 70.0789 225.723 70.2772C225.806 70.4756 225.74 70.8557 225.541 71.4011L224.054 75.3018L222.599 71.5003C222.384 70.8888 222.302 70.4921 222.368 70.2772C222.434 70.0624 222.682 69.9632 223.128 69.9632V69.6492H219.393V69.9632C219.608 69.9632 219.79 69.9963 219.955 70.0458C220.12 70.0954 220.269 70.1946 220.401 70.3599C220.533 70.5086 220.665 70.707 220.798 70.9549C220.913 71.2028 221.062 71.5334 221.211 71.93L223.277 77.3347L222.55 79.2024C222.384 79.6156 222.252 79.9131 222.136 80.0784C222.021 80.2602 221.889 80.3759 221.74 80.442C221.558 80.5246 221.409 80.5246 221.277 80.4585C221.145 80.3924 221.013 80.2436 220.864 80.0122C220.682 79.6982 220.484 79.4834 220.236 79.3677C219.988 79.2354 219.773 79.2354 219.575 79.3511C219.426 79.4338 219.343 79.566 219.327 79.7809C219.31 79.9792 219.376 80.1775 219.509 80.3759C219.591 80.4916 219.723 80.6073 219.905 80.6899C220.07 80.7891 220.252 80.8552 220.467 80.9048C220.665 80.9543 220.864 80.9709 221.095 80.9709C221.31 80.9709 221.508 80.9213 221.69 80.8717C221.955 80.7891 222.17 80.6403 222.335 80.4255C222.5 80.2106 222.682 79.88 222.847 79.4172L225.988 71.1698C226.169 70.7235 226.368 70.4095 226.616 70.2277C226.847 70.0458 227.194 69.9632 227.657 69.9632V69.6492H224.913Z" fill="#EFC36A"/>
<path d="M239.954 66.575H232.714V66.889C233.028 66.889 233.26 66.9386 233.425 67.0047C233.59 67.0873 233.706 67.203 233.789 67.3683C233.871 67.5336 233.904 67.7484 233.921 67.9798C233.921 68.2278 233.937 68.5253 233.937 68.8558V75.0704C233.937 75.4009 233.937 75.6984 233.921 75.9463C233.904 76.1943 233.871 76.3926 233.789 76.5579C233.706 76.7232 233.59 76.8389 233.425 76.9215C233.26 77.0041 233.028 77.0372 232.714 77.0372V77.3512H236.681V77.0372C236.367 77.0372 236.136 77.0041 235.97 76.9215C235.805 76.8389 235.673 76.7232 235.607 76.5579C235.524 76.3926 235.491 76.1943 235.475 75.9463C235.458 75.6984 235.458 75.4175 235.458 75.0704V71.7317H236.218C236.731 71.7317 237.16 71.7482 237.524 71.8143C237.888 71.8639 238.169 71.9466 238.4 72.0623C238.615 72.178 238.797 72.3267 238.912 72.525C239.028 72.7234 239.094 72.9548 239.127 73.2358H239.441L239.16 69.8806H238.846C238.879 70.1781 238.846 70.4095 238.78 70.6078C238.697 70.8061 238.565 70.9714 238.367 71.0706C238.169 71.1863 237.888 71.2689 237.541 71.3185C237.193 71.3681 236.764 71.4011 236.268 71.4011H235.475V68.8393C235.475 68.4426 235.508 68.1286 235.574 67.8807C235.64 67.6327 235.756 67.4344 235.937 67.2857C236.103 67.1369 236.334 67.0377 236.631 66.9716C236.929 66.9055 237.293 66.8725 237.739 66.8725C238.102 66.8725 238.4 66.889 238.664 66.9386C238.929 66.9882 239.144 67.0543 239.326 67.1534C239.491 67.2526 239.64 67.4014 239.755 67.5666C239.871 67.7484 239.937 67.9633 239.987 68.2443H240.301L239.954 66.575Z" fill="#EFC36A"/>
<path d="M247.259 76.4422C246.978 76.624 246.747 76.6571 246.598 76.5248C246.416 76.4091 246.334 76.1282 246.334 75.6984V72.4094C246.334 71.9631 246.268 71.5664 246.119 71.2028C245.987 70.8392 245.772 70.5417 245.507 70.2772C245.243 70.0128 244.929 69.8144 244.565 69.6822C244.202 69.55 243.789 69.4839 243.342 69.4839C242.78 69.4839 242.268 69.5831 241.805 69.7979C241.342 69.9963 241.045 70.2607 240.863 70.5747C240.797 70.707 240.78 70.8392 240.764 70.9879C240.764 71.1202 240.78 71.2524 240.83 71.3516C240.88 71.4673 240.962 71.5499 241.045 71.616C241.128 71.6821 241.243 71.7152 241.375 71.7152C241.574 71.7152 241.756 71.6325 241.888 71.4838C242.02 71.335 242.119 71.1202 242.169 70.8722C242.235 70.5417 242.367 70.2772 242.599 70.0789C242.813 69.8806 243.094 69.7814 243.408 69.7814C243.871 69.7814 244.251 69.9963 244.516 70.4425C244.78 70.8888 244.912 71.5168 244.912 72.3267V73.2027L243.954 73.5333C243.243 73.7812 242.648 73.996 242.169 74.1944C241.689 74.3927 241.293 74.591 240.995 74.7729C240.698 74.9547 240.483 75.153 240.351 75.3513C240.218 75.5497 240.152 75.7811 240.152 76.0125C240.152 76.4422 240.334 76.7728 240.714 77.0372C241.094 77.3016 241.59 77.4339 242.185 77.4339C242.532 77.4339 242.863 77.3843 243.177 77.2851C243.491 77.186 243.822 77.0207 244.136 76.7728L244.896 76.2108V76.4918C244.896 76.6901 244.945 76.8554 245.028 77.0041C245.127 77.1529 245.243 77.2521 245.375 77.3347C245.507 77.4173 245.673 77.4504 245.838 77.4504C246.02 77.4504 246.185 77.3843 246.35 77.2851L247.359 76.6405L247.259 76.4422ZM244.945 75.8968L244.367 76.31C244.003 76.5744 243.689 76.7728 243.425 76.938C243.16 77.1033 242.896 77.186 242.665 77.186C242.053 77.186 241.739 76.7893 241.739 76.0125C241.739 75.7645 241.789 75.5497 241.855 75.3513C241.937 75.153 242.053 74.9712 242.235 74.8224C242.417 74.6572 242.665 74.5084 242.962 74.3597C243.26 74.2109 243.64 74.0622 244.069 73.9134L244.945 73.5994V75.8968Z" fill="#EFC36A"/>
<path d="M256.134 76.9216C255.969 76.8389 255.853 76.7232 255.771 76.558C255.688 76.3927 255.655 76.1943 255.639 75.9464C255.639 75.6985 255.622 75.4175 255.622 75.0704V71.6987C255.622 70.2277 254.862 69.5005 253.341 69.5005C253.176 69.5005 253.027 69.517 252.862 69.5335C252.713 69.5501 252.548 69.5997 252.383 69.6492C252.217 69.7154 252.052 69.7815 251.854 69.8641C251.672 69.9467 251.457 70.0624 251.209 70.1947L250.564 70.5583V69.6492H250.267C249.49 70.1451 248.73 70.393 247.937 70.393V70.707C248.251 70.707 248.482 70.7236 248.647 70.7401C248.813 70.7566 248.928 70.8062 249.011 70.8723C249.077 70.9384 249.127 71.0541 249.143 71.1863C249.16 71.3186 249.16 71.5004 249.16 71.7483V75.087C249.16 75.4175 249.16 75.715 249.143 75.963C249.127 76.2109 249.093 76.4092 249.011 76.5745C248.945 76.7398 248.813 76.8555 248.647 76.9381C248.482 77.0207 248.251 77.0538 247.937 77.0538V77.3678H251.754V77.0538C251.44 77.0538 251.209 77.0207 251.044 76.9381C250.879 76.8555 250.763 76.7398 250.68 76.5745C250.614 76.4092 250.564 76.2109 250.548 75.963C250.531 75.715 250.531 75.4341 250.531 75.087V70.9384L251.06 70.6244C251.374 70.4426 251.622 70.3104 251.821 70.2112C252.019 70.112 252.184 70.0294 252.316 69.9633C252.449 69.9137 252.564 69.8806 252.664 69.8476C252.746 69.8311 252.845 69.8145 252.961 69.8145C253.192 69.8145 253.391 69.8641 253.556 69.9302C253.721 70.0129 253.854 70.1451 253.936 70.3599C254.019 70.5583 254.085 70.8227 254.135 71.1533C254.184 71.4839 254.201 71.9136 254.201 72.4094V75.0704C254.201 75.401 254.201 75.6985 254.184 75.9464C254.168 76.1943 254.135 76.3927 254.052 76.558C253.969 76.7232 253.854 76.8389 253.688 76.9216C253.523 77.0042 253.292 77.0373 252.978 77.0373V77.3513H256.796V77.0373C256.531 77.0373 256.283 77.0042 256.134 76.9216Z" fill="#EFC36A"/>
<path d="M261.523 76.1448C261.341 76.3432 261.143 76.5084 260.961 76.6076C260.779 76.7068 260.614 76.7398 260.465 76.6737C260.201 76.5911 260.069 76.3266 260.069 75.8638V69.9633H261.523V69.6493H260.069V67.6494H259.755C259.755 68.2279 259.573 68.7072 259.193 69.0874C258.812 69.4675 258.284 69.6493 257.589 69.6493V69.9633H258.664V75.7482C258.664 76.9216 259.06 77.5001 259.87 77.5001C260.564 77.5001 261.176 77.1035 261.721 76.3266L261.523 76.1448Z" fill="#EFC36A"/>
<path d="M269.589 76.4422C269.308 76.624 269.076 76.6571 268.927 76.5248C268.746 76.4091 268.663 76.1282 268.663 75.6984V72.4094C268.663 71.9631 268.597 71.5664 268.448 71.2028C268.299 70.8392 268.101 70.5417 267.837 70.2772C267.572 70.0128 267.258 69.8144 266.895 69.6822C266.531 69.55 266.118 69.4839 265.671 69.4839C265.109 69.4839 264.597 69.5831 264.134 69.7979C263.672 69.9963 263.374 70.2607 263.209 70.5747C263.143 70.707 263.11 70.8392 263.11 70.9879C263.11 71.1202 263.126 71.2524 263.176 71.3516C263.225 71.4673 263.291 71.5499 263.391 71.616C263.49 71.6821 263.589 71.7152 263.721 71.7152C263.919 71.7152 264.101 71.6325 264.233 71.4838C264.366 71.335 264.465 71.1202 264.514 70.8722C264.581 70.5417 264.713 70.2772 264.944 70.0789C265.159 69.8806 265.44 69.7814 265.754 69.7814C266.217 69.7814 266.597 69.9963 266.861 70.4425C267.126 70.8888 267.275 71.5168 267.275 72.3267V73.2027L266.299 73.5333C265.589 73.7812 264.994 73.996 264.514 74.1944C264.035 74.3927 263.638 74.591 263.341 74.7729C263.043 74.9547 262.829 75.153 262.696 75.3513C262.564 75.5497 262.498 75.7811 262.498 76.0125C262.498 76.4422 262.696 76.7728 263.06 77.0372C263.44 77.3016 263.919 77.4339 264.531 77.4339C264.878 77.4339 265.209 77.3843 265.523 77.2851C265.837 77.186 266.151 77.0207 266.481 76.7728L267.258 76.2108V76.4918C267.258 76.6901 267.308 76.8554 267.39 77.0041C267.473 77.1529 267.589 77.2521 267.737 77.3347C267.87 77.4173 268.035 77.4504 268.2 77.4504C268.382 77.4504 268.547 77.3843 268.713 77.2851L269.721 76.6405L269.589 76.4422ZM267.275 75.8968L266.696 76.31C266.333 76.5744 266.019 76.7728 265.754 76.938C265.49 77.1033 265.225 77.186 264.994 77.186C264.382 77.186 264.068 76.7893 264.068 76.0125C264.068 75.7645 264.101 75.5497 264.184 75.3513C264.25 75.153 264.382 74.9712 264.564 74.8224C264.746 74.6572 264.994 74.5084 265.291 74.3597C265.605 74.2109 265.969 74.0622 266.399 73.9134L267.275 73.5994V75.8968Z" fill="#EFC36A"/>
<path d="M275.324 74.4092C275.059 74.0291 274.58 73.5828 273.902 73.0539C273.506 72.7399 273.192 72.492 272.944 72.2771C272.696 72.0623 272.497 71.8805 272.365 71.7152C272.216 71.5664 272.117 71.4177 272.068 71.2854C272.018 71.1532 271.985 71.021 271.985 70.8888C271.985 70.5913 272.101 70.3433 272.299 70.1285C272.514 69.9136 272.844 69.7979 273.307 69.7979C273.869 69.7979 274.282 69.9632 274.596 70.2938C274.911 70.6243 275.026 71.0541 274.96 71.5829H275.274L275.489 70.3599C275.225 70.0954 274.877 69.8806 274.464 69.7318C274.035 69.5665 273.588 69.4839 273.092 69.4839C272.349 69.4839 271.77 69.6492 271.324 69.9963C270.894 70.3268 270.679 70.7731 270.679 71.2854C270.679 71.4838 270.712 71.6821 270.795 71.8639C270.861 72.0623 270.977 72.2606 271.159 72.4589C271.324 72.6573 271.539 72.8887 271.803 73.1201C272.068 73.3514 272.398 73.6159 272.795 73.9134C273.423 74.3762 273.836 74.7563 274.084 75.0373C274.332 75.3183 274.448 75.5993 274.448 75.8637C274.448 76.0455 274.398 76.2273 274.315 76.3761C274.233 76.5248 274.117 76.6736 273.968 76.7893C273.836 76.905 273.654 77.0041 273.456 77.0703C273.258 77.1364 273.043 77.1694 272.795 77.1694C272.481 77.1694 272.2 77.1033 271.919 76.9711C271.654 76.8389 271.44 76.6736 271.274 76.4422C271.093 76.2273 270.977 75.9629 270.911 75.6488C270.845 75.3348 270.828 75.0043 270.861 74.6406H270.547L270.266 76.1447C271.043 77.0207 271.969 77.4504 273.059 77.4504C273.44 77.4504 273.803 77.4008 274.134 77.3017C274.464 77.2025 274.745 77.0703 274.977 76.905C275.208 76.7232 275.406 76.5248 275.539 76.2769C275.671 76.029 275.737 75.7811 275.737 75.4836C275.72 75.153 275.588 74.7894 275.324 74.4092Z" fill="#EFC36A"/>
<path d="M279.142 67.2362C279.01 67.104 278.812 67.0378 278.58 67.0378C278.349 67.0378 278.151 67.104 278.018 67.2362C277.886 67.3684 277.82 67.5667 277.82 67.7981C277.82 68.0295 277.886 68.2279 278.018 68.3601C278.151 68.4923 278.349 68.5749 278.58 68.5749C278.828 68.5749 279.01 68.5088 279.142 68.3601C279.274 68.2279 279.341 68.0295 279.341 67.7981C279.341 67.5667 279.274 67.3849 279.142 67.2362ZM279.77 76.9216C279.605 76.839 279.489 76.7233 279.407 76.558C279.341 76.3927 279.291 76.1944 279.274 75.9465C279.258 75.6985 279.258 75.4176 279.258 75.0705V69.6493H278.96C278.184 70.1451 277.423 70.393 276.646 70.393V70.7071C276.961 70.7071 277.192 70.7236 277.357 70.7401C277.522 70.7566 277.638 70.8062 277.721 70.8723C277.803 70.9385 277.836 71.0542 277.853 71.1864C277.87 71.3186 277.87 71.5004 277.87 71.7483V75.087C277.87 75.4176 277.87 75.7151 277.853 75.963C277.836 76.2109 277.803 76.4092 277.721 76.5745C277.655 76.7398 277.522 76.8555 277.357 76.9381C277.192 77.0208 276.961 77.0538 276.646 77.0538V77.3679H280.464V77.0538C280.167 77.0373 279.936 77.0042 279.77 76.9216Z" fill="#EFC36A"/>
<path d="M288.315 76.4422C288.018 76.624 287.803 76.6571 287.654 76.5248C287.472 76.4091 287.39 76.1282 287.39 75.6984V72.4094C287.39 71.9631 287.324 71.5664 287.175 71.2028C287.026 70.8392 286.828 70.5417 286.563 70.2772C286.299 70.0128 285.985 69.8144 285.621 69.6822C285.258 69.55 284.844 69.4839 284.398 69.4839C283.836 69.4839 283.324 69.5831 282.861 69.7979C282.415 69.9963 282.101 70.2607 281.935 70.5747C281.869 70.707 281.836 70.8392 281.836 70.9879C281.836 71.1202 281.853 71.2524 281.902 71.3516C281.952 71.4673 282.018 71.5499 282.117 71.616C282.2 71.6821 282.316 71.7152 282.448 71.7152C282.646 71.7152 282.828 71.6325 282.96 71.4838C283.092 71.335 283.192 71.1202 283.258 70.8722C283.324 70.5417 283.456 70.2772 283.687 70.0789C283.902 69.8806 284.183 69.7814 284.497 69.7814C284.96 69.7814 285.34 69.9963 285.605 70.4425C285.869 70.8888 286.001 71.5168 286.001 72.3267V73.2027L285.043 73.5333C284.332 73.7812 283.737 73.996 283.258 74.1944C282.778 74.3927 282.382 74.591 282.084 74.7729C281.787 74.9547 281.572 75.153 281.44 75.3513C281.307 75.5497 281.241 75.7811 281.241 76.0125C281.241 76.4422 281.423 76.7728 281.803 77.0372C282.183 77.3016 282.663 77.4339 283.274 77.4339C283.621 77.4339 283.952 77.3843 284.266 77.2851C284.58 77.186 284.894 77.0207 285.224 76.7728L285.985 76.2108V76.4918C285.985 76.6901 286.034 76.8554 286.117 77.0041C286.2 77.1529 286.332 77.2521 286.464 77.3347C286.596 77.4173 286.762 77.4504 286.927 77.4504C287.109 77.4504 287.274 77.3843 287.439 77.2851L288.447 76.6405L288.315 76.4422ZM286.018 75.8968L285.439 76.31C285.076 76.5744 284.762 76.7728 284.497 76.938C284.233 77.1033 283.968 77.186 283.737 77.186C283.125 77.186 282.811 76.7893 282.811 76.0125C282.811 75.7645 282.844 75.5497 282.927 75.3513C283.01 75.153 283.125 74.9712 283.307 74.8224C283.489 74.6572 283.737 74.5084 284.034 74.3597C284.332 74.2109 284.712 74.0622 285.142 73.9134L286.018 73.5994V75.8968Z" fill="#EFC36A"/>
<path d="M79.1858 66.3766C76.905 73.7316 72.0292 77.3181 64.7568 77.3181C57.1044 77.3181 50.8237 73.4341 45.5513 63.385L34.6097 42.4936C32.8247 39.1549 32.309 37.5781 29.4298 37.4856C27.6828 37.9318 26.6432 39.8656 26.4614 41.3531V30.1967C26.701 33.8891 28.053 35.8923 29.4364 36.2295C35.0246 36.241 41.5515 29.6678 42.0308 21.8005C42.0639 21.2716 42.0804 20.7427 42.0804 20.2138C42.13 16.5776 41.2705 12.991 39.6012 9.76807C39.6012 9.75154 39.5846 9.75154 39.5846 9.75154C36.0807 4.28076 31.9322 2.74365 23.5525 2.77671C15.1727 2.80977 9.99781 4.06094 4.95676 11.0688C4.35679 12.12 3.69071 13.4737 3.2395 14.6273C-0.677649 26.7754 6.54841 33.6098 10.9283 35.7915C4.28407 34.0064 0 28.6596 0 20.6931C0 8.95819 8.9582 0 23.4863 0C38.0145 0 48.8569 8.36319 48.8569 19.8998C48.923 28.6596 42.3448 36.0642 33.6346 37.0063C37.0228 37.8161 39.9978 39.4028 41.6011 42.3779L49.8486 58.1952C55.716 69.4343 60.5009 73.5779 67.6492 73.2192C73.9117 72.8705 79.1858 66.3601 79.1858 66.3601V66.3766Z" fill="#EFC36A"/>
<path d="M24.668 35.9684L24.6598 36.8245C24.6432 36.8245 24.0648 36.841 24.0648 36.841V52.4105C24.0648 55.9375 23.645 59.901 29.486 59.7985V60.3604C29.486 60.3604 21.569 62.5917 21.569 70.8723C21.569 62.6083 13.8174 60.3604 13.8174 60.3604V60.0629C18.6436 60.0629 18.6436 55.8648 18.6436 52.6749V38.8409C17.5858 37.2708 16.0321 35.9485 13.8339 35.8989C16.0487 35.8659 17.6023 34.5271 18.6601 32.957V18.0156C18.6601 14.8257 18.6601 10.6276 13.8339 10.6276V10.3301H28.4133V10.5945C23.8912 10.5945 24.0251 15.2687 24.0813 17.9131L24.078 35.9618C24.0879 35.9618 24.6548 35.9684 24.6697 35.9684H24.668Z" fill="#EFC36A"/>
<path d="M225.207 36.565C226.385 36.565 227.339 35.7724 227.339 34.7948C227.339 33.8172 226.385 33.0247 225.207 33.0247C224.03 33.0247 223.075 33.8172 223.075 34.7948C223.075 35.7724 224.03 36.565 225.207 36.565Z" fill="#EFC36A"/>
<path d="M225.145 19.5691C225.492 29.8165 225.492 40.0639 225.145 50.3112C224.798 40.0639 224.798 29.8165 225.145 19.5691Z" fill="#EFC36A"/>
<path d="M220.123 20.2666C223.771 29.8496 227.091 39.5432 230.083 49.351C226.435 39.768 223.115 30.0743 220.123 20.2666Z" fill="#EFC36A"/>
<path d="M240.516 34.9402C230.268 35.2873 220.021 35.2873 209.773 34.9402C220.021 34.5932 230.268 34.5932 240.516 34.9402Z" fill="#EFC36A"/>
<path d="M236.202 45.7496C228.665 38.6921 221.376 31.4032 214.319 23.8665C221.839 30.9074 229.144 38.2128 236.202 45.7496Z" fill="#EFC36A"/>
<path d="M214.302 45.7496C221.36 38.2128 228.649 30.9239 236.185 23.8665C229.144 31.4032 221.856 38.6921 214.302 45.7496Z" fill="#EFC36A"/>
<path d="M231.078 20.4617C227.508 30.1471 223.624 39.7003 219.426 49.1378C222.979 39.4524 226.863 29.8992 231.078 20.4617Z" fill="#EFC36A"/>
<path d="M239.59 40.6259C229.905 37.0558 220.352 33.1718 210.914 28.9736C220.599 32.5437 230.153 36.4278 239.59 40.6259Z" fill="#EFC36A"/>
<path d="M210.997 40.8242C220.368 36.4938 229.872 32.4775 239.507 28.7917C230.136 33.1221 220.632 37.1384 210.997 40.8242Z" fill="#EFC36A"/>
<path d="M211.641 40.4606C211.625 40.411 211.592 40.3614 211.575 40.3118V40.5267C211.592 40.5267 211.625 40.5102 211.658 40.4936C211.658 40.4936 211.641 40.4771 211.641 40.4606ZM241.706 32.8246C241.59 31.7834 241.375 30.7751 241.078 29.8165C240.697 28.5769 240.169 27.4034 239.524 26.3126C239.507 26.2961 239.507 26.263 239.491 26.2465C239.094 25.6019 238.664 24.9738 238.185 24.3953C238.185 24.3953 238.185 24.3788 238.169 24.3788C237.441 23.4698 236.615 22.6434 235.689 21.8996C235.64 21.85 235.607 21.817 235.557 21.7839C234.665 21.0732 233.706 20.4617 232.681 19.9658C232.632 19.9493 232.582 19.9162 232.549 19.8997C231.64 19.4534 230.681 19.0898 229.673 18.8254C229.624 18.8089 229.591 18.7923 229.541 18.7758C228.615 18.5444 227.657 18.3791 226.665 18.313C226.616 18.313 226.583 18.2965 226.533 18.313C226.186 18.28 225.822 18.2634 225.459 18.2634H225.392C224.797 18.2634 224.219 18.2965 223.657 18.3626C223.607 18.3626 223.574 18.3626 223.525 18.3791C222.318 18.5113 221.161 18.7923 220.054 19.189C220.004 19.2055 219.971 19.2221 219.922 19.2386C218.913 19.6022 217.955 20.065 217.046 20.6104C216.996 20.6269 216.963 20.66 216.914 20.693C216.335 21.0567 215.773 21.4533 215.244 21.8665C215.195 21.8996 215.145 21.9327 215.112 21.9822C214.104 22.8252 213.195 23.7673 212.401 24.8251C212.385 24.8416 212.368 24.8746 212.352 24.8912C211.906 25.4862 211.492 26.1142 211.145 26.7919L211.129 26.8084C210.517 27.9323 210.021 29.1223 209.691 30.395C209.426 31.3702 209.261 32.3784 209.178 33.4031C209.145 33.7998 209.129 34.213 209.129 34.6097C209.129 35.4361 209.195 36.2294 209.311 37.0227C209.443 37.8491 209.625 38.659 209.856 39.4358C210.236 40.6424 210.732 41.7828 211.36 42.8571C211.377 42.8902 211.393 42.9233 211.41 42.9398C211.691 43.4191 212.005 43.8984 212.335 44.3447C212.352 44.3612 212.368 44.3943 212.385 44.4108C213.178 45.452 214.087 46.4107 215.096 47.2371C215.145 47.2701 215.178 47.3032 215.228 47.3528C215.938 47.9313 216.699 48.4436 217.509 48.8899C217.558 48.9229 217.591 48.9395 217.641 48.9725C218.17 49.27 218.732 49.5345 219.294 49.7659C219.343 49.7824 219.376 49.8154 219.426 49.8154C219.789 49.9642 220.153 50.0964 220.517 50.2121C220.566 50.2286 220.599 50.2452 220.649 50.2617C220.732 50.2782 220.814 50.3113 220.913 50.3278C220.963 50.3443 220.996 50.3609 221.046 50.3609C221.855 50.5923 222.682 50.7575 223.541 50.8567C223.591 50.8732 223.624 50.8732 223.674 50.8732C224.252 50.9394 224.831 50.9724 225.409 50.9724H225.475C225.839 50.9724 226.186 50.9559 226.549 50.9228H226.682C227.69 50.8567 228.682 50.6914 229.624 50.427C229.673 50.427 229.706 50.4105 229.756 50.3939C229.888 50.3609 230.02 50.3278 230.153 50.2782C230.202 50.2617 230.252 50.2617 230.285 50.2452C230.615 50.146 230.929 50.0303 231.243 49.9146C231.293 49.8981 231.326 49.8816 231.376 49.865C231.987 49.6336 232.582 49.3527 233.161 49.0386C233.21 49.0221 233.243 48.989 233.293 48.9725C233.954 48.6089 234.582 48.2122 235.177 47.766C235.194 47.7494 235.227 47.7329 235.26 47.7164C236.268 46.9561 237.177 46.0966 237.987 45.138C238.036 45.0884 238.086 45.0223 238.119 44.9727C238.764 44.1959 239.326 43.353 239.821 42.4605C240.433 41.3366 240.929 40.1465 241.259 38.8739C241.259 38.8574 241.276 38.8574 241.259 38.8408C241.474 38.064 241.623 37.2541 241.722 36.4277C241.788 35.8327 241.821 35.2212 241.821 34.6262C241.821 34.0312 241.772 33.4196 241.706 32.8246ZM225.128 49.6336H224.996C224.55 49.6336 224.103 49.5841 223.657 49.5345C223.607 49.5345 223.574 49.5345 223.525 49.5179C222.814 49.4353 222.12 49.2866 221.442 49.0882C221.393 49.0882 221.36 49.0717 221.31 49.0552C221.079 48.989 220.847 48.9229 220.616 48.8403C220.566 48.8238 220.517 48.8238 220.484 48.7907C220.269 48.7081 220.037 48.6254 219.823 48.5428C219.789 48.5263 219.756 48.5263 219.723 48.4932C219.712 48.4932 219.707 48.4877 219.707 48.4767H219.69C219.657 48.4601 219.641 48.4601 219.608 48.4436C219.597 48.4436 219.586 48.4381 219.575 48.4271C219.194 48.2783 218.831 48.0965 218.484 47.9147C217.277 47.2867 216.186 46.4933 215.211 45.5677C215.162 45.5347 215.112 45.4851 215.079 45.4355C215.013 45.3694 214.947 45.3033 214.881 45.2372L214.848 45.2041C214.837 45.1931 214.826 45.1766 214.815 45.1545L214.781 45.1215C214.517 44.857 214.253 44.5761 214.021 44.2786C213.079 43.1712 212.302 41.915 211.724 40.5597C211.724 40.5449 211.707 40.5432 211.707 40.5102C211.707 40.4936 211.691 40.4771 211.691 40.4606C211.674 40.411 211.641 40.3614 211.625 40.3118C211.575 40.1961 211.525 40.0804 211.476 39.9482C211.443 39.8656 211.41 39.7664 211.377 39.6672C211.36 39.6176 211.327 39.5681 211.327 39.5185C210.831 38.0971 210.55 36.56 210.517 34.9733V34.9402V34.6592C210.517 33.1882 210.732 31.7834 211.129 30.4446V30.4115C211.244 30.0479 211.36 29.6843 211.492 29.3372C211.492 29.3262 211.498 29.3152 211.509 29.3042C211.509 29.2876 211.509 29.2711 211.525 29.2546V29.238C211.525 29.227 211.531 29.216 211.542 29.205C211.559 29.1223 211.592 29.0562 211.625 28.9736C212.22 27.5191 213.03 26.1804 214.038 25.0069C214.236 24.7755 214.434 24.5441 214.649 24.3292C214.649 24.3127 214.666 24.3127 214.682 24.2962C214.699 24.2796 214.699 24.2631 214.732 24.2466C214.732 24.23 214.748 24.23 214.748 24.23C214.864 24.0978 214.996 23.9821 215.112 23.8664C215.162 23.8168 215.195 23.7673 215.244 23.7342C216.219 22.8086 217.327 22.0153 218.533 21.3872C218.781 21.255 219.046 21.1228 219.31 21.0071C219.31 20.9906 219.327 20.9906 219.327 20.9906C219.36 20.974 219.393 20.9575 219.409 20.941C219.409 20.9244 219.426 20.9244 219.426 20.9244C219.575 20.8583 219.74 20.7757 219.905 20.7261C219.955 20.7096 219.988 20.693 220.037 20.6765C221.145 20.2468 222.318 19.9328 223.541 19.784C223.591 19.7675 223.624 19.7675 223.674 19.7675C224.12 19.7014 224.566 19.6683 225.029 19.6683H225.459C225.822 19.6683 226.169 19.6848 226.516 19.7179C226.566 19.7179 226.599 19.7179 226.649 19.7344C227.64 19.8005 228.599 19.9823 229.524 20.2468C229.574 20.2633 229.607 20.2633 229.657 20.2964C230.053 20.4121 230.45 20.5443 230.83 20.693H230.847C230.88 20.693 230.913 20.7096 230.962 20.7426H230.979C231.425 20.9079 231.855 21.1062 232.268 21.3211C232.285 21.3211 232.318 21.3376 232.334 21.3542C233.508 21.9492 234.582 22.7095 235.557 23.602C235.607 23.635 235.64 23.6846 235.689 23.7342C235.772 23.8168 235.871 23.883 235.954 23.9821C235.97 23.9987 236.003 24.0317 236.02 24.0482L236.037 24.0648C236.152 24.1805 236.268 24.2962 236.367 24.4284C237.524 25.6515 238.483 27.0894 239.177 28.6596C239.21 28.7257 239.243 28.7918 239.26 28.8579C239.26 28.8744 239.276 28.891 239.276 28.9075V28.924C239.293 28.9405 239.293 28.9571 239.293 28.9901C239.408 29.2546 239.507 29.5355 239.607 29.8165C239.618 29.8275 239.623 29.8441 239.623 29.8661C239.954 30.8247 240.185 31.8495 240.317 32.8907V32.9073C240.4 33.4857 240.433 34.0808 240.433 34.6923V34.9898C240.433 35.5022 240.383 35.998 240.317 36.4773V36.4939C240.218 37.3203 240.053 38.1301 239.821 38.9069C239.673 39.4689 239.458 39.9978 239.243 40.5267C239.243 40.5377 239.237 40.5432 239.226 40.5432C239.215 40.5432 239.21 40.5542 239.21 40.5763V40.5928C239.061 40.9564 238.896 41.3035 238.698 41.6671C238.664 41.7498 238.615 41.8489 238.565 41.9316C238.103 42.791 237.541 43.6009 236.913 44.3447C236.582 44.7413 236.235 45.105 235.871 45.4686C235.871 45.4851 235.855 45.4851 235.855 45.4851C235.838 45.5016 235.822 45.5182 235.805 45.5347C235.805 45.5512 235.789 45.5512 235.789 45.5512C235.574 45.7661 235.342 45.9809 235.094 46.1628C235.045 46.2123 235.012 46.2454 234.962 46.2784C234.185 46.923 233.342 47.485 232.433 47.9478C231.987 48.1957 231.541 48.394 231.078 48.5758C231.078 48.5758 231.062 48.5924 231.045 48.5924C231.012 48.6089 230.979 48.6254 230.962 48.6254C230.962 48.6254 230.946 48.642 230.946 48.6254C230.913 48.642 230.863 48.6585 230.83 48.675C230.665 48.7411 230.483 48.8072 230.301 48.8568C230.252 48.8734 230.219 48.8899 230.169 48.9064C229.905 49.0056 229.624 49.0882 229.343 49.1543C229.293 49.1709 229.26 49.1709 229.21 49.1874C228.401 49.3857 227.558 49.5345 226.698 49.6006C226.649 49.6171 226.616 49.6171 226.566 49.6171C226.219 49.6502 225.855 49.6667 225.508 49.6667H225.227C225.145 49.6336 225.128 49.6336 225.128 49.6336Z" fill="#EFC36A"/>
<path d="M224.17 16.561H226.103C226.401 16.561 226.632 16.809 226.632 17.0899V19.6353C226.632 19.9328 226.384 20.1641 226.103 20.1641H224.17C223.872 20.1641 223.641 19.9162 223.641 19.6353V17.0899C223.641 16.7924 223.872 16.561 224.17 16.561Z" fill="#EFC36A"/>
<path d="M230.202 17.7676H232.136C232.434 17.7676 232.665 18.0155 232.665 18.2965V20.8418C232.665 21.1393 232.417 21.3707 232.136 21.3707H230.202C229.905 21.3707 229.673 21.1228 229.673 20.8418V18.2965C229.673 17.999 229.905 17.7676 230.202 17.7676Z" fill="#EFC36A"/>
<path d="M236.066 20.7756H238C238.298 20.7756 238.529 21.0236 238.529 21.3045V23.8499C238.529 24.1474 238.281 24.3787 238 24.3787H236.066C235.769 24.3787 235.537 24.1308 235.537 23.8499V21.3045C235.521 21.0236 235.769 20.7756 236.066 20.7756Z" fill="#EFC36A"/>
<path d="M239.764 26.3655H241.698C241.995 26.3655 242.227 26.6134 242.227 26.8944V29.4397C242.227 29.7372 241.979 29.9686 241.698 29.9686H239.764C239.467 29.9686 239.235 29.7207 239.235 29.4397V26.8944C239.219 26.6134 239.467 26.3655 239.764 26.3655Z" fill="#EFC36A"/>
<path d="M240.45 32.8413H242.384C242.681 32.8413 242.912 33.0892 242.912 33.3702V35.9155C242.912 36.213 242.665 36.4444 242.384 36.4444H240.45C240.152 36.4444 239.921 36.1965 239.921 35.9155V33.3702C239.921 33.0727 240.152 32.8413 240.45 32.8413Z" fill="#EFC36A"/>
<path d="M239.243 38.8574H241.177C241.475 38.8574 241.706 39.1053 241.706 39.3863V41.9316C241.706 42.2291 241.458 42.4605 241.177 42.4605H239.243C238.946 42.4605 238.714 42.2126 238.714 41.9316V39.3863C238.714 39.1053 238.946 38.8574 239.243 38.8574Z" fill="#EFC36A"/>
<path d="M235.623 44.2952H237.557C237.854 44.2952 238.086 44.5431 238.086 44.8241V47.3694C238.086 47.6669 237.838 47.8983 237.557 47.8983H235.623C235.326 47.8983 235.094 47.6504 235.094 47.3694V44.8241C235.094 44.5266 235.326 44.2952 235.623 44.2952Z" fill="#EFC36A"/>
<path d="M230.797 47.8982H232.731C233.029 47.8982 233.26 48.1461 233.26 48.4271V50.9724C233.26 51.2699 233.012 51.5013 232.731 51.5013H230.797C230.5 51.5013 230.269 51.2534 230.269 50.9724V48.4271C230.269 48.1461 230.516 47.8982 230.797 47.8982Z" fill="#EFC36A"/>
<path d="M224.17 49.1047H226.103C226.401 49.1047 226.632 49.3527 226.632 49.6336V52.179C226.632 52.4765 226.384 52.7078 226.103 52.7078H224.17C223.872 52.7078 223.641 52.4599 223.641 52.179V49.6336C223.641 49.3527 223.872 49.1047 224.17 49.1047Z" fill="#EFC36A"/>
<path d="M218.137 47.8982H220.071C220.368 47.8982 220.599 48.1461 220.599 48.4271V50.9724C220.599 51.2699 220.352 51.5013 220.071 51.5013H218.137C217.839 51.5013 217.608 51.2534 217.608 50.9724V48.4271C217.608 48.1461 217.856 47.8982 218.137 47.8982Z" fill="#EFC36A"/>
<path d="M212.715 44.2952H214.649C214.947 44.2952 215.178 44.5431 215.178 44.8241V47.3694C215.178 47.6669 214.93 47.8983 214.649 47.8983H212.715C212.418 47.8983 212.187 47.6504 212.187 47.3694V44.8241C212.187 44.5266 212.418 44.2952 212.715 44.2952Z" fill="#EFC36A"/>
<path d="M209.096 39.469H211.03C211.327 39.469 211.558 39.7169 211.558 39.9979V42.5432C211.558 42.8407 211.311 43.0721 211.03 43.0721H209.096C208.798 43.0721 208.567 42.8242 208.567 42.5432V39.9979C208.567 39.7004 208.798 39.469 209.096 39.469Z" fill="#EFC36A"/>
<path d="M207.889 33.4363H209.823C210.121 33.4363 210.352 33.6842 210.352 33.9652V36.5105C210.352 36.808 210.104 37.0394 209.823 37.0394H207.889C207.592 37.0394 207.36 36.7915 207.36 36.5105V33.9652C207.36 33.6842 207.592 33.4363 207.889 33.4363Z" fill="#EFC36A"/>
<path d="M209.096 26.8083H211.03C211.327 26.8083 211.558 27.0563 211.558 27.3372V29.8826C211.558 30.1801 211.311 30.4115 211.03 30.4115H209.096C208.798 30.4115 208.567 30.1635 208.567 29.8826V27.3372C208.567 27.0397 208.798 26.8083 209.096 26.8083Z" fill="#EFC36A"/>
<path d="M212.715 21.3706H214.649C214.947 21.3706 215.178 21.6185 215.178 21.8995V24.4448C215.178 24.7423 214.93 24.9737 214.649 24.9737H212.715C212.418 24.9737 212.187 24.7258 212.187 24.4448V21.8995C212.187 21.6185 212.418 21.3706 212.715 21.3706Z" fill="#EFC36A"/>
<path d="M217.542 17.7676H219.476C219.773 17.7676 220.005 18.0155 220.005 18.2965V20.8418C220.005 21.1393 219.757 21.3707 219.476 21.3707H217.542C217.245 21.3707 217.013 21.1228 217.013 20.8418V18.2965C217.013 17.999 217.245 17.7676 217.542 17.7676Z" fill="#EFC36A"/>
<path d="M223.852 35.8679L218.571 51.8259L220.187 52.3607L225.468 36.4028L223.852 35.8679Z" fill="#EFC36A"/>
<path d="M226.72 35.8839L225.104 36.4187L230.384 52.3767L232 51.8419L226.72 35.8839Z" fill="#EFC36A"/>
<path d="M235.524 30.6099C235.524 30.5934 235.508 30.5769 235.508 30.5603C235.491 30.4942 235.458 30.4446 235.441 30.3785C235.441 30.362 235.441 30.3455 235.425 30.3289C234.929 29.0563 234.202 27.9158 233.309 26.9242C233.293 26.9076 233.26 26.8746 233.243 26.858C233.21 26.825 233.177 26.7919 233.144 26.7589C233.128 26.7423 233.095 26.7093 233.078 26.6928C232.119 25.6846 230.962 24.8582 229.673 24.2962C229.624 24.2797 229.591 24.2466 229.558 24.2466C229.524 24.2301 229.491 24.2136 229.458 24.197C229.425 24.1805 229.376 24.164 229.343 24.1474C228.186 23.6681 226.913 23.3872 225.591 23.3376C225.492 23.3376 225.376 23.321 225.277 23.321H224.599C223.293 23.3872 222.054 23.6847 220.913 24.164C220.88 24.1805 220.831 24.197 220.798 24.2136C220.765 24.2301 220.732 24.2466 220.698 24.2631C220.649 24.2797 220.616 24.2962 220.583 24.3127C219.343 24.8747 218.236 25.668 217.294 26.6267C217.277 26.6432 217.244 26.6762 217.228 26.6928C217.195 26.7258 217.161 26.7589 217.145 26.7919C217.112 26.8085 217.095 26.8415 217.079 26.8746C216.137 27.8993 215.393 29.1059 214.881 30.4281C214.881 30.4446 214.864 30.4612 214.864 30.4777C214.848 30.5438 214.815 30.5934 214.798 30.6595C214.798 30.676 214.781 30.6925 214.781 30.7091C214.385 31.8495 214.17 33.0561 214.17 34.3287C214.17 34.4775 214.17 34.6427 214.186 34.808C214.186 34.8907 214.186 34.9733 214.203 35.056C214.286 36.4112 214.633 37.7004 215.162 38.8739C215.162 38.8905 215.178 38.907 215.178 38.9235C215.195 38.9896 215.228 39.0557 215.261 39.1053C215.261 39.1218 215.277 39.1384 215.277 39.1549C215.839 40.3119 216.6 41.3531 217.509 42.2291L217.575 42.2952C217.624 42.3448 217.657 42.3779 217.69 42.4109C217.707 42.444 217.74 42.4605 217.756 42.477C218.699 43.3365 219.806 44.0307 221.013 44.5265C221.062 44.543 221.095 44.5596 221.128 44.5761C221.178 44.5926 221.211 44.6092 221.26 44.6257C221.31 44.6422 221.343 44.6587 221.376 44.6753C221.789 44.824 222.203 44.9397 222.632 45.0389C222.682 45.0554 222.715 45.0554 222.765 45.0719C223.36 45.2042 223.971 45.2868 224.583 45.3199H225.293C225.392 45.3199 225.492 45.3199 225.591 45.3033C226.351 45.2868 227.111 45.1711 227.822 44.9893C227.872 44.9728 227.905 44.9728 227.954 44.9562C228.351 44.8571 228.748 44.7249 229.128 44.5761C229.161 44.5596 229.21 44.543 229.243 44.5265C229.293 44.51 229.326 44.4935 229.376 44.4769C229.392 44.4604 229.425 44.4604 229.442 44.4604C229.458 44.4439 229.475 44.4439 229.491 44.4273C229.508 44.4273 229.541 44.4108 229.558 44.3943C230.681 43.8984 231.706 43.2373 232.599 42.4109C232.615 42.3944 232.648 42.3613 232.665 42.3448C232.714 42.3118 232.747 42.2787 232.78 42.2291C232.797 42.2126 232.83 42.1795 232.847 42.163C233.789 41.254 234.566 40.1631 235.127 38.9731C235.144 38.9566 235.144 38.94 235.144 38.9235C235.177 38.8574 235.21 38.7913 235.227 38.7417C235.243 38.7252 235.243 38.7086 235.243 38.6921C235.739 37.5517 236.053 36.3286 236.136 35.0229C236.136 34.9403 236.152 34.8576 236.152 34.775C236.152 34.6262 236.169 34.4609 236.169 34.2957C236.169 33.023 235.937 31.7669 235.524 30.6099ZM225.558 45.0058H224.616C224.021 44.9728 223.442 44.8901 222.88 44.7744C222.831 44.7744 222.798 44.7579 222.748 44.7414C222.318 44.6422 221.922 44.5265 221.525 44.3778C221.475 44.3612 221.442 44.3447 221.393 44.3282C221.343 44.3117 221.293 44.2951 221.26 44.2786H221.244C221.211 44.2621 221.178 44.2621 221.128 44.229H221.112C219.955 43.7662 218.913 43.0886 218.004 42.2622C217.988 42.2456 217.955 42.2126 217.938 42.1961C217.889 42.163 217.856 42.1134 217.806 42.0804L217.74 42.0143C216.864 41.1713 216.137 40.1631 215.591 39.0557C215.575 39.0392 215.575 39.0227 215.575 39.0062C215.542 38.94 215.509 38.8739 215.492 38.8078C215.476 38.7913 215.476 38.7748 215.459 38.7582C214.947 37.6178 214.616 36.3947 214.534 35.089C214.534 35.0064 214.517 34.9072 214.517 34.8246C214.517 34.6758 214.5 34.5105 214.5 34.3618C214.5 33.1387 214.699 31.9817 215.095 30.8909C215.095 30.8744 215.095 30.8578 215.112 30.8413C215.129 30.7752 215.162 30.7091 215.178 30.643C215.178 30.6264 215.178 30.6099 215.195 30.5934C215.674 29.3207 216.401 28.1638 217.294 27.1721C217.31 27.139 217.343 27.1225 217.36 27.0894C217.393 27.0564 217.426 27.0233 217.459 26.9737L217.525 26.9076C218.434 25.9821 219.508 25.2218 220.698 24.6763C220.748 24.6598 220.781 24.6268 220.814 24.6102C220.847 24.5937 220.88 24.5772 220.93 24.5606C220.979 24.5441 221.013 24.5276 221.046 24.5111C222.153 24.0483 223.36 23.7673 224.616 23.7012H225.293C225.392 23.7012 225.492 23.7012 225.591 23.7177C226.863 23.7673 228.087 24.0317 229.227 24.4945C229.277 24.5111 229.31 24.5276 229.343 24.5441C229.376 24.5606 229.409 24.5772 229.458 24.5937C229.508 24.6102 229.541 24.6268 229.574 24.6433C230.814 25.2052 231.938 25.9821 232.863 26.9572C232.88 26.9737 232.913 27.0068 232.929 27.0233C232.979 27.0564 232.995 27.0894 233.045 27.139C233.061 27.1555 233.095 27.1886 233.111 27.2051C233.971 28.1638 234.665 29.2711 235.144 30.4777C235.161 30.4942 235.161 30.5107 235.161 30.5273C235.194 30.5934 235.21 30.6595 235.227 30.7256C235.243 30.7421 235.243 30.7587 235.243 30.7752C235.64 31.8991 235.871 33.1056 235.871 34.3618C235.871 34.5105 235.871 34.6758 235.855 34.8246C235.855 34.9072 235.855 34.9898 235.838 35.0725C235.756 36.3121 235.458 37.5021 234.962 38.5929C234.962 38.6095 234.962 38.626 234.946 38.6425C234.913 38.7086 234.88 38.7748 234.863 38.8409C234.863 38.8574 234.846 38.8739 234.846 38.8905C234.301 40.0474 233.557 41.0887 232.648 41.9647C232.632 41.9977 232.599 42.0143 232.582 42.0308C232.533 42.0804 232.5 42.1134 232.45 42.163C232.433 42.1795 232.4 42.2126 232.384 42.2291C231.541 43.0059 230.549 43.6505 229.491 44.1133C229.475 44.1298 229.442 44.1298 229.409 44.1464C229.392 44.1464 229.376 44.1629 229.359 44.1629C229.343 44.1794 229.31 44.1794 229.277 44.196C229.227 44.2125 229.177 44.2455 229.128 44.2621C229.078 44.2786 229.045 44.2951 229.012 44.3116C228.648 44.4604 228.268 44.5761 227.872 44.6753C227.822 44.6918 227.789 44.6918 227.739 44.7083C227.012 44.8901 226.285 44.9893 225.558 45.0058Z" fill="#EFC36A"/>
<path d="M183.097 48.9561L182.882 48.8735C181.048 48.1132 178.684 46.5596 178.403 43.7002C178.139 46.51 174.734 48.8371 173.171 48.8156C173.171 48.8156 162.128 48.7082 161.644 48.7082C167.032 40.8243 172.321 33.238 177.742 25.6185L177.428 24.9905H158.438L158.404 25.1227L158.14 26.0648L157.198 29.3869V29.4035L157.214 29.3869L157.71 28.5605C158.305 27.5523 159.297 26.8747 160.437 26.6763C161.446 26.5606 163.115 26.5606 165.412 26.5606H173.065C167.561 34.4941 162.123 42.2788 156.686 49.7825L157.049 50.4106H173.255C174.734 50.4767 178.139 52.7576 178.403 55.4186C178.536 54.0468 179.213 52.7741 180.255 51.8816C181.246 51.0221 182.403 50.361 183.643 49.9643C184.106 49.7991 184.568 49.6668 185.048 49.5677C184.37 49.4024 183.097 48.9561 183.097 48.9561ZM157.231 29.3208C157.33 29.0564 157.429 28.8085 157.545 28.5936L157.231 29.3208ZM178.403 52.7741C178.403 51.7461 176.055 49.6272 174.734 49.6106C176.053 49.6272 178.387 47.3116 178.403 46.2951C178.387 47.3397 181.17 49.5346 182.542 49.5346C181.17 49.5346 178.403 51.7394 178.403 52.7741Z" fill="#EFC36A"/>
<path d="M129.894 36.56C129.894 41.1383 128.026 44.8571 125.018 47.1214C122.043 49.3527 118.258 50.2122 113.448 50.2122H104.308V49.1213C106.693 48.7891 109.316 45.7 109.316 42.9398C109.316 45.7 111.088 47.6983 112.969 48.4272C113.746 48.6916 114.572 48.8073 115.415 48.7742C122.456 48.7742 126.042 43.9646 126.042 37.122C126.042 32.8577 124.588 29.6183 121.514 27.7341C119.712 26.5936 117.448 26.1804 114.82 26.1804C114 26.2184 113.218 26.1341 112.572 26.3953C110.8 27.2035 109.316 28.8877 109.316 31.4033C109.3 28.8877 106.868 26.0399 104.308 25.8383V24.8086H115.167C120.671 24.8086 124.158 25.8994 126.571 28.2134C128.786 30.3951 129.993 33.4362 129.894 36.56Z" fill="#EFC36A"/>
<path d="M113.101 37.0724C112.676 37.0724 109.308 38.1054 109.326 42.5763C109.304 38.0922 105.749 37.0724 105.498 37.0724C105.751 37.0724 109.304 36.0295 109.299 31.5686C109.295 36.0427 112.676 37.0724 113.101 37.0724Z" fill="#EFC36A"/>
<path d="M70.9217 44.0801C70.6903 45.0884 69.6325 49.1212 69.2358 50.2947H50.2451V49.2038C53.8813 48.9229 54.1623 48.5758 54.1623 45.3693V39.849C53.7986 37.9482 51.2368 37.4855 51.2368 37.4855C51.2368 37.4855 53.7986 37.0227 54.1623 35.1219V29.8991C54.1623 26.4282 53.7325 26.2299 50.7905 25.9489V24.858C50.7905 24.858 67.9466 24.825 68.426 24.7754C68.459 25.7505 68.6243 28.6925 68.773 30.7585L67.5996 30.9569C67.3351 29.9156 66.9384 28.9239 66.4261 27.9818C65.798 26.6926 64.9055 26.4117 62.5585 26.4117H58.8397C57.6331 26.4117 57.5505 26.5274 57.5505 27.6678V34.9897C57.8645 36.9896 60.4925 37.4689 60.4925 37.4689C60.4925 37.4689 57.8645 37.9482 57.5505 39.9481V45.6999C57.5505 48.4435 58.41 48.6749 60.3603 48.708H63.9964C66.3765 48.708 66.7732 48.3609 67.6326 47.3362C68.4755 46.2288 69.1862 45.0222 69.7482 43.7496L70.9217 44.0801Z" fill="#EFC36A"/>
<path d="M67.9799 37.4673C67.9799 37.4673 64.7404 38.0623 64.509 40.5415V40.4754C64.2611 38.0458 61.0547 37.4673 61.0547 37.4673C61.0547 37.4673 64.2611 36.8888 64.509 34.4592V34.3931C64.757 36.8723 67.9799 37.4673 67.9799 37.4673Z" fill="#EFC36A"/>
<path d="M153.479 44.0802C153.247 45.0884 152.19 49.1213 151.793 50.2947H132.802V49.2039C136.438 48.9229 136.703 48.5758 136.703 45.3694V39.816C136.323 37.9483 133.794 37.4855 133.794 37.4855C133.794 37.4855 136.323 37.0227 136.703 35.1551V29.9157C136.703 26.4448 136.273 26.2465 133.348 25.9655V24.8746H145.314C148.983 24.8746 150.504 24.8416 150.983 24.792C151.016 25.7671 151.181 28.7091 151.33 30.7751L150.157 30.9735C149.892 29.9322 149.496 28.9405 148.983 27.9984C148.355 26.7092 147.463 26.4283 145.116 26.4283H141.397C140.19 26.4283 140.108 26.544 140.108 27.6844V35.0063C140.422 37.0062 143.05 37.4855 143.05 37.4855C143.05 37.4855 140.422 37.9648 140.108 39.9647V45.7165C140.108 48.4601 140.967 48.6915 142.917 48.7246H146.554C148.934 48.7246 149.33 48.3775 150.19 47.3528C151.033 46.2454 151.743 45.0388 152.305 43.7662L153.479 44.0802Z" fill="#EFC36A"/>
<path d="M150.537 37.5022C150.537 37.5022 147.298 38.0972 147.066 40.5764V40.5103C146.818 38.0807 143.612 37.5022 143.612 37.5022C143.612 37.5022 146.818 36.9237 147.066 34.4941V34.428C147.314 36.9072 150.537 37.5022 150.537 37.5022Z" fill="#EFC36A"/>
<path d="M100.127 25.7671C97.6308 26.0481 96.8044 26.4282 96.6887 28.2298C96.6557 29.4859 96.573 31.1222 96.573 34.7584V50.427H95.0855L78.3426 29.9818V39.7498C78.3426 43.2703 78.4583 45.0223 78.5409 46.1627C78.6236 48.1626 79.5987 48.7411 82.4085 48.9725V50.0633H72.9049V48.9725C75.3345 48.7741 76.2601 48.1957 76.4253 46.2784C76.541 45.0223 76.6237 43.2703 76.6237 39.7168V29.7504C76.7229 28.8248 76.4419 27.8827 75.8469 27.172C75.1031 26.1968 74.2767 25.9655 72.376 25.7671V24.6763H78.2434L94.8211 44.3446V34.7749C94.8211 31.1387 94.7384 29.4529 94.6227 28.2794C94.507 26.5274 93.6145 25.9655 90.4742 25.7836V24.6928H100.127V25.7671Z" fill="#EFC36A"/>
<path d="M206.121 25.7342C203.509 26.0812 202.832 26.4449 201.427 29.9488C200.369 32.5272 194.981 45.6174 193.064 50.4766H191.775C189.477 44.1794 186.105 35.0394 183.874 29.2546C182.783 26.3622 182.122 25.9656 179.726 25.7342V24.6433H189.659V25.7342C186.767 26.0482 186.601 26.511 187.163 27.9654C188.138 30.8248 190.998 38.593 193.46 45.0885C195.526 40.0474 198.105 33.6676 199.956 28.7588C200.815 26.4944 200.353 26.1474 197.146 25.7507V24.6598H206.137L206.121 25.7342Z" fill="#EFC36A"/>
<path d="M270.514 24.4616C268.018 24.6104 267.093 25.2384 267.01 27.04C266.977 27.9325 266.894 29.5853 266.894 33.1719V37.1056C266.894 41.1054 266.432 44.163 264.151 46.5596C262.3 48.4769 259.639 49.0719 256.928 49.0719C254.647 49.0719 252.218 48.6091 250.499 47.2703C248.152 45.4688 247.011 42.7582 247.011 38.1634V28.4779C247.011 24.9575 246.681 24.7261 243.392 24.4451V23.3542H253.639V24.4451C250.35 24.6434 250.019 24.9575 250.019 28.4779V37.8824C250.019 43.7333 252.78 46.9398 257.589 46.9398C263.275 46.9398 265.093 43.4193 265.093 36.7585V33.1719C265.093 29.5688 264.977 28.0978 264.895 27.04C264.779 25.288 263.853 24.6104 260.878 24.4616V23.3708H270.531V24.4616H270.514Z" fill="#EFC36A"/>
<path d="M285.241 29.3041C284.58 26.7257 283.489 24.1804 279.803 24.1804C276.745 24.1804 275.704 26.4117 275.704 28.4447C275.704 31.1387 277.423 32.5105 280.663 34.1964C285.356 36.626 287.389 38.4111 287.389 42.1299C287.389 46.2288 283.836 49.3526 278.795 49.3526C276.745 49.303 274.712 48.8733 272.812 48.0634C272.349 46.1297 272.002 44.1793 271.754 42.196L272.96 41.8819C273.737 44.4934 275.456 47.8981 279.522 47.8981C281.886 48.0304 283.919 46.2123 284.051 43.8488C284.067 43.7 284.067 43.5513 284.051 43.4025C284.051 40.3944 282.448 39.1879 279.01 37.3037C274.911 35.0724 272.597 33.2047 272.597 29.5686C272.597 25.9324 275.489 22.8086 280.646 22.8086C282.381 22.8747 284.117 23.1226 285.803 23.5524C285.951 24.9572 286.117 26.5274 286.431 29.0562L285.241 29.3041Z" fill="#EFC36A"/>
<path d="M240.383 34.9402C230.136 35.2873 219.888 35.2873 209.641 34.9402C219.872 34.5932 230.119 34.5932 240.383 34.9402Z" fill="#EFC36A"/>
<path d="M218.004 47.8982H219.938C220.236 47.8982 220.467 48.1461 220.467 48.4271V50.9724C220.467 51.2699 220.219 51.5013 219.938 51.5013H218.004C217.707 51.5013 217.475 51.2534 217.475 50.9724V48.4271C217.459 48.1461 217.707 47.8982 218.004 47.8982Z" fill="#EFC36A"/>
<path d="M226.55 35.8958L224.934 36.4307L230.214 52.3871L231.83 51.8523L226.55 35.8958Z" fill="#EFC36A"/>
<path d="M219.162 53.3855H215.707C214.996 53.3855 214.418 52.807 214.418 52.0963C214.418 51.3856 214.996 50.8071 215.707 50.8071H219.162C219.872 50.8071 220.451 51.3856 220.451 52.0963C220.451 52.807 219.872 53.3855 219.162 53.3855Z" fill="#EFC36A"/>
<path d="M234.863 53.2698H231.409C230.698 53.2698 230.12 52.6913 230.12 51.9806C230.12 51.2699 230.698 50.6914 231.409 50.6914H234.863C235.574 50.6914 236.152 51.2699 236.152 51.9806C236.152 52.6913 235.574 53.2698 234.863 53.2698Z" fill="#EFC36A"/>
<path d="M336.087 13.5618C336.087 13.5453 336.07 13.5123 336.054 13.4958C335.971 13.3639 335.905 13.2155 335.805 13.067C335.722 12.9351 335.623 12.7866 335.54 12.6712C335.54 12.6547 335.524 12.6382 335.507 12.6217C335.491 12.6052 335.491 12.5887 335.474 12.5722C335.457 12.5392 335.424 12.5063 335.408 12.4898C335.358 12.4238 335.308 12.3578 335.259 12.2919C335.159 12.1599 335.06 12.0445 334.944 11.929C334.927 11.9125 334.911 11.896 334.894 11.8795C330.421 7.08007 321.855 12.0939 317.663 17.9984C313.057 24.4637 304.988 35.7614 304.988 35.7614L293.754 19.8291C293.97 18.9385 295.892 18.922 295.892 18.922V18.6581H287.193V18.9055C288.22 18.8726 290.159 19.0045 292.329 22.0062C294.516 25.0079 303.546 37.79 303.546 37.79C303.546 37.79 299.752 43.4141 294.798 50.4896C289.861 57.5651 288.85 58.2083 283.697 59.7257C282.637 60.0391 281.493 60.171 280.334 60.171C280.052 60.171 279.77 60.1545 279.489 60.1545C279.207 60.138 278.925 60.1215 278.66 60.105C278.528 60.0885 278.379 60.072 278.229 60.0555C275.214 59.7257 272.48 58.7856 271.519 58.4392C271.287 58.3568 271.155 58.3073 271.155 58.3073C271.055 58.2578 270.956 58.2248 270.856 58.1753C270.923 58.2908 271.022 58.3898 271.138 58.5052C271.155 58.5217 271.171 58.5382 271.188 58.5547C274.684 61.408 279.058 62.9583 283.565 62.9748H283.813C288.154 62.9748 293.141 59.6102 295.626 56.0642C298.112 52.5018 305.916 41.468 305.916 41.468L317.364 57.4826C316.785 58.4557 315.26 58.3238 315.26 58.3238V58.5712H324.704V58.3238C320.148 58.3238 318.425 54.8932 315.509 50.7865C312.576 46.6797 307.456 39.1754 307.456 39.1754C307.456 39.1754 312.941 31.3413 320.645 20.2085C325.516 13.166 330.205 12.3908 333.005 12.7702H333.055C333.138 12.7866 333.204 12.7866 333.287 12.8196C333.618 12.8691 333.933 12.9516 334.198 13.034C334.264 13.0505 334.347 13.067 334.414 13.1C334.496 13.1165 334.579 13.1495 334.646 13.1825C334.761 13.2155 334.861 13.2484 334.944 13.2979C335.076 13.3474 335.209 13.4134 335.325 13.4793C335.341 13.4958 335.375 13.4958 335.391 13.5123C335.888 13.7927 336.22 14.1556 336.402 14.4194C336.352 14.1061 336.236 13.8422 336.087 13.5618ZM296.72 47.7518C297.3 46.8941 297.963 45.9375 298.692 44.8985C297.996 45.9375 297.333 46.8776 296.72 47.7518Z" fill="#EFC36A"/>
</svg>
