<svg width="219" height="70" viewBox="0 0 219 70" fill="none" xmlns="http://www.w3.org/2000/svg">
<path d="M25.248 51L22.7676 42.857H10.2957L7.8154 51H0L12.0741 16.6497H20.9425L33.0634 51H25.248ZM21.0361 36.7732L18.5557 28.8174C18.3997 28.287 18.1891 27.6084 17.9239 26.7816C17.6744 25.9392 17.417 25.0891 17.1518 24.2311C16.9022 23.3575 16.6994 22.6009 16.5434 21.9613C16.3874 22.6009 16.169 23.3965 15.8882 24.3481C15.623 25.2841 15.3656 26.1732 15.116 27.0156C14.8664 27.858 14.687 28.4586 14.5778 28.8174L12.1209 36.7732H21.0361ZM43.9675 14.5905V23.0611C43.9675 24.0439 43.9363 25.0189 43.8739 25.986C43.8271 26.9532 43.7647 27.702 43.6867 28.2324H43.9675C44.6539 27.156 45.5898 26.2434 46.7754 25.4946C47.961 24.7303 49.4975 24.3481 51.3851 24.3481C54.3178 24.3481 56.6968 25.4946 58.5219 27.7878C60.3471 30.0809 61.2596 33.4426 61.2596 37.8729C61.2596 40.8525 60.8385 43.3562 59.9961 45.3841C59.1537 47.3965 57.9759 48.9175 56.4628 49.947C54.9496 50.961 53.1946 51.468 51.1979 51.468C49.2791 51.468 47.766 51.1248 46.6584 50.4384C45.5508 49.752 44.6539 48.9799 43.9675 48.1219H43.4761L42.2827 51H36.8307V14.5905H43.9675ZM49.092 30.0575C47.844 30.0575 46.8534 30.3149 46.1202 30.8297C45.387 31.3445 44.8489 32.1167 44.5057 33.1463C44.1781 34.1758 43.9987 35.4784 43.9675 37.054V37.8261C43.9675 40.3689 44.3419 42.3188 45.0907 43.676C45.8394 45.0176 47.2044 45.6883 49.1855 45.6883C50.6519 45.6883 51.8141 45.0098 52.6721 43.6526C53.5456 42.2954 53.9824 40.3377 53.9824 37.7793C53.9824 35.221 53.5456 33.2945 52.6721 31.9997C51.7985 30.7049 50.6051 30.0575 49.092 30.0575ZM90.9301 37.8729C90.9301 40.0569 90.6337 41.9912 90.0409 43.676C89.4637 45.3607 88.6135 46.7881 87.4904 47.9581C86.3828 49.1124 85.0412 49.986 83.4657 50.5788C81.9057 51.1716 80.143 51.468 78.1774 51.468C76.3367 51.468 74.6441 51.1716 73.0997 50.5788C71.571 49.986 70.2372 49.1124 69.0984 47.9581C67.9753 46.7881 67.1017 45.3607 66.4777 43.676C65.8693 41.9912 65.5651 40.0569 65.5651 37.8729C65.5651 34.9714 66.0799 32.5145 67.1095 30.5021C68.1391 28.4898 69.6054 26.961 71.5086 25.9158C73.4117 24.8707 75.6815 24.3481 78.3178 24.3481C80.7669 24.3481 82.9353 24.8707 84.8228 25.9158C86.726 26.961 88.2158 28.4898 89.2921 30.5021C90.3841 32.5145 90.9301 34.9714 90.9301 37.8729ZM72.8423 37.8729C72.8423 39.5889 73.0295 41.0319 73.4039 42.2018C73.7783 43.3718 74.3633 44.2532 75.1589 44.846C75.9545 45.4387 76.9918 45.7351 78.271 45.7351C79.5346 45.7351 80.5563 45.4387 81.3363 44.846C82.1319 44.2532 82.7091 43.3718 83.0679 42.2018C83.4423 41.0319 83.6295 39.5889 83.6295 37.8729C83.6295 36.1414 83.4423 34.7062 83.0679 33.5674C82.7091 32.4131 82.1319 31.5473 81.3363 30.9701C80.5407 30.3929 79.5034 30.1043 78.2242 30.1043C76.3367 30.1043 74.9639 30.7517 74.1059 32.0465C73.2635 33.3412 72.8423 35.2834 72.8423 37.8729ZM120.835 24.8395V51H115.359L114.4 47.6539H114.025C113.464 48.5431 112.762 49.2684 111.919 49.83C111.077 50.3916 110.149 50.805 109.135 51.0702C108.121 51.3354 107.068 51.468 105.976 51.468C104.104 51.468 102.474 51.1404 101.085 50.4852C99.6971 49.8144 98.6129 48.7771 97.8329 47.3731C97.0685 45.9691 96.6863 44.144 96.6863 41.8976V24.8395H103.823V40.1193C103.823 41.9912 104.159 43.403 104.829 44.3546C105.5 45.3061 106.569 45.7819 108.035 45.7819C109.486 45.7819 110.625 45.4543 111.451 44.7992C112.278 44.1284 112.855 43.1534 113.183 41.8742C113.526 40.5795 113.698 39.0039 113.698 37.1476V24.8395H120.835ZM139.343 45.7819C140.123 45.7819 140.88 45.7039 141.613 45.5479C142.362 45.3919 143.103 45.1969 143.836 44.963V50.2746C143.072 50.6178 142.12 50.8986 140.981 51.117C139.858 51.351 138.626 51.468 137.284 51.468C135.724 51.468 134.32 51.2184 133.072 50.7192C131.84 50.2044 130.865 49.323 130.147 48.0751C129.446 46.8115 129.095 45.0566 129.095 42.8102V30.1979H125.678V27.1794L129.609 24.7927L131.668 19.2704H136.231V24.8395H143.555V30.1979H136.231V42.8102C136.231 43.8086 136.512 44.5574 137.074 45.0566C137.651 45.5401 138.407 45.7819 139.343 45.7819ZM190.003 16.7901V38.9259C190.003 41.2814 189.481 43.4108 188.435 45.3139C187.406 47.2015 185.838 48.6991 183.732 49.8066C181.642 50.9142 179.005 51.468 175.823 51.468C171.299 51.468 167.852 50.3136 165.481 48.0049C163.109 45.6961 161.924 42.6386 161.924 38.8323V16.7901H169.154V37.7325C169.154 40.5561 169.731 42.5372 170.886 43.676C172.04 44.8148 173.748 45.3841 176.01 45.3841C177.601 45.3841 178.888 45.1111 179.871 44.5652C180.87 44.0192 181.603 43.1768 182.071 42.038C182.539 40.8993 182.773 39.4485 182.773 37.6857V16.7901H190.003ZM216.07 43.2314C216.07 45.0098 215.649 46.5151 214.807 47.7475C213.98 48.9643 212.74 49.8924 211.086 50.532C209.432 51.156 207.373 51.468 204.909 51.468C203.083 51.468 201.516 51.351 200.205 51.117C198.911 50.883 197.6 50.493 196.274 49.947V44.0504C197.694 44.69 199.215 45.2203 200.837 45.6415C202.475 46.0471 203.91 46.2499 205.143 46.2499C206.531 46.2499 207.522 46.0471 208.114 45.6415C208.723 45.2203 209.027 44.6744 209.027 44.0036C209.027 43.5668 208.902 43.1768 208.652 42.8336C208.418 42.4748 207.904 42.077 207.108 41.6402C206.313 41.1878 205.065 40.6029 203.364 39.8853C201.726 39.1989 200.377 38.5047 199.316 37.8027C198.271 37.1008 197.491 36.274 196.976 35.3224C196.477 34.3552 196.227 33.1307 196.227 31.6487C196.227 29.2308 197.163 27.4134 199.035 26.1966C200.923 24.9643 203.442 24.3481 206.593 24.3481C208.216 24.3481 209.76 24.5119 211.226 24.8395C212.708 25.1671 214.229 25.6896 215.789 26.4072L213.637 31.5551C212.342 30.9935 211.117 30.5333 209.963 30.1745C208.824 29.8157 207.662 29.6363 206.476 29.6363C205.431 29.6363 204.643 29.7767 204.113 30.0575C203.583 30.3383 203.317 30.7673 203.317 31.3445C203.317 31.7657 203.45 32.1401 203.715 32.4677C203.996 32.7953 204.526 33.1619 205.306 33.5674C206.102 33.9574 207.264 34.4644 208.793 35.0884C210.275 35.6968 211.562 36.3364 212.654 37.0072C213.746 37.6623 214.588 38.4813 215.181 39.4641C215.774 40.4313 216.07 41.687 216.07 43.2314Z" fill="white"/>
<line x1="57.9062" y1="65.9569" x2="160.739" y2="65.9569" stroke="#EFC36A" stroke-width="6.98862"/>
</svg>
