<svg width="1061" height="534" viewBox="0 0 1061 534" fill="none" xmlns="http://www.w3.org/2000/svg">
<path d="M26.2861 187.515H16.8327V161.633C16.8327 160.919 16.8429 160.042 16.8633 159.002C16.8837 157.941 16.9143 156.86 16.955 155.759C16.9958 154.637 17.0366 153.627 17.0774 152.73C16.8531 152.995 16.3942 153.454 15.7007 154.107C15.0276 154.739 14.3954 155.31 13.8039 155.82L8.66415 159.95L4.10569 154.26L18.5153 142.787H26.2861V187.515ZM49.8433 180.234L50.3022 180.937C49.9351 182.406 49.4558 183.986 48.8643 185.679C48.2932 187.372 47.6609 189.065 46.9675 190.758C46.2944 192.451 45.6111 194.062 44.9177 195.592H38.1871C38.595 193.94 38.9927 192.206 39.3802 190.391C39.7678 188.575 40.1247 186.791 40.451 185.037C40.7977 183.283 41.0731 181.682 41.277 180.234H49.8433ZM56.3291 168.516C56.3291 165.946 56.5127 163.407 56.8798 160.898C57.2673 158.369 57.9302 155.993 58.8684 153.77C59.8066 151.526 61.1222 149.548 62.815 147.835C64.5079 146.101 66.6596 144.745 69.2703 143.766C71.8809 142.767 75.0423 142.267 78.7543 142.267C79.6313 142.267 80.6511 142.308 81.8137 142.389C82.9967 142.45 83.9757 142.563 84.7507 142.726V150.282C83.9349 150.099 83.0578 149.956 82.1196 149.854C81.2018 149.732 80.284 149.67 79.3662 149.67C75.6542 149.67 72.7784 150.262 70.7388 151.445C68.7196 152.628 67.2919 154.27 66.4557 156.371C65.6398 158.451 65.1605 160.878 65.0178 163.652H65.4155C65.9866 162.652 66.7004 161.765 67.557 160.99C68.4341 160.215 69.4946 159.603 70.7388 159.155C71.9829 158.685 73.4412 158.451 75.1137 158.451C77.7243 158.451 79.9883 159.012 81.9055 160.134C83.8227 161.235 85.3014 162.836 86.3416 164.937C87.3818 167.038 87.9018 169.597 87.9018 172.616C87.9018 175.838 87.2798 178.612 86.0356 180.937C84.7915 183.262 83.0272 185.047 80.7429 186.291C78.479 187.515 75.7867 188.127 72.6662 188.127C70.3819 188.127 68.2505 187.739 66.2721 186.964C64.2937 186.169 62.5601 184.965 61.0712 183.354C59.5823 181.743 58.4197 179.713 57.5835 177.266C56.7473 174.798 56.3291 171.882 56.3291 168.516ZM72.4826 180.57C74.3386 180.57 75.8479 179.938 77.0105 178.673C78.173 177.409 78.7543 175.43 78.7543 172.738C78.7543 170.556 78.2444 168.843 77.2246 167.598C76.2252 166.334 74.7058 165.702 72.6662 165.702C71.2793 165.702 70.0555 166.018 68.9949 166.65C67.9548 167.262 67.1491 168.047 66.578 169.006C66.007 169.944 65.7214 170.913 65.7214 171.912C65.7214 172.952 65.8642 173.982 66.1497 175.002C66.4353 176.022 66.8636 176.95 67.4347 177.786C68.0057 178.622 68.7094 179.295 69.5456 179.805C70.4022 180.315 71.3812 180.57 72.4826 180.57ZM123.513 165.151C123.513 168.761 123.227 171.983 122.656 174.819C122.106 177.654 121.208 180.06 119.964 182.039C118.74 184.017 117.129 185.526 115.13 186.566C113.131 187.607 110.704 188.127 107.849 188.127C104.259 188.127 101.312 187.219 99.0074 185.404C96.7026 183.568 94.9996 180.937 93.8982 177.511C92.7968 174.064 92.2462 169.944 92.2462 165.151C92.2462 160.317 92.7458 156.187 93.7452 152.76C94.765 149.314 96.4171 146.672 98.7014 144.837C100.986 143.001 104.035 142.083 107.849 142.083C111.418 142.083 114.355 143.001 116.66 144.837C118.985 146.652 120.708 149.283 121.83 152.73C122.952 156.156 123.513 160.297 123.513 165.151ZM101.638 165.151C101.638 168.557 101.822 171.402 102.189 173.687C102.577 175.95 103.219 177.654 104.117 178.796C105.014 179.938 106.258 180.509 107.849 180.509C109.419 180.509 110.653 179.948 111.551 178.826C112.469 177.684 113.121 175.981 113.509 173.717C113.896 171.433 114.09 168.577 114.09 165.151C114.09 161.745 113.896 158.9 113.509 156.615C113.121 154.331 112.469 152.618 111.551 151.476C110.653 150.313 109.419 149.732 107.849 149.732C106.258 149.732 105.014 150.313 104.117 151.476C103.219 152.618 102.577 154.331 102.189 156.615C101.822 158.9 101.638 161.745 101.638 165.151ZM139.422 180.234L139.881 180.937C139.513 182.406 139.034 183.986 138.443 185.679C137.872 187.372 137.239 189.065 136.546 190.758C135.873 192.451 135.19 194.062 134.496 195.592H127.765C128.173 193.94 128.571 192.206 128.959 190.391C129.346 188.575 129.703 186.791 130.029 185.037C130.376 183.283 130.651 181.682 130.855 180.234H139.422ZM177.235 165.151C177.235 168.761 176.95 171.983 176.379 174.819C175.828 177.654 174.931 180.06 173.687 182.039C172.463 184.017 170.852 185.526 168.853 186.566C166.854 187.607 164.427 188.127 161.571 188.127C157.982 188.127 155.035 187.219 152.73 185.404C150.425 183.568 148.722 180.937 147.621 177.511C146.519 174.064 145.969 169.944 145.969 165.151C145.969 160.317 146.468 156.187 147.468 152.76C148.488 149.314 150.14 146.672 152.424 144.837C154.708 143.001 157.757 142.083 161.571 142.083C165.141 142.083 168.078 143.001 170.382 144.837C172.708 146.652 174.431 149.283 175.553 152.73C176.675 156.156 177.235 160.297 177.235 165.151ZM155.361 165.151C155.361 168.557 155.545 171.402 155.912 173.687C156.299 175.95 156.942 177.654 157.839 178.796C158.736 179.938 159.981 180.509 161.571 180.509C163.142 180.509 164.376 179.948 165.273 178.826C166.191 177.684 166.844 175.981 167.231 173.717C167.619 171.433 167.813 168.577 167.813 165.151C167.813 161.745 167.619 158.9 167.231 156.615C166.844 154.331 166.191 152.618 165.273 151.476C164.376 150.313 163.142 149.732 161.571 149.732C159.981 149.732 158.736 150.313 157.839 151.476C156.942 152.618 156.299 154.331 155.912 156.615C155.545 158.9 155.361 161.745 155.361 165.151ZM213.091 165.151C213.091 168.761 212.806 171.983 212.235 174.819C211.684 177.654 210.787 180.06 209.542 182.039C208.319 184.017 206.707 185.526 204.709 186.566C202.71 187.607 200.283 188.127 197.427 188.127C193.838 188.127 190.89 187.219 188.586 185.404C186.281 183.568 184.578 180.937 183.477 177.511C182.375 174.064 181.825 169.944 181.825 165.151C181.825 160.317 182.324 156.187 183.324 152.76C184.343 149.314 185.995 146.672 188.28 144.837C190.564 143.001 193.613 142.083 197.427 142.083C200.997 142.083 203.934 143.001 206.238 144.837C208.563 146.652 210.287 149.283 211.409 152.73C212.53 156.156 213.091 160.297 213.091 165.151ZM191.217 165.151C191.217 168.557 191.4 171.402 191.767 173.687C192.155 175.95 192.797 177.654 193.695 178.796C194.592 179.938 195.836 180.509 197.427 180.509C198.998 180.509 200.232 179.948 201.129 178.826C202.047 177.684 202.7 175.981 203.087 173.717C203.475 171.433 203.668 168.577 203.668 165.151C203.668 161.745 203.475 158.9 203.087 156.615C202.7 154.331 202.047 152.618 201.129 151.476C200.232 150.313 198.998 149.732 197.427 149.732C195.836 149.732 194.592 150.313 193.695 151.476C192.797 152.618 192.155 154.331 191.767 156.615C191.4 158.9 191.217 161.745 191.217 165.151ZM248.947 165.151C248.947 168.761 248.662 171.983 248.09 174.819C247.54 177.654 246.642 180.06 245.398 182.039C244.174 184.017 242.563 185.526 240.564 186.566C238.566 187.607 236.139 188.127 233.283 188.127C229.693 188.127 226.746 187.219 224.442 185.404C222.137 183.568 220.434 180.937 219.332 177.511C218.231 174.064 217.68 169.944 217.68 165.151C217.68 160.317 218.18 156.187 219.179 152.76C220.199 149.314 221.851 146.672 224.136 144.837C226.42 143.001 229.469 142.083 233.283 142.083C236.852 142.083 239.789 143.001 242.094 144.837C244.419 146.652 246.143 149.283 247.264 152.73C248.386 156.156 248.947 160.297 248.947 165.151ZM227.073 165.151C227.073 168.557 227.256 171.402 227.623 173.687C228.011 175.95 228.653 177.654 229.551 178.796C230.448 179.938 231.692 180.509 233.283 180.509C234.854 180.509 236.088 179.948 236.985 178.826C237.903 177.684 238.555 175.981 238.943 173.717C239.33 171.433 239.524 168.577 239.524 165.151C239.524 161.745 239.33 158.9 238.943 156.615C238.555 154.331 237.903 152.618 236.985 151.476C236.088 150.313 234.854 149.732 233.283 149.732C231.692 149.732 230.448 150.313 229.551 151.476C228.653 152.618 228.011 154.331 227.623 156.615C227.256 158.9 227.073 161.745 227.073 165.151ZM272.504 162.092H284.344V168.792H272.504V180.57H265.804V168.792H253.964V162.092H265.804V150.16H272.504V162.092Z" fill="white"/>
<path d="M44.7776 227.999H41.7259V204.585H33.5165V201.908H52.9512V204.585H44.7776V227.999ZM73.3139 218.184C73.3139 219.79 73.1056 221.223 72.6892 222.485C72.2728 223.746 71.672 224.811 70.8868 225.679C70.1015 226.548 69.1497 227.214 68.0313 227.678C66.9249 228.13 65.6697 228.356 64.2658 228.356C62.957 228.356 61.7554 228.13 60.6608 227.678C59.5781 227.214 58.6382 226.548 57.8411 225.679C57.0559 224.811 56.4431 223.746 56.0029 222.485C55.5746 221.223 55.3605 219.79 55.3605 218.184C55.3605 216.042 55.7233 214.222 56.4491 212.723C57.1748 211.212 58.2099 210.064 59.5543 209.278C60.9107 208.481 62.5228 208.083 64.3907 208.083C66.1753 208.083 67.7339 208.481 69.0664 209.278C70.4109 210.075 71.4519 211.23 72.1895 212.741C72.9391 214.24 73.3139 216.054 73.3139 218.184ZM58.43 218.184C58.43 219.754 58.6382 221.116 59.0546 222.27C59.4711 223.425 60.1135 224.317 60.982 224.947C61.8506 225.578 62.9689 225.893 64.3372 225.893C65.6935 225.893 66.8059 225.578 67.6744 224.947C68.5548 224.317 69.2033 223.425 69.6197 222.27C70.0361 221.116 70.2443 219.754 70.2443 218.184C70.2443 216.625 70.0361 215.281 69.6197 214.15C69.2033 213.008 68.5608 212.128 67.6923 211.509C66.8237 210.89 65.6994 210.581 64.3193 210.581C62.2848 210.581 60.7917 211.253 59.8399 212.598C58.9 213.942 58.43 215.804 58.43 218.184ZM84.7534 225.929C85.2412 225.929 85.7408 225.887 86.2524 225.804C86.764 225.721 87.1805 225.62 87.5017 225.501V227.803C87.1567 227.958 86.6748 228.088 86.0561 228.195C85.4494 228.303 84.8545 228.356 84.2715 228.356C83.2364 228.356 82.2965 228.178 81.4518 227.821C80.6071 227.452 79.9289 226.833 79.4173 225.965C78.9176 225.096 78.6678 223.894 78.6678 222.36V210.76H75.8837V209.314L78.6856 208.154L79.8635 203.907H81.6481V208.44H87.3768V210.76H81.6481V222.27C81.6481 223.496 81.9277 224.412 82.4869 225.019C83.058 225.626 83.8134 225.929 84.7534 225.929ZM98.7806 208.118C101.112 208.118 102.844 208.642 103.974 209.689C105.104 210.736 105.669 212.407 105.669 214.704V227.999H103.51L102.939 225.108H102.796C102.249 225.822 101.678 226.423 101.083 226.911C100.488 227.386 99.7978 227.749 99.0126 227.999C98.2392 228.237 97.2874 228.356 96.1572 228.356C94.9674 228.356 93.9085 228.148 92.9805 227.731C92.0644 227.315 91.3386 226.684 90.8033 225.84C90.2798 224.995 90.018 223.924 90.018 222.627C90.018 220.676 90.7914 219.177 92.338 218.13C93.8847 217.083 96.2404 216.512 99.4052 216.417L102.778 216.274V215.078C102.778 213.389 102.415 212.205 101.69 211.527C100.964 210.849 99.9406 210.51 98.6199 210.51C97.5968 210.51 96.6212 210.658 95.6931 210.956C94.7651 211.253 93.8847 211.604 93.0519 212.009L92.1417 209.76C93.0221 209.308 94.0334 208.921 95.1756 208.6C96.3178 208.279 97.5194 208.118 98.7806 208.118ZM102.742 218.362L99.7621 218.487C97.3231 218.582 95.6039 218.981 94.6045 219.683C93.6051 220.385 93.1054 221.378 93.1054 222.663C93.1054 223.781 93.4445 224.608 94.1227 225.144C94.8008 225.679 95.6991 225.947 96.8175 225.947C98.5545 225.947 99.9763 225.465 101.083 224.501C102.189 223.538 102.742 222.092 102.742 220.165V218.362ZM114.753 227.999H111.773V200.23H114.753V227.999ZM133.991 227.999H130.957V201.908H145.484V204.585H133.991V214.15H144.788V216.809H133.991V227.999ZM166.258 218.184C166.258 219.79 166.049 221.223 165.633 222.485C165.216 223.746 164.616 224.811 163.83 225.679C163.045 226.548 162.093 227.214 160.975 227.678C159.869 228.13 158.613 228.356 157.209 228.356C155.901 228.356 154.699 228.13 153.604 227.678C152.522 227.214 151.582 226.548 150.785 225.679C150 224.811 149.387 223.746 148.947 222.485C148.518 221.223 148.304 219.79 148.304 218.184C148.304 216.042 148.667 214.222 149.393 212.723C150.118 211.212 151.154 210.064 152.498 209.278C153.854 208.481 155.466 208.083 157.334 208.083C159.119 208.083 160.678 208.481 162.01 209.278C163.355 210.075 164.396 211.23 165.133 212.741C165.883 214.24 166.258 216.054 166.258 218.184ZM151.374 218.184C151.374 219.754 151.582 221.116 151.998 222.27C152.415 223.425 153.057 224.317 153.926 224.947C154.794 225.578 155.913 225.893 157.281 225.893C158.637 225.893 159.75 225.578 160.618 224.947C161.499 224.317 162.147 223.425 162.563 222.27C162.98 221.116 163.188 219.754 163.188 218.184C163.188 216.625 162.98 215.281 162.563 214.15C162.147 213.008 161.504 212.128 160.636 211.509C159.767 210.89 158.643 210.581 157.263 210.581C155.228 210.581 153.735 211.253 152.784 212.598C151.844 213.942 151.374 215.804 151.374 218.184ZM188.244 218.184C188.244 219.79 188.036 221.223 187.62 222.485C187.203 223.746 186.602 224.811 185.817 225.679C185.032 226.548 184.08 227.214 182.962 227.678C181.855 228.13 180.6 228.356 179.196 228.356C177.887 228.356 176.686 228.13 175.591 227.678C174.508 227.214 173.569 226.548 172.771 225.679C171.986 224.811 171.373 223.746 170.933 222.485C170.505 221.223 170.291 219.79 170.291 218.184C170.291 216.042 170.654 214.222 171.379 212.723C172.105 211.212 173.14 210.064 174.485 209.278C175.841 208.481 177.453 208.083 179.321 208.083C181.106 208.083 182.664 208.481 183.997 209.278C185.341 210.075 186.382 211.23 187.12 212.741C187.869 214.24 188.244 216.054 188.244 218.184ZM173.36 218.184C173.36 219.754 173.569 221.116 173.985 222.27C174.401 223.425 175.044 224.317 175.912 224.947C176.781 225.578 177.899 225.893 179.268 225.893C180.624 225.893 181.736 225.578 182.605 224.947C183.485 224.317 184.134 223.425 184.55 222.27C184.966 221.116 185.175 219.754 185.175 218.184C185.175 216.625 184.966 215.281 184.55 214.15C184.134 213.008 183.491 212.128 182.623 211.509C181.754 210.89 180.63 210.581 179.25 210.581C177.215 210.581 175.722 211.253 174.77 212.598C173.83 213.942 173.36 215.804 173.36 218.184ZM199.684 225.929C200.172 225.929 200.671 225.887 201.183 225.804C201.694 225.721 202.111 225.62 202.432 225.501V227.803C202.087 227.958 201.605 228.088 200.986 228.195C200.38 228.303 199.785 228.356 199.202 228.356C198.167 228.356 197.227 228.178 196.382 227.821C195.537 227.452 194.859 226.833 194.348 225.965C193.848 225.096 193.598 223.894 193.598 222.36V210.76H190.814V209.314L193.616 208.154L194.794 203.907H196.578V208.44H202.307V210.76H196.578V222.27C196.578 223.496 196.858 224.412 197.417 225.019C197.988 225.626 198.744 225.929 199.684 225.929ZM215.103 210.76H210.231V227.999H207.268V210.76H203.806V209.332L207.268 208.35V207.048C207.268 205.406 207.512 204.073 208 203.05C208.488 202.015 209.196 201.253 210.124 200.766C211.052 200.278 212.182 200.034 213.515 200.034C214.264 200.034 214.948 200.099 215.567 200.23C216.198 200.361 216.751 200.51 217.227 200.676L216.459 203.014C216.055 202.883 215.597 202.764 215.085 202.657C214.585 202.538 214.074 202.479 213.55 202.479C212.42 202.479 211.581 202.848 211.034 203.585C210.499 204.311 210.231 205.453 210.231 207.012V208.44H215.103V210.76ZM226.025 208.118C228.357 208.118 230.088 208.642 231.218 209.689C232.348 210.736 232.914 212.407 232.914 214.704V227.999H230.754L230.183 225.108H230.04C229.493 225.822 228.922 226.423 228.327 226.911C227.732 227.386 227.042 227.749 226.257 227.999C225.484 228.237 224.532 228.356 223.401 228.356C222.212 228.356 221.153 228.148 220.225 227.731C219.309 227.315 218.583 226.684 218.048 225.84C217.524 224.995 217.262 223.924 217.262 222.627C217.262 220.676 218.036 219.177 219.582 218.13C221.129 217.083 223.485 216.512 226.65 216.417L230.022 216.274V215.078C230.022 213.389 229.66 212.205 228.934 211.527C228.208 210.849 227.185 210.51 225.864 210.51C224.841 210.51 223.865 210.658 222.937 210.956C222.009 211.253 221.129 211.604 220.296 212.009L219.386 209.76C220.266 209.308 221.278 208.921 222.42 208.6C223.562 208.279 224.764 208.118 226.025 208.118ZM229.987 218.362L227.006 218.487C224.567 218.582 222.848 218.981 221.849 219.683C220.849 220.385 220.35 221.378 220.35 222.663C220.35 223.781 220.689 224.608 221.367 225.144C222.045 225.679 222.943 225.947 224.062 225.947C225.799 225.947 227.221 225.465 228.327 224.501C229.434 223.538 229.987 222.092 229.987 220.165V218.362ZM241.997 227.999H239.017V200.23H241.997V227.999ZM251.242 227.999H248.261V200.23H251.242V227.999Z" fill="#AAAAAA"/>
<path fill-rule="evenodd" clip-rule="evenodd" d="M147.486 3.52104C144.357 5.77352 144.448 11.2802 147.657 13.9119C152.074 17.535 157.591 13.4051 156.159 7.54803C155.105 3.23807 150.712 1.19808 147.486 3.52104ZM160.928 3.27202C158.055 5.90163 159.873 11.7252 163.567 11.7252C165.416 11.7252 167.351 9.40434 167.351 7.18736C167.351 3.40425 163.409 1.00103 160.928 3.27202ZM171.599 7.20948C170.344 8.84816 170.475 12.0118 171.848 13.2687C173.272 14.572 174.136 14.5642 175.988 13.2312C177.175 12.3766 177.469 11.7288 177.469 9.96669C177.469 8.49059 177.131 7.48886 176.441 6.91725C174.974 5.702 172.645 5.84246 171.599 7.20948ZM179.973 12.9883C178.096 14.7062 178.069 17.5612 179.919 18.671C180.679 19.1268 181.699 19.3192 182.308 19.1227C185.109 18.2172 186.324 14.2447 184.31 12.5767C182.878 11.3903 181.584 11.5133 179.973 12.9883ZM157.982 15.2501C148.236 18.333 146.265 25.076 151.039 38.9937C154.213 48.2485 154.612 53.6121 152.669 60.9504C150.782 68.0814 150.779 75.7834 152.664 79.2872C154.406 82.5254 157.416 84.3709 161.457 84.6776C166.062 85.0269 168.292 84.445 170.953 82.2003C175.188 78.6271 176.147 76.0304 180.456 56.4867C186.028 31.2119 185.93 27.9083 179.417 21.5347C176.413 18.5953 173.172 16.7174 168.641 15.2902C164.754 14.0662 161.76 14.0549 157.982 15.2501ZM185.804 19.9757C184.568 20.6364 183.978 23.2222 184.759 24.5574C186.12 26.8865 189.835 25.166 189.835 22.2061C189.835 19.7617 188.052 18.7754 185.804 19.9757ZM123.409 36.9552C122.17 37.6169 121.076 40.7281 121.564 42.2011C122.138 43.9313 124.101 45.6822 125.467 45.6822C128.087 45.6822 130.197 42.4614 129.426 39.6368C128.652 36.7947 125.958 35.5939 123.409 36.9552ZM135.51 37.1749C132.633 39.0194 131.697 43.6972 133.626 46.5928C135.877 49.9726 140.04 50.0451 142.468 46.7472C144.666 43.7615 143.836 38.3583 140.963 36.9511C139.417 36.1933 136.879 36.2972 135.51 37.1749ZM112.719 40.9231C111.349 42.3837 111.072 43.672 111.733 45.5072C113.205 49.5883 118.449 48.7748 118.449 44.4654C118.449 41.0409 114.753 38.756 112.719 40.9231ZM105.014 46.5275C102.528 48.1214 104.429 53.3997 107.488 53.3997C109.189 53.3997 110.579 52.1206 110.579 50.5576C110.579 47.2828 107.412 44.9897 105.014 46.5275ZM121.51 48.9456C111.777 51.868 105.47 58.2601 104.634 66.0491C104.175 70.319 112.041 105.476 114.58 110.509C117.697 116.687 121.309 118.971 127.456 118.653C132.278 118.404 135.17 116.777 137.07 113.244C138.943 109.762 138.901 101.439 136.977 95.0741C135.161 89.0673 135.254 82.6654 137.247 76.2949C140.664 65.3792 141.073 63.5389 140.794 60.3572C140.499 56.9837 139.024 53.819 136.905 52.01C133.479 49.084 126.004 47.5966 121.51 48.9456ZM100.321 53.9553C98.9393 54.6921 99.0231 57.7425 100.461 59.0591C101.815 60.2981 102.891 60.3634 104.075 59.2799C105.368 58.096 105.154 56.1044 103.578 54.6628C102.048 53.2618 101.745 53.1959 100.321 53.9553Z" fill="#EFC36A"/>
<path d="M96.555 447.507C96.555 449.567 96.1267 451.352 95.2701 452.861C94.4135 454.37 93.2509 455.604 91.7824 456.563C90.3343 457.521 88.7027 458.225 86.8874 458.674V458.857C90.4771 459.306 93.1999 460.407 95.056 462.161C96.9324 463.915 97.8706 466.261 97.8706 469.198C97.8706 471.809 97.2281 474.144 95.9432 476.204C94.6786 478.264 92.7206 479.885 90.0692 481.068C87.4177 482.251 84.0014 482.843 79.8203 482.843C77.3524 482.843 75.0477 482.639 72.9061 482.231C70.7849 481.843 68.7862 481.242 66.9097 480.426V472.38C68.827 473.359 70.8359 474.103 72.9367 474.613C75.0375 475.102 76.9955 475.347 78.8107 475.347C82.1964 475.347 84.5623 474.766 85.9084 473.603C87.275 472.42 87.9582 470.768 87.9582 468.647C87.9582 467.403 87.6421 466.353 87.0098 465.496C86.3775 464.639 85.2762 463.987 83.7057 463.538C82.1556 463.089 79.9835 462.865 77.1892 462.865H73.7933V455.614H77.2504C80.0039 455.614 82.0944 455.359 83.5221 454.849C84.9702 454.319 85.9492 453.605 86.4591 452.708C86.9894 451.79 87.2546 450.75 87.2546 449.587C87.2546 447.996 86.7651 446.752 85.7861 445.855C84.8071 444.957 83.1754 444.509 80.8911 444.509C79.4634 444.509 78.158 444.692 76.9751 445.059C75.8125 445.406 74.7621 445.834 73.8239 446.344C72.8857 446.834 72.0597 447.313 71.3458 447.782L66.9709 441.266C68.725 440.001 70.7748 438.951 73.1203 438.115C75.4862 437.278 78.3008 436.86 81.5641 436.86C86.1736 436.86 89.8244 437.788 92.5167 439.644C95.2089 441.5 96.555 444.121 96.555 447.507ZM133.91 459.867C133.91 463.477 133.624 466.699 133.053 469.534C132.503 472.369 131.605 474.776 130.361 476.755C129.137 478.733 127.526 480.242 125.527 481.282C123.528 482.323 121.101 482.843 118.246 482.843C114.656 482.843 111.709 481.935 109.404 480.12C107.1 478.284 105.397 475.653 104.295 472.227C103.194 468.78 102.643 464.66 102.643 459.867C102.643 455.033 103.143 450.903 104.142 447.476C105.162 444.029 106.814 441.388 109.098 439.553C111.383 437.717 114.432 436.799 118.246 436.799C121.815 436.799 124.752 437.717 127.057 439.553C129.382 441.368 131.106 443.999 132.227 447.446C133.349 450.872 133.91 455.013 133.91 459.867ZM112.035 459.867C112.035 463.273 112.219 466.118 112.586 468.402C112.974 470.666 113.616 472.369 114.514 473.512C115.411 474.654 116.655 475.225 118.246 475.225C119.816 475.225 121.05 474.664 121.948 473.542C122.866 472.4 123.518 470.697 123.906 468.433C124.293 466.149 124.487 463.293 124.487 459.867C124.487 456.461 124.293 453.615 123.906 451.331C123.518 449.047 122.866 447.334 121.948 446.191C121.05 445.029 119.816 444.448 118.246 444.448C116.655 444.448 115.411 445.029 114.514 446.191C113.616 447.334 112.974 449.047 112.586 451.331C112.219 453.615 112.035 456.461 112.035 459.867ZM169.766 459.867C169.766 463.477 169.48 466.699 168.909 469.534C168.358 472.369 167.461 474.776 166.217 476.755C164.993 478.733 163.382 480.242 161.383 481.282C159.384 482.323 156.957 482.843 154.102 482.843C150.512 482.843 147.565 481.935 145.26 480.12C142.955 478.284 141.252 475.653 140.151 472.227C139.05 468.78 138.499 464.66 138.499 459.867C138.499 455.033 138.999 450.903 139.998 447.476C141.018 444.029 142.67 441.388 144.954 439.553C147.239 437.717 150.288 436.799 154.102 436.799C157.671 436.799 160.608 437.717 162.913 439.553C165.238 441.368 166.961 443.999 168.083 447.446C169.205 450.872 169.766 455.013 169.766 459.867ZM147.891 459.867C147.891 463.273 148.075 466.118 148.442 468.402C148.829 470.666 149.472 472.369 150.369 473.512C151.267 474.654 152.511 475.225 154.102 475.225C155.672 475.225 156.906 474.664 157.804 473.542C158.721 472.4 159.374 470.697 159.762 468.433C160.149 466.149 160.343 463.293 160.343 459.867C160.343 456.461 160.149 453.615 159.762 451.331C159.374 449.047 158.721 447.334 157.804 446.191C156.906 445.029 155.672 444.448 154.102 444.448C152.511 444.448 151.267 445.029 150.369 446.191C149.472 447.334 148.829 449.047 148.442 451.331C148.075 453.615 147.891 456.461 147.891 459.867ZM209.599 456.807H221.439V463.507H209.599V475.286H202.899V463.507H191.059V456.807H202.899V444.876H209.599V456.807Z" fill="white"/>
<path fill-rule="evenodd" clip-rule="evenodd" d="M120.714 309.45C118.958 311.058 118.98 312.941 120.784 315.298C122.062 316.967 122.102 317.895 121.146 323.611C119.507 333.414 116.616 340.059 113.99 340.059C112.605 340.059 109.774 336.874 109.774 335.315C109.774 334.459 110.759 332.429 111.964 330.805C114.212 327.771 114.204 325.624 111.934 323.432C110.349 321.902 106.561 322.067 104.524 323.754C102.286 325.608 102.354 328.471 104.708 331.497C106.512 333.815 106.554 334.246 105.582 340.401C103.62 352.817 100.091 362.304 96.8436 363.896C95.3486 364.628 94.5636 364.369 91.9756 362.288C88.4199 359.431 87.9944 356.802 90.6633 354.18C94.5663 350.346 93.924 345.491 89.2422 343.448C86.4697 342.238 85.9267 342.223 83.8269 343.3C82.5424 343.959 80.983 345.468 80.3599 346.653C79.3931 348.494 79.4497 349.245 80.748 351.802C81.5843 353.448 82.7791 355.082 83.4031 355.432C84.2924 355.931 84.5378 360.887 84.5378 378.333C84.5378 390.577 84.2089 400.596 83.8077 400.596C83.4057 400.596 82.6303 401.492 82.0856 402.587C81.5399 403.682 80.4983 404.578 79.7699 404.578C78.938 404.578 78.4463 405.318 78.4463 406.57C78.4463 408.546 78.5046 408.561 86.2783 408.561C93.3845 408.561 94.1103 408.421 94.1103 407.052C94.1103 406.222 92.9355 404.392 91.4996 402.985L88.8889 400.427V381.735V363.043L91.182 364.694C96.2719 368.359 100.821 365.267 104.138 355.89L106.216 350.016L106.254 359.69C106.292 368.978 106.207 369.439 104.133 371.24C102.945 372.271 101.966 373.742 101.957 374.509C101.944 375.706 102.808 375.903 108.061 375.903C115.377 375.903 116.438 374.79 112.451 371.302L109.774 368.96V354.984V341.007L113.168 341.424C116.124 341.787 116.754 341.571 118.059 339.748C118.883 338.597 120.08 336.314 120.719 334.676C121.86 331.749 121.882 331.813 121.919 338.267C121.951 343.805 121.684 345.089 120.217 346.432C117.431 348.981 118.127 349.618 123.698 349.618C129.47 349.618 130.07 348.925 126.744 346.103C124.587 344.274 124.568 344.142 124.587 330.808C124.605 318.686 124.775 317.162 126.308 315.367C128.447 312.866 128.488 311.199 126.457 309.516C124.459 307.861 122.475 307.838 120.714 309.45ZM162.371 309.843C160.78 311.453 160.787 311.56 162.674 314.821C164.435 317.866 164.603 319.268 164.601 330.982C164.598 343.582 164.559 343.848 162.409 345.972C161.204 347.161 160.444 348.468 160.72 348.876C161.396 349.878 170.69 349.826 170.69 348.821C170.69 348.383 169.907 347.308 168.949 346.432C167.482 345.089 167.215 343.805 167.247 338.267C167.285 331.813 167.306 331.749 168.447 334.676C169.086 336.314 170.283 338.597 171.107 339.748C172.412 341.571 173.042 341.787 175.998 341.424L179.392 341.007V354.984V368.96L176.715 371.302C172.728 374.79 173.789 375.903 181.105 375.903C186.358 375.903 187.222 375.706 187.209 374.509C187.2 373.742 186.221 372.271 185.034 371.24C182.959 369.439 182.875 368.978 182.912 359.69L182.95 350.016L185.028 355.89C188.345 365.267 192.894 368.359 197.984 364.694L200.277 363.043V381.735V400.427L197.667 402.985C196.231 404.392 195.056 406.222 195.056 407.052C195.056 408.421 195.782 408.561 202.888 408.561C210.662 408.561 210.72 408.546 210.72 406.57C210.72 405.318 210.228 404.578 209.396 404.578C208.668 404.578 207.626 403.682 207.081 402.587C206.536 401.492 205.76 400.596 205.358 400.596C204.957 400.596 204.628 390.577 204.628 378.333C204.628 360.887 204.874 355.931 205.763 355.432C206.387 355.082 207.582 353.448 208.418 351.802C209.721 349.236 209.775 348.497 208.798 346.632C208.171 345.434 206.532 343.961 205.154 343.356C202.984 342.404 202.263 342.427 199.746 343.525C195.245 345.49 194.67 350.415 198.503 354.18C201.172 356.802 200.746 359.431 197.191 362.288C194.603 364.369 193.818 364.628 192.323 363.896C189.075 362.304 185.546 352.817 183.585 340.401C182.613 334.246 182.654 333.815 184.458 331.497C186.812 328.471 186.88 325.608 184.642 323.754C182.605 322.067 178.817 321.902 177.232 323.432C174.963 325.624 174.954 327.771 177.202 330.805C178.407 332.429 179.392 334.459 179.392 335.315C179.392 336.874 176.561 340.059 175.176 340.059C172.615 340.059 169.605 333.087 167.985 323.402C167.066 317.906 167.112 316.957 168.382 315.298C170.186 312.941 170.208 311.058 168.452 309.45C166.578 307.735 164.311 307.881 162.371 309.843ZM116.284 377.641C106.721 393.93 98.7659 407.55 98.6067 407.909C98.4466 408.268 119.136 408.561 144.583 408.561C170.03 408.561 190.72 408.267 190.559 407.908C190.4 407.548 182.455 393.927 172.904 377.64L155.539 348.025H144.606H133.671L116.284 377.641Z" fill="#EFC36A"/>
<path d="M100.895 522.715H86.3681V496.624H100.895V499.301H89.402V507.742H100.235V510.383H89.402V520.038H100.895V522.715ZM110.532 522.715L103.108 503.155H106.285L110.586 514.988C110.883 515.797 111.186 516.689 111.496 517.665C111.805 518.64 112.019 519.425 112.138 520.02H112.263C112.406 519.425 112.644 518.64 112.977 517.665C113.31 516.677 113.613 515.785 113.887 514.988L118.188 503.155H121.365L113.923 522.715H110.532ZM132.037 502.799C133.703 502.799 135.13 503.167 136.32 503.905C137.51 504.643 138.42 505.678 139.05 507.01C139.681 508.331 139.996 509.878 139.996 511.65V513.488H126.487C126.522 515.785 127.093 517.534 128.2 518.735C129.306 519.937 130.865 520.538 132.876 520.538C134.113 520.538 135.208 520.425 136.159 520.199C137.111 519.973 138.099 519.64 139.122 519.199V521.805C138.134 522.245 137.153 522.566 136.177 522.769C135.213 522.971 134.071 523.072 132.751 523.072C130.871 523.072 129.229 522.691 127.825 521.93C126.433 521.156 125.35 520.026 124.577 518.539C123.804 517.052 123.417 515.231 123.417 513.078C123.417 510.972 123.768 509.152 124.47 507.617C125.184 506.07 126.183 504.881 127.468 504.048C128.765 503.215 130.288 502.799 132.037 502.799ZM132.001 505.226C130.419 505.226 129.158 505.743 128.218 506.778C127.278 507.813 126.719 509.259 126.54 511.115H136.891C136.879 509.949 136.695 508.926 136.338 508.045C135.993 507.153 135.463 506.463 134.749 505.975C134.036 505.475 133.12 505.226 132.001 505.226ZM154.291 502.799C156.611 502.799 158.366 503.37 159.556 504.512C160.746 505.642 161.341 507.462 161.341 509.973V522.715H158.414V510.169C158.414 508.539 158.039 507.32 157.289 506.511C156.552 505.702 155.416 505.297 153.881 505.297C151.715 505.297 150.193 505.91 149.312 507.135C148.432 508.361 147.991 510.139 147.991 512.471V522.715H145.029V503.155H147.42L147.867 505.975H148.027C148.444 505.285 148.973 504.708 149.615 504.244C150.258 503.768 150.978 503.411 151.775 503.173C152.572 502.923 153.411 502.799 154.291 502.799ZM173.762 520.645C174.249 520.645 174.749 520.603 175.261 520.52C175.772 520.437 176.189 520.336 176.51 520.217V522.519C176.165 522.673 175.683 522.804 175.064 522.911C174.458 523.018 173.863 523.072 173.28 523.072C172.245 523.072 171.305 522.893 170.46 522.537C169.615 522.168 168.937 521.549 168.426 520.681C167.926 519.812 167.676 518.61 167.676 517.076V505.475H164.892V504.03L167.694 502.87L168.872 498.622H170.656V503.155H176.385V505.475H170.656V516.986C170.656 518.212 170.936 519.128 171.495 519.735C172.066 520.341 172.822 520.645 173.762 520.645ZM193.125 517.361C193.125 518.61 192.81 519.663 192.179 520.52C191.56 521.365 190.668 522.001 189.502 522.429C188.348 522.858 186.968 523.072 185.362 523.072C183.993 523.072 182.81 522.965 181.81 522.751C180.811 522.537 179.936 522.233 179.187 521.841V519.11C179.984 519.503 180.936 519.86 182.042 520.181C183.149 520.502 184.279 520.663 185.433 520.663C187.123 520.663 188.348 520.389 189.109 519.842C189.871 519.294 190.252 518.551 190.252 517.611C190.252 517.076 190.097 516.606 189.788 516.201C189.49 515.785 188.984 515.386 188.271 515.005C187.557 514.613 186.569 514.184 185.308 513.72C184.059 513.245 182.976 512.775 182.06 512.311C181.156 511.835 180.454 511.258 179.954 510.58C179.466 509.901 179.223 509.021 179.223 507.938C179.223 506.285 179.889 505.017 181.221 504.137C182.566 503.245 184.327 502.799 186.504 502.799C187.682 502.799 188.782 502.918 189.805 503.155C190.84 503.382 191.804 503.691 192.697 504.083L191.697 506.457C190.888 506.112 190.026 505.821 189.109 505.583C188.193 505.345 187.259 505.226 186.308 505.226C184.939 505.226 183.886 505.452 183.149 505.904C182.423 506.356 182.06 506.975 182.06 507.76C182.06 508.367 182.227 508.866 182.56 509.259C182.905 509.652 183.452 510.02 184.202 510.365C184.951 510.71 185.939 511.115 187.164 511.579C188.39 512.031 189.448 512.501 190.341 512.989C191.233 513.465 191.917 514.048 192.393 514.738C192.881 515.416 193.125 516.29 193.125 517.361Z" fill="#AAAAAA"/>
<path d="M468.954 187.514H459.5V161.632C459.5 160.918 459.51 160.041 459.531 159.001C459.551 157.94 459.582 156.859 459.622 155.758C459.663 154.636 459.704 153.627 459.745 152.729C459.521 152.994 459.062 153.453 458.368 154.106C457.695 154.738 457.063 155.309 456.471 155.819L451.332 159.949L446.773 154.259L461.183 142.786H468.954V187.514ZM512.458 165.15C512.458 168.76 512.172 171.983 511.601 174.818C511.05 177.653 510.153 180.059 508.909 182.038C507.685 184.016 506.074 185.526 504.075 186.566C502.076 187.606 499.649 188.126 496.794 188.126C493.204 188.126 490.257 187.218 487.952 185.403C485.648 183.568 483.944 180.937 482.843 177.51C481.742 174.063 481.191 169.943 481.191 165.15C481.191 160.316 481.691 156.186 482.69 152.76C483.71 149.313 485.362 146.672 487.646 144.836C489.931 143 492.98 142.083 496.794 142.083C500.363 142.083 503.3 143 505.605 144.836C507.93 146.651 509.653 149.282 510.775 152.729C511.897 156.156 512.458 160.296 512.458 165.15ZM490.583 165.15C490.583 168.556 490.767 171.401 491.134 173.686C491.522 175.95 492.164 177.653 493.061 178.795C493.959 179.937 495.203 180.508 496.794 180.508C498.364 180.508 499.598 179.947 500.496 178.826C501.413 177.683 502.066 175.98 502.454 173.716C502.841 171.432 503.035 168.577 503.035 165.15C503.035 161.744 502.841 158.899 502.454 156.615C502.066 154.33 501.413 152.617 500.496 151.475C499.598 150.312 498.364 149.731 496.794 149.731C495.203 149.731 493.959 150.312 493.061 151.475C492.164 152.617 491.522 154.33 491.134 156.615C490.767 158.899 490.583 161.744 490.583 165.15ZM548.314 165.15C548.314 168.76 548.028 171.983 547.457 174.818C546.906 177.653 546.009 180.059 544.765 182.038C543.541 184.016 541.93 185.526 539.931 186.566C537.932 187.606 535.505 188.126 532.65 188.126C529.06 188.126 526.113 187.218 523.808 185.403C521.503 183.568 519.8 180.937 518.699 177.51C517.598 174.063 517.047 169.943 517.047 165.15C517.047 160.316 517.547 156.186 518.546 152.76C519.566 149.313 521.218 146.672 523.502 144.836C525.786 143 528.836 142.083 532.65 142.083C536.219 142.083 539.156 143 541.461 144.836C543.786 146.651 545.509 149.282 546.631 152.729C547.753 156.156 548.314 160.296 548.314 165.15ZM526.439 165.15C526.439 168.556 526.623 171.401 526.99 173.686C527.377 175.95 528.02 177.653 528.917 178.795C529.815 179.937 531.059 180.508 532.65 180.508C534.22 180.508 535.454 179.947 536.351 178.826C537.269 177.683 537.922 175.98 538.309 173.716C538.697 171.432 538.891 168.577 538.891 165.15C538.891 161.744 538.697 158.899 538.309 156.615C537.922 154.33 537.269 152.617 536.351 151.475C535.454 150.312 534.22 149.731 532.65 149.731C531.059 149.731 529.815 150.312 528.917 151.475C528.02 152.617 527.377 154.33 526.99 156.615C526.623 158.899 526.439 161.744 526.439 165.15ZM584.169 165.15C584.169 168.76 583.884 171.983 583.313 174.818C582.762 177.653 581.865 180.059 580.621 182.038C579.397 184.016 577.786 185.526 575.787 186.566C573.788 187.606 571.361 188.126 568.505 188.126C564.916 188.126 561.969 187.218 559.664 185.403C557.359 183.568 555.656 180.937 554.555 177.51C553.453 174.063 552.903 169.943 552.903 165.15C552.903 160.316 553.402 156.186 554.402 152.76C555.422 149.313 557.074 146.672 559.358 144.836C561.642 143 564.691 142.083 568.505 142.083C572.075 142.083 575.012 143 577.316 144.836C579.642 146.651 581.365 149.282 582.487 152.729C583.609 156.156 584.169 160.296 584.169 165.15ZM562.295 165.15C562.295 168.556 562.479 171.401 562.846 173.686C563.233 175.95 563.876 177.653 564.773 178.795C565.67 179.937 566.915 180.508 568.505 180.508C570.076 180.508 571.31 179.947 572.207 178.826C573.125 177.683 573.778 175.98 574.165 173.716C574.553 171.432 574.747 168.577 574.747 165.15C574.747 161.744 574.553 158.899 574.165 156.615C573.778 154.33 573.125 152.617 572.207 151.475C571.31 150.312 570.076 149.731 568.505 149.731C566.915 149.731 565.67 150.312 564.773 151.475C563.876 152.617 563.233 154.33 562.846 156.615C562.479 158.899 562.295 161.744 562.295 165.15ZM607.727 162.091H619.566V168.791H607.727V180.569H601.027V168.791H589.187V162.091H601.027V150.159H607.727V162.091Z" fill="white"/>
<path d="M489.99 28.0443C469.866 37.7686 453.44 45.8334 453.513 46.0326C453.658 46.4308 526.031 81.3454 526.757 81.3786C527.047 81.3786 536.619 77.0309 548.077 71.7538C559.535 66.4436 568.962 62.1291 569.035 62.1291C569.107 62.1291 569.216 68.966 569.289 77.2964C569.397 92.2977 569.397 92.53 570.231 94.3886C571.21 96.6122 573.748 99.3005 575.997 100.495C578.027 101.624 581.58 102.619 583.393 102.619H584.808V98.9686C584.808 95.7161 584.735 95.3179 584.191 95.3179C582.995 95.3179 579.876 93.758 578.897 92.6959C578.39 92.1317 577.773 91.1029 577.556 90.4059C577.338 89.6426 577.193 83.2703 577.193 73.546V57.8809L588.832 52.0065C598.26 47.2273 600.363 46.0326 599.964 45.7007C599.529 45.3356 526.974 10.3214 526.72 10.3546C526.648 10.3878 510.15 18.3199 489.99 28.0443Z" fill="#EFC36A"/>
<path d="M491.983 82.3412C491.983 92.165 492.201 93.0611 495.428 96.2473C497.749 98.5373 497.676 98.5041 514.029 104.91L526.828 109.921L539.809 103.947C552.79 98.0063 557.177 95.5503 559.534 93.0279C561.601 90.7711 561.637 90.6715 561.529 82.0757L561.42 74.1767L544.378 81.7438C535.023 85.9256 527.119 89.344 526.828 89.344C526.466 89.344 497.241 76.5331 492.636 74.3427C492.02 74.0772 491.983 74.5418 491.983 82.3412Z" fill="#EFC36A"/>
<path d="M476.939 204.21C475.499 204.21 474.203 204.46 473.049 204.959C471.906 205.447 470.931 206.161 470.122 207.101C469.325 208.029 468.712 209.153 468.284 210.474C467.855 211.794 467.641 213.282 467.641 214.935C467.641 217.125 467.98 219.028 468.658 220.646C469.348 222.252 470.372 223.496 471.728 224.376C473.096 225.257 474.803 225.697 476.85 225.697C478.016 225.697 479.11 225.602 480.134 225.411C481.169 225.209 482.174 224.959 483.15 224.662V227.303C482.198 227.66 481.198 227.922 480.151 228.088C479.104 228.267 477.861 228.356 476.421 228.356C473.768 228.356 471.549 227.809 469.765 226.714C467.992 225.607 466.66 224.049 465.767 222.038C464.887 220.028 464.447 217.654 464.447 214.918C464.447 212.943 464.72 211.14 465.268 209.51C465.827 207.868 466.636 206.452 467.695 205.263C468.765 204.073 470.074 203.157 471.621 202.514C473.179 201.86 474.964 201.533 476.975 201.533C478.295 201.533 479.568 201.664 480.794 201.925C482.019 202.187 483.126 202.562 484.113 203.05L482.9 205.62C482.067 205.239 481.151 204.912 480.151 204.638C479.164 204.353 478.093 204.21 476.939 204.21ZM505.225 218.183C505.225 219.79 505.017 221.223 504.601 222.484C504.184 223.746 503.584 224.81 502.798 225.679C502.013 226.547 501.061 227.214 499.943 227.678C498.836 228.13 497.581 228.356 496.177 228.356C494.869 228.356 493.667 228.13 492.572 227.678C491.49 227.214 490.55 226.547 489.753 225.679C488.967 224.81 488.355 223.746 487.915 222.484C487.486 221.223 487.272 219.79 487.272 218.183C487.272 216.042 487.635 214.222 488.361 212.722C489.086 211.211 490.122 210.063 491.466 209.278C492.822 208.481 494.434 208.082 496.302 208.082C498.087 208.082 499.646 208.481 500.978 209.278C502.322 210.075 503.364 211.229 504.101 212.74C504.851 214.239 505.225 216.054 505.225 218.183ZM490.342 218.183C490.342 219.754 490.55 221.116 490.966 222.27C491.383 223.424 492.025 224.317 492.894 224.947C493.762 225.578 494.881 225.893 496.249 225.893C497.605 225.893 498.718 225.578 499.586 224.947C500.466 224.317 501.115 223.424 501.531 222.27C501.948 221.116 502.156 219.754 502.156 218.183C502.156 216.625 501.948 215.28 501.531 214.15C501.115 213.008 500.472 212.128 499.604 211.509C498.735 210.89 497.611 210.581 496.231 210.581C494.196 210.581 492.703 211.253 491.751 212.598C490.812 213.942 490.342 215.804 490.342 218.183ZM513.328 227.999H510.347V200.23H513.328V227.999ZM522.572 227.999H519.592V200.23H522.572V227.999ZM536.367 208.082C538.033 208.082 539.461 208.451 540.65 209.189C541.84 209.927 542.75 210.962 543.381 212.294C544.011 213.615 544.327 215.161 544.327 216.934V218.772H530.817C530.853 221.069 531.424 222.818 532.53 224.019C533.637 225.221 535.195 225.822 537.206 225.822C538.443 225.822 539.538 225.709 540.49 225.483C541.442 225.257 542.429 224.923 543.452 224.483V227.089C542.465 227.529 541.483 227.85 540.508 228.052C539.544 228.255 538.402 228.356 537.081 228.356C535.201 228.356 533.559 227.975 532.156 227.214C530.764 226.44 529.681 225.31 528.908 223.823C528.134 222.336 527.748 220.515 527.748 218.362C527.748 216.256 528.099 214.436 528.8 212.901C529.514 211.354 530.514 210.164 531.799 209.332C533.095 208.499 534.618 208.082 536.367 208.082ZM536.332 210.51C534.749 210.51 533.488 211.027 532.548 212.062C531.608 213.097 531.049 214.543 530.871 216.399H541.222C541.21 215.233 541.025 214.21 540.668 213.329C540.323 212.437 539.794 211.747 539.08 211.259C538.366 210.759 537.45 210.51 536.332 210.51ZM554.82 236.779C552.251 236.779 550.27 236.297 548.878 235.334C547.486 234.382 546.79 233.043 546.79 231.318C546.79 230.093 547.176 229.046 547.95 228.177C548.735 227.309 549.817 226.732 551.198 226.446C550.686 226.208 550.246 225.851 549.877 225.375C549.52 224.9 549.342 224.352 549.342 223.734C549.342 223.02 549.538 222.395 549.931 221.86C550.335 221.312 550.948 220.789 551.769 220.289C550.746 219.873 549.913 219.171 549.27 218.183C548.64 217.184 548.324 216.024 548.324 214.703C548.324 213.299 548.616 212.104 549.199 211.116C549.782 210.117 550.627 209.355 551.733 208.832C552.839 208.308 554.178 208.047 555.748 208.047C556.093 208.047 556.438 208.065 556.784 208.1C557.14 208.124 557.48 208.166 557.801 208.225C558.122 208.273 558.402 208.332 558.64 208.404H565.35V210.313L561.745 210.759C562.102 211.223 562.399 211.783 562.637 212.437C562.875 213.091 562.994 213.817 562.994 214.614C562.994 216.565 562.334 218.118 561.013 219.272C559.692 220.414 557.878 220.985 555.57 220.985C555.023 220.985 554.463 220.938 553.892 220.843C553.309 221.164 552.863 221.521 552.554 221.913C552.256 222.306 552.108 222.758 552.108 223.27C552.108 223.65 552.221 223.954 552.447 224.18C552.685 224.406 553.024 224.572 553.464 224.679C553.904 224.775 554.434 224.822 555.052 224.822H558.497C560.626 224.822 562.256 225.268 563.387 226.161C564.529 227.053 565.1 228.356 565.1 230.069C565.1 232.234 564.219 233.894 562.459 235.048C560.698 236.202 558.152 236.779 554.82 236.779ZM554.91 234.459C556.528 234.459 557.866 234.293 558.925 233.96C559.996 233.638 560.793 233.168 561.316 232.55C561.852 231.943 562.12 231.217 562.12 230.372C562.12 229.587 561.941 228.992 561.584 228.588C561.227 228.195 560.704 227.933 560.014 227.803C559.324 227.66 558.479 227.588 557.48 227.588H554.089C553.208 227.588 552.441 227.725 551.787 227.999C551.132 228.273 550.627 228.677 550.27 229.212C549.925 229.748 549.752 230.414 549.752 231.211C549.752 232.27 550.198 233.073 551.091 233.62C551.983 234.18 553.256 234.459 554.91 234.459ZM555.677 218.826C557.093 218.826 558.158 218.469 558.872 217.755C559.585 217.041 559.942 216 559.942 214.632C559.942 213.169 559.579 212.074 558.854 211.348C558.128 210.611 557.057 210.242 555.641 210.242C554.285 210.242 553.238 210.623 552.5 211.384C551.775 212.134 551.412 213.234 551.412 214.686C551.412 216.018 551.781 217.041 552.518 217.755C553.256 218.469 554.309 218.826 555.677 218.826ZM576.736 208.082C578.401 208.082 579.829 208.451 581.019 209.189C582.209 209.927 583.119 210.962 583.749 212.294C584.38 213.615 584.695 215.161 584.695 216.934V218.772H571.185C571.221 221.069 571.792 222.818 572.899 224.019C574.005 225.221 575.564 225.822 577.574 225.822C578.812 225.822 579.906 225.709 580.858 225.483C581.81 225.257 582.798 224.923 583.821 224.483V227.089C582.833 227.529 581.852 227.85 580.876 228.052C579.912 228.255 578.77 228.356 577.45 228.356C575.57 228.356 573.928 227.975 572.524 227.214C571.132 226.44 570.049 225.31 569.276 223.823C568.503 222.336 568.116 220.515 568.116 218.362C568.116 216.256 568.467 214.436 569.169 212.901C569.883 211.354 570.882 210.164 572.167 209.332C573.464 208.499 574.987 208.082 576.736 208.082ZM576.7 210.51C575.118 210.51 573.856 211.027 572.917 212.062C571.977 213.097 571.417 214.543 571.239 216.399H581.59C581.578 215.233 581.394 214.21 581.037 213.329C580.692 212.437 580.162 211.747 579.448 211.259C578.734 210.759 577.818 210.51 576.7 210.51ZM602.381 222.645C602.381 223.894 602.066 224.947 601.435 225.804C600.816 226.649 599.924 227.285 598.758 227.713C597.604 228.142 596.224 228.356 594.618 228.356C593.25 228.356 592.066 228.249 591.066 228.035C590.067 227.82 589.192 227.517 588.443 227.124V224.394C589.24 224.787 590.192 225.143 591.298 225.465C592.405 225.786 593.535 225.947 594.689 225.947C596.379 225.947 597.604 225.673 598.365 225.126C599.127 224.578 599.508 223.835 599.508 222.895C599.508 222.359 599.353 221.89 599.044 221.485C598.746 221.069 598.241 220.67 597.527 220.289C596.813 219.897 595.825 219.468 594.564 219.004C593.315 218.528 592.232 218.058 591.316 217.594C590.412 217.119 589.71 216.542 589.21 215.863C588.722 215.185 588.479 214.305 588.479 213.222C588.479 211.568 589.145 210.301 590.477 209.421C591.822 208.529 593.583 208.082 595.76 208.082C596.938 208.082 598.038 208.201 599.061 208.439C600.097 208.665 601.06 208.975 601.953 209.367L600.953 211.741C600.144 211.396 599.282 211.104 598.365 210.866C597.449 210.628 596.515 210.51 595.564 210.51C594.195 210.51 593.142 210.736 592.405 211.188C591.679 211.64 591.316 212.258 591.316 213.044C591.316 213.65 591.483 214.15 591.816 214.543C592.161 214.935 592.708 215.304 593.458 215.649C594.207 215.994 595.195 216.399 596.42 216.863C597.646 217.315 598.705 217.785 599.597 218.273C600.489 218.749 601.173 219.332 601.649 220.022C602.137 220.7 602.381 221.574 602.381 222.645Z" fill="#AAAAAA"/>
<path d="M459.441 482.231H428.175V475.653L439.403 464.303C441.667 461.978 443.482 460.04 444.848 458.49C446.235 456.92 447.235 455.492 447.846 454.207C448.479 452.922 448.795 451.545 448.795 450.077C448.795 448.302 448.295 446.977 447.296 446.1C446.317 445.202 445.001 444.754 443.349 444.754C441.616 444.754 439.933 445.151 438.301 445.947C436.67 446.742 434.967 447.874 433.192 449.343L428.052 443.255C429.337 442.153 430.694 441.113 432.121 440.134C433.569 439.155 435.242 438.37 437.139 437.778C439.056 437.166 441.35 436.86 444.022 436.86C446.959 436.86 449.478 437.391 451.579 438.451C453.7 439.512 455.332 440.96 456.474 442.796C457.616 444.611 458.187 446.671 458.187 448.976C458.187 451.443 457.698 453.697 456.719 455.737C455.74 457.776 454.312 459.796 452.436 461.794C450.579 463.793 448.336 466.006 445.705 468.433L439.953 473.848V474.277H459.441V482.231ZM495.053 459.867C495.053 463.477 494.767 466.699 494.196 469.535C493.645 472.37 492.748 474.776 491.504 476.755C490.28 478.733 488.669 480.242 486.67 481.282C484.671 482.323 482.244 482.843 479.389 482.843C475.799 482.843 472.852 481.935 470.547 480.12C468.242 478.284 466.539 475.653 465.438 472.227C464.336 468.78 463.786 464.66 463.786 459.867C463.786 455.033 464.285 450.903 465.285 447.476C466.305 444.03 467.957 441.388 470.241 439.553C472.525 437.717 475.575 436.799 479.389 436.799C482.958 436.799 485.895 437.717 488.2 439.553C490.525 441.368 492.248 443.999 493.37 447.446C494.492 450.872 495.053 455.013 495.053 459.867ZM473.178 459.867C473.178 463.273 473.362 466.118 473.729 468.403C474.116 470.666 474.759 472.37 475.656 473.512C476.554 474.654 477.798 475.225 479.389 475.225C480.959 475.225 482.193 474.664 483.09 473.542C484.008 472.4 484.661 470.697 485.048 468.433C485.436 466.149 485.63 463.293 485.63 459.867C485.63 456.461 485.436 453.616 485.048 451.331C484.661 449.047 484.008 447.334 483.09 446.192C482.193 445.029 480.959 444.448 479.389 444.448C477.798 444.448 476.554 445.029 475.656 446.192C474.759 447.334 474.116 449.047 473.729 451.331C473.362 453.616 473.178 456.461 473.178 459.867ZM530.908 459.867C530.908 463.477 530.623 466.699 530.052 469.535C529.501 472.37 528.604 474.776 527.359 476.755C526.136 478.733 524.524 480.242 522.526 481.282C520.527 482.323 518.1 482.843 515.244 482.843C511.655 482.843 508.708 481.935 506.403 480.12C504.098 478.284 502.395 475.653 501.294 472.227C500.192 468.78 499.642 464.66 499.642 459.867C499.642 455.033 500.141 450.903 501.141 447.476C502.16 444.03 503.813 441.388 506.097 439.553C508.381 437.717 511.43 436.799 515.244 436.799C518.814 436.799 521.751 437.717 524.055 439.553C526.38 441.368 528.104 443.999 529.226 447.446C530.347 450.872 530.908 455.013 530.908 459.867ZM509.034 459.867C509.034 463.273 509.217 466.118 509.585 468.403C509.972 470.666 510.615 472.37 511.512 473.512C512.409 474.654 513.654 475.225 515.244 475.225C516.815 475.225 518.049 474.664 518.946 473.542C519.864 472.4 520.517 470.697 520.904 468.433C521.292 466.149 521.485 463.293 521.485 459.867C521.485 456.461 521.292 453.616 520.904 451.331C520.517 449.047 519.864 447.334 518.946 446.192C518.049 445.029 516.815 444.448 515.244 444.448C513.654 444.448 512.409 445.029 511.512 446.192C510.615 447.334 509.972 449.047 509.585 451.331C509.217 453.616 509.034 456.461 509.034 459.867ZM566.764 459.867C566.764 463.477 566.479 466.699 565.908 469.535C565.357 472.37 564.459 474.776 563.215 476.755C561.992 478.733 560.38 480.242 558.381 481.282C556.383 482.323 553.956 482.843 551.1 482.843C547.511 482.843 544.563 481.935 542.259 480.12C539.954 478.284 538.251 475.653 537.149 472.227C536.048 468.78 535.497 464.66 535.497 459.867C535.497 455.033 535.997 450.903 536.997 447.476C538.016 444.03 539.668 441.388 541.953 439.553C544.237 437.717 547.286 436.799 551.1 436.799C554.669 436.799 557.606 437.717 559.911 439.553C562.236 441.368 563.96 443.999 565.082 447.446C566.203 450.872 566.764 455.013 566.764 459.867ZM544.89 459.867C544.89 463.273 545.073 466.118 545.44 468.403C545.828 470.666 546.47 472.37 547.368 473.512C548.265 474.654 549.509 475.225 551.1 475.225C552.671 475.225 553.905 474.664 554.802 473.542C555.72 472.4 556.373 470.697 556.76 468.433C557.148 466.149 557.341 463.293 557.341 459.867C557.341 456.461 557.148 453.616 556.76 451.331C556.373 449.047 555.72 447.334 554.802 446.192C553.905 445.029 552.671 444.448 551.1 444.448C549.509 444.448 548.265 445.029 547.368 446.192C546.47 447.334 545.828 449.047 545.44 451.331C545.073 453.616 544.89 456.461 544.89 459.867ZM602.62 459.867C602.62 463.477 602.334 466.699 601.763 469.535C601.213 472.37 600.315 474.776 599.071 476.755C597.847 478.733 596.236 480.242 594.237 481.282C592.239 482.323 589.811 482.843 586.956 482.843C583.366 482.843 580.419 481.935 578.114 480.12C575.81 478.284 574.107 475.653 573.005 472.227C571.904 468.78 571.353 464.66 571.353 459.867C571.353 455.033 571.853 450.903 572.852 447.476C573.872 444.03 575.524 441.388 577.809 439.553C580.093 437.717 583.142 436.799 586.956 436.799C590.525 436.799 593.462 437.717 595.767 439.553C598.092 441.368 599.816 443.999 600.937 447.446C602.059 450.872 602.62 455.013 602.62 459.867ZM580.745 459.867C580.745 463.273 580.929 466.118 581.296 468.403C581.684 470.666 582.326 472.37 583.224 473.512C584.121 474.654 585.365 475.225 586.956 475.225C588.526 475.225 589.76 474.664 590.658 473.542C591.576 472.4 592.228 470.697 592.616 468.433C593.003 466.149 593.197 463.293 593.197 459.867C593.197 456.461 593.003 453.616 592.616 451.331C592.228 449.047 591.576 447.334 590.658 446.192C589.76 445.029 588.526 444.448 586.956 444.448C585.365 444.448 584.121 445.029 583.224 446.192C582.326 447.334 581.684 449.047 581.296 451.331C580.929 453.616 580.745 456.461 580.745 459.867ZM626.177 456.808H638.017V463.508H626.177V475.286H619.477V463.508H607.637V456.808H619.477V444.876H626.177V456.808Z" fill="white"/>
<path d="M443.014 496.624C446.381 496.624 448.838 497.284 450.385 498.605C451.944 499.913 452.723 501.793 452.723 504.244C452.723 505.351 452.538 506.404 452.17 507.403C451.813 508.39 451.23 509.265 450.421 510.026C449.612 510.776 448.547 511.371 447.226 511.811C445.917 512.239 444.311 512.454 442.408 512.454H439.231V522.715H436.197V496.624H443.014ZM442.729 499.212H439.231V509.848H442.069C443.734 509.848 445.12 509.669 446.227 509.313C447.345 508.956 448.184 508.379 448.743 507.581C449.302 506.772 449.582 505.702 449.582 504.369C449.582 502.632 449.029 501.341 447.922 500.496C446.816 499.64 445.085 499.212 442.729 499.212ZM465.055 502.834C467.387 502.834 469.118 503.358 470.248 504.405C471.378 505.452 471.943 507.123 471.943 509.42V522.715H469.784L469.213 519.824H469.07C468.523 520.538 467.952 521.139 467.357 521.627C466.762 522.102 466.072 522.465 465.287 522.715C464.513 522.953 463.562 523.072 462.431 523.072C461.242 523.072 460.183 522.864 459.255 522.447C458.339 522.031 457.613 521.4 457.077 520.556C456.554 519.711 456.292 518.64 456.292 517.343C456.292 515.392 457.066 513.893 458.612 512.846C460.159 511.799 462.515 511.228 465.679 511.133L469.052 510.99V509.794C469.052 508.105 468.689 506.921 467.964 506.243C467.238 505.565 466.215 505.226 464.894 505.226C463.871 505.226 462.895 505.374 461.967 505.672C461.039 505.969 460.159 506.32 459.326 506.725L458.416 504.476C459.296 504.024 460.308 503.637 461.45 503.316C462.592 502.995 463.794 502.834 465.055 502.834ZM469.017 513.078L466.036 513.203C463.597 513.298 461.878 513.697 460.879 514.399C459.879 515.101 459.38 516.094 459.38 517.379C459.38 518.497 459.719 519.324 460.397 519.86C461.075 520.395 461.973 520.663 463.092 520.663C464.829 520.663 466.25 520.181 467.357 519.217C468.463 518.254 469.017 516.808 469.017 514.881V513.078ZM486.934 502.799C487.327 502.799 487.737 502.822 488.166 502.87C488.594 502.906 488.975 502.959 489.308 503.031L488.933 505.779C488.612 505.696 488.255 505.63 487.862 505.583C487.47 505.535 487.101 505.511 486.756 505.511C485.971 505.511 485.227 505.672 484.525 505.993C483.835 506.302 483.228 506.755 482.705 507.349C482.181 507.932 481.771 508.64 481.473 509.473C481.176 510.294 481.027 511.21 481.027 512.222V522.715H478.047V503.156H480.51L480.831 506.761H480.956C481.36 506.035 481.848 505.374 482.419 504.78C482.99 504.173 483.651 503.691 484.4 503.334C485.162 502.977 486.006 502.799 486.934 502.799ZM499.32 520.645C499.807 520.645 500.307 520.603 500.819 520.52C501.33 520.437 501.747 520.336 502.068 520.217V522.519C501.723 522.674 501.241 522.804 500.622 522.911C500.016 523.019 499.421 523.072 498.838 523.072C497.803 523.072 496.863 522.894 496.018 522.537C495.173 522.168 494.495 521.549 493.984 520.681C493.484 519.812 493.234 518.61 493.234 517.076V505.476H490.45V504.03L493.252 502.87L494.43 498.623H496.214V503.156H501.943V505.476H496.214V516.986C496.214 518.212 496.494 519.128 497.053 519.735C497.624 520.342 498.38 520.645 499.32 520.645ZM508.992 503.156V522.715H506.03V503.156H508.992ZM507.547 495.839C508.035 495.839 508.451 495.999 508.796 496.32C509.153 496.63 509.331 497.118 509.331 497.784C509.331 498.438 509.153 498.926 508.796 499.247C508.451 499.568 508.035 499.729 507.547 499.729C507.035 499.729 506.607 499.568 506.262 499.247C505.929 498.926 505.762 498.438 505.762 497.784C505.762 497.118 505.929 496.63 506.262 496.32C506.607 495.999 507.035 495.839 507.547 495.839ZM523.109 523.072C521.348 523.072 519.795 522.709 518.451 521.983C517.106 521.258 516.06 520.151 515.31 518.664C514.56 517.177 514.186 515.303 514.186 513.042C514.186 510.675 514.578 508.741 515.364 507.242C516.161 505.731 517.255 504.613 518.647 503.887C520.039 503.162 521.622 502.799 523.394 502.799C524.37 502.799 525.31 502.9 526.214 503.102C527.13 503.292 527.88 503.536 528.463 503.834L527.57 506.314C526.976 506.076 526.285 505.862 525.5 505.672C524.727 505.482 524.001 505.386 523.323 505.386C521.967 505.386 520.836 505.678 519.932 506.261C519.04 506.844 518.368 507.7 517.916 508.831C517.475 509.961 517.255 511.353 517.255 513.007C517.255 514.589 517.469 515.939 517.898 517.058C518.338 518.176 518.986 519.033 519.843 519.628C520.711 520.211 521.794 520.502 523.091 520.502C524.126 520.502 525.06 520.395 525.893 520.181C526.726 519.955 527.481 519.693 528.159 519.396V522.037C527.505 522.37 526.773 522.626 525.964 522.804C525.167 522.983 524.215 523.072 523.109 523.072ZM535.762 503.156V522.715H532.799V503.156H535.762ZM534.316 495.839C534.804 495.839 535.221 495.999 535.566 496.32C535.922 496.63 536.101 497.118 536.101 497.784C536.101 498.438 535.922 498.926 535.566 499.247C535.221 499.568 534.804 499.729 534.316 499.729C533.805 499.729 533.376 499.568 533.031 499.247C532.698 498.926 532.532 498.438 532.532 497.784C532.532 497.118 532.698 496.63 533.031 496.32C533.376 495.999 533.805 495.839 534.316 495.839ZM551.235 502.799C553.674 502.799 555.619 503.637 557.07 505.315C558.522 506.993 559.248 509.515 559.248 512.882C559.248 515.107 558.914 516.975 558.248 518.486C557.582 519.997 556.642 521.139 555.429 521.912C554.227 522.685 552.805 523.072 551.163 523.072C550.128 523.072 549.218 522.935 548.433 522.662C547.648 522.388 546.975 522.019 546.416 521.555C545.857 521.091 545.393 520.585 545.024 520.038H544.81C544.846 520.502 544.887 521.061 544.935 521.716C544.994 522.37 545.024 522.941 545.024 523.429V531.46H542.044V503.156H544.489L544.881 506.047H545.024C545.405 505.452 545.869 504.91 546.416 504.423C546.963 503.923 547.63 503.53 548.415 503.245C549.212 502.947 550.152 502.799 551.235 502.799ZM550.717 505.297C549.361 505.297 548.266 505.559 547.433 506.082C546.612 506.606 546.012 507.391 545.631 508.438C545.25 509.473 545.048 510.776 545.024 512.346V512.918C545.024 514.571 545.203 515.969 545.559 517.111C545.928 518.254 546.529 519.122 547.362 519.717C548.207 520.312 549.337 520.609 550.753 520.609C551.966 520.609 552.978 520.282 553.787 519.628C554.596 518.973 555.197 518.063 555.589 516.897C555.994 515.719 556.196 514.369 556.196 512.846C556.196 510.538 555.744 508.706 554.84 507.349C553.947 505.981 552.573 505.297 550.717 505.297ZM571.74 502.834C574.072 502.834 575.803 503.358 576.933 504.405C578.064 505.452 578.629 507.123 578.629 509.42V522.715H576.469L575.898 519.824H575.755C575.208 520.538 574.637 521.139 574.042 521.627C573.447 522.102 572.757 522.465 571.972 522.715C571.199 522.953 570.247 523.072 569.117 523.072C567.927 523.072 566.868 522.864 565.94 522.447C565.024 522.031 564.298 521.4 563.763 520.556C563.239 519.711 562.977 518.64 562.977 517.343C562.977 515.392 563.751 513.893 565.298 512.846C566.844 511.799 569.2 511.228 572.365 511.133L575.738 510.99V509.794C575.738 508.105 575.375 506.921 574.649 506.243C573.923 505.565 572.9 505.226 571.579 505.226C570.556 505.226 569.581 505.374 568.653 505.672C567.725 505.969 566.844 506.32 566.011 506.725L565.101 504.476C565.982 504.024 566.993 503.637 568.135 503.316C569.277 502.995 570.479 502.834 571.74 502.834ZM575.702 513.078L572.722 513.203C570.283 513.298 568.563 513.697 567.564 514.399C566.565 515.101 566.065 516.094 566.065 517.379C566.065 518.497 566.404 519.324 567.082 519.86C567.76 520.395 568.659 520.663 569.777 520.663C571.514 520.663 572.936 520.181 574.042 519.217C575.149 518.254 575.702 516.808 575.702 514.881V513.078ZM593.994 502.799C596.314 502.799 598.069 503.37 599.259 504.512C600.449 505.642 601.044 507.462 601.044 509.973V522.715H598.117V510.169C598.117 508.539 597.742 507.32 596.993 506.511C596.255 505.702 595.119 505.297 593.584 505.297C591.419 505.297 589.896 505.91 589.015 507.135C588.135 508.361 587.695 510.139 587.695 512.471V522.715H584.732V503.156H587.124L587.57 505.975H587.73C588.147 505.285 588.676 504.708 589.319 504.244C589.961 503.768 590.681 503.411 591.478 503.173C592.275 502.924 593.114 502.799 593.994 502.799ZM613.465 520.645C613.953 520.645 614.452 520.603 614.964 520.52C615.475 520.437 615.892 520.336 616.213 520.217V522.519C615.868 522.674 615.386 522.804 614.768 522.911C614.161 523.019 613.566 523.072 612.983 523.072C611.948 523.072 611.008 522.894 610.163 522.537C609.318 522.168 608.64 521.549 608.129 520.681C607.629 519.812 607.379 518.61 607.379 517.076V505.476H604.595V504.03L607.397 502.87L608.575 498.623H610.36V503.156H616.088V505.476H610.36V516.986C610.36 518.212 610.639 519.128 611.198 519.735C611.769 520.342 612.525 520.645 613.465 520.645ZM632.828 517.361C632.828 518.61 632.513 519.663 631.882 520.52C631.264 521.365 630.371 522.001 629.205 522.43C628.051 522.858 626.671 523.072 625.065 523.072C623.697 523.072 622.513 522.965 621.513 522.751C620.514 522.537 619.64 522.233 618.89 521.841V519.11C619.687 519.503 620.639 519.86 621.745 520.181C622.852 520.502 623.982 520.663 625.136 520.663C626.826 520.663 628.051 520.389 628.813 519.842C629.574 519.295 629.955 518.551 629.955 517.611C629.955 517.076 629.8 516.606 629.491 516.201C629.193 515.785 628.688 515.386 627.974 515.006C627.26 514.613 626.272 514.185 625.011 513.721C623.762 513.245 622.679 512.775 621.763 512.311C620.859 511.835 620.157 511.258 619.657 510.58C619.17 509.901 618.926 509.021 618.926 507.938C618.926 506.285 619.592 505.018 620.925 504.137C622.269 503.245 624.03 502.799 626.207 502.799C627.385 502.799 628.485 502.918 629.509 503.156C630.544 503.382 631.507 503.691 632.4 504.084L631.4 506.457C630.591 506.112 629.729 505.821 628.813 505.583C627.896 505.345 626.963 505.226 626.011 505.226C624.643 505.226 623.59 505.452 622.852 505.904C622.126 506.356 621.763 506.975 621.763 507.76C621.763 508.367 621.93 508.866 622.263 509.259C622.608 509.652 623.155 510.02 623.905 510.365C624.654 510.711 625.642 511.115 626.867 511.579C628.093 512.031 629.152 512.501 630.044 512.989C630.936 513.465 631.62 514.048 632.096 514.738C632.584 515.416 632.828 516.29 632.828 517.361Z" fill="#AAAAAA"/>
<path d="M494.667 301.231C486.624 302.563 480.145 308.041 478.114 315.277C477.016 319.147 477.537 324.348 479.376 328.067C484.098 337.514 497.083 341.685 507.212 336.987L509.243 336.032L509.847 333.871C511 329.7 513.361 325.956 516.82 322.865L518.906 320.981L518.824 319.021C518.604 313.82 515.832 308.694 511.412 305.377C509.381 303.819 505.977 302.211 503.534 301.608C501.502 301.131 496.643 300.93 494.667 301.231Z" fill="#EFC36A"/>
<path d="M564.941 301.232C560.137 302.036 555.251 304.649 552.396 307.966C549.816 310.956 548.004 315.102 547.839 318.418L547.757 319.826L549.404 320.906C553.988 323.971 557.749 329.198 558.984 334.173C559.781 337.465 559.561 337.213 562.141 338.017C566.534 339.374 572.161 339.173 576.498 337.49C581.934 335.379 586.353 331.007 588.083 326.032C590.746 318.393 588.22 310.303 581.687 305.378C579.655 303.82 576.251 302.212 573.808 301.609C571.777 301.131 566.918 300.93 564.941 301.232Z" fill="#EFC36A"/>
<path d="M529.2 321.106C518.824 323.544 512.098 332.991 513.937 342.59C515.557 351.108 522.612 357.239 532 358.294C541.718 359.374 551.024 353.897 554.071 345.329C554.95 342.866 555.252 338.67 554.757 336.007C553.357 328.67 546.824 322.488 538.836 320.931C536.2 320.428 531.698 320.503 529.2 321.106Z" fill="#EFC36A"/>
<path d="M486.568 340.203C477.015 341.132 468.532 346.937 464.936 355.028C463.179 358.972 463.234 358.545 463.124 372.013C463.069 378.823 463.069 384.401 463.152 384.401C463.207 384.401 465.238 384.903 467.626 385.531C475.367 387.542 484.783 389.175 490.768 389.552C492.195 389.652 493.595 389.778 493.87 389.853C494.281 389.954 494.336 389.702 494.336 386.863C494.364 382.617 494.748 379.225 495.572 376.41C498.125 367.666 505.399 360.354 514.788 357.138C515.858 356.761 516.764 356.435 516.819 356.384C516.874 356.334 516.16 355.53 515.254 354.6C512.152 351.434 509.682 346.434 509.242 342.313C509.05 340.479 508.968 340.303 508.337 340.153C507.376 339.901 489.175 339.951 486.568 340.203Z" fill="#EFC36A"/>
<path d="M559.67 340.856C559.67 342.465 558.682 346.234 557.749 348.269C556.706 350.58 555.168 352.817 553.302 354.827C552.533 355.631 551.957 356.334 552.011 356.36C552.066 356.41 553.137 356.812 554.372 357.264C562.553 360.204 569.114 366.335 572.216 373.873C573.725 377.541 573.972 379.024 574.137 384.728L574.274 389.979L577.212 389.803C586.024 389.301 594.808 387.542 601.341 384.979L603.62 384.074L603.51 371.863C603.4 358.571 603.455 358.973 601.698 355.028C598.706 348.269 592.035 342.867 584.349 340.932C581.192 340.153 577.788 339.927 568.4 339.927H559.67V340.856Z" fill="#EFC36A"/>
<path d="M520.169 360.053C512.235 361.586 505.428 366.385 501.886 372.968C499.361 377.692 499.004 380.129 499.004 393.623V403.723L501.694 404.477C509.463 406.663 516.353 407.97 525.083 408.95C529.832 409.452 542.075 409.528 546.357 409.05C555.224 408.095 562.389 406.487 567.715 404.276L569.581 403.497L569.471 391.512C569.362 378.622 569.389 378.848 567.824 374.953C565.409 368.948 558.958 363.169 552.287 361.008C548.032 359.626 546.659 359.526 534.169 359.551C523.875 359.551 522.502 359.601 520.169 360.053Z" fill="#EFC36A"/>
<path d="M892.751 187.514H883.298V161.632C883.298 160.918 883.308 160.041 883.329 159.001C883.349 157.94 883.38 156.859 883.42 155.758C883.461 154.636 883.502 153.627 883.543 152.729C883.318 152.994 882.859 153.453 882.166 154.106C881.493 154.738 880.861 155.309 880.269 155.819L875.129 159.949L870.571 154.259L884.981 142.786H892.751V187.514ZM921.509 158.94C924.243 158.94 926.67 159.46 928.791 160.5C930.932 161.54 932.615 163.07 933.839 165.089C935.063 167.108 935.674 169.596 935.674 172.554C935.674 175.776 935.001 178.56 933.655 180.906C932.329 183.231 930.341 185.016 927.689 186.26C925.058 187.504 921.775 188.126 917.838 188.126C915.493 188.126 913.28 187.922 911.199 187.514C909.139 187.127 907.334 186.525 905.784 185.709V177.541C907.334 178.356 909.19 179.05 911.352 179.621C913.535 180.172 915.585 180.447 917.502 180.447C919.378 180.447 920.959 180.202 922.244 179.713C923.529 179.203 924.497 178.428 925.15 177.388C925.823 176.327 926.16 174.981 926.16 173.349C926.16 171.167 925.425 169.494 923.957 168.332C922.488 167.169 920.235 166.588 917.196 166.588C916.033 166.588 914.82 166.7 913.555 166.925C912.311 167.149 911.271 167.373 910.435 167.598L906.672 165.578L908.354 142.786H932.615V150.802H916.645L915.819 159.582C916.513 159.439 917.267 159.297 918.083 159.154C918.899 159.011 920.041 158.94 921.509 158.94ZM959.813 162.091H971.653V168.791H959.813V180.569H953.113V168.791H941.273V162.091H953.113V150.159H959.813V162.091Z" fill="white"/>
<path d="M892.254 1.70755C891.411 2.1198 889.985 3.35654 889.142 4.47549C887.91 6.12448 887.651 7.12565 887.845 9.54023C888.105 12.0726 888.688 13.1916 892.189 17.314C894.393 19.9642 896.273 22.1432 896.403 22.1432C896.922 22.1432 903.988 13.1916 904.572 11.7781C906.063 8.30349 904.442 3.94546 901.071 2.06091C898.802 0.765276 894.588 0.588598 892.254 1.70755ZM900.098 5.00552C902.497 7.18454 902.562 9.65802 900.293 12.0726C896.792 15.9006 890.309 13.7216 890.309 8.65685C890.309 6.77229 890.698 6.06558 892.319 4.82885C894.977 2.76761 897.7 2.82651 900.098 5.00552Z" fill="#EFC36A"/>
<path d="M893.293 5.82986C891.866 6.77214 891.737 10.129 893.098 11.3657C894.524 12.6614 898.025 12.6025 899.128 11.248C900.424 9.71675 900.23 7.18438 898.868 6.06543C897.442 4.88758 894.913 4.7698 893.293 5.82986Z" fill="#EFC36A"/>
<path d="M911.055 12.2489C911.055 12.4256 912.676 14.7813 914.686 17.4904C918.057 22.0251 918.316 22.614 918.057 25.1464C917.862 26.9131 917.149 28.621 915.917 30.0344C913.389 33.0379 911.185 33.9802 907.619 33.568C904.961 33.2146 904.572 33.3324 901.395 35.9237L897.959 38.6916L892.902 38.2794C888.299 37.926 887.781 37.9849 886.484 39.1627C884.409 41.0473 884.733 43.6974 887.392 47.3488C890.05 50.8823 891.865 51.2946 895.884 49.1155C897.505 48.2322 899.321 47.8199 901.46 47.8788C904.377 47.9377 904.702 47.8199 905.48 46.0531C906.646 43.5208 910.536 40.5173 913.389 40.0461C920.326 38.8683 927.133 45.2875 925.707 51.6479C925.512 52.5902 924.475 54.5925 923.373 56.0059L921.428 58.5972L924.67 62.1307C929.337 67.2544 929.337 68.7267 924.475 72.0835C919.353 75.5582 919.094 75.8527 917.344 80.6818C916.436 83.0964 914.815 86.0999 913.778 87.3367C912.676 88.5734 911.509 90.5757 911.12 91.8714C910.277 94.6982 908.721 96.3472 906.776 96.3472C903.275 96.3472 902.692 95.346 901.33 87.5133C900.358 82.2719 900.358 82.2719 895.495 76.4416C892.837 73.2614 891.411 70.8468 890.633 68.3733C888.364 60.7762 888.494 61.0118 884.798 59.5395C882.464 58.5383 880.13 56.8304 876.889 53.6503C871.573 48.4677 869.887 47.8788 864.701 49.6456C860.811 50.9412 860.681 51.3535 860.551 60.7173C860.357 79.504 871.637 96.1705 889.985 104.298C898.802 108.185 902.627 108.95 913.648 109.009C924.281 109.009 928.3 108.302 936.274 104.828C953.973 97.2895 964.606 83.4498 966.875 65.252C967.783 58.1261 967.588 57.7727 963.504 58.4794C961.17 58.8917 960.327 59.4217 958.836 61.4829C956.437 64.722 954.168 65.7232 949.435 65.7232C944.703 65.7232 943.017 64.6631 942.109 61.0707C941.72 59.4806 940.748 57.8905 939.581 56.8893C937.96 55.4759 937.636 54.7692 937.636 52.4135C937.636 49.5867 937.701 49.4689 943.147 44.7575C946.712 41.6362 948.657 39.4572 948.657 38.6327C948.657 36.9837 945.87 34.5102 943.925 34.5102C941.85 34.5102 939.192 32.5668 938.673 30.6234C938.349 29.5044 938.868 28.0321 940.813 24.793L943.471 20.435L941.266 19.2571C934.978 15.6647 925.059 12.9557 916.436 12.3078C913.454 12.1312 911.055 12.0723 911.055 12.2489Z" fill="#EFC36A"/>
<path d="M865.868 21.7305C863.859 23.4383 863.47 24.145 863.21 26.913C862.951 29.8576 863.145 30.3287 865.544 33.6267C867.035 35.5701 869.045 38.0436 870.018 39.1626L871.898 41.1649L875.982 36.0413C880.326 30.5643 881.169 28.2086 879.937 24.8517C878.77 21.4949 875.982 19.787 871.768 19.787C868.656 19.787 867.943 20.0226 865.868 21.7305ZM875.463 23.8506C876.76 25.0284 877.343 26.1474 877.343 27.443C877.343 30.0932 874.296 32.7433 871.314 32.7433C868.202 32.7433 865.674 30.3876 865.674 27.443C865.674 22.5549 871.638 20.3759 875.463 23.8506Z" fill="#EFC36A"/>
<path d="M868.268 24.8523C867.166 26.0301 867.166 28.857 868.268 30.0348C869.305 31.2716 873.066 31.2127 874.362 30.0348C875.659 28.857 875.659 26.0301 874.362 24.8523C873.066 23.6745 869.305 23.6156 868.268 24.8523Z" fill="#EFC36A"/>
<path d="M957.539 26.9134C956.048 27.7379 954.492 30.5647 954.492 32.626C954.492 34.2161 956.567 37.514 959.873 41.2243L961.429 42.9321L964.736 38.9275C967.653 35.5117 968.107 34.5694 968.107 32.3315C968.107 28.6213 965.514 26.2656 961.494 26.2656C959.938 26.2656 958.188 26.5601 957.539 26.9134ZM964.865 29.6814C966.616 31.6248 966.486 33.686 964.541 35.3939C962.596 37.1607 960.392 37.2785 958.123 35.6295C955.335 33.6271 955.918 29.6225 959.225 28.3268C961.688 27.3846 963.244 27.7968 964.865 29.6814Z" fill="#EFC36A"/>
<path d="M959.03 30.3876C957.474 31.801 957.474 32.0955 958.77 33.8034C959.873 35.2168 962.206 35.5113 963.438 34.3923C964.54 33.3911 964.411 31.2121 963.179 30.1521C961.817 28.9153 960.586 28.9742 959.03 30.3876Z" fill="#EFC36A"/>
<path d="M911.121 42.6374C908.009 44.1686 906.389 47.0544 906.713 50.529C906.907 52.7669 907.685 54.1803 910.797 58.0083C912.872 60.5996 914.946 62.7197 915.27 62.7197C915.659 62.7197 917.669 60.5996 919.744 58.0083C922.856 54.1803 923.634 52.7669 923.828 50.529C924.282 45.6998 920.327 41.5774 915.27 41.5774C914.168 41.5774 912.288 42.0485 911.121 42.6374ZM917.54 44.8165C920.976 46.4066 921.883 50.1757 919.484 52.9436C916.113 56.8305 909.111 54.5337 909.111 49.5278C909.111 47.4077 910.084 45.8765 912.223 44.8754C914.492 43.7564 915.206 43.7564 917.54 44.8165Z" fill="#EFC36A"/>
<path d="M912.482 46.6422C910.666 47.7611 910.537 51.0002 912.222 52.3547C914.945 54.5926 918.835 52.8259 918.835 49.4101C918.835 46.2299 915.464 44.6987 912.482 46.6422Z" fill="#EFC36A"/>
<path d="M859.837 204.209C858.397 204.209 857.1 204.459 855.946 204.959C854.804 205.447 853.828 206.16 853.019 207.1C852.222 208.028 851.609 209.153 851.181 210.473C850.753 211.794 850.539 213.281 850.539 214.935C850.539 217.124 850.878 219.028 851.556 220.646C852.246 222.252 853.269 223.495 854.625 224.376C855.994 225.256 857.701 225.696 859.747 225.696C860.913 225.696 862.008 225.601 863.031 225.411C864.066 225.208 865.071 224.959 866.047 224.661V227.302C865.095 227.659 864.096 227.921 863.049 228.088C862.002 228.266 860.759 228.355 859.319 228.355C856.666 228.355 854.447 227.808 852.662 226.713C850.89 225.607 849.557 224.048 848.665 222.038C847.784 220.027 847.344 217.653 847.344 214.917C847.344 212.942 847.618 211.14 848.165 209.51C848.724 207.868 849.533 206.452 850.592 205.262C851.663 204.072 852.972 203.156 854.518 202.514C856.077 201.859 857.862 201.532 859.872 201.532C861.193 201.532 862.466 201.663 863.691 201.925C864.917 202.187 866.023 202.561 867.011 203.049L865.797 205.619C864.964 205.238 864.048 204.911 863.049 204.638C862.061 204.352 860.991 204.209 859.837 204.209ZM888.123 218.183C888.123 219.789 887.915 221.223 887.498 222.484C887.082 223.745 886.481 224.81 885.696 225.678C884.911 226.547 883.959 227.213 882.84 227.677C881.734 228.129 880.479 228.355 879.075 228.355C877.766 228.355 876.564 228.129 875.47 227.677C874.387 227.213 873.447 226.547 872.65 225.678C871.865 224.81 871.252 223.745 870.812 222.484C870.384 221.223 870.17 219.789 870.17 218.183C870.17 216.041 870.532 214.221 871.258 212.722C871.984 211.211 873.019 210.063 874.363 209.278C875.72 208.48 877.332 208.082 879.2 208.082C880.984 208.082 882.543 208.48 883.876 209.278C885.22 210.075 886.261 211.229 886.999 212.74C887.748 214.239 888.123 216.053 888.123 218.183ZM873.239 218.183C873.239 219.753 873.447 221.116 873.864 222.27C874.28 223.424 874.923 224.316 875.791 224.947C876.66 225.577 877.778 225.893 879.146 225.893C880.503 225.893 881.615 225.577 882.483 224.947C883.364 224.316 884.012 223.424 884.429 222.27C884.845 221.116 885.053 219.753 885.053 218.183C885.053 216.624 884.845 215.28 884.429 214.15C884.012 213.007 883.37 212.127 882.501 211.508C881.633 210.89 880.508 210.58 879.128 210.58C877.094 210.58 875.601 211.253 874.649 212.597C873.709 213.941 873.239 215.803 873.239 218.183ZM909.396 208.439V227.998H906.969L906.54 225.25H906.38C905.975 225.928 905.452 226.499 904.809 226.963C904.167 227.427 903.441 227.772 902.632 227.998C901.835 228.236 900.984 228.355 900.08 228.355C898.533 228.355 897.236 228.105 896.189 227.606C895.142 227.106 894.351 226.333 893.816 225.286C893.292 224.239 893.031 222.894 893.031 221.253V208.439H896.029V221.038C896.029 222.668 896.398 223.888 897.135 224.697C897.873 225.494 898.997 225.893 900.508 225.893C901.96 225.893 903.114 225.619 903.97 225.072C904.839 224.524 905.464 223.721 905.844 222.662C906.225 221.592 906.415 220.283 906.415 218.736V208.439H909.396ZM924.922 208.082C927.242 208.082 928.997 208.653 930.187 209.795C931.376 210.925 931.971 212.746 931.971 215.256V227.998H929.045V215.452C929.045 213.822 928.67 212.603 927.92 211.794C927.183 210.985 926.046 210.58 924.512 210.58C922.346 210.58 920.823 211.193 919.943 212.419C919.063 213.644 918.622 215.423 918.622 217.755V227.998H915.66V208.439H918.051L918.497 211.259H918.658C919.074 210.569 919.604 209.991 920.246 209.527C920.889 209.052 921.609 208.695 922.406 208.457C923.203 208.207 924.042 208.082 924.922 208.082ZM944.392 225.928C944.88 225.928 945.38 225.887 945.891 225.803C946.403 225.72 946.819 225.619 947.141 225.5V227.802C946.796 227.957 946.314 228.088 945.695 228.195C945.088 228.302 944.494 228.355 943.911 228.355C942.875 228.355 941.936 228.177 941.091 227.82C940.246 227.451 939.568 226.832 939.056 225.964C938.557 225.095 938.307 223.894 938.307 222.359V210.759H935.523V209.313L938.325 208.153L939.503 203.906H941.287V208.439H947.016V210.759H941.287V222.27C941.287 223.495 941.567 224.411 942.126 225.018C942.697 225.625 943.452 225.928 944.392 225.928ZM954.065 208.439V227.998H951.103V208.439H954.065ZM952.62 201.122C953.107 201.122 953.524 201.282 953.869 201.604C954.226 201.913 954.404 202.401 954.404 203.067C954.404 203.721 954.226 204.209 953.869 204.53C953.524 204.852 953.107 205.012 952.62 205.012C952.108 205.012 951.68 204.852 951.335 204.53C951.001 204.209 950.835 203.721 950.835 203.067C950.835 202.401 951.001 201.913 951.335 201.604C951.68 201.282 952.108 201.122 952.62 201.122ZM967.878 208.082C969.544 208.082 970.972 208.451 972.161 209.188C973.351 209.926 974.261 210.961 974.892 212.294C975.522 213.614 975.838 215.161 975.838 216.934V218.772H962.328C962.364 221.068 962.935 222.817 964.041 224.019C965.148 225.22 966.706 225.821 968.717 225.821C969.954 225.821 971.049 225.708 972.001 225.482C972.952 225.256 973.94 224.923 974.963 224.483V227.088C973.976 227.528 972.994 227.85 972.019 228.052C971.055 228.254 969.913 228.355 968.592 228.355C966.712 228.355 965.07 227.975 963.666 227.213C962.274 226.44 961.192 225.31 960.418 223.822C959.645 222.335 959.258 220.515 959.258 218.361C959.258 216.256 959.609 214.435 960.311 212.9C961.025 211.354 962.025 210.164 963.31 209.331C964.606 208.498 966.129 208.082 967.878 208.082ZM967.842 210.509C966.26 210.509 964.999 211.027 964.059 212.062C963.119 213.097 962.56 214.542 962.381 216.398H972.732C972.72 215.232 972.536 214.209 972.179 213.329C971.834 212.436 971.305 211.746 970.591 211.259C969.877 210.759 968.961 210.509 967.842 210.509ZM993.523 222.645C993.523 223.894 993.208 224.947 992.577 225.803C991.959 226.648 991.067 227.285 989.901 227.713C988.746 228.141 987.366 228.355 985.76 228.355C984.392 228.355 983.208 228.248 982.209 228.034C981.209 227.82 980.335 227.517 979.585 227.124V224.393C980.383 224.786 981.334 225.143 982.441 225.464C983.547 225.785 984.678 225.946 985.832 225.946C987.521 225.946 988.746 225.672 989.508 225.125C990.269 224.578 990.65 223.834 990.65 222.894C990.65 222.359 990.495 221.889 990.186 221.485C989.889 221.068 989.383 220.67 988.669 220.289C987.955 219.896 986.968 219.468 985.707 219.004C984.457 218.528 983.375 218.058 982.459 217.594C981.554 217.118 980.852 216.541 980.353 215.863C979.865 215.185 979.621 214.304 979.621 213.222C979.621 211.568 980.287 210.301 981.62 209.42C982.964 208.528 984.725 208.082 986.902 208.082C988.08 208.082 989.181 208.201 990.204 208.439C991.239 208.665 992.203 208.974 993.095 209.367L992.096 211.74C991.287 211.395 990.424 211.104 989.508 210.866C988.592 210.628 987.658 210.509 986.706 210.509C985.338 210.509 984.285 210.735 983.547 211.187C982.821 211.639 982.459 212.258 982.459 213.043C982.459 213.65 982.625 214.15 982.958 214.542C983.303 214.935 983.851 215.304 984.6 215.649C985.35 215.994 986.337 216.398 987.563 216.862C988.788 217.314 989.847 217.784 990.739 218.272C991.632 218.748 992.316 219.331 992.792 220.021C993.279 220.699 993.523 221.574 993.523 222.645Z" fill="#AAAAAA"/>
<path d="M804.722 453.656C807.455 453.656 809.882 454.176 812.003 455.217C814.145 456.257 815.828 457.787 817.051 459.806C818.275 461.825 818.887 464.313 818.887 467.271C818.887 470.493 818.214 473.277 816.868 475.623C815.542 477.948 813.553 479.732 810.902 480.977C808.271 482.221 804.987 482.843 801.051 482.843C798.705 482.843 796.492 482.639 794.412 482.231C792.352 481.843 790.547 481.242 788.997 480.426V472.257C790.547 473.073 792.403 473.767 794.565 474.338C796.747 474.888 798.797 475.164 800.714 475.164C802.591 475.164 804.171 474.919 805.456 474.43C806.741 473.92 807.71 473.145 808.363 472.104C809.036 471.044 809.372 469.698 809.372 468.066C809.372 465.884 808.638 464.211 807.17 463.049C805.701 461.886 803.447 461.305 800.408 461.305C799.246 461.305 798.032 461.417 796.768 461.641C795.524 461.866 794.483 462.09 793.647 462.314L789.884 460.295L791.567 437.503H815.828V445.518H799.858L799.032 454.299C799.725 454.156 800.48 454.013 801.296 453.871C802.111 453.728 803.254 453.656 804.722 453.656ZM855.324 459.867C855.324 463.477 855.038 466.699 854.467 469.535C853.917 472.37 853.019 474.776 851.775 476.755C850.551 478.733 848.94 480.242 846.941 481.282C844.943 482.323 842.515 482.843 839.66 482.843C836.07 482.843 833.123 481.935 830.818 480.12C828.514 478.284 826.811 475.653 825.709 472.227C824.608 468.78 824.057 464.66 824.057 459.867C824.057 455.033 824.557 450.903 825.556 447.476C826.576 444.03 828.228 441.388 830.513 439.553C832.797 437.717 835.846 436.799 839.66 436.799C843.229 436.799 846.166 437.717 848.471 439.553C850.796 441.368 852.52 443.999 853.641 447.446C854.763 450.872 855.324 455.013 855.324 459.867ZM833.45 459.867C833.45 463.273 833.633 466.118 834 468.403C834.388 470.666 835.03 472.37 835.928 473.512C836.825 474.654 838.069 475.225 839.66 475.225C841.231 475.225 842.464 474.664 843.362 473.542C844.28 472.4 844.932 470.697 845.32 468.433C845.707 466.149 845.901 463.293 845.901 459.867C845.901 456.461 845.707 453.616 845.32 451.331C844.932 449.047 844.28 447.334 843.362 446.192C842.464 445.029 841.231 444.448 839.66 444.448C838.069 444.448 836.825 445.029 835.928 446.192C835.03 447.334 834.388 449.047 834 451.331C833.633 453.616 833.45 456.461 833.45 459.867ZM891.18 459.867C891.18 463.477 890.894 466.699 890.323 469.535C889.773 472.37 888.875 474.776 887.631 476.755C886.407 478.733 884.796 480.242 882.797 481.282C880.798 482.323 878.371 482.843 875.516 482.843C871.926 482.843 868.979 481.935 866.674 480.12C864.37 478.284 862.667 475.653 861.565 472.227C860.464 468.78 859.913 464.66 859.913 459.867C859.913 455.033 860.413 450.903 861.412 447.476C862.432 444.03 864.084 441.388 866.368 439.553C868.653 437.717 871.702 436.799 875.516 436.799C879.085 436.799 882.022 437.717 884.327 439.553C886.652 441.368 888.375 443.999 889.497 447.446C890.619 450.872 891.18 455.013 891.18 459.867ZM869.305 459.867C869.305 463.273 869.489 466.118 869.856 468.403C870.244 470.666 870.886 472.37 871.783 473.512C872.681 474.654 873.925 475.225 875.516 475.225C877.086 475.225 878.32 474.664 879.218 473.542C880.136 472.4 880.788 470.697 881.176 468.433C881.563 466.149 881.757 463.293 881.757 459.867C881.757 456.461 881.563 453.616 881.176 451.331C880.788 449.047 880.136 447.334 879.218 446.192C878.32 445.029 877.086 444.448 875.516 444.448C873.925 444.448 872.681 445.029 871.783 446.192C870.886 447.334 870.244 449.047 869.856 451.331C869.489 453.616 869.305 456.461 869.305 459.867ZM907.089 474.95L907.547 475.653C907.18 477.122 906.701 478.702 906.11 480.395C905.538 482.088 904.906 483.781 904.213 485.474C903.54 487.167 902.856 488.778 902.163 490.308H895.432C895.84 488.656 896.238 486.922 896.626 485.107C897.013 483.291 897.37 481.507 897.696 479.753C898.043 477.999 898.318 476.398 898.522 474.95H907.089ZM944.902 459.867C944.902 463.477 944.617 466.699 944.046 469.535C943.495 472.37 942.598 474.776 941.354 476.755C940.13 478.733 938.518 480.242 936.52 481.282C934.521 482.323 932.094 482.843 929.238 482.843C925.649 482.843 922.702 481.935 920.397 480.12C918.092 478.284 916.389 475.653 915.288 472.227C914.186 468.78 913.636 464.66 913.636 459.867C913.636 455.033 914.135 450.903 915.135 447.476C916.154 444.03 917.807 441.388 920.091 439.553C922.375 437.717 925.424 436.799 929.238 436.799C932.808 436.799 935.745 437.717 938.049 439.553C940.375 441.368 942.098 443.999 943.22 447.446C944.341 450.872 944.902 455.013 944.902 459.867ZM923.028 459.867C923.028 463.273 923.211 466.118 923.579 468.403C923.966 470.666 924.609 472.37 925.506 473.512C926.403 474.654 927.648 475.225 929.238 475.225C930.809 475.225 932.043 474.664 932.94 473.542C933.858 472.4 934.511 470.697 934.898 468.433C935.286 466.149 935.48 463.293 935.48 459.867C935.48 456.461 935.286 453.616 934.898 451.331C934.511 449.047 933.858 447.334 932.94 446.192C932.043 445.029 930.809 444.448 929.238 444.448C927.648 444.448 926.403 445.029 925.506 446.192C924.609 447.334 923.966 449.047 923.579 451.331C923.211 453.616 923.028 456.461 923.028 459.867ZM980.758 459.867C980.758 463.477 980.473 466.699 979.902 469.535C979.351 472.37 978.453 474.776 977.209 476.755C975.986 478.733 974.374 480.242 972.376 481.282C970.377 482.323 967.95 482.843 965.094 482.843C961.505 482.843 958.557 481.935 956.253 480.12C953.948 478.284 952.245 475.653 951.144 472.227C950.042 468.78 949.491 464.66 949.491 459.867C949.491 455.033 949.991 450.903 950.991 447.476C952.01 444.03 953.662 441.388 955.947 439.553C958.231 437.717 961.28 436.799 965.094 436.799C968.663 436.799 971.6 437.717 973.905 439.553C976.23 441.368 977.954 443.999 979.076 447.446C980.197 450.872 980.758 455.013 980.758 459.867ZM958.884 459.867C958.884 463.273 959.067 466.118 959.434 468.403C959.822 470.666 960.464 472.37 961.362 473.512C962.259 474.654 963.503 475.225 965.094 475.225C966.665 475.225 967.899 474.664 968.796 473.542C969.714 472.4 970.367 470.697 970.754 468.433C971.142 466.149 971.335 463.293 971.335 459.867C971.335 456.461 971.142 453.616 970.754 451.331C970.367 449.047 969.714 447.334 968.796 446.192C967.899 445.029 966.665 444.448 965.094 444.448C963.503 444.448 962.259 445.029 961.362 446.192C960.464 447.334 959.822 449.047 959.434 451.331C959.067 453.616 958.884 456.461 958.884 459.867ZM1016.61 459.867C1016.61 463.477 1016.33 466.699 1015.76 469.535C1015.21 472.37 1014.31 474.776 1013.07 476.755C1011.84 478.733 1010.23 480.242 1008.23 481.282C1006.23 482.323 1003.81 482.843 1000.95 482.843C997.36 482.843 994.413 481.935 992.108 480.12C989.804 478.284 988.101 475.653 986.999 472.227C985.898 468.78 985.347 464.66 985.347 459.867C985.347 455.033 985.847 450.903 986.846 447.476C987.866 444.03 989.518 441.388 991.803 439.553C994.087 437.717 997.136 436.799 1000.95 436.799C1004.52 436.799 1007.46 437.717 1009.76 439.553C1012.09 441.368 1013.81 443.999 1014.93 447.446C1016.05 450.872 1016.61 455.013 1016.61 459.867ZM994.74 459.867C994.74 463.273 994.923 466.118 995.29 468.403C995.678 470.666 996.32 472.37 997.218 473.512C998.115 474.654 999.359 475.225 1000.95 475.225C1002.52 475.225 1003.75 474.664 1004.65 473.542C1005.57 472.4 1006.22 470.697 1006.61 468.433C1007 466.149 1007.19 463.293 1007.19 459.867C1007.19 456.461 1007 453.616 1006.61 451.331C1006.22 449.047 1005.57 447.334 1004.65 446.192C1003.75 445.029 1002.52 444.448 1000.95 444.448C999.359 444.448 998.115 445.029 997.218 446.192C996.32 447.334 995.678 449.047 995.29 451.331C994.923 453.616 994.74 456.461 994.74 459.867ZM1040.17 456.808H1052.01V463.508H1040.17V475.286H1033.47V463.508H1021.63V456.808H1033.47V444.876H1040.17V456.808Z" fill="white"/>
<path d="M806.044 509.634C806.044 511.645 805.788 513.477 805.277 515.131C804.765 516.772 804.004 518.188 802.992 519.378C801.993 520.556 800.75 521.466 799.263 522.108C797.775 522.751 796.05 523.072 794.087 523.072C792.064 523.072 790.298 522.751 788.787 522.108C787.288 521.466 786.038 520.55 785.039 519.36C784.051 518.17 783.308 516.749 782.808 515.095C782.32 513.441 782.076 511.609 782.076 509.598C782.076 506.933 782.517 504.595 783.397 502.585C784.278 500.574 785.61 499.009 787.395 497.891C789.191 496.773 791.44 496.213 794.141 496.213C796.722 496.213 798.894 496.767 800.655 497.873C802.427 498.98 803.766 500.538 804.67 502.549C805.586 504.548 806.044 506.909 806.044 509.634ZM785.271 509.634C785.271 511.847 785.586 513.762 786.217 515.38C786.847 516.998 787.811 518.248 789.108 519.128C790.417 520.009 792.076 520.449 794.087 520.449C796.11 520.449 797.763 520.009 799.048 519.128C800.345 518.248 801.303 516.998 801.922 515.38C802.54 513.762 802.85 511.847 802.85 509.634C802.85 506.267 802.142 503.637 800.726 501.746C799.322 499.842 797.127 498.89 794.141 498.89C792.118 498.89 790.452 499.325 789.144 500.193C787.835 501.062 786.859 502.299 786.217 503.905C785.586 505.499 785.271 507.409 785.271 509.634ZM820.678 502.799C822.998 502.799 824.753 503.37 825.943 504.512C827.133 505.642 827.727 507.463 827.727 509.973V522.715H824.801V510.169C824.801 508.539 824.426 507.32 823.676 506.511C822.939 505.702 821.802 505.297 820.268 505.297C818.102 505.297 816.579 505.91 815.699 507.135C814.819 508.361 814.378 510.139 814.378 512.471V522.715H811.416V503.156H813.807L814.253 505.975H814.414C814.83 505.285 815.36 504.708 816.002 504.244C816.645 503.768 817.365 503.411 818.162 503.173C818.959 502.924 819.798 502.799 820.678 502.799ZM836.811 522.715H833.831V494.946H836.811V522.715ZM846.038 503.156V522.715H843.075V503.156H846.038ZM844.592 495.839C845.08 495.839 845.496 495.999 845.841 496.32C846.198 496.63 846.377 497.118 846.377 497.784C846.377 498.438 846.198 498.926 845.841 499.247C845.496 499.569 845.08 499.729 844.592 499.729C844.081 499.729 843.652 499.569 843.307 499.247C842.974 498.926 842.808 498.438 842.808 497.784C842.808 497.118 842.974 496.63 843.307 496.32C843.652 495.999 844.081 495.839 844.592 495.839ZM861.582 502.799C863.902 502.799 865.657 503.37 866.847 504.512C868.036 505.642 868.631 507.463 868.631 509.973V522.715H865.704V510.169C865.704 508.539 865.33 507.32 864.58 506.511C863.842 505.702 862.706 505.297 861.171 505.297C859.006 505.297 857.483 505.91 856.603 507.135C855.722 508.361 855.282 510.139 855.282 512.471V522.715H852.32V503.156H854.711L855.157 505.975H855.318C855.734 505.285 856.264 504.708 856.906 504.244C857.549 503.768 858.268 503.411 859.066 503.173C859.863 502.924 860.701 502.799 861.582 502.799ZM882.266 502.799C883.931 502.799 885.359 503.168 886.549 503.905C887.739 504.643 888.649 505.678 889.279 507.01C889.91 508.331 890.225 509.878 890.225 511.65V513.489H876.716C876.751 515.785 877.322 517.534 878.429 518.735C879.535 519.937 881.094 520.538 883.105 520.538C884.342 520.538 885.436 520.425 886.388 520.199C887.34 519.973 888.328 519.64 889.351 519.199V521.805C888.363 522.245 887.382 522.566 886.406 522.769C885.442 522.971 884.3 523.072 882.98 523.072C881.1 523.072 879.458 522.691 878.054 521.93C876.662 521.157 875.579 520.026 874.806 518.539C874.033 517.052 873.646 515.232 873.646 513.078C873.646 510.972 873.997 509.152 874.699 507.617C875.413 506.071 876.412 504.881 877.697 504.048C878.994 503.215 880.517 502.799 882.266 502.799ZM882.23 505.226C880.648 505.226 879.387 505.743 878.447 506.778C877.507 507.814 876.948 509.259 876.769 511.115H887.12C887.108 509.949 886.924 508.926 886.567 508.046C886.222 507.153 885.692 506.463 884.978 505.975C884.265 505.476 883.348 505.226 882.23 505.226ZM921.563 522.715L918.351 514.435H907.893L904.699 522.715H901.629L911.837 496.517H914.568L924.704 522.715H921.563ZM917.441 511.74L914.389 503.513C914.318 503.298 914.199 502.947 914.032 502.46C913.878 501.972 913.717 501.466 913.55 500.943C913.384 500.419 913.247 499.997 913.14 499.676C913.021 500.163 912.89 500.651 912.747 501.139C912.616 501.615 912.486 502.061 912.355 502.477C912.224 502.882 912.111 503.227 912.016 503.513L908.91 511.74H917.441ZM944.032 503.156V522.715H941.605L941.177 519.967H941.016C940.611 520.645 940.088 521.216 939.445 521.68C938.803 522.144 938.077 522.489 937.268 522.715C936.471 522.953 935.62 523.072 934.716 523.072C933.169 523.072 931.873 522.822 930.826 522.323C929.779 521.823 928.987 521.05 928.452 520.003C927.929 518.956 927.667 517.611 927.667 515.969V503.156H930.665V515.755C930.665 517.385 931.034 518.605 931.771 519.414C932.509 520.211 933.633 520.609 935.144 520.609C936.596 520.609 937.75 520.336 938.607 519.788C939.475 519.241 940.1 518.438 940.481 517.379C940.861 516.308 941.052 515 941.052 513.453V503.156H944.032ZM957.256 523.072C954.781 523.072 952.818 522.227 951.367 520.538C949.927 518.849 949.207 516.338 949.207 513.007C949.207 509.64 949.945 507.1 951.42 505.386C952.896 503.661 954.859 502.799 957.31 502.799C958.345 502.799 959.249 502.936 960.022 503.209C960.796 503.483 961.462 503.852 962.021 504.316C962.58 504.768 963.05 505.285 963.431 505.868H963.645C963.597 505.499 963.55 504.994 963.502 504.351C963.455 503.709 963.431 503.185 963.431 502.781V494.946H966.393V522.715H964.002L963.556 519.931H963.431C963.062 520.514 962.592 521.044 962.021 521.52C961.462 521.995 960.79 522.376 960.004 522.662C959.231 522.935 958.315 523.072 957.256 523.072ZM957.72 520.609C959.814 520.609 961.295 520.014 962.164 518.825C963.032 517.635 963.467 515.868 963.467 513.524V512.989C963.467 510.502 963.05 508.593 962.217 507.26C961.396 505.928 959.897 505.262 957.72 505.262C955.9 505.262 954.537 505.963 953.633 507.367C952.729 508.759 952.277 510.663 952.277 513.078C952.277 515.481 952.723 517.338 953.615 518.646C954.52 519.955 955.888 520.609 957.72 520.609ZM975.638 503.156V522.715H972.675V503.156H975.638ZM974.192 495.839C974.68 495.839 975.096 495.999 975.441 496.32C975.798 496.63 975.977 497.118 975.977 497.784C975.977 498.438 975.798 498.926 975.441 499.247C975.096 499.569 974.68 499.729 974.192 499.729C973.681 499.729 973.252 499.569 972.907 499.247C972.574 498.926 972.408 498.438 972.408 497.784C972.408 497.118 972.574 496.63 972.907 496.32C973.252 495.999 973.681 495.839 974.192 495.839ZM989.451 502.799C991.116 502.799 992.544 503.168 993.734 503.905C994.924 504.643 995.834 505.678 996.464 507.01C997.095 508.331 997.41 509.878 997.41 511.65V513.489H983.901C983.936 515.785 984.507 517.534 985.614 518.735C986.72 519.937 988.279 520.538 990.29 520.538C991.527 520.538 992.622 520.425 993.573 520.199C994.525 519.973 995.513 519.64 996.536 519.199V521.805C995.548 522.245 994.567 522.566 993.591 522.769C992.627 522.971 991.485 523.072 990.165 523.072C988.285 523.072 986.643 522.691 985.239 521.93C983.847 521.157 982.764 520.026 981.991 518.539C981.218 517.052 980.831 515.232 980.831 513.078C980.831 510.972 981.182 509.152 981.884 507.617C982.598 506.071 983.597 504.881 984.882 504.048C986.179 503.215 987.702 502.799 989.451 502.799ZM989.415 505.226C987.833 505.226 986.572 505.743 985.632 506.778C984.692 507.814 984.133 509.259 983.954 511.115H994.305C994.293 509.949 994.109 508.926 993.752 508.046C993.407 507.153 992.877 506.463 992.163 505.975C991.45 505.476 990.534 505.226 989.415 505.226ZM1011.71 502.799C1014.03 502.799 1015.78 503.37 1016.97 504.512C1018.16 505.642 1018.75 507.463 1018.75 509.973V522.715H1015.83V510.169C1015.83 508.539 1015.45 507.32 1014.7 506.511C1013.97 505.702 1012.83 505.297 1011.29 505.297C1009.13 505.297 1007.61 505.91 1006.73 507.135C1005.85 508.361 1005.41 510.139 1005.41 512.471V522.715H1002.44V503.156H1004.83L1005.28 505.975H1005.44C1005.86 505.285 1006.39 504.708 1007.03 504.244C1007.67 503.768 1008.39 503.411 1009.19 503.173C1009.99 502.924 1010.82 502.799 1011.71 502.799ZM1032.69 523.072C1030.93 523.072 1029.38 522.709 1028.03 521.984C1026.69 521.258 1025.64 520.151 1024.89 518.664C1024.14 517.177 1023.77 515.303 1023.77 513.043C1023.77 510.675 1024.16 508.742 1024.95 507.242C1025.74 505.731 1026.84 504.613 1028.23 503.887C1029.62 503.162 1031.21 502.799 1032.98 502.799C1033.95 502.799 1034.89 502.9 1035.8 503.102C1036.71 503.292 1037.46 503.536 1038.05 503.834L1037.15 506.314C1036.56 506.076 1035.87 505.862 1035.08 505.672C1034.31 505.482 1033.58 505.386 1032.91 505.386C1031.55 505.386 1030.42 505.678 1029.52 506.261C1028.62 506.844 1027.95 507.7 1027.5 508.831C1027.06 509.961 1026.84 511.353 1026.84 513.007C1026.84 514.589 1027.05 515.94 1027.48 517.058C1027.92 518.176 1028.57 519.033 1029.43 519.628C1030.3 520.211 1031.38 520.502 1032.67 520.502C1033.71 520.502 1034.64 520.395 1035.48 520.181C1036.31 519.955 1037.06 519.693 1037.74 519.396V522.037C1037.09 522.37 1036.36 522.626 1035.55 522.804C1034.75 522.983 1033.8 523.072 1032.69 523.072ZM1049.91 502.799C1051.58 502.799 1053.01 503.168 1054.2 503.905C1055.39 504.643 1056.3 505.678 1056.93 507.01C1057.56 508.331 1057.87 509.878 1057.87 511.65V513.489H1044.36C1044.4 515.785 1044.97 517.534 1046.08 518.735C1047.18 519.937 1048.74 520.538 1050.75 520.538C1051.99 520.538 1053.08 520.425 1054.04 520.199C1054.99 519.973 1055.98 519.64 1057 519.199V521.805C1056.01 522.245 1055.03 522.566 1054.05 522.769C1053.09 522.971 1051.95 523.072 1050.63 523.072C1048.75 523.072 1047.11 522.691 1045.7 521.93C1044.31 521.157 1043.23 520.026 1042.45 518.539C1041.68 517.052 1041.29 515.232 1041.29 513.078C1041.29 510.972 1041.65 509.152 1042.35 507.617C1043.06 506.071 1044.06 504.881 1045.35 504.048C1046.64 503.215 1048.17 502.799 1049.91 502.799ZM1049.88 505.226C1048.3 505.226 1047.03 505.743 1046.1 506.778C1045.16 507.814 1044.6 509.259 1044.42 511.115H1054.77C1054.76 509.949 1054.57 508.926 1054.22 508.046C1053.87 507.153 1053.34 506.463 1052.63 505.975C1051.91 505.476 1051 505.226 1049.88 505.226Z" fill="#AAAAAA"/>
<path d="M859.364 302.92L857.03 304.752L856.779 333.068L856.529 361.384L858.697 360.62C862.116 359.399 868.37 359.781 872.039 361.307C878.126 363.902 882.462 369.779 882.462 375.503V378.175H891.968H901.39L901.974 374.435C903.141 366.421 911.229 359.857 919.985 359.857C928.74 359.857 936.828 366.421 937.996 374.435L938.579 378.175H948.002H957.507V375.503C957.507 369.779 961.843 363.902 967.93 361.307C971.599 359.781 977.853 359.399 981.272 360.62L983.44 361.384L983.19 333.068L982.94 304.752L980.605 302.92L978.27 301.088H919.985H861.699L859.364 302.92ZM923.32 332.457C930.408 335.815 936.495 338.868 936.828 339.174C937.245 339.479 915.148 350.775 909.812 352.835C909.395 352.988 909.145 347.111 909.145 339.708C909.145 332.304 909.478 326.275 909.812 326.275C910.145 326.275 916.232 329.023 923.32 332.457Z" fill="#EFC36A"/>
<path d="M857.865 363.368C852.278 366.039 849.109 370.695 849.109 376.267C849.109 381.075 851.111 385.349 853.028 384.662C857.448 383.059 864.452 382.525 869.372 383.288C872.207 383.746 875.209 384.357 875.959 384.662C879.128 385.807 881.296 376.114 879.044 370.771C877.877 367.871 874.291 364.437 871.039 363.215C867.454 361.765 860.95 361.842 857.865 363.368Z" fill="#EFC36A"/>
<path d="M911.564 364.361C905.31 367.948 902.725 375.198 905.394 381.686C906.394 384.052 907.228 385.044 907.979 384.739C912.565 383.136 920.319 382.525 925.406 383.365C928.324 383.899 931.326 384.51 931.993 384.739C933.744 385.349 936.162 378.938 935.579 375.198C934.411 367.261 928.408 362.147 919.986 362.147C916.234 362.147 914.566 362.605 911.564 364.361Z" fill="#EFC36A"/>
<path d="M968.765 363.215C965.597 364.513 962.095 367.948 960.927 370.771C958.676 376.114 960.844 385.807 964.012 384.662C968.348 383.059 975.353 382.525 980.272 383.288C983.107 383.746 986.109 384.357 986.86 384.662C987.944 385.044 988.611 384.51 989.528 382.373C992.446 376.038 990.362 368.787 984.525 364.666C982.107 362.987 980.439 362.529 976.353 362.376C973.268 362.223 970.266 362.529 968.765 363.215Z" fill="#EFC36A"/>
<path d="M856.447 386.036C847.441 388.402 841.354 394.661 839.603 403.514L839.02 406.414H864.618H890.217L889.634 403.209C888.383 396.034 883.38 390.158 875.959 387.181C871.289 385.273 861.617 384.739 856.447 386.036Z" fill="#EFC36A"/>
<path d="M911.479 386.036C907.393 387.105 906.309 387.715 901.723 391.455C898.387 394.279 894.969 400.537 894.969 403.896V406.414H919.984H944.999V403.896C944.999 398.019 937.995 389.471 930.991 386.799C926.821 385.197 916.315 384.815 911.479 386.036Z" fill="#EFC36A"/>
<path d="M967.349 386.036C959.428 388.097 953.007 393.974 950.839 401.072C949.088 406.872 947.087 406.414 975.438 406.414H1000.95L1000.37 403.514C998.952 396.263 993.782 390.005 986.945 387.181C982.192 385.273 972.519 384.739 967.349 386.036Z" fill="#EFC36A"/>
</svg>
