<svg width="645" height="39" viewBox="0 0 645 39" fill="none" xmlns="http://www.w3.org/2000/svg">
<path d="M0.5 37C1.33333 37 2 36.9167 2.5 36.75C3.03333 36.5833 3.43333 36.2833 3.7 35.85C4 35.3833 4.2 34.7333 4.3 33.9C4.4 33.0333 4.45 31.9333 4.45 30.6V10.4C4.45 9.03333 4.4 7.93333 4.3 7.1C4.2 6.26667 4 5.63333 3.7 5.2C3.43333 4.73333 3.03333 4.41667 2.5 4.25C2 4.08333 1.33333 4 0.5 4V3H13.7C17.8667 3 21.0167 3.71666 23.15 5.15C25.2833 6.55 26.35 8.66667 26.35 11.5C26.35 13.4 25.85 15.0333 24.85 16.4C23.8833 17.7667 22.4167 18.8167 20.45 19.55C23.45 20.1167 25.7167 21.1833 27.25 22.75C28.7833 24.3167 29.55 26.3833 29.55 28.95C29.55 32.0167 28.3833 34.3 26.05 35.8C23.75 37.2667 20.1667 38 15.3 38H0.5V37ZM11.2 19.4C13 19.4 14.5167 19.2667 15.75 19C16.9833 18.7 17.9667 18.2333 18.7 17.6C19.4667 16.9333 20.0167 16.1 20.35 15.1C20.6833 14.0667 20.85 12.8167 20.85 11.35C20.85 9.95 20.7 8.78333 20.4 7.85C20.1333 6.91666 19.7 6.16667 19.1 5.6C18.5333 5.03333 17.8 4.63333 16.9 4.4C16 4.13333 14.9167 4 13.65 4C12.7167 4 11.9667 4.08333 11.4 4.25C10.8667 4.41667 10.45 4.73333 10.15 5.2C9.85 5.63333 9.65 6.26667 9.55 7.1C9.48333 7.93333 9.45 9.03333 9.45 10.4V19.4H11.2ZM9.45 30.6C9.45 31.9333 9.5 33.0333 9.6 33.9C9.73333 34.7333 9.96667 35.3833 10.3 35.85C10.6667 36.2833 11.2 36.5833 11.9 36.75C12.6 36.9167 13.5167 37 14.65 37C17.9167 37 20.3 36.4333 21.8 35.3C23.3 34.1333 24.05 32.1667 24.05 29.4C24.05 27.8 23.8167 26.4333 23.35 25.3C22.8833 24.1667 22.1333 23.2333 21.1 22.5C20.0667 21.7667 18.7333 21.2333 17.1 20.9C15.4667 20.5667 13.5 20.4 11.2 20.4H9.45V30.6ZM31.5664 25.5C31.5664 23.5333 31.8497 21.7667 32.4164 20.2C32.9831 18.6 33.7664 17.2333 34.7664 16.1C35.7997 14.9333 37.0331 14.05 38.4664 13.45C39.9331 12.8167 41.5331 12.5 43.2664 12.5C45.0331 12.5 46.6331 12.8167 48.0664 13.45C49.4997 14.05 50.7164 14.9333 51.7164 16.1C52.7497 17.2333 53.5497 18.6 54.1164 20.2C54.6831 21.7667 54.9664 23.5333 54.9664 25.5C54.9664 27.4333 54.6831 29.2 54.1164 30.8C53.5497 32.4 52.7497 33.7833 51.7164 34.95C50.7164 36.0833 49.4997 36.9667 48.0664 37.6C46.6331 38.2 45.0331 38.5 43.2664 38.5C41.5331 38.5 39.9331 38.2 38.4664 37.6C37.0331 36.9667 35.7997 36.0833 34.7664 34.95C33.7664 33.7833 32.9831 32.4 32.4164 30.8C31.8497 29.2 31.5664 27.4333 31.5664 25.5ZM36.5664 25.5C36.6997 27.3 36.9831 28.9333 37.4164 30.4C37.8497 31.8667 38.3997 33.1333 39.0664 34.2C39.7664 35.2333 40.5497 36.05 41.4164 36.65C42.2831 37.2167 43.2164 37.5 44.2164 37.5C45.2164 37.5 46.0997 37.2167 46.8664 36.65C47.6664 36.05 48.3164 35.2333 48.8164 34.2C49.3164 33.1333 49.6664 31.8667 49.8664 30.4C50.0664 28.9333 50.0997 27.3 49.9664 25.5C49.8331 23.7 49.5497 22.0667 49.1164 20.6C48.6831 19.1 48.1164 17.8333 47.4164 16.8C46.7497 15.7333 45.9831 14.9167 45.1164 14.35C44.2497 13.7833 43.3164 13.5 42.3164 13.5C41.3164 13.5 40.4164 13.7833 39.6164 14.35C38.8497 14.9167 38.2164 15.7333 37.7164 16.8C37.2164 17.8333 36.8664 19.1 36.6664 20.6C36.4664 22.0667 36.4331 23.7 36.5664 25.5ZM55.9688 33.9C55.9688 33.1 56.1688 32.3833 56.5688 31.75C57.0021 31.0833 57.7021 30.45 58.6688 29.85C59.6354 29.2167 60.9021 28.5833 62.4688 27.95C64.0354 27.2833 65.9688 26.55 68.2688 25.75L71.4188 24.65V21.8C71.4188 19.1667 70.9688 17.1333 70.0688 15.7C69.2021 14.2333 68.0021 13.5 66.4688 13.5C65.4354 13.5 64.5521 13.8167 63.8188 14.45C63.1188 15.0833 62.6688 15.9333 62.4688 17C62.3021 17.8333 61.9854 18.5 61.5188 19C61.0854 19.5 60.5354 19.75 59.8688 19.75C59.4354 19.75 59.0688 19.65 58.7687 19.45C58.4688 19.2167 58.2354 18.9333 58.0688 18.6C57.9021 18.2333 57.8188 17.8333 57.8188 17.4C57.8521 16.9333 57.9688 16.4833 58.1688 16.05C58.7021 15.0167 59.7021 14.1667 61.1688 13.5C62.6688 12.8333 64.3354 12.5 66.1688 12.5C67.6354 12.5 68.9521 12.7333 70.1188 13.2C71.3188 13.6333 72.3521 14.2667 73.2188 15.1C74.0854 15.9333 74.7521 16.9333 75.2188 18.1C75.6854 19.2667 75.9188 20.5667 75.9188 22V32.7C75.9188 34.1 76.2021 35 76.7688 35.4C77.2688 35.8 77.9854 35.7 78.9188 35.1L79.4688 35.9L76.1688 38C75.6354 38.3333 75.0854 38.5 74.5188 38.5C73.9521 38.5333 73.4354 38.4167 72.9688 38.15C72.5354 37.9167 72.1688 37.5667 71.8688 37.1C71.5688 36.6333 71.4188 36.0833 71.4188 35.45V34.55L68.9188 36.35C67.8521 37.1167 66.8021 37.6667 65.7688 38C64.7688 38.3333 63.7021 38.5 62.5688 38.5C60.6021 38.5 59.0021 38.0833 57.7688 37.25C56.5688 36.3833 55.9688 35.2667 55.9688 33.9ZM71.4188 25.75L68.5688 26.75C67.1354 27.25 65.9188 27.75 64.9188 28.25C63.9521 28.7167 63.1688 29.2167 62.5688 29.75C62.0021 30.2833 61.5854 30.8667 61.3188 31.5C61.0854 32.1333 60.9688 32.85 60.9688 33.65C60.9688 36.1833 61.9688 37.45 63.9688 37.45C64.7354 37.45 65.5521 37.2 66.4188 36.7C67.3188 36.1667 68.3521 35.4833 69.5188 34.65L71.4188 33.3V25.75ZM79.748 37C80.748 37 81.5147 36.8833 82.048 36.65C82.5814 36.3833 82.9647 35.9833 83.198 35.45C83.4647 34.9167 83.6147 34.25 83.648 33.45C83.6814 32.65 83.698 31.7 83.698 30.6V19.75C83.698 18.9833 83.6647 18.3833 83.598 17.95C83.5647 17.5167 83.4147 17.1833 83.148 16.95C82.9147 16.7167 82.5314 16.5667 81.998 16.5C81.4647 16.4333 80.698 16.4 79.698 16.4V15.4C82.2314 15.4 84.748 14.6 87.248 13H88.198V15.1L88.998 14.4C89.6647 13.8 90.3647 13.3333 91.098 13C91.8314 12.6667 92.6147 12.5 93.448 12.5C94.1147 12.5 94.7647 12.6167 95.398 12.85C96.0647 13.05 96.6647 13.3333 97.198 13.7C97.7647 14.0333 98.2314 14.45 98.598 14.95C98.9647 15.4167 99.198 15.9 99.298 16.4C99.4314 17.0667 99.3314 17.7 98.998 18.3C98.698 18.8667 98.2147 19.1833 97.548 19.25C97.3147 19.2833 97.0314 19.2667 96.698 19.2C96.398 19.1 96.098 18.9333 95.798 18.7C95.498 18.4333 95.248 18.0667 95.048 17.6C94.848 17.1333 94.7147 16.55 94.648 15.85C94.548 14.2833 94.0147 13.5 93.048 13.5C92.5814 13.5 92.0314 13.6667 91.398 14C90.7647 14.3 90.1647 14.7167 89.598 15.25L88.198 16.5V30.6C88.198 31.7 88.2147 32.65 88.248 33.45C88.2814 34.25 88.4147 34.9167 88.648 35.45C88.9147 35.9833 89.3147 36.3833 89.848 36.65C90.3814 36.8833 91.148 37 92.148 37V38H79.748V37ZM111.278 12.55C112.378 12.55 113.461 12.7333 114.528 13.1C115.595 13.4333 116.861 14.0333 118.328 14.9V7.25C118.328 6.48333 118.295 5.88333 118.228 5.45C118.195 5.01667 118.045 4.68333 117.778 4.45C117.545 4.21667 117.161 4.06667 116.628 4C116.095 3.93333 115.328 3.9 114.328 3.9V2.9C116.861 2.9 119.378 2.1 121.878 0.499997H122.828V32.7C122.828 34.0333 123.095 34.9167 123.628 35.35C124.161 35.7833 124.895 35.7 125.828 35.1L126.378 35.9L123.078 38C122.545 38.3333 121.995 38.5 121.428 38.5C120.861 38.5333 120.345 38.4333 119.878 38.2C119.445 37.9667 119.078 37.6167 118.778 37.15C118.478 36.6833 118.328 36.1333 118.328 35.5C116.828 37.5 114.561 38.5 111.528 38.5C109.828 38.5 108.261 38.1833 106.828 37.55C105.395 36.9167 104.161 36.0333 103.128 34.9C102.095 33.7333 101.278 32.3667 100.678 30.8C100.111 29.2333 99.8281 27.5 99.8281 25.6C99.8281 23.7333 100.111 22 100.678 20.4C101.245 18.8 102.045 17.4167 103.078 16.25C104.111 15.0833 105.328 14.1833 106.728 13.55C108.128 12.8833 109.645 12.55 111.278 12.55ZM118.328 16.1C116.695 15.1 115.461 14.4333 114.628 14.1C113.828 13.7333 113.111 13.55 112.478 13.55C111.545 13.55 110.645 13.85 109.778 14.45C108.945 15.0167 108.178 15.8167 107.478 16.85C106.811 17.85 106.245 19.0667 105.778 20.5C105.311 21.9 105.011 23.45 104.878 25.15C104.745 26.9833 104.811 28.6667 105.078 30.2C105.378 31.7 105.845 33 106.478 34.1C107.145 35.1667 107.945 36 108.878 36.6C109.845 37.2 110.928 37.5 112.128 37.5C112.828 37.5 113.511 37.4 114.178 37.2C114.878 36.9667 115.495 36.6667 116.028 36.3C116.595 35.9 117.078 35.45 117.478 34.95C117.878 34.45 118.161 33.9 118.328 33.3V16.1ZM141.245 13.5L144.245 12.5V11.8C144.245 8.26666 145.028 5.5 146.595 3.5C148.162 1.5 150.328 0.499997 153.095 0.499997C154.295 0.499997 155.345 0.716664 156.245 1.15C157.145 1.55 157.778 2.13333 158.145 2.9C158.512 3.66667 158.545 4.38333 158.245 5.05C157.945 5.71666 157.428 6.05 156.695 6.05C156.128 6.05 155.628 5.85 155.195 5.45C154.795 5.01667 154.512 4.41666 154.345 3.65C154.012 2.21667 153.228 1.5 151.995 1.5C149.828 1.5 148.745 4.51667 148.745 10.55V13H152.745V14H148.745V30.6C148.745 31.7 148.762 32.65 148.795 33.45C148.828 34.25 148.962 34.9167 149.195 35.45C149.462 35.9833 149.862 36.3833 150.395 36.65C150.928 36.8833 151.695 37 152.695 37V38H140.295V37C141.295 37 142.062 36.8833 142.595 36.65C143.128 36.3833 143.512 35.9833 143.745 35.45C144.012 34.9167 144.162 34.25 144.195 33.45C144.228 32.65 144.245 31.7 144.245 30.6V14H141.245V13.5ZM154.174 25.5C154.174 23.5333 154.457 21.7667 155.024 20.2C155.59 18.6 156.374 17.2333 157.374 16.1C158.407 14.9333 159.64 14.05 161.074 13.45C162.54 12.8167 164.14 12.5 165.874 12.5C167.64 12.5 169.24 12.8167 170.674 13.45C172.107 14.05 173.324 14.9333 174.324 16.1C175.357 17.2333 176.157 18.6 176.724 20.2C177.29 21.7667 177.574 23.5333 177.574 25.5C177.574 27.4333 177.29 29.2 176.724 30.8C176.157 32.4 175.357 33.7833 174.324 34.95C173.324 36.0833 172.107 36.9667 170.674 37.6C169.24 38.2 167.64 38.5 165.874 38.5C164.14 38.5 162.54 38.2 161.074 37.6C159.64 36.9667 158.407 36.0833 157.374 34.95C156.374 33.7833 155.59 32.4 155.024 30.8C154.457 29.2 154.174 27.4333 154.174 25.5ZM159.174 25.5C159.307 27.3 159.59 28.9333 160.024 30.4C160.457 31.8667 161.007 33.1333 161.674 34.2C162.374 35.2333 163.157 36.05 164.024 36.65C164.89 37.2167 165.824 37.5 166.824 37.5C167.824 37.5 168.707 37.2167 169.474 36.65C170.274 36.05 170.924 35.2333 171.424 34.2C171.924 33.1333 172.274 31.8667 172.474 30.4C172.674 28.9333 172.707 27.3 172.574 25.5C172.44 23.7 172.157 22.0667 171.724 20.6C171.29 19.1 170.724 17.8333 170.024 16.8C169.357 15.7333 168.59 14.9167 167.724 14.35C166.857 13.7833 165.924 13.5 164.924 13.5C163.924 13.5 163.024 13.7833 162.224 14.35C161.457 14.9167 160.824 15.7333 160.324 16.8C159.824 17.8333 159.474 19.1 159.274 20.6C159.074 22.0667 159.04 23.7 159.174 25.5ZM178.82 37C179.82 37 180.587 36.8833 181.12 36.65C181.654 36.3833 182.037 35.9833 182.27 35.45C182.537 34.9167 182.687 34.25 182.72 33.45C182.754 32.65 182.77 31.7 182.77 30.6V19.75C182.77 18.9833 182.737 18.3833 182.67 17.95C182.637 17.5167 182.487 17.1833 182.22 16.95C181.987 16.7167 181.604 16.5667 181.07 16.5C180.537 16.4333 179.77 16.4 178.77 16.4V15.4C181.304 15.4 183.82 14.6 186.32 13H187.27V15.1L188.07 14.4C188.737 13.8 189.437 13.3333 190.17 13C190.904 12.6667 191.687 12.5 192.52 12.5C193.187 12.5 193.837 12.6167 194.47 12.85C195.137 13.05 195.737 13.3333 196.27 13.7C196.837 14.0333 197.304 14.45 197.67 14.95C198.037 15.4167 198.27 15.9 198.37 16.4C198.504 17.0667 198.404 17.7 198.07 18.3C197.77 18.8667 197.287 19.1833 196.62 19.25C196.387 19.2833 196.104 19.2667 195.77 19.2C195.47 19.1 195.17 18.9333 194.87 18.7C194.57 18.4333 194.32 18.0667 194.12 17.6C193.92 17.1333 193.787 16.55 193.72 15.85C193.62 14.2833 193.087 13.5 192.12 13.5C191.654 13.5 191.104 13.6667 190.47 14C189.837 14.3 189.237 14.7167 188.67 15.25L187.27 16.5V30.6C187.27 31.7 187.287 32.65 187.32 33.45C187.354 34.25 187.487 34.9167 187.72 35.45C187.987 35.9833 188.387 36.3833 188.92 36.65C189.454 36.8833 190.22 37 191.22 37V38H178.82V37ZM224.227 37.5C225.294 37.5 226.294 37.35 227.227 37.05C228.16 36.75 228.96 36.3333 229.627 35.8C230.294 35.2667 230.81 34.65 231.177 33.95C231.577 33.25 231.777 32.4833 231.777 31.65C231.777 31.0167 231.644 30.4 231.377 29.8C231.11 29.1667 230.677 28.5 230.077 27.8C229.477 27.1 228.677 26.3333 227.677 25.5C226.677 24.6667 225.444 23.7167 223.977 22.65C222.044 21.25 220.427 19.9833 219.127 18.85C217.86 17.7167 216.827 16.6833 216.027 15.75C215.26 14.7833 214.71 13.8667 214.377 13C214.044 12.1 213.877 11.2 213.877 10.3C213.877 9.13333 214.11 8.08333 214.577 7.15C215.044 6.18333 215.694 5.36667 216.527 4.7C217.394 4 218.41 3.46667 219.577 3.1C220.777 2.7 222.094 2.5 223.527 2.5C225.66 2.5 227.71 2.9 229.677 3.7C231.677 4.46666 233.344 5.55 234.677 6.95L233.677 12.4H232.677C232.844 11.2 232.744 10.0667 232.377 9C232.01 7.9 231.444 6.95 230.677 6.15C229.91 5.31666 228.977 4.66666 227.877 4.2C226.777 3.7 225.577 3.45 224.277 3.45C222.544 3.45 221.194 3.88333 220.227 4.75C219.26 5.58333 218.777 6.78333 218.777 8.35C218.777 9.05 218.91 9.73333 219.177 10.4C219.444 11.0667 219.91 11.7833 220.577 12.55C221.244 13.3167 222.16 14.1833 223.327 15.15C224.527 16.1167 226.044 17.2833 227.877 18.65C229.477 19.8167 230.827 20.9 231.927 21.9C233.027 22.8667 233.927 23.7833 234.627 24.65C235.327 25.5167 235.827 26.3667 236.127 27.2C236.427 28 236.577 28.8333 236.577 29.7C236.577 30.9667 236.277 32.15 235.677 33.25C235.077 34.3167 234.244 35.25 233.177 36.05C232.11 36.8167 230.844 37.4167 229.377 37.85C227.91 38.2833 226.294 38.5 224.527 38.5C219.527 38.5 215.377 36.5833 212.077 32.75L213.277 26.05H214.277C214.11 27.6167 214.244 29.1 214.677 30.5C215.11 31.8667 215.777 33.0833 216.677 34.15C217.577 35.1833 218.677 36 219.977 36.6C221.277 37.2 222.694 37.5 224.227 37.5ZM250.228 34.7C248.461 37.2333 246.461 38.5 244.228 38.5C241.628 38.5 240.328 36.6 240.328 32.8V14H236.828V13C239.061 13 240.778 12.4 241.978 11.2C243.211 9.96667 243.828 8.4 243.828 6.5H244.828V13H249.528V14H244.828V33.2C244.828 34.7 245.261 35.5833 246.128 35.85C246.595 36.0167 247.128 35.9333 247.728 35.6C248.328 35.2667 248.928 34.7667 249.528 34.1L250.228 34.7ZM275.106 32.7C275.106 34.1 275.389 35 275.956 35.4C276.456 35.8 277.173 35.7 278.106 35.1L278.656 35.9L275.356 38C274.823 38.3333 274.273 38.5 273.706 38.5C273.139 38.5333 272.623 38.4167 272.156 38.15C271.723 37.9167 271.356 37.5667 271.056 37.1C270.756 36.6333 270.606 36.0833 270.606 35.45V35.05L268.506 36.25C267.706 36.6833 267.006 37.05 266.406 37.35C265.806 37.6167 265.239 37.8333 264.706 38C264.173 38.2 263.656 38.3333 263.156 38.4C262.689 38.4667 262.173 38.5 261.606 38.5C259.106 38.5 257.239 37.8833 256.006 36.65C254.806 35.4167 254.206 33.65 254.206 31.35V19.75C254.206 18.9833 254.173 18.3833 254.106 17.95C254.073 17.5167 253.923 17.1833 253.656 16.95C253.423 16.7167 253.039 16.5667 252.506 16.5C251.973 16.4333 251.206 16.4 250.206 16.4V15.4C252.739 15.4 255.256 14.6 257.756 13H258.706V29.05C258.706 30.6833 258.756 32.05 258.856 33.15C258.989 34.2167 259.189 35.0833 259.456 35.75C259.723 36.3833 260.073 36.8333 260.506 37.1C260.939 37.3667 261.473 37.5 262.106 37.5C262.906 37.5 263.806 37.3 264.806 36.9C265.839 36.5 267.189 35.8333 268.856 34.9L270.606 33.9V19.75C270.606 18.9833 270.573 18.3833 270.506 17.95C270.473 17.5167 270.323 17.1833 270.056 16.95C269.823 16.7167 269.439 16.5667 268.906 16.5C268.373 16.4333 267.606 16.4 266.606 16.4V15.4C269.139 15.4 271.656 14.6 274.156 13H275.106V32.7ZM291.356 12.55C292.456 12.55 293.54 12.7333 294.606 13.1C295.673 13.4333 296.94 14.0333 298.406 14.9V7.25C298.406 6.48333 298.373 5.88333 298.306 5.45C298.273 5.01667 298.123 4.68333 297.856 4.45C297.623 4.21667 297.24 4.06667 296.706 4C296.173 3.93333 295.406 3.9 294.406 3.9V2.9C296.94 2.9 299.456 2.1 301.956 0.499997H302.906V32.7C302.906 34.0333 303.173 34.9167 303.706 35.35C304.24 35.7833 304.973 35.7 305.906 35.1L306.456 35.9L303.156 38C302.623 38.3333 302.073 38.5 301.506 38.5C300.94 38.5333 300.423 38.4333 299.956 38.2C299.523 37.9667 299.156 37.6167 298.856 37.15C298.556 36.6833 298.406 36.1333 298.406 35.5C296.906 37.5 294.64 38.5 291.606 38.5C289.906 38.5 288.34 38.1833 286.906 37.55C285.473 36.9167 284.24 36.0333 283.206 34.9C282.173 33.7333 281.356 32.3667 280.756 30.8C280.19 29.2333 279.906 27.5 279.906 25.6C279.906 23.7333 280.19 22 280.756 20.4C281.323 18.8 282.123 17.4167 283.156 16.25C284.19 15.0833 285.406 14.1833 286.806 13.55C288.206 12.8833 289.723 12.55 291.356 12.55ZM298.406 16.1C296.773 15.1 295.54 14.4333 294.706 14.1C293.906 13.7333 293.19 13.55 292.556 13.55C291.623 13.55 290.723 13.85 289.856 14.45C289.023 15.0167 288.256 15.8167 287.556 16.85C286.89 17.85 286.323 19.0667 285.856 20.5C285.39 21.9 285.09 23.45 284.956 25.15C284.823 26.9833 284.89 28.6667 285.156 30.2C285.456 31.7 285.923 33 286.556 34.1C287.223 35.1667 288.023 36 288.956 36.6C289.923 37.2 291.006 37.5 292.206 37.5C292.906 37.5 293.59 37.4 294.256 37.2C294.956 36.9667 295.573 36.6667 296.106 36.3C296.673 35.9 297.156 35.45 297.556 34.95C297.956 34.45 298.24 33.9 298.406 33.3V16.1ZM324.991 18.3C323.657 15.1 321.741 13.5 319.241 13.5C317.341 13.5 315.807 14.3333 314.641 16C313.474 17.6333 312.824 19.8333 312.691 22.6H321.791C323.391 22.6 324.457 22.2167 324.991 21.45C325.557 20.6833 325.557 19.6333 324.991 18.3ZM312.691 23.6C312.591 25.6333 312.724 27.5 313.091 29.2C313.491 30.9 314.074 32.3667 314.841 33.6C315.607 34.8 316.541 35.75 317.641 36.45C318.774 37.1167 320.024 37.45 321.391 37.45C322.424 37.45 323.557 37.2667 324.791 36.9C326.057 36.5333 327.224 36.0333 328.291 35.4L329.441 34.7L329.991 35.7L328.341 36.6C327.074 37.2667 325.774 37.75 324.441 38.05C323.107 38.35 321.791 38.5 320.491 38.5C318.524 38.5 316.741 38.2 315.141 37.6C313.574 37 312.224 36.1333 311.091 35C309.991 33.8667 309.141 32.5 308.541 30.9C307.941 29.2667 307.641 27.45 307.641 25.45C307.641 23.4833 307.924 21.7 308.491 20.1C309.057 18.5 309.857 17.1333 310.891 16C311.924 14.8667 313.141 14 314.541 13.4C315.974 12.8 317.541 12.5 319.241 12.5C320.607 12.5 321.874 12.7 323.041 13.1C324.241 13.4667 325.324 14 326.291 14.7C327.257 15.4 328.074 16.25 328.741 17.25C329.441 18.25 329.957 19.3833 330.291 20.65C330.557 21.5833 330.457 22.3167 329.991 22.85C329.524 23.35 328.757 23.6 327.691 23.6H312.691ZM348.101 37C349.101 37 349.868 36.8833 350.401 36.65C350.935 36.3833 351.318 35.9833 351.551 35.45C351.818 34.9167 351.968 34.25 352.001 33.45C352.035 32.65 352.051 31.7 352.051 30.6V21.95C352.051 20.3167 351.985 18.9667 351.851 17.9C351.718 16.8 351.501 15.9333 351.201 15.3C350.901 14.6333 350.485 14.1667 349.951 13.9C349.451 13.6333 348.818 13.5 348.051 13.5C347.718 13.5 347.401 13.5333 347.101 13.6C346.801 13.6667 346.418 13.8 345.951 14C345.518 14.1667 344.985 14.4167 344.351 14.75C343.718 15.0833 342.901 15.5333 341.901 16.1L340.151 17.1V30.6C340.151 31.7 340.168 32.65 340.201 33.45C340.235 34.25 340.368 34.9167 340.601 35.45C340.868 35.9833 341.268 36.3833 341.801 36.65C342.335 36.8833 343.101 37 344.101 37V38H331.701V37C332.701 37 333.468 36.8833 334.001 36.65C334.535 36.3833 334.918 35.9833 335.151 35.45C335.418 34.9167 335.568 34.25 335.601 33.45C335.635 32.65 335.651 31.7 335.651 30.6V19.75C335.651 18.9833 335.618 18.3833 335.551 17.95C335.518 17.5167 335.368 17.1833 335.101 16.95C334.868 16.7167 334.485 16.5667 333.951 16.5C333.418 16.4333 332.651 16.4 331.651 16.4V15.4C334.185 15.4 336.701 14.6 339.201 13H340.151V15.95L342.251 14.75C343.051 14.3167 343.751 13.9667 344.351 13.7C344.951 13.4 345.518 13.1667 346.051 13C346.585 12.8 347.101 12.6667 347.601 12.6C348.101 12.5333 348.618 12.5 349.151 12.5C354.085 12.5 356.551 14.8833 356.551 19.65V30.6C356.551 31.7 356.568 32.65 356.601 33.45C356.635 34.25 356.768 34.9167 357.001 35.45C357.268 35.9833 357.668 36.3833 358.201 36.65C358.735 36.8833 359.501 37 360.501 37V38H348.101V37ZM374.886 34.7C373.12 37.2333 371.12 38.5 368.886 38.5C366.286 38.5 364.986 36.6 364.986 32.8V14H361.486V13C363.72 13 365.436 12.4 366.636 11.2C367.87 9.96667 368.486 8.4 368.486 6.5H369.486V13H374.186V14H369.486V33.2C369.486 34.7 369.92 35.5833 370.786 35.85C371.253 36.0167 371.786 35.9333 372.386 35.6C372.986 35.2667 373.586 34.7667 374.186 34.1L374.886 34.7ZM388.879 37C389.879 37 390.646 36.8833 391.179 36.65C391.712 36.3833 392.096 35.9833 392.329 35.45C392.596 34.9167 392.746 34.25 392.779 33.45C392.812 32.65 392.829 31.7 392.829 30.6V10.4C392.829 9.3 392.812 8.35 392.779 7.55C392.746 6.75 392.596 6.08333 392.329 5.55C392.096 5.01667 391.712 4.63333 391.179 4.4C390.646 4.13333 389.879 4 388.879 4V3H403.079C406.812 3 409.679 3.9 411.679 5.7C413.712 7.46666 414.729 9.96666 414.729 13.2C414.729 16.5667 413.612 19.1667 411.379 21C409.179 22.8 406.012 23.7 401.879 23.7H397.829V30.6C397.829 31.7 397.846 32.65 397.879 33.45C397.912 34.25 398.046 34.9167 398.279 35.45C398.546 35.9833 398.946 36.3833 399.479 36.65C400.012 36.8833 400.779 37 401.779 37V38H388.879V37ZM398.779 22.7C400.679 22.7 402.296 22.5333 403.629 22.2C404.962 21.8333 406.046 21.2833 406.879 20.55C407.712 19.7833 408.312 18.8 408.679 17.6C409.046 16.3667 409.229 14.8833 409.229 13.15C409.229 10.0167 408.646 7.71667 407.479 6.25C406.312 4.75 404.479 4 401.979 4C401.146 4 400.462 4.1 399.929 4.3C399.396 4.46667 398.962 4.8 398.629 5.3C398.329 5.76666 398.112 6.41666 397.979 7.25C397.879 8.08333 397.829 9.13333 397.829 10.4V22.7H398.779ZM440.584 32.7C440.584 34.1 440.868 35 441.434 35.4C441.934 35.8 442.651 35.7 443.584 35.1L444.134 35.9L440.834 38C440.301 38.3333 439.751 38.5 439.184 38.5C438.618 38.5333 438.101 38.4167 437.634 38.15C437.201 37.9167 436.834 37.5667 436.534 37.1C436.234 36.6333 436.084 36.0833 436.084 35.45V35.05L433.984 36.25C433.184 36.6833 432.484 37.05 431.884 37.35C431.284 37.6167 430.718 37.8333 430.184 38C429.651 38.2 429.134 38.3333 428.634 38.4C428.168 38.4667 427.651 38.5 427.084 38.5C424.584 38.5 422.718 37.8833 421.484 36.65C420.284 35.4167 419.684 33.65 419.684 31.35V19.75C419.684 18.9833 419.651 18.3833 419.584 17.95C419.551 17.5167 419.401 17.1833 419.134 16.95C418.901 16.7167 418.518 16.5667 417.984 16.5C417.451 16.4333 416.684 16.4 415.684 16.4V15.4C418.218 15.4 420.734 14.6 423.234 13H424.184V29.05C424.184 30.6833 424.234 32.05 424.334 33.15C424.468 34.2167 424.668 35.0833 424.934 35.75C425.201 36.3833 425.551 36.8333 425.984 37.1C426.418 37.3667 426.951 37.5 427.584 37.5C428.384 37.5 429.284 37.3 430.284 36.9C431.318 36.5 432.668 35.8333 434.334 34.9L436.084 33.9V19.75C436.084 18.9833 436.051 18.3833 435.984 17.95C435.951 17.5167 435.801 17.1833 435.534 16.95C435.301 16.7167 434.918 16.5667 434.384 16.5C433.851 16.4333 433.084 16.4 432.084 16.4V15.4C434.618 15.4 437.134 14.6 439.634 13H440.584V32.7ZM445.129 38V37C446.129 37 446.896 36.8833 447.429 36.65C447.962 36.3833 448.346 35.9833 448.579 35.45C448.846 34.9167 448.996 34.25 449.029 33.45C449.062 32.65 449.079 31.7 449.079 30.6V7.25C449.079 6.48333 449.046 5.88333 448.979 5.45C448.946 5.01667 448.796 4.68333 448.529 4.45C448.296 4.21667 447.912 4.06667 447.379 4C446.846 3.93333 446.079 3.9 445.079 3.9V2.9C447.612 2.9 450.129 2.1 452.629 0.499997H453.579V14.55C454.879 13.8167 456.012 13.3 456.979 13C457.979 12.6667 459.012 12.5 460.079 12.5C461.679 12.5 463.162 12.8333 464.529 13.5C465.929 14.1333 467.129 15.0333 468.129 16.2C469.162 17.3667 469.962 18.75 470.529 20.35C471.129 21.95 471.429 23.7 471.429 25.6C471.429 27.5 471.129 29.2333 470.529 30.8C469.962 32.3667 469.162 33.7333 468.129 34.9C467.096 36.0333 465.862 36.9167 464.429 37.55C462.996 38.1833 461.429 38.5 459.729 38.5C457.029 38.5 454.946 37.6833 453.479 36.05C452.979 36.05 452.596 36.0667 452.329 36.1C452.062 36.1333 451.779 36.2 451.479 36.3C451.012 36.4667 450.579 36.6333 450.179 36.8C449.779 36.9667 449.379 37.1333 448.979 37.3C448.512 37.5 448.046 37.6667 447.579 37.8C447.112 37.9333 446.629 38 446.129 38H445.129ZM453.579 34.75C454.146 35.55 454.879 36.1833 455.779 36.65C456.712 37.0833 457.746 37.3 458.879 37.3C460.146 37.3 461.262 37.0167 462.229 36.45C463.229 35.85 464.062 35.0167 464.729 33.95C465.396 32.8833 465.879 31.6 466.179 30.1C466.479 28.6 466.546 26.9167 466.379 25.05C466.246 23.3833 465.946 21.8667 465.479 20.5C465.046 19.1 464.496 17.9167 463.829 16.95C463.162 15.95 462.379 15.1833 461.479 14.65C460.612 14.0833 459.679 13.8 458.679 13.8C458.012 13.8 457.279 13.95 456.479 14.25C455.712 14.55 454.746 15.0333 453.579 15.7V34.75ZM481.118 30.6C481.118 31.7 481.135 32.65 481.168 33.45C481.201 34.25 481.335 34.9167 481.568 35.45C481.835 35.9833 482.235 36.3833 482.768 36.65C483.301 36.8833 484.068 37 485.068 37V38H472.668V37C473.668 37 474.435 36.8833 474.968 36.65C475.501 36.3833 475.885 35.9833 476.118 35.45C476.385 34.9167 476.535 34.25 476.568 33.45C476.601 32.65 476.618 31.7 476.618 30.6V7.25C476.618 6.48333 476.585 5.88333 476.518 5.45C476.485 5.01667 476.335 4.68333 476.068 4.45C475.835 4.21667 475.451 4.06667 474.918 4C474.385 3.93333 473.618 3.9 472.618 3.9V2.9C475.151 2.9 477.668 2.1 480.168 0.499997H481.118V30.6ZM489.747 7C489.747 6.23333 489.964 5.63333 490.397 5.2C490.864 4.73333 491.48 4.5 492.247 4.5C493.014 4.5 493.614 4.73333 494.047 5.2C494.514 5.63333 494.747 6.23333 494.747 7C494.747 7.76667 494.514 8.38333 494.047 8.85C493.614 9.28333 493.014 9.5 492.247 9.5C491.48 9.5 490.864 9.28333 490.397 8.85C489.964 8.38333 489.747 7.76667 489.747 7ZM486.047 37C487.047 37 487.814 36.8833 488.347 36.65C488.88 36.3833 489.264 35.9833 489.497 35.45C489.764 34.9167 489.914 34.25 489.947 33.45C489.98 32.65 489.997 31.7 489.997 30.6V19.75C489.997 18.9833 489.964 18.3833 489.897 17.95C489.864 17.5167 489.714 17.1833 489.447 16.95C489.214 16.7167 488.83 16.5667 488.297 16.5C487.764 16.4333 486.997 16.4 485.997 16.4V15.4C488.53 15.4 491.047 14.6 493.547 13H494.497V30.6C494.497 31.7 494.514 32.65 494.547 33.45C494.58 34.25 494.714 34.9167 494.947 35.45C495.214 35.9833 495.614 36.3833 496.147 36.65C496.68 36.8833 497.447 37 498.447 37V38H486.047V37ZM511.532 13.5C509.665 13.5 508.115 14.3333 506.882 16C505.682 17.6333 504.982 19.8333 504.782 22.6C504.615 24.7667 504.698 26.7667 505.032 28.6C505.365 30.4 505.898 31.95 506.632 33.25C507.365 34.55 508.298 35.5667 509.432 36.3C510.565 37.0333 511.848 37.4167 513.282 37.45C514.315 37.4833 515.348 37.3333 516.382 37C517.448 36.6667 518.548 36.1667 519.682 35.5L520.882 34.8L521.382 35.7L519.732 36.65C518.632 37.2833 517.515 37.75 516.382 38.05C515.248 38.35 513.982 38.5 512.582 38.5C510.615 38.5 508.832 38.2 507.232 37.6C505.665 37 504.315 36.15 503.182 35.05C502.048 33.9167 501.182 32.55 500.582 30.95C499.982 29.3167 499.682 27.5 499.682 25.5C499.682 23.5 499.965 21.7 500.532 20.1C501.098 18.5 501.898 17.15 502.932 16.05C503.998 14.9167 505.265 14.05 506.732 13.45C508.232 12.8167 509.915 12.5 511.782 12.5C513.015 12.5 514.165 12.6833 515.232 13.05C516.298 13.3833 517.232 13.8333 518.032 14.4C518.832 14.9667 519.482 15.6167 519.982 16.35C520.515 17.05 520.848 17.7667 520.982 18.5C521.148 19.2667 521.115 19.95 520.882 20.55C520.648 21.15 520.265 21.5333 519.732 21.7C519.065 21.9333 518.415 21.8833 517.782 21.55C517.182 21.1833 516.798 20.6667 516.632 20C516.132 17.6667 515.532 16 514.832 15C514.132 14 513.032 13.5 511.532 13.5ZM522.277 33.9C522.277 33.1 522.477 32.3833 522.877 31.75C523.311 31.0833 524.011 30.45 524.977 29.85C525.944 29.2167 527.211 28.5833 528.777 27.95C530.344 27.2833 532.277 26.55 534.577 25.75L537.727 24.65V21.8C537.727 19.1667 537.277 17.1333 536.377 15.7C535.511 14.2333 534.311 13.5 532.777 13.5C531.744 13.5 530.861 13.8167 530.127 14.45C529.427 15.0833 528.977 15.9333 528.777 17C528.611 17.8333 528.294 18.5 527.827 19C527.394 19.5 526.844 19.75 526.177 19.75C525.744 19.75 525.377 19.65 525.077 19.45C524.777 19.2167 524.544 18.9333 524.377 18.6C524.211 18.2333 524.127 17.8333 524.127 17.4C524.161 16.9333 524.277 16.4833 524.477 16.05C525.011 15.0167 526.011 14.1667 527.477 13.5C528.977 12.8333 530.644 12.5 532.477 12.5C533.944 12.5 535.261 12.7333 536.427 13.2C537.627 13.6333 538.661 14.2667 539.527 15.1C540.394 15.9333 541.061 16.9333 541.527 18.1C541.994 19.2667 542.227 20.5667 542.227 22V32.7C542.227 34.1 542.511 35 543.077 35.4C543.577 35.8 544.294 35.7 545.227 35.1L545.777 35.9L542.477 38C541.944 38.3333 541.394 38.5 540.827 38.5C540.261 38.5333 539.744 38.4167 539.277 38.15C538.844 37.9167 538.477 37.5667 538.177 37.1C537.877 36.6333 537.727 36.0833 537.727 35.45V34.55L535.227 36.35C534.161 37.1167 533.111 37.6667 532.077 38C531.077 38.3333 530.011 38.5 528.877 38.5C526.911 38.5 525.311 38.0833 524.077 37.25C522.877 36.3833 522.277 35.2667 522.277 33.9ZM537.727 25.75L534.877 26.75C533.444 27.25 532.227 27.75 531.227 28.25C530.261 28.7167 529.477 29.2167 528.877 29.75C528.311 30.2833 527.894 30.8667 527.627 31.5C527.394 32.1333 527.277 32.85 527.277 33.65C527.277 36.1833 528.277 37.45 530.277 37.45C531.044 37.45 531.861 37.2 532.727 36.7C533.627 36.1667 534.661 35.4833 535.827 34.65L537.727 33.3V25.75ZM559.457 34.7C557.69 37.2333 555.69 38.5 553.457 38.5C550.857 38.5 549.557 36.6 549.557 32.8V14H546.057V13C548.29 13 550.007 12.4 551.207 11.2C552.44 9.96667 553.057 8.4 553.057 6.5H554.057V13H558.757V14H554.057V33.2C554.057 34.7 554.49 35.5833 555.357 35.85C555.823 36.0167 556.357 35.9333 556.957 35.6C557.557 35.2667 558.157 34.7667 558.757 34.1L559.457 34.7ZM563.429 7C563.429 6.23333 563.645 5.63333 564.079 5.2C564.545 4.73333 565.162 4.5 565.929 4.5C566.695 4.5 567.295 4.73333 567.729 5.2C568.195 5.63333 568.429 6.23333 568.429 7C568.429 7.76667 568.195 8.38333 567.729 8.85C567.295 9.28333 566.695 9.5 565.929 9.5C565.162 9.5 564.545 9.28333 564.079 8.85C563.645 8.38333 563.429 7.76667 563.429 7ZM559.729 37C560.729 37 561.495 36.8833 562.029 36.65C562.562 36.3833 562.945 35.9833 563.179 35.45C563.445 34.9167 563.595 34.25 563.629 33.45C563.662 32.65 563.679 31.7 563.679 30.6V19.75C563.679 18.9833 563.645 18.3833 563.579 17.95C563.545 17.5167 563.395 17.1833 563.129 16.95C562.895 16.7167 562.512 16.5667 561.979 16.5C561.445 16.4333 560.679 16.4 559.679 16.4V15.4C562.212 15.4 564.729 14.6 567.229 13H568.179V30.6C568.179 31.7 568.195 32.65 568.229 33.45C568.262 34.25 568.395 34.9167 568.629 35.45C568.895 35.9833 569.295 36.3833 569.829 36.65C570.362 36.8833 571.129 37 572.129 37V38H559.729V37ZM573.363 25.5C573.363 23.5333 573.647 21.7667 574.213 20.2C574.78 18.6 575.563 17.2333 576.563 16.1C577.597 14.9333 578.83 14.05 580.263 13.45C581.73 12.8167 583.33 12.5 585.063 12.5C586.83 12.5 588.43 12.8167 589.863 13.45C591.297 14.05 592.513 14.9333 593.513 16.1C594.547 17.2333 595.347 18.6 595.913 20.2C596.48 21.7667 596.763 23.5333 596.763 25.5C596.763 27.4333 596.48 29.2 595.913 30.8C595.347 32.4 594.547 33.7833 593.513 34.95C592.513 36.0833 591.297 36.9667 589.863 37.6C588.43 38.2 586.83 38.5 585.063 38.5C583.33 38.5 581.73 38.2 580.263 37.6C578.83 36.9667 577.597 36.0833 576.563 34.95C575.563 33.7833 574.78 32.4 574.213 30.8C573.647 29.2 573.363 27.4333 573.363 25.5ZM578.363 25.5C578.497 27.3 578.78 28.9333 579.213 30.4C579.647 31.8667 580.197 33.1333 580.863 34.2C581.563 35.2333 582.347 36.05 583.213 36.65C584.08 37.2167 585.013 37.5 586.013 37.5C587.013 37.5 587.897 37.2167 588.663 36.65C589.463 36.05 590.113 35.2333 590.613 34.2C591.113 33.1333 591.463 31.8667 591.663 30.4C591.863 28.9333 591.897 27.3 591.763 25.5C591.63 23.7 591.347 22.0667 590.913 20.6C590.48 19.1 589.913 17.8333 589.213 16.8C588.547 15.7333 587.78 14.9167 586.913 14.35C586.047 13.7833 585.113 13.5 584.113 13.5C583.113 13.5 582.213 13.7833 581.413 14.35C580.647 14.9167 580.013 15.7333 579.513 16.8C579.013 17.8333 578.663 19.1 578.463 20.6C578.263 22.0667 578.23 23.7 578.363 25.5ZM614.41 37C615.41 37 616.176 36.8833 616.71 36.65C617.243 36.3833 617.626 35.9833 617.86 35.45C618.126 34.9167 618.276 34.25 618.31 33.45C618.343 32.65 618.36 31.7 618.36 30.6V21.95C618.36 20.3167 618.293 18.9667 618.16 17.9C618.026 16.8 617.81 15.9333 617.51 15.3C617.21 14.6333 616.793 14.1667 616.26 13.9C615.76 13.6333 615.126 13.5 614.36 13.5C614.026 13.5 613.71 13.5333 613.41 13.6C613.11 13.6667 612.726 13.8 612.26 14C611.826 14.1667 611.293 14.4167 610.66 14.75C610.026 15.0833 609.21 15.5333 608.21 16.1L606.46 17.1V30.6C606.46 31.7 606.476 32.65 606.51 33.45C606.543 34.25 606.676 34.9167 606.91 35.45C607.176 35.9833 607.576 36.3833 608.11 36.65C608.643 36.8833 609.41 37 610.41 37V38H598.01V37C599.01 37 599.776 36.8833 600.31 36.65C600.843 36.3833 601.226 35.9833 601.46 35.45C601.726 34.9167 601.876 34.25 601.91 33.45C601.943 32.65 601.96 31.7 601.96 30.6V19.75C601.96 18.9833 601.926 18.3833 601.86 17.95C601.826 17.5167 601.676 17.1833 601.41 16.95C601.176 16.7167 600.793 16.5667 600.26 16.5C599.726 16.4333 598.96 16.4 597.96 16.4V15.4C600.493 15.4 603.01 14.6 605.51 13H606.46V15.95L608.56 14.75C609.36 14.3167 610.06 13.9667 610.66 13.7C611.26 13.4 611.826 13.1667 612.36 13C612.893 12.8 613.41 12.6667 613.91 12.6C614.41 12.5333 614.926 12.5 615.46 12.5C620.393 12.5 622.86 14.8833 622.86 19.65V30.6C622.86 31.7 622.876 32.65 622.91 33.45C622.943 34.25 623.076 34.9167 623.31 35.45C623.576 35.9833 623.976 36.3833 624.51 36.65C625.043 36.8833 625.81 37 626.81 37V38H614.41V37ZM635.313 37.5C636.079 37.5 636.779 37.4 637.413 37.2C638.079 36.9667 638.646 36.6667 639.113 36.3C639.579 35.9 639.946 35.45 640.213 34.95C640.513 34.45 640.663 33.9 640.663 33.3C640.663 32.4333 640.263 31.5333 639.463 30.6C638.696 29.6667 637.313 28.45 635.313 26.95C634.046 25.9833 632.963 25.1167 632.063 24.35C631.196 23.5833 630.496 22.8667 629.963 22.2C629.429 21.5 629.046 20.85 628.813 20.25C628.579 19.6167 628.463 18.9833 628.463 18.35C628.463 16.65 629.163 15.25 630.563 14.15C631.996 13.05 633.913 12.5 636.313 12.5C637.913 12.5 639.396 12.7667 640.763 13.3C642.129 13.8 643.246 14.4833 644.113 15.35L643.413 19.35H642.413C642.646 17.6167 642.263 16.2167 641.262 15.15C640.262 14.05 638.863 13.5 637.063 13.5C635.563 13.5 634.463 13.85 633.763 14.55C633.096 15.25 632.763 16.0667 632.763 17C632.763 17.4333 632.846 17.8667 633.013 18.3C633.179 18.7 633.496 19.1667 633.963 19.7C634.429 20.2 635.063 20.8 635.863 21.5C636.663 22.2 637.696 23.05 638.963 24.05C641.163 25.7833 642.696 27.2667 643.563 28.5C644.463 29.7 644.913 30.9 644.913 32.1C644.913 33.0333 644.679 33.9 644.213 34.7C643.779 35.4667 643.179 36.1333 642.413 36.7C641.646 37.2667 640.729 37.7 639.663 38C638.596 38.3333 637.429 38.5 636.163 38.5C632.629 38.5 629.613 37.0833 627.113 34.25L628.013 29.35H629.013C628.879 30.5167 628.929 31.6 629.163 32.6C629.396 33.6 629.796 34.4667 630.363 35.2C630.929 35.9 631.629 36.4667 632.463 36.9C633.329 37.3 634.279 37.5 635.313 37.5Z" fill="#EFC36A"/>
</svg>
