<svg width="254" height="50" viewBox="0 0 254 50" fill="none" xmlns="http://www.w3.org/2000/svg">
<path d="M0.5 37C1.5 37 2.26667 36.8833 2.8 36.65C3.33333 36.3833 3.71667 35.9833 3.95 35.45C4.21667 34.9167 4.36667 34.25 4.4 33.45C4.43333 32.65 4.45 31.7 4.45 30.6V10.4C4.45 9.3 4.43333 8.35 4.4 7.55C4.36667 6.75 4.21667 6.08333 3.95 5.55C3.71667 5.01667 3.33333 4.63333 2.8 4.4C2.26667 4.13333 1.5 4 0.5 4V3H15.6C17.8667 3 19.8833 3.4 21.65 4.2C23.45 4.96666 24.9667 6.1 26.2 7.6C27.4333 9.1 28.3667 10.9333 29 13.1C29.6667 15.2667 30 17.7333 30 20.5C30 23.3 29.6667 25.8 29 28C28.3333 30.1667 27.3667 32 26.1 33.5C24.8667 34.9667 23.3667 36.0833 21.6 36.85C19.8333 37.6167 17.8333 38 15.6 38H0.5V37ZM14 37C15.9667 37 17.6167 36.7333 18.95 36.2C20.2833 35.6667 21.35 34.75 22.15 33.45C22.9833 32.15 23.5833 30.4333 23.95 28.3C24.3167 26.1667 24.5 23.5 24.5 20.3C24.5 17.1667 24.3167 14.55 23.95 12.45C23.6167 10.35 23.0333 8.68333 22.2 7.45C21.4 6.18333 20.3333 5.3 19 4.8C17.7 4.26667 16.0667 4 14.1 4C13.1 4 12.2833 4.08333 11.65 4.25C11.05 4.41667 10.5833 4.73333 10.25 5.2C9.91667 5.63333 9.7 6.26667 9.6 7.1C9.5 7.93333 9.45 9.03333 9.45 10.4V30.6C9.45 31.9333 9.5 33.0333 9.6 33.9C9.7 34.7333 9.91667 35.3833 10.25 35.85C10.5833 36.2833 11.0333 36.5833 11.6 36.75C12.2 36.9167 13 37 14 37ZM49.3559 18.3C48.0225 15.1 46.1059 13.5 43.6059 13.5C41.7059 13.5 40.1725 14.3333 39.0059 16C37.8392 17.6333 37.1892 19.8333 37.0559 22.6H46.1559C47.7559 22.6 48.8225 22.2167 49.3559 21.45C49.9225 20.6833 49.9225 19.6333 49.3559 18.3ZM37.0559 23.6C36.9559 25.6333 37.0892 27.5 37.4559 29.2C37.8559 30.9 38.4392 32.3667 39.2059 33.6C39.9725 34.8 40.9059 35.75 42.0059 36.45C43.1392 37.1167 44.3892 37.45 45.7559 37.45C46.7892 37.45 47.9225 37.2667 49.1559 36.9C50.4225 36.5333 51.5892 36.0333 52.6559 35.4L53.8059 34.7L54.3559 35.7L52.7059 36.6C51.4392 37.2667 50.1392 37.75 48.8059 38.05C47.4725 38.35 46.1559 38.5 44.8559 38.5C42.8892 38.5 41.1059 38.2 39.5059 37.6C37.9392 37 36.5892 36.1333 35.4559 35C34.3559 33.8667 33.5059 32.5 32.9059 30.9C32.3059 29.2667 32.0059 27.45 32.0059 25.45C32.0059 23.4833 32.2892 21.7 32.8559 20.1C33.4225 18.5 34.2225 17.1333 35.2559 16C36.2892 14.8667 37.5059 14 38.9059 13.4C40.3392 12.8 41.9059 12.5 43.6059 12.5C44.9725 12.5 46.2392 12.7 47.4059 13.1C48.6059 13.4667 49.6892 14 50.6559 14.7C51.6225 15.4 52.4392 16.25 53.1059 17.25C53.8059 18.25 54.3225 19.3833 54.6559 20.65C54.9225 21.5833 54.8225 22.3167 54.3559 22.85C53.8892 23.35 53.1225 23.6 52.0559 23.6H37.0559ZM64.0723 37.5C64.8389 37.5 65.5389 37.4 66.1723 37.2C66.8389 36.9667 67.4056 36.6667 67.8723 36.3C68.3389 35.9 68.7056 35.45 68.9723 34.95C69.2723 34.45 69.4223 33.9 69.4223 33.3C69.4223 32.4333 69.0223 31.5333 68.2223 30.6C67.4556 29.6667 66.0723 28.45 64.0723 26.95C62.8056 25.9833 61.7223 25.1167 60.8223 24.35C59.9556 23.5833 59.2556 22.8667 58.7223 22.2C58.1889 21.5 57.8056 20.85 57.5723 20.25C57.3389 19.6167 57.2223 18.9833 57.2223 18.35C57.2223 16.65 57.9223 15.25 59.3223 14.15C60.7556 13.05 62.6723 12.5 65.0723 12.5C66.6723 12.5 68.1556 12.7667 69.5223 13.3C70.8889 13.8 72.0056 14.4833 72.8723 15.35L72.1723 19.35H71.1723C71.4056 17.6167 71.0223 16.2167 70.0223 15.15C69.0223 14.05 67.6223 13.5 65.8223 13.5C64.3223 13.5 63.2223 13.85 62.5223 14.55C61.8556 15.25 61.5223 16.0667 61.5223 17C61.5223 17.4333 61.6056 17.8667 61.7723 18.3C61.9389 18.7 62.2556 19.1667 62.7223 19.7C63.1889 20.2 63.8223 20.8 64.6223 21.5C65.4223 22.2 66.4556 23.05 67.7223 24.05C69.9223 25.7833 71.4556 27.2667 72.3223 28.5C73.2223 29.7 73.6723 30.9 73.6723 32.1C73.6723 33.0333 73.4389 33.9 72.9723 34.7C72.5389 35.4667 71.9389 36.1333 71.1723 36.7C70.4056 37.2667 69.4889 37.7 68.4223 38C67.3556 38.3333 66.1889 38.5 64.9223 38.5C61.3889 38.5 58.3723 37.0833 55.8723 34.25L56.7723 29.35H57.7723C57.6389 30.5167 57.6889 31.6 57.9223 32.6C58.1556 33.6 58.5556 34.4667 59.1223 35.2C59.6889 35.9 60.3889 36.4667 61.2223 36.9C62.0889 37.3 63.0389 37.5 64.0723 37.5ZM78.3699 7C78.3699 6.23333 78.5866 5.63333 79.0199 5.2C79.4866 4.73333 80.1033 4.5 80.8699 4.5C81.6366 4.5 82.2366 4.73333 82.6699 5.2C83.1366 5.63333 83.3699 6.23333 83.3699 7C83.3699 7.76667 83.1366 8.38333 82.6699 8.85C82.2366 9.28333 81.6366 9.5 80.8699 9.5C80.1033 9.5 79.4866 9.28333 79.0199 8.85C78.5866 8.38333 78.3699 7.76667 78.3699 7ZM74.6699 37C75.6699 37 76.4366 36.8833 76.9699 36.65C77.5033 36.3833 77.8866 35.9833 78.1199 35.45C78.3866 34.9167 78.5366 34.25 78.5699 33.45C78.6033 32.65 78.6199 31.7 78.6199 30.6V19.75C78.6199 18.9833 78.5866 18.3833 78.5199 17.95C78.4866 17.5167 78.3366 17.1833 78.0699 16.95C77.8366 16.7167 77.4533 16.5667 76.9199 16.5C76.3866 16.4333 75.6199 16.4 74.6199 16.4V15.4C77.1533 15.4 79.6699 14.6 82.1699 13H83.1199V30.6C83.1199 31.7 83.1366 32.65 83.1699 33.45C83.2033 34.25 83.3366 34.9167 83.5699 35.45C83.8366 35.9833 84.2366 36.3833 84.7699 36.65C85.3033 36.8833 86.0699 37 87.0699 37V38H74.6699V37ZM93.7605 37.95C93.0272 39.1167 92.5439 40.2 92.3105 41.2C92.0772 42.2 92.0772 43.2167 92.3105 44.25C92.6772 45.85 93.4272 46.9833 94.5605 47.65C95.7272 48.3167 97.2939 48.4 99.2605 47.9C100.994 47.4333 102.294 46.7 103.161 45.7C104.027 44.7 104.461 43.5 104.461 42.1C104.461 40.6333 103.944 39.5833 102.911 38.95C101.911 38.3167 100.261 38 97.9605 38H93.6605L93.7605 37.95ZM93.1105 22.2C93.2105 23.5 93.4272 24.6833 93.7605 25.75C94.1272 26.8167 94.5772 27.7333 95.1105 28.5C95.6772 29.2667 96.3105 29.8667 97.0105 30.3C97.7439 30.7 98.5105 30.9 99.3105 30.9C100.977 30.9 102.211 30.1 103.011 28.5C103.844 26.9 104.177 24.8 104.011 22.2C103.911 20.9 103.677 19.7167 103.311 18.65C102.977 17.5833 102.527 16.6667 101.961 15.9C101.427 15.1333 100.794 14.55 100.061 14.15C99.3605 13.7167 98.6105 13.5 97.8105 13.5C96.1439 13.5 94.8939 14.3 94.0605 15.9C93.2605 17.5 92.9439 19.6 93.1105 22.2ZM88.1105 22.2C88.1105 20.7333 88.3605 19.4167 88.8605 18.25C89.3605 17.05 90.0605 16.0333 90.9605 15.2C91.8939 14.3333 92.9939 13.6667 94.2605 13.2C95.5605 12.7333 96.9939 12.5 98.5605 12.5L108.211 11.9V14.1L104.361 13.85C105.861 14.65 107.011 15.7667 107.811 17.2C108.611 18.6333 109.011 20.3 109.011 22.2C109.011 23.6667 108.761 25 108.261 26.2C107.761 27.3667 107.044 28.3833 106.111 29.25C105.211 30.0833 104.111 30.7333 102.811 31.2C101.544 31.6667 100.127 31.9 98.5605 31.9C95.8605 31.9 93.7272 31.95 92.1605 32.05C90.5939 32.1167 89.8105 32.4 89.8105 32.9C89.8105 33.1 90.0272 33.25 90.4605 33.35C90.9272 33.45 91.9605 33.5 93.5605 33.5H101.461C103.894 33.5 105.744 34.0333 107.011 35.1C108.277 36.1333 108.911 37.6833 108.911 39.75C108.911 41.8833 108.227 43.7 106.861 45.2C105.494 46.7333 103.561 47.85 101.061 48.55C99.4272 49.0167 97.8772 49.2167 96.4105 49.15C94.9439 49.0833 93.6439 48.8 92.5105 48.3C91.4105 47.8333 90.5272 47.1667 89.8605 46.3C89.2272 45.4333 88.9105 44.4167 88.9105 43.25C88.9105 40.9833 90.1772 39.2333 92.7105 38C91.4439 38 90.3439 37.65 89.4105 36.95C88.5105 36.2167 88.0605 35.2833 88.0605 34.15C88.0605 33.0167 88.5272 32.2 89.4605 31.7C90.4272 31.1667 91.7439 30.8833 93.4105 30.85C91.7439 30.0833 90.4439 28.9667 89.5105 27.5C88.5772 26 88.1105 24.2333 88.1105 22.2ZM126.91 37C127.91 37 128.676 36.8833 129.21 36.65C129.743 36.3833 130.126 35.9833 130.36 35.45C130.626 34.9167 130.776 34.25 130.81 33.45C130.843 32.65 130.86 31.7 130.86 30.6V21.95C130.86 20.3167 130.793 18.9667 130.66 17.9C130.526 16.8 130.31 15.9333 130.01 15.3C129.71 14.6333 129.293 14.1667 128.76 13.9C128.26 13.6333 127.626 13.5 126.86 13.5C126.526 13.5 126.21 13.5333 125.91 13.6C125.61 13.6667 125.226 13.8 124.76 14C124.326 14.1667 123.793 14.4167 123.16 14.75C122.526 15.0833 121.71 15.5333 120.71 16.1L118.96 17.1V30.6C118.96 31.7 118.976 32.65 119.01 33.45C119.043 34.25 119.176 34.9167 119.41 35.45C119.676 35.9833 120.076 36.3833 120.61 36.65C121.143 36.8833 121.91 37 122.91 37V38H110.51V37C111.51 37 112.276 36.8833 112.81 36.65C113.343 36.3833 113.726 35.9833 113.96 35.45C114.226 34.9167 114.376 34.25 114.41 33.45C114.443 32.65 114.46 31.7 114.46 30.6V19.75C114.46 18.9833 114.426 18.3833 114.36 17.95C114.326 17.5167 114.176 17.1833 113.91 16.95C113.676 16.7167 113.293 16.5667 112.76 16.5C112.226 16.4333 111.46 16.4 110.46 16.4V15.4C112.993 15.4 115.51 14.6 118.01 13H118.96V15.95L121.06 14.75C121.86 14.3167 122.56 13.9667 123.16 13.7C123.76 13.4 124.326 13.1667 124.86 13C125.393 12.8 125.91 12.6667 126.41 12.6C126.91 12.5333 127.426 12.5 127.96 12.5C132.893 12.5 135.36 14.8833 135.36 19.65V30.6C135.36 31.7 135.376 32.65 135.41 33.45C135.443 34.25 135.576 34.9167 135.81 35.45C136.076 35.9833 136.476 36.3833 137.01 36.65C137.543 36.8833 138.31 37 139.31 37V38H126.91V37ZM172.733 38.5C169.967 38.5 167.417 38.05 165.083 37.15C162.783 36.2167 160.783 34.95 159.083 33.35C157.417 31.75 156.117 29.85 155.183 27.65C154.25 25.45 153.783 23.0667 153.783 20.5C153.783 17.9333 154.25 15.55 155.183 13.35C156.117 11.1167 157.4 9.2 159.033 7.6C160.7 5.96667 162.65 4.7 164.883 3.8C167.15 2.86667 169.583 2.4 172.183 2.4C174.183 2.4 176.1 2.66667 177.933 3.2C179.8 3.7 181.4 4.41666 182.733 5.35L183.283 10.8H182.283C181.917 8.43333 180.917 6.61667 179.283 5.35C177.683 4.05 175.583 3.4 172.983 3.4C170.883 3.4 168.967 3.81666 167.233 4.65C165.533 5.48333 164.067 6.66667 162.833 8.2C161.633 9.7 160.717 11.5 160.083 13.6C159.45 15.7 159.183 18 159.283 20.5C159.383 23 159.817 25.3 160.583 27.4C161.35 29.4667 162.383 31.25 163.683 32.75C164.983 34.25 166.5 35.4167 168.233 36.25C170 37.0833 171.933 37.5 174.033 37.5C176.467 37.5 178.35 36.9 179.683 35.7C181.05 34.5 181.917 32.6333 182.283 30.1H183.283L182.733 35.55C181.333 36.5167 179.817 37.25 178.183 37.75C176.55 38.25 174.733 38.5 172.733 38.5ZM193.227 30.6C193.227 31.7 193.244 32.65 193.277 33.45C193.311 34.25 193.444 34.9167 193.677 35.45C193.944 35.9833 194.344 36.3833 194.877 36.65C195.411 36.8833 196.177 37 197.177 37V38H184.777V37C185.777 37 186.544 36.8833 187.077 36.65C187.611 36.3833 187.994 35.9833 188.227 35.45C188.494 34.9167 188.644 34.25 188.677 33.45C188.711 32.65 188.727 31.7 188.727 30.6V7.25C188.727 6.48333 188.694 5.88333 188.627 5.45C188.594 5.01667 188.444 4.68333 188.177 4.45C187.944 4.21667 187.561 4.06667 187.027 4C186.494 3.93333 185.727 3.9 184.727 3.9V2.9C187.261 2.9 189.777 2.1 192.277 0.499997H193.227V30.6ZM222.518 32.7C222.518 34.1 222.801 35 223.368 35.4C223.868 35.8 224.585 35.7 225.518 35.1L226.068 35.9L222.768 38C222.235 38.3333 221.685 38.5 221.118 38.5C220.551 38.5333 220.035 38.4167 219.568 38.15C219.135 37.9167 218.768 37.5667 218.468 37.1C218.168 36.6333 218.018 36.0833 218.018 35.45V35.05L215.918 36.25C215.118 36.6833 214.418 37.05 213.818 37.35C213.218 37.6167 212.651 37.8333 212.118 38C211.585 38.2 211.068 38.3333 210.568 38.4C210.101 38.4667 209.585 38.5 209.018 38.5C206.518 38.5 204.651 37.8833 203.418 36.65C202.218 35.4167 201.618 33.65 201.618 31.35V19.75C201.618 18.9833 201.585 18.3833 201.518 17.95C201.485 17.5167 201.335 17.1833 201.068 16.95C200.835 16.7167 200.451 16.5667 199.918 16.5C199.385 16.4333 198.618 16.4 197.618 16.4V15.4C200.151 15.4 202.668 14.6 205.168 13H206.118V29.05C206.118 30.6833 206.168 32.05 206.268 33.15C206.401 34.2167 206.601 35.0833 206.868 35.75C207.135 36.3833 207.485 36.8333 207.918 37.1C208.351 37.3667 208.885 37.5 209.518 37.5C210.318 37.5 211.218 37.3 212.218 36.9C213.251 36.5 214.601 35.8333 216.268 34.9L218.018 33.9V19.75C218.018 18.9833 217.985 18.3833 217.918 17.95C217.885 17.5167 217.735 17.1833 217.468 16.95C217.235 16.7167 216.851 16.5667 216.318 16.5C215.785 16.4333 215.018 16.4 214.018 16.4V15.4C216.551 15.4 219.068 14.6 221.568 13H222.518V32.7ZM227.063 38V37C228.063 37 228.829 36.8833 229.363 36.65C229.896 36.3833 230.279 35.9833 230.513 35.45C230.779 34.9167 230.929 34.25 230.963 33.45C230.996 32.65 231.013 31.7 231.013 30.6V7.25C231.013 6.48333 230.979 5.88333 230.913 5.45C230.879 5.01667 230.729 4.68333 230.463 4.45C230.229 4.21667 229.846 4.06667 229.313 4C228.779 3.93333 228.013 3.9 227.013 3.9V2.9C229.546 2.9 232.063 2.1 234.563 0.499997H235.513V14.55C236.813 13.8167 237.946 13.3 238.913 13C239.913 12.6667 240.946 12.5 242.013 12.5C243.613 12.5 245.096 12.8333 246.463 13.5C247.863 14.1333 249.063 15.0333 250.063 16.2C251.096 17.3667 251.896 18.75 252.463 20.35C253.063 21.95 253.363 23.7 253.363 25.6C253.363 27.5 253.063 29.2333 252.463 30.8C251.896 32.3667 251.096 33.7333 250.063 34.9C249.029 36.0333 247.796 36.9167 246.363 37.55C244.929 38.1833 243.363 38.5 241.663 38.5C238.963 38.5 236.879 37.6833 235.413 36.05C234.913 36.05 234.529 36.0667 234.263 36.1C233.996 36.1333 233.713 36.2 233.413 36.3C232.946 36.4667 232.513 36.6333 232.113 36.8C231.713 36.9667 231.313 37.1333 230.913 37.3C230.446 37.5 229.979 37.6667 229.513 37.8C229.046 37.9333 228.563 38 228.063 38H227.063ZM235.513 34.75C236.079 35.55 236.813 36.1833 237.713 36.65C238.646 37.0833 239.679 37.3 240.813 37.3C242.079 37.3 243.196 37.0167 244.163 36.45C245.163 35.85 245.996 35.0167 246.663 33.95C247.329 32.8833 247.813 31.6 248.113 30.1C248.413 28.6 248.479 26.9167 248.313 25.05C248.179 23.3833 247.879 21.8667 247.413 20.5C246.979 19.1 246.429 17.9167 245.763 16.95C245.096 15.95 244.313 15.1833 243.413 14.65C242.546 14.0833 241.613 13.8 240.613 13.8C239.946 13.8 239.213 13.95 238.413 14.25C237.646 14.55 236.679 15.0333 235.513 15.7V34.75Z" fill="#EFC36A"/>
</svg>
