<svg width="234" height="39" viewBox="0 0 234 39" fill="none" xmlns="http://www.w3.org/2000/svg">
<path d="M18.95 23.55L26.25 3H34.95V4C34.1167 4 33.45 4.1 32.95 4.3C32.45 4.5 32.0833 4.8 31.85 5.2C31.6167 5.6 31.4833 6.11666 31.45 6.75C31.4167 7.35 31.4333 8.06666 31.5 8.9L33.45 30.6C33.55 31.7 33.65 32.65 33.75 33.45C33.85 34.25 34.0333 34.9167 34.3 35.45C34.6 35.9833 35.0167 36.3833 35.55 36.65C36.1167 36.8833 36.9 37 37.9 37V38H25.1V37C25.9667 37 26.6333 36.9 27.1 36.7C27.6 36.5 27.9667 36.2 28.2 35.8C28.4333 35.3667 28.55 34.8333 28.55 34.2C28.5833 33.5667 28.5667 32.8167 28.5 31.95L26.3 7.05L17.95 30.6H16.45L8.1 7.05L5.85 32.85C5.71667 34.2833 5.86667 35.3333 6.3 36C6.76667 36.6667 7.76667 37 9.3 37V38H0V37C1 37 1.76667 36.8833 2.3 36.65C2.86667 36.3833 3.28333 35.9833 3.55 35.45C3.85 34.9167 4.05 34.25 4.15 33.45C4.28333 32.65 4.4 31.7 4.5 30.6L6.4 8.95C6.46667 8.08333 6.48333 7.35 6.45 6.75C6.41667 6.11666 6.28333 5.6 6.05 5.2C5.81667 4.8 5.45 4.5 4.95 4.3C4.45 4.1 3.76667 4 2.9 4V3H11.65L18.95 23.55ZM60.9945 32.7C60.9945 34.1 61.2779 35 61.8445 35.4C62.3445 35.8 63.0612 35.7 63.9945 35.1L64.5445 35.9L61.2445 38C60.7112 38.3333 60.1612 38.5 59.5945 38.5C59.0279 38.5333 58.5112 38.4167 58.0445 38.15C57.6112 37.9167 57.2445 37.5667 56.9445 37.1C56.6445 36.6333 56.4945 36.0833 56.4945 35.45V35.05L54.3945 36.25C53.5945 36.6833 52.8945 37.05 52.2945 37.35C51.6945 37.6167 51.1279 37.8333 50.5945 38C50.0612 38.2 49.5445 38.3333 49.0445 38.4C48.5779 38.4667 48.0612 38.5 47.4945 38.5C44.9945 38.5 43.1279 37.8833 41.8945 36.65C40.6945 35.4167 40.0945 33.65 40.0945 31.35V19.75C40.0945 18.9833 40.0612 18.3833 39.9945 17.95C39.9612 17.5167 39.8112 17.1833 39.5445 16.95C39.3112 16.7167 38.9279 16.5667 38.3945 16.5C37.8612 16.4333 37.0945 16.4 36.0945 16.4V15.4C38.6279 15.4 41.1445 14.6 43.6445 13H44.5945V29.05C44.5945 30.6833 44.6445 32.05 44.7445 33.15C44.8779 34.2167 45.0779 35.0833 45.3445 35.75C45.6112 36.3833 45.9612 36.8333 46.3945 37.1C46.8279 37.3667 47.3612 37.5 47.9945 37.5C48.7945 37.5 49.6945 37.3 50.6945 36.9C51.7279 36.5 53.0779 35.8333 54.7445 34.9L56.4945 33.9V19.75C56.4945 18.9833 56.4612 18.3833 56.3945 17.95C56.3612 17.5167 56.2112 17.1833 55.9445 16.95C55.7112 16.7167 55.3279 16.5667 54.7945 16.5C54.2612 16.4333 53.4945 16.4 52.4945 16.4V15.4C55.0279 15.4 57.5445 14.6 60.0445 13H60.9945V32.7ZM73.3008 37.5C74.0674 37.5 74.7674 37.4 75.4008 37.2C76.0674 36.9667 76.6341 36.6667 77.1008 36.3C77.5674 35.9 77.9341 35.45 78.2008 34.95C78.5008 34.45 78.6508 33.9 78.6508 33.3C78.6508 32.4333 78.2508 31.5333 77.4508 30.6C76.6841 29.6667 75.3008 28.45 73.3008 26.95C72.0341 25.9833 70.9508 25.1167 70.0508 24.35C69.1841 23.5833 68.4841 22.8667 67.9508 22.2C67.4174 21.5 67.0341 20.85 66.8008 20.25C66.5674 19.6167 66.4508 18.9833 66.4508 18.35C66.4508 16.65 67.1508 15.25 68.5508 14.15C69.9841 13.05 71.9008 12.5 74.3008 12.5C75.9008 12.5 77.3841 12.7667 78.7508 13.3C80.1174 13.8 81.2341 14.4833 82.1008 15.35L81.4008 19.35H80.4008C80.6341 17.6167 80.2508 16.2167 79.2508 15.15C78.2508 14.05 76.8508 13.5 75.0508 13.5C73.5508 13.5 72.4508 13.85 71.7508 14.55C71.0841 15.25 70.7508 16.0667 70.7508 17C70.7508 17.4333 70.8341 17.8667 71.0008 18.3C71.1674 18.7 71.4841 19.1667 71.9508 19.7C72.4174 20.2 73.0508 20.8 73.8508 21.5C74.6508 22.2 75.6841 23.05 76.9508 24.05C79.1508 25.7833 80.6841 27.2667 81.5508 28.5C82.4508 29.7 82.9008 30.9 82.9008 32.1C82.9008 33.0333 82.6674 33.9 82.2008 34.7C81.7674 35.4667 81.1674 36.1333 80.4008 36.7C79.6341 37.2667 78.7174 37.7 77.6508 38C76.5841 38.3333 75.4174 38.5 74.1508 38.5C70.6174 38.5 67.6008 37.0833 65.1008 34.25L66.0008 29.35H67.0008C66.8674 30.5167 66.9174 31.6 67.1508 32.6C67.3841 33.6 67.7841 34.4667 68.3508 35.2C68.9174 35.9 69.6174 36.4667 70.4508 36.9C71.3174 37.3 72.2674 37.5 73.3008 37.5ZM87.5984 7C87.5984 6.23333 87.8151 5.63333 88.2484 5.2C88.7151 4.73333 89.3318 4.5 90.0984 4.5C90.8651 4.5 91.4651 4.73333 91.8984 5.2C92.3651 5.63333 92.5984 6.23333 92.5984 7C92.5984 7.76667 92.3651 8.38333 91.8984 8.85C91.4651 9.28333 90.8651 9.5 90.0984 9.5C89.3318 9.5 88.7151 9.28333 88.2484 8.85C87.8151 8.38333 87.5984 7.76667 87.5984 7ZM83.8984 37C84.8984 37 85.6651 36.8833 86.1984 36.65C86.7318 36.3833 87.1151 35.9833 87.3484 35.45C87.6151 34.9167 87.7651 34.25 87.7984 33.45C87.8318 32.65 87.8484 31.7 87.8484 30.6V19.75C87.8484 18.9833 87.8151 18.3833 87.7484 17.95C87.7151 17.5167 87.5651 17.1833 87.2984 16.95C87.0651 16.7167 86.6818 16.5667 86.1484 16.5C85.6151 16.4333 84.8484 16.4 83.8484 16.4V15.4C86.3818 15.4 88.8984 14.6 91.3984 13H92.3484V30.6C92.3484 31.7 92.3651 32.65 92.3984 33.45C92.4318 34.25 92.5651 34.9167 92.7984 35.45C93.0651 35.9833 93.4651 36.3833 93.9984 36.65C94.5318 36.8833 95.2984 37 96.2984 37V38H83.8984V37ZM109.383 13.5C107.517 13.5 105.967 14.3333 104.733 16C103.533 17.6333 102.833 19.8333 102.633 22.6C102.467 24.7667 102.55 26.7667 102.883 28.6C103.217 30.4 103.75 31.95 104.483 33.25C105.217 34.55 106.15 35.5667 107.283 36.3C108.417 37.0333 109.7 37.4167 111.133 37.45C112.167 37.4833 113.2 37.3333 114.233 37C115.3 36.6667 116.4 36.1667 117.533 35.5L118.733 34.8L119.233 35.7L117.583 36.65C116.483 37.2833 115.367 37.75 114.233 38.05C113.1 38.35 111.833 38.5 110.433 38.5C108.467 38.5 106.683 38.2 105.083 37.6C103.517 37 102.167 36.15 101.033 35.05C99.8999 33.9167 99.0332 32.55 98.4332 30.95C97.8332 29.3167 97.5332 27.5 97.5332 25.5C97.5332 23.5 97.8165 21.7 98.3832 20.1C98.9499 18.5 99.7499 17.15 100.783 16.05C101.85 14.9167 103.117 14.05 104.583 13.45C106.083 12.8167 107.767 12.5 109.633 12.5C110.867 12.5 112.017 12.6833 113.083 13.05C114.15 13.3833 115.083 13.8333 115.883 14.4C116.683 14.9667 117.333 15.6167 117.833 16.35C118.367 17.05 118.7 17.7667 118.833 18.5C119 19.2667 118.967 19.95 118.733 20.55C118.5 21.15 118.117 21.5333 117.583 21.7C116.917 21.9333 116.267 21.8833 115.633 21.55C115.033 21.1833 114.65 20.6667 114.483 20C113.983 17.6667 113.383 16 112.683 15C111.983 14 110.883 13.5 109.383 13.5ZM153.055 38.5C150.289 38.5 147.739 38.05 145.405 37.15C143.105 36.2167 141.105 34.95 139.405 33.35C137.739 31.75 136.439 29.85 135.505 27.65C134.572 25.45 134.105 23.0667 134.105 20.5C134.105 17.9333 134.572 15.55 135.505 13.35C136.439 11.1167 137.722 9.2 139.355 7.6C141.022 5.96667 142.972 4.7 145.205 3.8C147.472 2.86667 149.905 2.4 152.505 2.4C154.505 2.4 156.422 2.66667 158.255 3.2C160.122 3.7 161.722 4.41666 163.055 5.35L163.605 10.8H162.605C162.239 8.43333 161.239 6.61667 159.605 5.35C158.005 4.05 155.905 3.4 153.305 3.4C151.205 3.4 149.289 3.81666 147.555 4.65C145.855 5.48333 144.389 6.66667 143.155 8.2C141.955 9.7 141.039 11.5 140.405 13.6C139.772 15.7 139.505 18 139.605 20.5C139.705 23 140.139 25.3 140.905 27.4C141.672 29.4667 142.705 31.25 144.005 32.75C145.305 34.25 146.822 35.4167 148.555 36.25C150.322 37.0833 152.255 37.5 154.355 37.5C156.789 37.5 158.672 36.9 160.005 35.7C161.372 34.5 162.239 32.6333 162.605 30.1H163.605L163.055 35.55C161.655 36.5167 160.139 37.25 158.505 37.75C156.872 38.25 155.055 38.5 153.055 38.5ZM173.55 30.6C173.55 31.7 173.566 32.65 173.6 33.45C173.633 34.25 173.766 34.9167 174 35.45C174.266 35.9833 174.666 36.3833 175.2 36.65C175.733 36.8833 176.5 37 177.5 37V38H165.1V37C166.1 37 166.866 36.8833 167.4 36.65C167.933 36.3833 168.316 35.9833 168.55 35.45C168.816 34.9167 168.966 34.25 169 33.45C169.033 32.65 169.05 31.7 169.05 30.6V7.25C169.05 6.48333 169.016 5.88333 168.95 5.45C168.916 5.01667 168.766 4.68333 168.5 4.45C168.266 4.21667 167.883 4.06667 167.35 4C166.816 3.93333 166.05 3.9 165.05 3.9V2.9C167.583 2.9 170.1 2.1 172.6 0.499997H173.55V30.6ZM202.84 32.7C202.84 34.1 203.124 35 203.69 35.4C204.19 35.8 204.907 35.7 205.84 35.1L206.39 35.9L203.09 38C202.557 38.3333 202.007 38.5 201.44 38.5C200.874 38.5333 200.357 38.4167 199.89 38.15C199.457 37.9167 199.09 37.5667 198.79 37.1C198.49 36.6333 198.34 36.0833 198.34 35.45V35.05L196.24 36.25C195.44 36.6833 194.74 37.05 194.14 37.35C193.54 37.6167 192.974 37.8333 192.44 38C191.907 38.2 191.39 38.3333 190.89 38.4C190.424 38.4667 189.907 38.5 189.34 38.5C186.84 38.5 184.974 37.8833 183.74 36.65C182.54 35.4167 181.94 33.65 181.94 31.35V19.75C181.94 18.9833 181.907 18.3833 181.84 17.95C181.807 17.5167 181.657 17.1833 181.39 16.95C181.157 16.7167 180.774 16.5667 180.24 16.5C179.707 16.4333 178.94 16.4 177.94 16.4V15.4C180.474 15.4 182.99 14.6 185.49 13H186.44V29.05C186.44 30.6833 186.49 32.05 186.59 33.15C186.724 34.2167 186.924 35.0833 187.19 35.75C187.457 36.3833 187.807 36.8333 188.24 37.1C188.674 37.3667 189.207 37.5 189.84 37.5C190.64 37.5 191.54 37.3 192.54 36.9C193.574 36.5 194.924 35.8333 196.59 34.9L198.34 33.9V19.75C198.34 18.9833 198.307 18.3833 198.24 17.95C198.207 17.5167 198.057 17.1833 197.79 16.95C197.557 16.7167 197.174 16.5667 196.64 16.5C196.107 16.4333 195.34 16.4 194.34 16.4V15.4C196.874 15.4 199.39 14.6 201.89 13H202.84V32.7ZM207.385 38V37C208.385 37 209.151 36.8833 209.685 36.65C210.218 36.3833 210.601 35.9833 210.835 35.45C211.101 34.9167 211.251 34.25 211.285 33.45C211.318 32.65 211.335 31.7 211.335 30.6V7.25C211.335 6.48333 211.301 5.88333 211.235 5.45C211.201 5.01667 211.051 4.68333 210.785 4.45C210.551 4.21667 210.168 4.06667 209.635 4C209.101 3.93333 208.335 3.9 207.335 3.9V2.9C209.868 2.9 212.385 2.1 214.885 0.499997H215.835V14.55C217.135 13.8167 218.268 13.3 219.235 13C220.235 12.6667 221.268 12.5 222.335 12.5C223.935 12.5 225.418 12.8333 226.785 13.5C228.185 14.1333 229.385 15.0333 230.385 16.2C231.418 17.3667 232.218 18.75 232.785 20.35C233.385 21.95 233.685 23.7 233.685 25.6C233.685 27.5 233.385 29.2333 232.785 30.8C232.218 32.3667 231.418 33.7333 230.385 34.9C229.351 36.0333 228.118 36.9167 226.685 37.55C225.251 38.1833 223.685 38.5 221.985 38.5C219.285 38.5 217.201 37.6833 215.735 36.05C215.235 36.05 214.851 36.0667 214.585 36.1C214.318 36.1333 214.035 36.2 213.735 36.3C213.268 36.4667 212.835 36.6333 212.435 36.8C212.035 36.9667 211.635 37.1333 211.235 37.3C210.768 37.5 210.301 37.6667 209.835 37.8C209.368 37.9333 208.885 38 208.385 38H207.385ZM215.835 34.75C216.401 35.55 217.135 36.1833 218.035 36.65C218.968 37.0833 220.001 37.3 221.135 37.3C222.401 37.3 223.518 37.0167 224.485 36.45C225.485 35.85 226.318 35.0167 226.985 33.95C227.651 32.8833 228.135 31.6 228.435 30.1C228.735 28.6 228.801 26.9167 228.635 25.05C228.501 23.3833 228.201 21.8667 227.735 20.5C227.301 19.1 226.751 17.9167 226.085 16.95C225.418 15.95 224.635 15.1833 223.735 14.65C222.868 14.0833 221.935 13.8 220.935 13.8C220.268 13.8 219.535 13.95 218.735 14.25C217.968 14.55 217.001 15.0333 215.835 15.7V34.75Z" fill="#EFC36A"/>
</svg>
