<?xml version="1.0" encoding="UTF-8"?>
<svg id="Layer_1" data-name="Layer 1" xmlns="http://www.w3.org/2000/svg" xmlns:xlink="http://www.w3.org/1999/xlink" viewBox="0 0 2034.64 491.4">
  <defs>
    <style>
      .cls-1 {
        mask: url(#mask);
      }

      .cls-2 {
        fill: url(#linear-gradient);
      }

      .cls-2, .cls-3 {
        stroke-width: 0px;
      }

      .cls-3 {
        fill: #fff;
      }
    </style>
    <mask id="mask" x="0" y="0" width="2034.64" height="491.4" maskUnits="userSpaceOnUse">
      <g>
        <g id="Layer_2" data-name="Layer 2">
          <g id="Layer_1-2" data-name="Layer 1-2">
            <g>
              <g>
                <path class="cls-3" d="m1470.1,62l3.5-7.7h17.3l3.3-7.5-1-.6c-.5.8-1,1.3-1.6,1.6-.5.3-1.4.5-2.6.5h-15.7l-8.9,20.7c7.4.4,13.1,2,17.1,4.9s6,6.7,6,11.6c0,4-1.1,7.3-3.2,9.9-2.2,2.6-4.9,3.9-8.1,3.9-1.5,0-3.2-.8-5-2.3-.5-.4-.9-.7-1.2-.9-.8-.6-1.6-1.1-2.5-1.4s-1.7-.5-2.5-.5c-.9,0-1.8.3-2.4.8s-.9,1.2-.9,2c0,1.6.9,2.9,2.7,3.9,1.8,1,4.3,1.5,7.3,1.5,6.1,0,11.1-1.9,15.1-5.7,3.9-3.8,5.8-8.6,5.8-14.5,0-5.4-1.9-9.7-5.8-13.2-3.8-3.5-9.4-5.8-16.7-7h0Z"/>
                <path class="cls-3" d="m1501.7,80v5.7h18.6v-5.7h-18.6Z"/>
                <path class="cls-3" d="m1556.3,79.7c-1.8-2.4-5-5.1-9.7-8.2,3.9-1.9,6.6-3.9,8.3-6,1.6-2,2.4-4.5,2.4-7.3,0-3.4-1.2-6.1-3.8-8.1-2.5-2-5.9-3-10.2-3s-8,1.2-10.7,3.8c-2.7,2.5-4.1,5.8-4.1,9.8,0,2.6.7,5,2.2,7.1,1.5,2.2,3.9,4.3,7.3,6.4-3.8,1.8-6.6,3.9-8.4,6.2-1.9,2.4-2.8,5.1-2.8,8.2,0,4,1.4,7.2,4.3,9.7s6.6,3.8,11.2,3.8c4.9,0,8.9-1.4,12-4.2,3.2-2.8,4.8-6.3,4.8-10.5-.1-2.6-1-5.3-2.8-7.7h0Zm-20.1-15.9c-1.6-1.9-2.4-3.9-2.4-6.1,0-2.5.9-4.6,2.6-6.2,1.7-1.6,3.9-2.4,6.6-2.4,2.9,0,5.1.8,6.8,2.5,1.6,1.7,2.5,4,2.5,7,0,2.4-.6,4.5-1.8,6.5-1.2,2-3,3.8-5.4,5.4-4.3-2.6-7.3-4.8-8.9-6.7h0Zm14.3,33.7c-1.8,1.8-4.2,2.7-7.3,2.7s-5.8-1.1-7.9-3.2c-2-2.2-3.1-4.9-3.1-8.2,0-3,.7-5.6,2-8,1.3-2.3,3.2-4.2,5.6-5.4,5.2,3.4,8.7,6.1,10.5,8.2s2.8,4.3,2.8,6.7c0,3-.9,5.4-2.6,7.2Z"/>
                <path class="cls-3" d="m1632.1,54.6c-5-5-11.6-7.6-19.9-7.6s-14.9,2.6-19.9,7.6-7.5,11.7-7.5,20.1,2.5,15.1,7.5,20.2,11.6,7.6,19.9,7.6,14.9-2.5,19.9-7.6,7.5-11.8,7.5-20.2-2.5-15-7.5-20.1Zm-6.6,38.3c-3.3,4.4-7.7,6.7-13.3,6.7s-10-2.2-13.3-6.7-5-10.5-5-18.2,1.6-13.6,5-18.1c3.3-4.5,7.7-6.7,13.3-6.7s10.1,2.2,13.3,6.7c3.3,4.5,5,10.5,5,18.1s-1.7,13.7-5,18.2Z"/>
                <path class="cls-3" d="m1695.6,89c-3,3.6-6,6.2-9.1,7.8s-6.7,2.4-10.7,2.4c-5.8,0-10.6-2.3-14.3-6.9-3.8-4.6-5.6-10.5-5.6-17.6s1.9-13.5,5.6-18c3.8-4.5,8.7-6.8,14.8-6.8,4.4,0,8.1,1.3,11.1,3.8s5.3,6.2,6.8,10.9h1.6l-1.5-17.1h-1.5c0,.8-.2,1.4-.7,1.9s-1.1.8-1.8.8c-.4,0-2.3-.5-5.7-1.6-3.4-1-6.6-1.5-9.7-1.5-8.2,0-15,2.6-20.2,7.9-5.3,5.3-7.9,12-7.9,20.2s2.5,14.8,7.6,19.8c5,5,11.7,7.5,20.1,7.5,4.7,0,8.8-1,12.5-3s7-5,10-9.1l-1.4-1.4h0Z"/>
                <path class="cls-3" d="m1699.1,48.2l-.5,13.6h1.6c.4-4.1,1.6-6.9,3.4-8.4s5.3-2.2,10.4-2.2h1.3c1.5,0,2.5.1,2.8.4.3.2.5.9.5,2v37.9c0,3.4-.5,5.6-1.5,6.6s-3.2,1.5-6.5,1.5v1.6h24.6v-1.6c-3.2-.1-5.4-.5-6.5-1.4s-1.6-3.2-1.6-7v-37.5c0-1.1.1-1.7.5-2,.3-.3,1.3-.4,3.1-.4,6.1,0,9.9.7,11.6,2.2s2.7,4.2,3.1,8.4h1.7v-13.6h-48v-.1Z"/>
              </g>
              <path class="cls-3" d="m479.1,401.51s8.57-53.9,107.9-41.5c91.4,11.41,94.81,21.49,157.4-8.7,0,0-36.66,32.77-67.81,32.64-40.85-1.79-100.09-11.36-120.38-9.45-24.3,3.3-52.21,5.53-77.11,27.01h0Z"/>
              <g>
                <path class="cls-3" d="m727.3,465.5c-1.1-.4-2.1-.9-2.9-1.7-.8-.8-1.5-1.7-2.1-2.9s-1.2-2.6-1.8-4.1l-19.3-54.1h-2.9l-19.2,54.1c-.5,1.6-1.1,2.9-1.7,4.1-.6,1.2-1.3,2.1-2.1,2.9-.8.7-1.8,1.3-3,1.7-1.1.4-2.6.5-4.2.5v1.9h17.5v-1.9c-2.8,0-4.5-.7-4.9-2s-.1-3.4.9-6.1l5.4-15.2h18.8l5.5,15.5c.9,2.6,1.2,4.6.7,5.8-.4,1.3-2,1.9-4.8,1.9v1.9h24.4v-1.9c-1.7.2-3.1,0-4.3-.4h0Zm-39.2-25.5l8.4-23.6,8.4,23.6h-16.8Z"/>
                <path class="cls-3" d="m811.7,463.7c-2.5,2.2-6,3.4-10.5,3.4-3.9,0-7.5-.8-10.8-2.3-3.2-1.6-6.1-3.7-8.5-6.5s-4.3-6.1-5.8-10c-1.4-3.9-2.2-8.1-2.4-12.8-.2-4.6.3-8.9,1.5-12.8s2.9-7.3,5.2-10.1c2.3-2.8,5-5,8.2-6.6,3.2-1.5,6.7-2.3,10.7-2.3,4.9,0,8.8,1.2,11.8,3.6s4.9,5.8,5.5,10.2h1.9l-1-10.1c-2.5-1.7-5.5-3.1-8.9-4s-7-1.4-10.8-1.4c-4.8,0-9.3.8-13.5,2.6-4.2,1.7-7.8,4-10.9,7.1-3.1,3-5.5,6.6-7.2,10.7-1.8,4.1-2.6,8.6-2.6,13.4s.9,9.2,2.6,13.3c1.8,4.1,4.2,7.6,7.3,10.6s6.9,5.3,11.2,7,9,2.6,14.2,2.6c3.7,0,7.1-.5,10.1-1.4,3.1-.9,5.9-2.3,8.5-4.1l1-10.1h-1.9c-.8,4.2-2.4,7.7-4.9,10h0Z"/>
              </g>
              <path class="cls-3" d="m866.9,434.8c-1.1-3-2.5-5.5-4.4-7.7-1.9-2.1-4.2-3.8-6.8-4.9-2.7-1.1-5.7-1.7-8.9-1.7s-6.2.6-8.9,1.7c-2.7,1.2-5,2.8-6.9,4.9-1.9,2.2-3.4,4.7-4.4,7.7-1.1,2.9-1.6,6.2-1.6,9.9s.5,6.9,1.6,9.9,2.5,5.5,4.4,7.7,4.2,3.8,6.9,4.9c2.7,1.2,5.7,1.8,8.9,1.8s6.3-.6,8.9-1.8c2.7-1.1,4.9-2.8,6.8-4.9,1.9-2.1,3.4-4.7,4.4-7.7,1.1-3,1.6-6.3,1.6-9.9s-.5-7-1.6-9.9Zm-7.9,19c-.4,2.7-1.1,5.1-2,7s-2.1,3.5-3.6,4.6-3.1,1.6-5,1.6-3.6-.5-5.2-1.6c-1.6-1.1-3-2.6-4.3-4.6s-2.3-4.3-3.1-7-1.3-5.8-1.6-9.1c-.3-3.4-.2-6.4.2-9.2.4-2.8,1-5.1,2-7.1.9-1.9,2.1-3.5,3.6-4.5,1.5-1.1,3.1-1.6,5-1.6s3.6.5,5.2,1.6c1.6,1.1,3.1,2.6,4.3,4.5,1.3,2,2.3,4.3,3.1,7.1.8,2.8,1.3,5.8,1.6,9.2.2,3.3.2,6.3-.2,9.1Z"/>
              <path class="cls-3" d="m923.1,465.4c-1-.5-1.7-1.2-2.2-2.2s-.7-2.2-.8-3.7-.1-3.2-.1-5.3v-20.4c0-8.9-4.6-13.3-13.8-13.3-1,0-2,.1-2.9.2s-1.9.4-2.9.7c-1,.4-2,.8-3.2,1.3-1.1.5-2.4,1.2-3.9,2l-3.9,2.2v-5.5h-1.8c-4.6,3-9.3,4.5-14,4.5v1.9c1.9,0,3.3.1,4.3.2s1.8.4,2.2.8c.5.4.8,1.1.8,1.9.1.8.1,1.9.1,3.4v20.2c0,2,0,3.8-.1,5.3s-.3,2.7-.8,3.7-1.2,1.7-2.2,2.2-2.4.7-4.3.7v1.9h23.1v-1.9c-1.9,0-3.3-.2-4.3-.7s-1.7-1.2-2.2-2.2-.7-2.2-.8-3.7c0-1.5-.1-3.2-.1-5.3v-25.1l3.2-1.9c1.9-1.1,3.4-1.9,4.6-2.5l3-1.5c.8-.3,1.5-.5,2.1-.7.6-.1,1.2-.2,1.8-.2,1.4,0,2.6.3,3.6.7.9.5,1.7,1.3,2.3,2.6.5,1.2.9,2.8,1.2,4.8s.4,4.6.4,7.6v16.1c0,2,0,3.8-.1,5.3,0,1.5-.3,2.7-.8,3.7s-1.2,1.7-2.2,2.2-2.4.7-4.3.7v1.9h23.1v-1.9c-1.7,0-3.2-.2-4.1-.7h0Z"/>
              <path class="cls-3" d="m955.7,460.7c-1.1,1.2-2.2,2.2-3.4,2.8-1.1.6-2.1.8-3,.4-1.6-.5-2.4-2.1-2.4-4.9v-35.7h8.8v-1.9h-8.8v-12.1h-1.8c0,3.5-1.1,6.4-3.4,8.7-2.3,2.3-5.5,3.4-9.6,3.4v1.9h6.5v35c0,7.1,2.4,10.6,7.3,10.6,4.2,0,7.9-2.4,11.2-7.1l-1.4-1.1h0Z"/>
              <path class="cls-3" d="m1002.9,439.7c.8-1,1.1-2.3.5-4-.6-2.4-1.6-4.5-2.8-6.3-1.3-1.9-2.8-3.4-4.6-4.7-1.8-1.3-3.8-2.3-6-3s-4.6-1.1-7.1-1.1c-3.2,0-6.1.5-8.7,1.7-2.7,1.1-4.9,2.7-6.9,4.8-1.9,2.1-3.4,4.7-4.5,7.7s-1.6,6.3-1.6,10,.6,7.1,1.7,10.1c1.1,3,2.7,5.6,4.8,7.7s4.6,3.7,7.5,4.9c3,1.1,6.3,1.7,9.9,1.7,2.4,0,4.9-.3,7.3-.8,2.5-.6,4.9-1.5,7.3-2.7l3.1-1.7-1-1.9-2.2,1.3c-2,1.2-4.2,2.1-6.5,2.8-2.3.7-4.5,1-6.4,1-2.6,0-4.9-.6-6.9-1.9-2.1-1.3-3.8-3.1-5.3-5.3-1.4-2.3-2.5-5-3.2-8.1-.7-3.2-1-6.6-.8-10.4h27.9c2.2-.4,3.6-.8,4.5-1.8h0Zm-9.3-2.5c-1,1.4-3,2.1-6,2.1h-16.9c.3-5.1,1.5-9.3,3.6-12.3,2.2-3.1,5-4.6,8.6-4.6,4.7,0,8.2,3,10.7,8.9,1,2.5,1.1,4.4,0,5.9h0Z"/>
              <g>
                <path class="cls-3" d="m1088.7,465.4c-1-.5-1.7-1.2-2.2-2.2s-.7-2.2-.8-3.7c-.1-1.5-.1-3.2-.1-5.3v-20.4c0-4.3-1.1-7.6-3.4-9.9s-5.7-3.4-10.4-3.4c-1,0-2,.1-2.9.2s-1.9.3-2.9.7c-1,.3-2,.7-3.2,1.2-1.1.5-2.4,1.2-3.9,2.1l-4.9,2.8c-.9-2.3-2.4-4-4.5-5.2s-4.8-1.8-8.1-1.8c-1,0-2,.1-2.9.2s-1.9.3-2.9.7c-1,.3-2,.7-3.2,1.2-1.1.5-2.4,1.2-3.9,2.1l-3.9,2.2v-5.5h-1.8c-4.6,3-9.3,4.5-14,4.5v1.9c1.9,0,3.3.1,4.3.2s1.7.4,2.2.8.8,1.1.8,1.9c.1.8.1,1.9.1,3.4v20.2c0,2,0,3.8-.1,5.3,0,1.5-.3,2.7-.8,3.7s-1.2,1.7-2.2,2.2-2.4.7-4.3.7v1.9h23.1v-1.9c-1.9,0-3.3-.2-4.3-.7s-1.7-1.2-2.2-2.2-.7-2.2-.8-3.7c-.1-1.5-.1-3.2-.1-5.3v-25.1l3.2-1.9c1.9-1.1,3.4-1.9,4.6-2.5s2.2-1.1,3-1.5c.8-.3,1.6-.5,2.2-.7.7-.1,1.3-.2,2-.2,1.3,0,2.5.3,3.4.7.9.5,1.6,1.3,2.2,2.6.5,1.2.9,2.8,1.2,4.8.2,2,.3,4.6.3,7.6v16.1c0,2,0,3.8-.1,5.3,0,1.5-.3,2.7-.8,3.7-.4,1-1.2,1.7-2.2,2.2s-2.4.7-4.3.7v1.9h23.1v-1.9c-1.9,0-3.3-.2-4.3-.7s-1.8-1.2-2.2-2.2c-.5-1-.7-2.2-.8-3.7-.1-1.5-.1-3.2-.1-5.3v-20.4c0-.9,0-1.7-.1-2.4-.1-.7-.2-1.5-.4-2.1l3.6-2c1.9-1.1,3.4-1.9,4.6-2.5s2.2-1.1,3-1.5c.8-.3,1.6-.5,2.2-.7.7-.1,1.3-.2,2-.2,1.4,0,2.5.3,3.4.7.9.5,1.6,1.3,2.2,2.6.5,1.2.9,2.8,1.2,4.8.3,2,.3,4.6.3,7.6v16.1c0,2,0,3.8-.1,5.3,0,1.5-.3,2.7-.8,3.7s-1.2,1.7-2.2,2.2-2.4.7-4.3.7v1.9h23.1v-1.9c-1.5,0-2.9-.2-3.9-.7h0Z"/>
                <path class="cls-3" d="m1145.1,435.1c-1.1-3-2.6-5.5-4.5-7.7s-4.2-3.9-6.7-5.1c-2.6-1.2-5.4-1.8-8.4-1.8-2,0-3.9.3-5.7.9s-3.9,1.6-6.3,3v-2.9h-1.8c-4.6,3-9.3,4.5-14,4.5v1.9c1.9,0,3.3.1,4.3.2s1.7.4,2.2.8c.4.4.7,1.1.8,1.9.1.8.1,1.9.1,3.4v43.4c0,2,0,3.8-.1,5.3s-.3,2.7-.8,3.7-1.2,1.7-2.2,2.2c-1,.4-2.4.7-4.3.7v1.9h23.1v-1.9c-1.9,0-3.3-.3-4.3-.7-1-.5-1.7-1.2-2.2-2.2s-.7-2.2-.8-3.7c0-1.5-.1-3.3-.1-5.3v-12.5c2.4,2.7,6,4,10.8,4,3.4,0,6.4-.6,9.1-1.8,2.7-1.2,5.1-2.8,7.1-5s3.5-4.7,4.6-7.6,1.6-6.2,1.6-9.7c.2-3.7-.4-6.9-1.5-9.9h0Zm-8.1,18.1c-.5,2.8-1.5,5.3-2.7,7.3-1.3,2.1-2.9,3.6-4.8,4.8-1.9,1.1-4.1,1.7-6.5,1.7s-4.4-.5-6-1.6-2.7-2.7-3.4-4.7v-34.1c2.7-1.6,4.7-2.7,6.1-3.3,1.4-.6,2.7-.9,3.9-.9,1.8,0,3.5.5,5.1,1.6s3,2.5,4.2,4.4,2.2,4.2,3,6.7c.8,2.6,1.3,5.4,1.6,8.5.2,3.6,0,6.8-.5,9.6h0Z"/>
              </g>
              <path class="cls-3" d="m1195.3,434.8c-1.1-3-2.5-5.5-4.4-7.7-1.9-2.1-4.2-3.8-6.8-4.9-2.7-1.1-5.7-1.7-8.9-1.7s-6.2.6-8.9,1.7c-2.7,1.2-5,2.8-6.9,4.9-1.9,2.2-3.4,4.7-4.4,7.7-1.1,2.9-1.6,6.2-1.6,9.9s.5,6.9,1.6,9.9,2.5,5.5,4.4,7.7,4.2,3.8,6.9,4.9c2.7,1.2,5.7,1.8,8.9,1.8s6.3-.6,8.9-1.8c2.7-1.1,4.9-2.8,6.8-4.9s3.4-4.7,4.4-7.7c1.1-3,1.6-6.3,1.6-9.9s-.5-7-1.6-9.9Zm-7.9,19c-.4,2.7-1.1,5.1-2,7s-2.1,3.5-3.6,4.6-3.1,1.6-5,1.6-3.6-.5-5.2-1.6-3-2.6-4.3-4.6-2.3-4.3-3.1-7c-.8-2.7-1.3-5.8-1.6-9.1-.3-3.4-.2-6.4.2-9.2.4-2.8,1-5.1,2-7.1.9-1.9,2.1-3.5,3.6-4.5,1.5-1.1,3.1-1.6,5-1.6s3.6.5,5.2,1.6,3.1,2.6,4.3,4.5c1.3,2,2.3,4.3,3.1,7.1.8,2.8,1.3,5.8,1.6,9.2.2,3.3.2,6.3-.2,9.1Z"/>
              <g>
                <path class="cls-3" d="m1238.5,427.7c-.2-.9-.6-1.9-1.3-2.7-.7-.9-1.5-1.7-2.6-2.3-1-.7-2.1-1.2-3.4-1.6-1.2-.4-2.4-.6-3.6-.6-1.6,0-3,.3-4.4.9s-2.7,1.5-3.9,2.6l-1.5,1.3v-3.9h-1.8c-4.6,3-9.3,4.5-14,4.5v1.9c1.9,0,3.3.1,4.3.2s1.8.4,2.2.8c.5.4.8,1.1.8,1.9.1.8.1,1.9.1,3.4v20.2c0,2,0,3.8-.1,5.3s-.3,2.7-.8,3.7-1.2,1.7-2.2,2.2-2.4.7-4.3.7v1.9h23.1v-1.9c-1.9,0-3.3-.2-4.3-.7s-1.7-1.2-2.2-2.2-.7-2.2-.8-3.7c0-1.5-.1-3.2-.1-5.3v-26.3l2.6-2.3c1.1-1,2.2-1.8,3.4-2.4,1.2-.6,2.2-.9,3.1-.9,1.8,0,2.8,1.5,3,4.4.1,1.3.4,2.4.7,3.2.4.9.8,1.5,1.4,2,.5.5,1.1.8,1.7.9s1.1.2,1.5.1c1.2-.1,2.2-.7,2.7-1.8.8-1.1,1-2.2.7-3.5h0Z"/>
                <path class="cls-3" d="m1282.2,462.5c-1.7,1.1-3.1,1.3-4,.5-1-.7-1.6-2.4-1.6-5v-19.9c0-2.7-.4-5.1-1.3-7.3-.8-2.2-2.1-4-3.7-5.6s-3.5-2.8-5.7-3.6c-2.2-.8-4.7-1.2-7.4-1.2-3.4,0-6.5.6-9.3,1.9-2.8,1.2-4.6,2.8-5.7,4.7-.4.8-.5,1.6-.6,2.5,0,.8.1,1.6.4,2.2.3.7.8,1.2,1.3,1.6s1.2.6,2,.6c1.2,0,2.3-.5,3.1-1.4.8-.9,1.4-2.2,1.7-3.7.4-2,1.2-3.6,2.6-4.8,1.3-1.2,3-1.8,4.9-1.8,2.8,0,5.1,1.3,6.7,4s2.4,6.5,2.4,11.4v5.3l-5.8,2c-4.3,1.5-7.9,2.8-10.8,4s-5.3,2.4-7.1,3.5c-1.8,1.1-3.1,2.3-3.9,3.5s-1.2,2.6-1.2,4c0,2.6,1.1,4.6,3.4,6.2s5.3,2.4,8.9,2.4c2.1,0,4.1-.3,6-.9s3.8-1.6,5.8-3.1l4.6-3.4v1.7c0,1.2.3,2.2.8,3.1.6.9,1.3,1.5,2.1,2,.8.5,1.8.7,2.8.7s2.1-.4,3.1-1l6.1-3.9-.6-1.2h0Zm-13.9-3.3l-3.5,2.5c-2.2,1.6-4.1,2.8-5.7,3.8s-3.2,1.5-4.6,1.5c-3.7,0-5.6-2.4-5.6-7.1,0-1.5.3-2.8.7-4,.5-1.2,1.2-2.3,2.3-3.2,1.1-1,2.6-1.9,4.4-2.8s4.1-1.8,6.7-2.7l5.3-1.9v13.9h0Z"/>
              </g>
              <g>
                <path class="cls-3" d="m1324.4,427.7c-.2-.9-.6-1.9-1.3-2.7-.7-.9-1.5-1.7-2.6-2.3-1-.7-2.2-1.2-3.4-1.6-1.2-.4-2.4-.6-3.7-.6-1.5,0-3,.3-4.4.9-1.3.6-2.7,1.5-3.9,2.6l-1.5,1.3v-3.9h-1.8c-4.7,3-9.3,4.5-14,4.5v1.9c1.9,0,3.3.1,4.3.2s1.7.4,2.2.8.7,1.1.8,1.9c.1.8.1,1.9.1,3.4v20.2c0,2,0,3.8-.1,5.3,0,1.5-.3,2.7-.8,3.7s-1.2,1.7-2.2,2.2-2.4.7-4.3.7v1.9h23.1v-1.9c-1.9,0-3.3-.2-4.3-.7s-1.8-1.2-2.2-2.2c-.5-1-.7-2.2-.8-3.7-.1-1.5-.1-3.2-.1-5.3v-26.3l2.6-2.3c1.1-1,2.2-1.8,3.4-2.4,1.2-.6,2.2-.9,3.1-.9,1.8,0,2.8,1.5,3,4.4.1,1.3.4,2.4.7,3.2.4.9.8,1.5,1.4,2s1.1.8,1.7.9,1.1.2,1.6.1c1.2-.1,2.2-.7,2.7-1.8.8-1.1.9-2.2.7-3.5h0Z"/>
                <path class="cls-3" d="m1360.8,421.4v1.9c2.7,0,4.3.7,4.9,1.9.5,1.2.1,3.5-1.1,6.8l-9,23.6-8.8-23c-1.3-3.7-1.8-6.1-1.4-7.4s1.9-1.9,4.6-1.9v-1.9h-22.6v1.9c1.3,0,2.4.2,3.4.5s1.9.9,2.7,1.9c.8.9,1.6,2.1,2.4,3.6.7,1.5,1.6,3.5,2.5,5.9l12.5,32.7-4.4,11.3c-1,2.5-1.8,4.3-2.5,5.3-.7,1.1-1.5,1.8-2.4,2.2-1.1.5-2,.5-2.8.1s-1.6-1.3-2.5-2.7c-1.1-1.9-2.3-3.2-3.8-3.9-1.5-.8-2.8-.8-4-.1-.9.5-1.4,1.3-1.5,2.6-.1,1.2.3,2.4,1.1,3.6.5.7,1.3,1.4,2.4,1.9,1,.6,2.1,1,3.4,1.3,1.2.3,2.4.4,3.8.4,1.3,0,2.5-.3,3.6-.6,1.6-.5,2.9-1.4,3.9-2.7s2.1-3.3,3.1-6.1l19-49.9c1.1-2.7,2.3-4.6,3.8-5.7,1.4-1.1,3.5-1.6,6.3-1.6v-1.9h-16.6Z"/>
              </g>
              <path class="cls-3" d="m1451.8,402.8h-43.8v1.9c1.9,0,3.3.3,4.3.7,1,.5,1.7,1.2,2.2,2.2s.7,2.3.8,3.7c0,1.5.1,3.3.1,5.3v37.6c0,2,0,3.8-.1,5.3s-.3,2.7-.8,3.7-1.2,1.7-2.2,2.2-2.4.7-4.3.7v1.9h24v-1.9c-1.9,0-3.3-.2-4.3-.7s-1.8-1.2-2.2-2.2c-.5-1-.7-2.2-.8-3.7-.1-1.5-.1-3.2-.1-5.3v-20.2h4.6c3.1,0,5.7.1,7.9.5,2.2.3,3.9.8,5.3,1.5,1.3.7,2.4,1.6,3.1,2.8.7,1.2,1.1,2.6,1.3,4.3h1.9l-1.7-20.3h-1.9c.2,1.8,0,3.2-.4,4.4-.5,1.2-1.3,2.2-2.5,2.8-1.2.7-2.9,1.2-5,1.5s-4.7.5-7.7.5h-4.8v-15.5c0-2.4.2-4.3.6-5.8s1.1-2.7,2.2-3.6c1-.9,2.4-1.5,4.2-1.9,1.8-.4,4-.6,6.7-.6,2.2,0,4,.1,5.6.4s2.9.7,4,1.3c1,.6,1.9,1.5,2.6,2.5.7,1.1,1.1,2.4,1.4,4.1h1.9l-2.1-10.1h0Z"/>
              <path class="cls-3" d="m1496,462.5c-1.7,1.1-3.1,1.3-4,.5-1.1-.7-1.6-2.4-1.6-5v-19.9c0-2.7-.4-5.1-1.3-7.3-.8-2.2-2.1-4-3.7-5.6s-3.5-2.8-5.7-3.6c-2.2-.8-4.7-1.2-7.4-1.2-3.4,0-6.5.6-9.3,1.9-2.8,1.2-4.6,2.8-5.7,4.7-.4.8-.5,1.6-.6,2.5,0,.8.1,1.6.4,2.2.3.7.8,1.2,1.3,1.6s1.2.6,2,.6c1.2,0,2.3-.5,3.1-1.4.8-.9,1.4-2.2,1.7-3.7.4-2,1.2-3.6,2.6-4.8,1.3-1.2,3-1.8,4.9-1.8,2.8,0,5.1,1.3,6.7,4s2.4,6.5,2.4,11.4v5.3l-5.8,2c-4.3,1.5-7.9,2.8-10.8,4s-5.3,2.4-7.1,3.5c-1.8,1.1-3.1,2.3-3.9,3.5s-1.2,2.6-1.2,4c0,2.6,1.1,4.6,3.4,6.2s5.3,2.4,8.9,2.4c2.1,0,4.1-.3,6-.9s3.9-1.6,5.8-3.1l4.6-3.4v1.7c0,1.2.3,2.2.8,3.1.6.9,1.3,1.5,2.1,2s1.8.7,2.8.7c1.1,0,2.1-.4,3.1-1l6.1-3.9-.6-1.2h0Zm-14-3.3l-3.5,2.5c-2.2,1.6-4.1,2.8-5.7,3.8s-3.2,1.5-4.6,1.5c-3.7,0-5.6-2.4-5.6-7.1,0-1.5.3-2.8.7-4,.5-1.2,1.2-2.3,2.3-3.2,1.1-1,2.6-1.9,4.4-2.8s4.1-1.8,6.7-2.7l5.3-1.9v13.9h0Z"/>
              <g>
                <path class="cls-3" d="m1549.7,465.4c-1-.5-1.7-1.2-2.2-2.2s-.7-2.2-.8-3.7c0-1.5-.1-3.2-.1-5.3v-20.4c0-8.9-4.6-13.3-13.8-13.3-1,0-1.9.1-2.9.2-.9.1-1.9.4-2.9.7-1,.4-2,.8-3.2,1.3-1.1.5-2.4,1.2-3.9,2l-3.9,2.2v-5.5h-1.8c-4.7,3-9.3,4.5-14.1,4.5v1.9c1.9,0,3.3.1,4.3.2s1.7.4,2.2.8c.4.4.7,1.1.8,1.9.1.8.1,1.9.1,3.4v20.2c0,2,0,3.8-.1,5.3s-.3,2.7-.8,3.7c-.4,1-1.2,1.7-2.2,2.2s-2.4.7-4.3.7v1.9h23.1v-1.9c-1.9,0-3.3-.2-4.3-.7s-1.7-1.2-2.2-2.2c-.4-1-.7-2.2-.8-3.7-.1-1.5-.1-3.2-.1-5.3v-25.1l3.2-1.9c1.9-1.1,3.4-1.9,4.6-2.5s2.2-1.1,3-1.5c.8-.3,1.5-.5,2.1-.7.5-.1,1.1-.2,1.8-.2,1.4,0,2.6.3,3.6.7,1,.5,1.8,1.3,2.3,2.6.5,1.2.9,2.8,1.2,4.8s.4,4.6.4,7.6v16.1c0,2,0,3.8-.1,5.3s-.3,2.7-.8,3.7-1.2,1.7-2.2,2.2-2.4.7-4.3.7v1.9h23.1v-1.9c-1.6,0-3.1-.2-4-.7h0Z"/>
                <path class="cls-3" d="m1582.3,460.7c-1.1,1.2-2.3,2.2-3.4,2.8s-2.1.8-3,.4c-1.6-.5-2.4-2.1-2.4-4.9v-35.7h8.8v-1.9h-8.8v-12.1h-1.9c0,3.5-1.1,6.4-3.4,8.7-2.3,2.3-5.5,3.4-9.7,3.4v1.9h6.5v35c0,7.1,2.4,10.6,7.3,10.6,4.2,0,7.9-2.4,11.2-7.1l-1.2-1.1h0Z"/>
              </g>
              <g>
                <path class="cls-3" d="m1631.1,462.5c-1.7,1.1-3.1,1.3-4,.5-1.1-.7-1.6-2.4-1.6-5v-19.9c0-2.7-.4-5.1-1.3-7.3-.9-2.2-2.1-4-3.7-5.6s-3.5-2.8-5.7-3.6c-2.2-.8-4.7-1.2-7.4-1.2-3.4,0-6.5.6-9.3,1.9-2.8,1.2-4.6,2.8-5.6,4.7-.4.8-.6,1.6-.6,2.5,0,.8.1,1.6.4,2.2.3.7.7,1.2,1.3,1.6.6.4,1.2.6,2,.6,1.2,0,2.3-.5,3.1-1.4.8-.9,1.4-2.2,1.7-3.7.4-2,1.2-3.6,2.6-4.8,1.3-1.2,3-1.8,4.9-1.8,2.8,0,5.1,1.3,6.7,4s2.5,6.5,2.5,11.4v5.3l-5.9,2c-4.3,1.5-7.9,2.8-10.8,4s-5.3,2.4-7.1,3.5c-1.8,1.1-3.1,2.3-3.9,3.5s-1.2,2.6-1.2,4c0,2.6,1.2,4.6,3.4,6.2,2.3,1.6,5.2,2.4,8.9,2.4,2.1,0,4.1-.3,6-.9s3.8-1.6,5.8-3.1l4.7-3.4v1.7c0,1.2.3,2.2.8,3.1s1.2,1.5,2.1,2c.8.5,1.8.7,2.8.7,1.1,0,2.1-.4,3.1-1l6.1-3.9-.8-1.2h0Zm-14-3.3l-3.5,2.5c-2.2,1.6-4.1,2.8-5.7,3.8s-3.2,1.5-4.6,1.5c-3.7,0-5.6-2.4-5.6-7.1,0-1.5.2-2.8.7-4,.4-1.2,1.2-2.3,2.3-3.2,1.1-1,2.6-1.9,4.4-2.8,1.9-.9,4.1-1.8,6.7-2.7l5.3-1.9v13.9h0Z"/>
                <path class="cls-3" d="m1665.8,450.2c-1.6-2.3-4.5-5-8.6-8.2-2.4-1.9-4.3-3.4-5.8-4.7-1.5-1.3-2.7-2.4-3.5-3.4-.9-.9-1.5-1.8-1.8-2.6-.3-.8-.5-1.6-.5-2.4,0-1.8.7-3.3,1.9-4.6,1.3-1.3,3.3-2,6.1-2,3.4,0,5.9,1,7.8,3s2.6,4.6,2.2,7.8h1.9l1.3-7.4c-1.6-1.6-3.7-2.9-6.2-3.8-2.6-1-5.3-1.5-8.3-1.5-4.5,0-8,1-10.7,3.1-2.6,2-3.9,4.7-3.9,7.8,0,1.2.2,2.4.7,3.5.4,1.2,1.1,2.4,2.2,3.6,1,1.2,2.3,2.6,3.9,4s3.6,3,6,4.8c3.8,2.8,6.3,5.1,7.8,6.8s2.2,3.4,2.2,5c0,1.1-.3,2.2-.8,3.1s-1.2,1.8-2.1,2.5c-.8.7-1.9,1.3-3.1,1.7s-2.5.6-4,.6c-1.9,0-3.6-.4-5.3-1.2-1.6-.8-2.9-1.8-3.9-3.2-1.1-1.3-1.8-2.9-2.2-4.8-.4-1.9-.5-3.9-.3-6.1h-1.9l-1.7,9.1c4.7,5.3,10.3,7.9,16.9,7.9,2.3,0,4.5-.3,6.5-.9s3.7-1.4,5.1-2.4c1.4-1.1,2.6-2.3,3.4-3.8s1.2-3,1.2-4.8c-.1-2-.9-4.2-2.5-6.5h0Z"/>
              </g>
              <g>
                <path class="cls-3" d="m1688.9,406.8c-.8-.8-2-1.2-3.4-1.2s-2.6.4-3.4,1.2c-.8.8-1.2,2-1.2,3.4s.4,2.6,1.2,3.4c.8.8,2,1.3,3.4,1.3,1.5,0,2.6-.4,3.4-1.3.8-.8,1.2-2,1.2-3.4s-.4-2.5-1.2-3.4Zm3.8,58.6c-1-.5-1.7-1.2-2.2-2.2-.4-1-.7-2.2-.8-3.7-.1-1.5-.1-3.2-.1-5.3v-32.8h-1.8c-4.7,3-9.3,4.5-14,4.5v1.9c1.9,0,3.3.1,4.3.2s1.7.4,2.2.8.7,1.1.8,1.9c.1.8.1,1.9.1,3.4v20.2c0,2,0,3.8-.1,5.3s-.3,2.7-.8,3.7c-.4,1-1.2,1.7-2.2,2.2s-2.4.7-4.3.7v1.9h23.1v-1.9c-1.8-.1-3.2-.3-4.2-.8h0Z"/>
                <path class="cls-3" d="m1744.4,462.5c-1.8,1.1-3.1,1.3-4,.5-1.1-.7-1.6-2.4-1.6-5v-19.9c0-2.7-.4-5.1-1.3-7.3-.9-2.2-2.1-4-3.7-5.6s-3.5-2.8-5.7-3.6c-2.2-.8-4.7-1.2-7.4-1.2-3.4,0-6.5.6-9.3,1.9-2.7,1.2-4.6,2.8-5.6,4.7-.4.8-.6,1.6-.6,2.5,0,.8.1,1.6.4,2.2.3.7.7,1.2,1.3,1.6.5.4,1.2.6,2,.6,1.2,0,2.3-.5,3.1-1.4.8-.9,1.4-2.2,1.8-3.7.4-2,1.2-3.6,2.6-4.8,1.3-1.2,3-1.8,4.9-1.8,2.8,0,5.1,1.3,6.7,4s2.4,6.5,2.4,11.4v5.3l-5.8,2c-4.3,1.5-7.9,2.8-10.8,4s-5.3,2.4-7.1,3.5c-1.8,1.1-3.1,2.3-3.9,3.5s-1.2,2.6-1.2,4c0,2.6,1.1,4.6,3.4,6.2s5.2,2.4,8.9,2.4c2.1,0,4.1-.3,6-.9s3.8-1.6,5.8-3.1l4.6-3.4v1.7c0,1.2.3,2.2.8,3.1s1.3,1.5,2.1,2c.8.5,1.8.7,2.8.7,1.1,0,2.1-.4,3.1-1l6.1-3.9-.8-1.2h0Zm-13.9-3.3l-3.5,2.5c-2.2,1.6-4.1,2.8-5.7,3.8s-3.2,1.5-4.6,1.5c-3.7,0-5.6-2.4-5.6-7.1,0-1.5.2-2.8.7-4s1.2-2.3,2.3-3.2c1.1-1,2.6-1.9,4.4-2.8s4.1-1.8,6.7-2.7l5.3-1.9v13.9h0Z"/>
              </g>
              <path class="cls-3" d="m479.1,401.6c-13.8,44.5-43.3,66.2-87.3,66.2-46.3,0-84.3-23.5-116.2-84.3l-66.2-126.4c-10.8-20.2-13.92-29.74-31.34-30.3-10.57,2.7-16.86,14.4-17.96,23.4v-67.5c1.45,22.34,9.63,34.46,18,36.5h0c33.81.07,73.3-39.7,76.2-87.3.2-3.2.3-6.4.3-9.6.3-22-4.9-43.7-15-63.2,0-.1-.1-.1-.1-.1-21.2-33.1-46.3-42.4-97-42.2s-82.01,7.77-112.51,50.17c-3.63,6.36-7.66,14.55-10.39,21.53-23.7,73.5,20.02,114.85,46.52,128.05C25.92,205.75,0,173.4,0,125.2,0,54.2,54.2,0,142.1,0s153.5,50.6,153.5,120.4c.4,53-39.4,97.8-92.1,103.5,20.5,4.9,38.5,14.5,48.2,32.5l49.9,95.7c35.5,68,64.45,93.07,107.7,90.9,37.89-2.11,69.8-41.5,69.8-41.5v.1h0Z"/>
              <g>
                <path class="cls-3" d="m343.7,104.9c-1.3-1.2-1.9-3.4-1.9-6.7v-43.2c0-3.3.6-5.5,1.9-6.7,1.2-1.1,3.8-1.8,7.6-1.9v-2h-29.3v2c3.7.1,6.2.7,7.5,1.9s2,3.4,2,6.7v43.2c0,3.4-.6,5.7-1.9,6.8-1.3,1.2-3.8,1.8-7.6,1.9v1.9h29.3v-1.9c-3.8-.2-6.3-.8-7.6-2Z"/>
                <path class="cls-3" d="m379.1,104.9c-1.3-1.2-1.9-3.4-1.9-6.7v-43.2c0-3.3.6-5.5,1.9-6.7,1.2-1.1,3.8-1.8,7.6-1.9v-2h-29.3v2c3.7.1,6.2.7,7.5,1.9s2,3.4,2,6.7v43.2c0,3.4-.7,5.7-1.9,6.8-1.3,1.2-3.8,1.8-7.5,1.9v1.9h29.3v-1.9c-3.9-.2-6.4-.8-7.7-2Z"/>
                <path class="cls-3" d="m391.8,44.4l-.5,16.6h1.9c.5-5,1.9-8.4,4.1-10.2s6.4-2.7,12.7-2.7h1.6c1.9,0,3,.1,3.4.4s.6,1.1.6,2.4v46c0,4.1-.6,6.8-1.8,8-1.2,1.2-3.9,1.8-8,1.8v1.9h29.9v-1.9c-4-.1-6.6-.7-7.9-1.7-1.3-1.1-1.9-3.9-1.9-8.5v-45.6c0-1.3.2-2.1.5-2.4.4-.3,1.6-.5,3.8-.5,7.3,0,12,.9,14.1,2.6,2,1.8,3.3,5.1,3.8,10.2h2v-16.6h-58.3v.2h0Z"/>
                <path class="cls-3" d="m535,52.7c-6.6-5.5-16-8.3-27.9-8.3h-30.6v1.9c3.8.1,6.3.8,7.6,1.9,1.3,1.2,2,3.4,2,6.7v43.2c0,3.4-.7,5.7-1.9,6.8-1.3,1.2-3.8,1.8-7.6,1.9l-.1,1.9h27.9c6.8,0,12.3-.5,16.4-1.5,4.2-1.1,7.8-2.8,11.1-5.1,4.3-3.1,7.6-6.9,9.8-11.3s3.3-9.3,3.3-14.8c0-10-3.4-17.8-10-23.3h0Zm-8.9,44.9c-5.2,5.1-12.4,7.6-21.7,7.6-3.7,0-6-.4-6.9-1.3-.9-.8-1.4-3.2-1.4-7.1v-41.3c0-3.4.4-5.5,1.3-6.4.8-.9,2.7-1.3,5.6-1.3,9.9,0,17.5,2.5,22.8,7.4s8,12,8,21.2c.1,9.1-2.5,16.2-7.7,21.2Z"/>
                <path class="cls-3" d="m611.1,92.1c-2,5-4.4,8.3-7.1,10.1-2.7,1.8-7.1,2.6-13.2,2.6h-15c-1.8,0-3-.4-3.6-1.1s-.9-2.3-.9-4.6v-19.3c0-1.3.2-2.2.6-2.6.4-.4,1.2-.5,2.4-.5h12.9c5,0,8.3.7,9.8,1.9,1.5,1.3,2.4,3.8,2.6,7.5h2v-22.1h-2c-.2,3.5-1,5.9-2.6,7.2-1.5,1.2-4.8,1.9-9.8,1.9h-12.8c-1.4,0-2.3-.2-2.6-.5-.3-.4-.5-1.2-.5-2.5v-17.4c0-2,.3-3.3.9-3.8.6-.5,1.9-.7,3.8-.7h16.1c4.6,0,7.8.7,9.6,2.2s3,4.2,3.7,8.3h1.9l-.9-14.2h-55v1.9c3.8.2,6.4.8,7.6,2,1.2,1.1,1.9,3.4,1.9,6.7v43.3c0,3.4-.6,5.6-1.9,6.7-1.2,1.1-3.8,1.7-7.6,1.8v1.9h56.4l5-15.8-1.7-.9h0Z"/>
                <path class="cls-3" d="m673.1,91.8c-1.9,4.5-4.4,7.9-7.5,10s-7,3.2-11.8,3.2h-11.1c-2.7,0-4.4-.4-5.2-1.1s-1.2-2.5-1.2-5.4v-43.3c0-3.3.7-5.6,2-6.9s3.7-1.9,7.1-1.9h.4v-2h-29.3v2c3.7,0,6.2.5,7.4,1.6s1.8,3.5,1.8,7.3v41.9c0,3.9-.6,6.5-1.9,7.8-1.2,1.3-3.6,2-7,2h-.4v1.9h53.3l5.3-16.9h-1.9v-.2h0Z"/>
                <path class="cls-3" d="m740.8,48.2c1.3-1.2,3.8-1.8,7.6-1.9v-2h-29.2v2c3.8.1,6.3.8,7.6,2s1.9,3.4,1.9,6.7v15.8c0,1.3-.1,2.2-.5,2.6-.3.4-1,.6-2,.6h-27.4c-1.2,0-1.9-.2-2.3-.6-.4-.4-.6-1.2-.6-2.4v-16c0-3.3.6-5.5,1.8-6.7,1.2-1.1,3.8-1.8,7.6-2v-1.9h-29.1v1.9c3.7.1,6.2.8,7.6,1.9,1.3,1.2,2,3.4,2,6.7v43.2c0,3.4-.7,5.7-1.9,6.8-1.3,1.2-3.8,1.8-7.6,1.8l-.1,1.9h29.1v-1.9c-3.8-.1-6.3-.7-7.5-1.9-1.3-1.2-1.9-3.4-1.9-6.7v-17.6c0-1.1.2-1.9.6-2.3.4-.4,1.2-.7,2.2-.7h27.5c1,0,1.6.2,2,.6s.5,1.2.5,2.4v17.7c0,3.2-.6,5.5-1.9,6.6s-3.8,1.8-7.6,1.9v1.9h29.2v-1.9c-3.7-.1-6.2-.7-7.5-1.9s-1.9-3.4-1.9-6.7v-43.2c-.1-3.3.6-5.5,1.8-6.7h0Z"/>
                <path class="cls-3" d="m775,104.9c-1.3-1.2-1.9-3.4-1.9-6.7v-43.2c0-3.3.6-5.5,1.9-6.7,1.2-1.1,3.8-1.8,7.6-1.9v-2h-29.3v2c3.7.1,6.2.7,7.5,1.9s1.9,3.4,1.9,6.7v43.2c0,3.4-.6,5.7-1.9,6.8-1.3,1.2-3.8,1.8-7.6,1.9v1.9h29.3v-1.9c-3.7-.2-6.3-.8-7.5-2Z"/>
                <path class="cls-3" d="m801.9,45.2c-1.3-1.5-3.1-2.2-5.4-2.2-1.7,0-3.1.4-4.1,1.4-1,.9-1.5,2.1-1.5,3.6,0,1.4.4,2.5,1.3,3.4.9.8,2.1,1.3,3.6,1.3.4,0,.9,0,1.5-.1s1-.1,1.2-.1c.7,0,1.1.1,1.3.3s.3.7.3,1.5c0,1.9-.8,3.8-2.6,5.9-1.7,2.1-4.2,4.3-7.6,6.5l1.2,1.4c4.2-2.1,7.3-4.6,9.4-7.4,2.1-2.8,3.2-5.9,3.2-9.4.2-2.6-.5-4.7-1.8-6.1h0Z"/>
                <path class="cls-3" d="m852.7,82.5c-1.8-2.7-5-5.4-9.6-8.1l-11.2-6.6c-3.4-2-5.8-4-7.1-5.8-1.4-1.8-2.1-3.8-2.1-6,0-2.8,1-5.2,3-7s4.6-2.7,7.8-2.7c3.8,0,7.1,1.4,10,4.2,3,2.7,5.4,6.7,7.2,12h2l-2.2-19.4h-1.7c-.1.9-.4,1.7-.8,2.2-.4.5-.9.7-1.6.7-.5,0-2.3-.5-5.2-1.4-2.9-1-5.7-1.5-8.3-1.5-5.6,0-10.1,1.5-13.6,4.6s-5.2,7.1-5.2,12c0,3.5.9,6.6,2.8,9.2,1.9,2.7,5,5.3,9.3,7.8l10,6.1c3.2,1.9,5.7,3.9,7.2,5.9,1.5,2.1,2.3,4.3,2.3,6.7,0,3.2-1.1,6-3.5,8.2-2.3,2.2-5.2,3.2-8.6,3.2-3.9,0-7.5-1.5-10.9-4.6s-6.3-7.4-8.5-12.9h-2l3.6,20.8h1.6c.2-.8.5-1.4,1-1.8s1.2-.6,2.1-.6c.3,0,2,.4,5.1,1.3,3.1.8,6.1,1.3,9.1,1.3,6.3,0,11.3-1.7,15.1-5s5.6-7.7,5.6-13.3c.1-3.7-.8-6.9-2.7-9.5h0Z"/>
              </g>
              <path class="cls-3" d="m149.25,217.62l-.05,5.18c-.1,0-3.6.1-3.6.1v94.2c0,21.34-2.54,45.32,32.8,44.7v3.4h0s-47.9,13.5-47.9,63.6c0-50-46.9-63.6-46.9-63.6h0v-1.8c29.2,0,29.2-25.4,29.2-44.7v-83.7c-6.4-9.5-15.8-17.5-29.1-17.8h0c13.4-.2,22.8-8.3,29.2-17.8v-90.4c0-19.3,0-44.7-29.2-44.7v-1.8h88.21v1.6c-27.36,0-26.55,28.28-26.21,44.28l-.02,109.2c.06,0,3.49.04,3.58.04h-.01Z"/>
              <g>
                <ellipse class="cls-3" cx="1362.58" cy="210.52" rx="12.9" ry="10.71"/>
                <g id="Ferre_wheel" data-name="Ferre wheel">
                  <g>
                    <path class="cls-3" d="m1362.2,118.4c2.1,62,2.1,124,0,186-2.1-62-2.1-124,0-186Z"/>
                    <path class="cls-3" d="m1331.82,122.62c22.07,57.98,42.16,116.63,60.26,175.97-22.07-57.98-42.16-116.63-60.26-175.97Z"/>
                    <path class="cls-3" d="m1455.2,211.4c-62,2.1-124,2.1-186,0,62-2.1,124-2.1,186,0Z"/>
                    <path class="cls-3" d="m1429.1,276.8c-45.6-42.7-89.7-86.8-132.4-132.4,45.5,42.6,89.7,86.8,132.4,132.4Z"/>
                    <path class="cls-3" d="m1296.6,276.8c42.7-45.6,86.8-89.7,132.4-132.4-42.6,45.6-86.7,89.7-132.4,132.4Z"/>
                    <path class="cls-3" d="m1398.1,123.8c-21.6,58.6-45.1,116.4-70.5,173.5,21.5-58.6,45-116.4,70.5-173.5h0Z"/>
                    <path class="cls-3" d="m1449.6,245.8c-58.6-21.6-116.4-45.1-173.5-70.5,58.6,21.6,116.4,45.1,173.5,70.5Z"/>
                    <path class="cls-3" d="m1276.6,247c56.7-26.2,114.2-50.5,172.5-72.8-56.7,26.2-114.2,50.5-172.5,72.8Z"/>
                  </g>
                  <g>
                    <path class="cls-3" d="m1280.5,244.8c-.1-.3-.3-.6-.4-.9v1.3c.1,0,.3-.1.5-.2,0,0-.1-.1-.1-.2h0Zm181.9-46.2c-.7-6.3-2-12.4-3.8-18.2-2.3-7.5-5.5-14.6-9.4-21.2-.1-.1-.1-.3-.2-.4-2.4-3.9-5-7.7-7.9-11.2,0,0,0-.1-.1-.1-4.4-5.5-9.4-10.5-15-15-.3-.3-.5-.5-.8-.7-5.4-4.3-11.2-8-17.4-11-.3-.1-.6-.3-.8-.4-5.5-2.7-11.3-4.9-17.4-6.5-.3-.1-.5-.2-.8-.3-5.6-1.4-11.4-2.4-17.4-2.8-.3,0-.5-.1-.8,0-2.1-.2-4.3-.3-6.5-.3h-.4c-3.6,0-7.1.2-10.5.6-.3,0-.5,0-.8.1-7.3.8-14.3,2.5-21,4.9-.3.1-.5.2-.8.3-6.1,2.2-11.9,5-17.4,8.3-.3.1-.5.3-.8.5-3.5,2.2-6.9,4.6-10.1,7.1-.3.2-.6.4-.8.7-6.1,5.1-11.6,10.8-16.4,17.2-.1.1-.2.3-.3.4-2.7,3.6-5.2,7.4-7.3,11.5l-.1.1c-3.7,6.8-6.7,14-8.7,21.7-1.6,5.9-2.6,12-3.1,18.2-.2,2.4-.3,4.9-.3,7.3,0,5,.4,9.8,1.1,14.6.8,5,1.9,9.9,3.3,14.6,2.3,7.3,5.3,14.2,9.1,20.7.1.2.2.4.3.5,1.7,2.9,3.6,5.8,5.6,8.5.1.1.2.3.3.4,4.8,6.3,10.3,12.1,16.4,17.1.3.2.5.4.8.7,4.3,3.5,8.9,6.6,13.8,9.3.3.2.5.3.8.5,3.2,1.8,6.6,3.4,10,4.8.3.1.5.3.8.3,2.2.9,4.4,1.7,6.6,2.4.3.1.5.2.8.3.5.1,1,.3,1.6.4.3.1.5.2.8.2,4.9,1.4,9.9,2.4,15.1,3,.3.1.5.1.8.1,3.5.4,7,.6,10.5.6h.4c2.2,0,4.3-.1,6.5-.3h.8c6.1-.4,12.1-1.4,17.8-3,.3,0,.5-.1.8-.2.8-.2,1.6-.4,2.4-.7.3-.1.6-.1.8-.2,2-.6,3.9-1.3,5.8-2,.3-.1.5-.2.8-.3,3.7-1.4,7.3-3.1,10.8-5,.3-.1.5-.3.8-.4,4-2.2,7.8-4.6,11.4-7.3.1-.1.3-.2.5-.3,6.1-4.6,11.6-9.8,16.5-15.6.3-.3.6-.7.8-1,3.9-4.7,7.3-9.8,10.3-15.2,3.7-6.8,6.7-14,8.7-21.7,0-.1.1-.1,0-.2,1.3-4.7,2.2-9.6,2.8-14.6.4-3.6.6-7.3.6-10.9s-.3-7.3-.7-10.9h0Zm-100.3,101.7h-.8c-2.7,0-5.4-.3-8.1-.6-.3,0-.5,0-.8-.1-4.3-.5-8.5-1.4-12.6-2.6-.3,0-.5-.1-.8-.2-1.4-.4-2.8-.8-4.2-1.3-.3-.1-.6-.1-.8-.3-1.3-.5-2.7-1-4-1.5-.2-.1-.4-.1-.6-.3-.07,0-.1-.03-.1-.1h-.1c-.2-.1-.3-.1-.5-.2-.07,0-.13-.03-.2-.1-2.3-.9-4.5-2-6.6-3.1-7.3-3.8-13.9-8.6-19.8-14.2-.3-.2-.6-.5-.8-.8-.4-.4-.8-.8-1.2-1.2l-.2-.2c-.07-.07-.13-.17-.2-.3l-.2-.2c-1.6-1.6-3.2-3.3-4.6-5.1-5.7-6.7-10.4-14.3-13.9-22.5,0-.09-.1-.1-.1-.3h0c0-.1-.1-.2-.1-.3-.1-.3-.3-.6-.4-.9-.3-.7-.6-1.4-.9-2.2-.2-.5-.4-1.1-.6-1.7-.1-.3-.3-.6-.3-.9-3-8.6-4.7-17.9-4.9-27.5h0v-.2h0v-1.7c0-8.9,1.3-17.4,3.7-25.5v-.2c.7-2.2,1.4-4.4,2.2-6.5,0-.07.03-.13.1-.2,0-.1,0-.2.1-.3v-.1c0-.07.03-.13.1-.2.1-.5.3-.9.5-1.4,3.6-8.8,8.5-16.9,14.6-24,1.2-1.4,2.4-2.8,3.7-4.1,0-.1.1-.1.2-.2.1-.1.1-.2.3-.3,0-.1.1-.1.1-.1.7-.8,1.5-1.5,2.2-2.2.3-.3.5-.6.8-.8,5.9-5.6,12.6-10.4,19.9-14.2,1.5-.8,3.1-1.6,4.7-2.3,0-.1.1-.1.1-.1.2-.1.4-.2.5-.3,0-.1.1-.1.1-.1.9-.4,1.9-.9,2.9-1.2.3-.1.5-.2.8-.3,6.7-2.6,13.8-4.5,21.2-5.4.3-.1.5-.1.8-.1,2.7-.4,5.4-.6,8.2-.6h2.6c2.2,0,4.3.1,6.4.3.3,0,.5,0,.8.1,6,.4,11.8,1.5,17.4,3.1.3.1.5.1.8.3,2.4.7,4.8,1.5,7.1,2.4h.1c.2,0,.4.1.7.3h.1c2.7,1,5.3,2.2,7.8,3.5.1,0,.3.1.4.2,7.1,3.6,13.6,8.2,19.5,13.6.3.2.5.5.8.8.5.5,1.1.9,1.6,1.5h0c.1.1.3.3.4.4l.1.1c.7.7,1.4,1.4,2,2.2,7,7.4,12.8,16.1,17,25.6.2.4.4.8.5,1.2h0c0,.1.1.2.1.3v.1c.1.1.1.2.1.4.7,1.6,1.3,3.3,1.9,5,.07.07.1.17.1.3,2,5.8,3.4,12,4.2,18.3v.1c.5,3.5.7,7.1.7,10.8v1.8c0,3.1-.3,6.1-.7,9v.1c-.6,5-1.6,9.9-3,14.6-.9,3.4-2.2,6.6-3.5,9.8,0,.07-.03.1-.1.1s-.1.07-.1.2v.1c-.9,2.2-1.9,4.3-3.1,6.5-.2.5-.5,1.1-.8,1.6-2.8,5.2-6.2,10.1-10,14.6-2,2.4-4.1,4.6-6.3,6.8,0,.1-.1.1-.1.1-.1.1-.2.2-.3.3,0,.1-.1.1-.1.1-1.3,1.3-2.7,2.6-4.2,3.7-.3.3-.5.5-.8.7-4.7,3.9-9.8,7.3-15.3,10.1-2.7,1.5-5.4,2.7-8.2,3.8,0,0-.1.1-.2.1-.2.1-.4.2-.5.2,0,0-.1.1-.1,0,0,.1,0,0,0,0-.2.1-.5.2-.7.3-1,.4-2.1.8-3.2,1.1-.3.1-.5.2-.8.3-1.6.6-3.3,1.1-5,1.5-.3.1-.5.1-.8.2-4.9,1.2-10,2.1-15.2,2.5-.3.1-.5.1-.8.1-2.1.2-4.3.3-6.4.3h-1.7c-.5-.2-.6-.2-.6-.2h0Z"/>
                    <path class="cls-3" d="m1356.3,100.2h11.7c1.8,0,3.2,1.5,3.2,3.2v15.4c0,1.8-1.5,3.2-3.2,3.2h-11.7c-1.8,0-3.2-1.5-3.2-3.2v-15.4c0-1.8,1.4-3.2,3.2-3.2Z"/>
                    <path class="cls-3" d="m1392.8,107.5h11.7c1.8,0,3.2,1.5,3.2,3.2v15.4c0,1.8-1.5,3.2-3.2,3.2h-11.7c-1.8,0-3.2-1.5-3.2-3.2v-15.4c0-1.8,1.4-3.2,3.2-3.2Z"/>
                    <path class="cls-3" d="m1428.28,125.7h11.7c1.8,0,3.2,1.5,3.2,3.2v15.4c0,1.8-1.5,3.2-3.2,3.2h-11.7c-1.8,0-3.2-1.5-3.2-3.2v-15.4c-.1-1.7,1.4-3.2,3.2-3.2Z"/>
                    <path class="cls-3" d="m1450.65,159.52h11.7c1.8,0,3.2,1.5,3.2,3.2v15.4c0,1.8-1.5,3.2-3.2,3.2h-11.7c-1.8,0-3.2-1.5-3.2-3.2v-15.4c-.1-1.7,1.4-3.2,3.2-3.2Z"/>
                    <path class="cls-3" d="m1454.8,198.7h11.7c1.8,0,3.2,1.5,3.2,3.2v15.4c0,1.8-1.5,3.2-3.2,3.2h-11.7c-1.8,0-3.2-1.5-3.2-3.2v-15.4c0-1.8,1.4-3.2,3.2-3.2Z"/>
                    <path class="cls-3" d="m1447.5,235.1h11.7c1.8,0,3.2,1.5,3.2,3.2v15.4c0,1.8-1.5,3.2-3.2,3.2h-11.7c-1.8,0-3.2-1.5-3.2-3.2v-15.4c0-1.7,1.4-3.2,3.2-3.2Z"/>
                    <path class="cls-3" d="m1425.6,268h11.7c1.8,0,3.2,1.5,3.2,3.2v15.4c0,1.8-1.5,3.2-3.2,3.2h-11.7c-1.8,0-3.2-1.5-3.2-3.2v-15.4c0-1.8,1.4-3.2,3.2-3.2Z"/>
                    <path class="cls-3" d="m1396.4,289.8h11.7c1.8,0,3.2,1.5,3.2,3.2v15.4c0,1.8-1.5,3.2-3.2,3.2h-11.7c-1.8,0-3.2-1.5-3.2-3.2v-15.4c0-1.7,1.5-3.2,3.2-3.2Z"/>
                    <path class="cls-3" d="m1356.3,297.1h11.7c1.8,0,3.2,1.5,3.2,3.2v15.4c0,1.8-1.5,3.2-3.2,3.2h-11.7c-1.8,0-3.2-1.5-3.2-3.2v-15.4c0-1.7,1.4-3.2,3.2-3.2Z"/>
                    <path class="cls-3" d="m1319.8,289.8h11.7c1.8,0,3.2,1.5,3.2,3.2v15.4c0,1.8-1.5,3.2-3.2,3.2h-11.7c-1.8,0-3.2-1.5-3.2-3.2v-15.4c0-1.7,1.5-3.2,3.2-3.2Z"/>
                    <path class="cls-3" d="m1287,268h11.7c1.8,0,3.2,1.5,3.2,3.2v15.4c0,1.8-1.5,3.2-3.2,3.2h-11.7c-1.8,0-3.2-1.5-3.2-3.2v-15.4c0-1.8,1.4-3.2,3.2-3.2Z"/>
                    <path class="cls-3" d="m1265.1,238.8h11.7c1.8,0,3.2,1.5,3.2,3.2v15.4c0,1.8-1.5,3.2-3.2,3.2h-11.7c-1.8,0-3.2-1.5-3.2-3.2v-15.4c0-1.8,1.4-3.2,3.2-3.2Z"/>
                    <path class="cls-3" d="m1257.8,202.3h11.7c1.8,0,3.2,1.5,3.2,3.2v15.4c0,1.8-1.5,3.2-3.2,3.2h-11.7c-1.8,0-3.2-1.5-3.2-3.2v-15.4c0-1.7,1.4-3.2,3.2-3.2Z"/>
                    <path class="cls-3" d="m1265.1,162.2h11.7c1.8,0,3.2,1.5,3.2,3.2v15.4c0,1.8-1.5,3.2-3.2,3.2h-11.7c-1.8,0-3.2-1.5-3.2-3.2v-15.4c0-1.8,1.4-3.2,3.2-3.2Z"/>
                    <path class="cls-3" d="m1287,129.3h11.7c1.8,0,3.2,1.5,3.2,3.2v15.4c0,1.8-1.5,3.2-3.2,3.2h-11.7c-1.8,0-3.2-1.5-3.2-3.2v-15.4c0-1.7,1.4-3.2,3.2-3.2Z"/>
                    <path class="cls-3" d="m1316.2,107.5h11.7c1.8,0,3.2,1.5,3.2,3.2v15.4c0,1.8-1.5,3.2-3.2,3.2h-11.7c-1.8,0-3.2-1.5-3.2-3.2v-15.4c0-1.8,1.4-3.2,3.2-3.2Z"/>
                  </g>
                  <rect class="cls-3" x="1292.44" y="261.76" width="101.7" height="10.3" transform="translate(667.89 1458.34) rotate(-71.69)"/>
                  <rect class="cls-3" x="1377.67" y="216.15" width="10.3" height="101.7" transform="translate(-13.87 447.94) rotate(-18.31)"/>
                  <path class="cls-3" d="m1425,185.2c0-.1-.1-.2-.1-.3-.1-.4-.3-.7-.4-1.1,0-.1,0-.2-.1-.3-3-7.7-7.4-14.6-12.8-20.6-.1-.1-.3-.3-.4-.4-.2-.2-.4-.4-.6-.6-.1-.1-.3-.3-.4-.4-5.8-6.1-12.8-11.1-20.6-14.5-.3-.1-.5-.3-.7-.3-.2-.1-.4-.2-.6-.3s-.5-.2-.7-.3c-7-2.9-14.7-4.6-22.7-4.9-.6,0-1.3-.1-1.9-.1h-4.1c-7.9.4-15.4,2.2-22.3,5.1-.2.1-.5.2-.7.3s-.4.2-.6.3c-.3.1-.5.2-.7.3-7.5,3.4-14.2,8.2-19.9,14-.1.1-.3.3-.4.4-.2.2-.4.4-.5.6-.2.1-.3.3-.4.5-5.7,6.2-10.2,13.5-13.3,21.5,0,.1-.1.2-.1.3-.1.4-.3.7-.4,1.1,0,.1-.1.2-.1.3-2.4,6.9-3.7,14.2-3.7,21.9,0,.9,0,1.9.1,2.9,0,.5,0,1,.1,1.5.5,8.2,2.6,16,5.8,23.1,0,.1.1.2.1.3.1.4.3.8.5,1.1,0,.1.1.2.1.3,3.4,7,8,13.3,13.5,18.6l.4.4c.3.3.5.5.7.7.1.2.3.3.4.4,5.7,5.2,12.4,9.4,19.7,12.4h0c.3.1.5.2.7.3h0c.3.1.5.2.8.3.3.1.5.2.7.3,2.5.9,5,1.6,7.6,2.2.3.1.5.1.8.2,3.6.8,7.3,1.3,11,1.5h4.3c.6,0,1.2,0,1.8-.1,4.6-.1,9.2-.8,13.5-1.9.3-.1.5-.1.8-.2,2.4-.6,4.8-1.4,7.1-2.3.2-.1.5-.2.7-.3.3-.1.5-.2.8-.3.1-.1.3-.1.4-.1.1-.1.2-.1.3-.2.1,0,.3-.1.4-.2,6.8-3,13-7,18.4-12,.1-.1.3-.3.4-.4.3-.2.5-.4.7-.7.1-.1.3-.3.4-.4,5.7-5.5,10.4-12.1,13.8-19.3.1-.1.1-.2.1-.3.2-.4.4-.8.5-1.1.1-.1.1-.2.1-.3,3-6.9,4.9-14.3,5.4-22.2h0c0-.5.1-1,.1-1.5h0c0-.9.1-1.9.1-2.9,0-7.7-1.4-15.3-3.9-22.3h0Zm-60.3,87.1h-5.7c-3.6-.2-7.1-.7-10.5-1.4-.3,0-.5-.1-.8-.2-2.6-.6-5-1.3-7.4-2.2-.3-.1-.5-.2-.8-.3-.3-.1-.6-.2-.8-.3h-.1c-.2-.1-.4-.1-.7-.3h-.1c-7-2.8-13.3-6.9-18.8-11.9-.1-.1-.3-.3-.4-.4-.3-.2-.5-.5-.8-.7l-.4-.4c-5.3-5.1-9.7-11.2-13-17.9-.1-.1-.1-.2-.1-.3-.2-.4-.4-.8-.5-1.2-.1-.1-.1-.2-.2-.3-3.1-6.9-5.1-14.3-5.6-22.2,0-.5-.1-1.1-.1-1.6,0-.9-.1-1.9-.1-2.8,0-7.4,1.2-14.4,3.6-21,0-.1,0-.2.1-.3.1-.4.3-.8.4-1.2,0-.1,0-.2.1-.3,2.9-7.7,7.3-14.7,12.7-20.7.1-.2.3-.3.4-.5.2-.2.4-.4.6-.7l.4-.4c5.5-5.6,12-10.2,19.2-13.5.3-.1.5-.3.7-.4.2-.1.4-.2.7-.3.3-.1.5-.2.7-.3,6.7-2.8,14-4.5,21.6-4.9h4.1c.6,0,1.2,0,1.8.1,7.7.3,15.1,1.9,22,4.7.3.1.5.2.7.3s.4.2.7.3c.3.1.5.2.7.3,7.5,3.4,14.3,8.1,19.9,14,.1.1.3.3.4.4.3.2.4.4.7.7.1.1.3.3.4.4,5.2,5.8,9.4,12.5,12.3,19.8.1.1.1.2.1.3.2.4.3.8.4,1.2.1.1.1.2.1.3,2.4,6.8,3.8,14.1,3.8,21.7,0,.9,0,1.9-.1,2.8h0c0,.5,0,1-.1,1.5h0c-.5,7.5-2.3,14.7-5.3,21.3,0,.1,0,.2-.1.3-.2.4-.4.8-.5,1.2,0,.1-.1.2-.1.3-3.3,7-7.8,13.3-13.3,18.6-.1.2-.3.3-.4.4-.3.3-.5.5-.8.8-.1.1-.3.3-.4.4-5.1,4.7-11.1,8.6-17.5,11.4-.1.1-.3.1-.5.2-.1,0-.2.1-.3.1-.1.1-.3.1-.5.2-.3.1-.6.3-.9.4s-.5.2-.7.3c-2.2.9-4.5,1.6-6.9,2.2-.3.1-.5.1-.8.2-4.4,1.1-8.8,1.7-13.2,1.8h0Z"/>
                </g>
              </g>
              <path class="cls-3" d="m1107.8,296.2l-1.3-.5c-11.1-4.6-25.4-14-27.1-31.3-1.6,17-22.2,31.08-31.66,30.95,0,0-66.81-.65-69.74-.65,32.6-47.7,64.6-93.6,97.4-139.7l-1.9-3.8h-114.9l-.2.8-1.6,5.7-5.7,20.1v.1h0l.1-.1,3-5c3.6-6.1,9.6-10.2,16.5-11.4,6.1-.7,16.2-.7,30.1-.7h46.3c-33.3,48-66.2,95.1-99.1,140.5l2.2,3.8h98.05c8.95.4,29.55,14.2,31.15,30.3.8-8.3,4.9-16,11.2-21.4,6-5.2,13-9.2,20.5-11.6,2.8-1,5.6-1.8,8.5-2.4-4.1-1-11.8-3.7-11.8-3.7h0Zm-156.5-118.8c.6-1.6,1.2-3.1,1.9-4.4l-1.9,4.4Zm128.1,141.9c0-6.22-14.21-19.04-22.2-19.14,7.98.1,22.1-13.91,22.2-20.06-.1,6.32,16.74,19.6,25.04,19.6-8.3,0-25.04,13.34-25.04,19.6Z"/>
              <path class="cls-3" d="m785.9,221.2c0,27.7-11.3,50.2-29.5,63.9-18,13.5-40.9,18.7-70,18.7h-55.3v-6.6c14.43-2.01,30.3-20.7,30.3-37.4,0,16.7,10.72,28.79,22.1,33.2,4.7,1.6,9.7,2.3,14.8,2.1,42.6,0,64.3-29.1,64.3-70.5,0-25.8-8.8-45.4-27.4-56.8-10.9-6.9-24.6-9.4-40.5-9.4-4.96.23-9.69-.28-13.6,1.3-10.72,4.89-19.7,15.08-19.7,30.3-.1-15.22-14.81-32.45-30.3-33.67v-6.23h65.7c33.3,0,54.4,6.6,69,20.6,13.4,13.2,20.7,31.6,20.1,50.5h0Z"/>
              <path class="cls-3" d="m684.3,224.3c-2.57,0-22.95,6.25-22.84,33.3-.13-27.13-21.64-33.3-23.16-33.3,1.53,0,23.03-6.31,23-33.3-.03,27.07,20.43,33.3,23,33.3Z"/>
              <g>
                <path class="cls-3" d="m429.1,266.7c-1.4,6.1-7.8,30.5-10.2,37.6h-114.9v-6.6c22-1.7,23.7-3.8,23.7-23.2v-33.4c-2.2-11.5-17.7-14.3-17.7-14.3,0,0,15.5-2.8,17.7-14.3v-31.6c0-21-2.6-22.2-20.4-23.9v-6.6s103.8-.2,106.7-.5c.2,5.9,1.2,23.7,2.1,36.2l-7.1,1.2c-1.6-6.3-4-12.3-7.1-18-3.8-7.8-9.2-9.5-23.4-9.5h-22.5c-7.3,0-7.8.7-7.8,7.6v44.3c1.9,12.1,17.8,15,17.8,15,0,0-15.9,2.9-17.8,15v34.8c0,16.6,5.2,18,17,18.2h22c14.4,0,16.8-2.1,22-8.3,5.1-6.7,9.4-14,12.8-21.7l7.1,2Z"/>
                <path class="cls-3" d="m411.3,226.69s-19.6,3.6-21,18.6v-.4c-1.5-14.7-20.9-18.2-20.9-18.2,0,0,19.4-3.5,20.9-18.2v-.4c1.5,15,21,18.6,21,18.6h0Z"/>
              </g>
              <g>
                <path class="cls-3" d="m928.6,266.7c-1.4,6.1-7.8,30.5-10.2,37.6h-114.9v-6.6c22-1.7,23.6-3.8,23.6-23.2v-33.6c-2.3-11.3-17.6-14.1-17.6-14.1,0,0,15.3-2.8,17.6-14.1v-31.7c0-21-2.6-22.2-20.3-23.9v-6.6h72.4c22.2,0,31.4-.2,34.3-.5.2,5.9,1.2,23.7,2.1,36.2l-7.1,1.2c-1.6-6.3-4-12.3-7.1-18-3.8-7.8-9.2-9.5-23.4-9.5h-22.5c-7.3,0-7.8.7-7.8,7.6v44.3c1.9,12.1,17.8,15,17.8,15,0,0-15.9,2.9-17.8,15v34.8c0,16.6,5.2,18,17,18.2h22c14.4,0,16.8-2.1,22-8.3,5.1-6.7,9.4-14,12.8-21.7l7.1,1.9h0Z"/>
                <path class="cls-3" d="m910.8,226.9s-19.6,3.6-21,18.6v-.4c-1.5-14.7-20.9-18.2-20.9-18.2,0,0,19.4-3.5,20.9-18.2v-.4c1.5,15,21,18.6,21,18.6h0Z"/>
              </g>
              <path class="cls-3" d="m605.8,155.9c-15.1,1.7-20.1,4-20.8,14.9-.2,7.6-.7,17.5-.7,39.5v94.8h-9l-101.3-123.7v59.1c0,21.3.7,31.9,1.2,38.8.5,12.1,6.4,15.6,23.4,17v6.6h-57.5v-6.6c14.7-1.2,20.3-4.7,21.3-16.3.7-7.6,1.2-18.2,1.2-39.7v-60.3c.6-5.6-1.1-11.3-4.7-15.6-4.5-5.9-9.5-7.3-21-8.5v-6.6h35.5l100.3,119v-57.9c0-22-.5-32.2-1.2-39.3-.7-10.6-6.1-14-25.1-15.1v-6.6h58.4v6.5h0Z"/>
              <path class="cls-3" d="m1247.1,155.7c-15.8,2.1-19.9,4.3-28.4,25.5-6.4,15.6-39,94.8-50.6,124.2h-7.8c-13.9-38.1-34.3-93.4-47.8-128.4-6.6-17.5-10.6-19.9-25.1-21.3v-6.6h60.1v6.6c-17.5,1.9-18.5,4.7-15.1,13.5,5.9,17.3,23.2,64.3,38.1,103.6,12.5-30.5,28.1-69.1,39.3-98.8,5.2-13.7,2.4-15.8-17-18.2v-6.6h54.4l-.1,6.5h0Z"/>
              <path class="cls-3" d="m1636.7,148c-15.1.9-20.7,4.7-21.2,15.6-.2,5.4-.7,15.4-.7,37.1v23.8c0,24.2-2.8,42.7-16.6,57.2-11.2,11.6-27.3,15.2-43.7,15.2-13.8,0-28.5-2.8-38.9-10.9-14.2-10.9-21.1-27.3-21.1-55.1v-58.6c0-21.3-2-22.7-21.9-24.4v-6.6h62v6.6c-19.9,1.2-21.9,3.1-21.9,24.4v56.9c0,35.4,16.7,54.8,45.8,54.8,34.4,0,45.4-21.3,45.4-61.6v-21.7c0-21.8-.7-30.7-1.2-37.1-.7-10.6-6.3-14.7-24.3-15.6v-6.6h58.4v6.6h-.1Z"/>
              <path class="cls-3" d="m1725.8,177.3c-4-15.6-10.6-31-32.9-31-18.5,0-24.8,13.5-24.8,25.8,0,16.3,10.4,24.6,30,34.8,28.4,14.7,40.7,25.5,40.7,48,0,24.8-21.5,43.7-52,43.7-12.4-.3-24.7-2.9-36.2-7.8-2.8-11.7-4.9-23.5-6.4-35.5l7.3-1.9c4.7,15.8,15.1,36.4,39.7,36.4,14.3.8,26.6-10.2,27.4-24.5.1-.9.1-1.8,0-2.7,0-18.2-9.7-25.5-30.5-36.9-24.8-13.5-38.8-24.8-38.8-46.8s17.5-40.9,48.7-40.9c10.5.4,21,1.9,31.2,4.5.9,8.5,1.9,18,3.8,33.3l-7.2,1.5h0Z"/>
              <g>
                <g id="Ferre_wheel-2" data-name="Ferre wheel-2">
                  <path class="cls-3" d="m1454.4,211.4c-62,2.1-124,2.1-186,0,61.9-2.1,123.9-2.1,186,0Z"/>
                  <path class="cls-3" d="m1319,289.8h11.7c1.8,0,3.2,1.5,3.2,3.2v15.4c0,1.8-1.5,3.2-3.2,3.2h-11.7c-1.8,0-3.2-1.5-3.2-3.2v-15.4c-.1-1.7,1.4-3.2,3.2-3.2Z"/>
                  <rect class="cls-3" x="1376.64" y="216.23" width="10.3" height="101.69" transform="translate(-13.94 447.62) rotate(-18.31)"/>
                </g>
                <path class="cls-3" d="m1326,323h-20.9c-4.3,0-7.8-3.5-7.8-7.8s3.5-7.8,7.8-7.8h20.9c4.3,0,7.8,3.5,7.8,7.8s-3.5,7.8-7.8,7.8Z"/>
                <path class="cls-3" d="m1421,322.3h-20.9c-4.3,0-7.8-3.5-7.8-7.8s3.5-7.8,7.8-7.8h20.9c4.3,0,7.8,3.5,7.8,7.8s-3.5,7.8-7.8,7.8Z"/>
              </g>
            </g>
          </g>
        </g>
        <path class="cls-3" d="m2032.74,82.35c0-.1-.1-.3-.2-.4-.5-.8-.9-1.7-1.5-2.6-.5-.8-1.1-1.7-1.6-2.4,0-.1-.1-.2-.2-.3-.1-.1-.1-.2-.2-.3-.1-.2-.3-.4-.4-.5-.3-.4-.6-.8-.9-1.2-.6-.8-1.2-1.5-1.9-2.2-.1-.1-.2-.2-.3-.3-27-29.1-78.7,1.3-104,37.1-27.8,39.2-76.5,107.7-76.5,107.7l-67.8-96.6c1.3-5.4,12.9-5.5,12.9-5.5v-1.6h-52.5v1.5c6.2-.2,17.9.6,31,18.8,13.2,18.2,67.7,95.7,67.7,95.7,0,0-22.9,34.1-52.8,77-29.8,42.9-35.9,46.8-67,56-6.4,1.9-13.3,2.7-20.3,2.7-1.7,0-3.4-.1-5.1-.1-1.7-.1-3.4-.2-5-.3-.8-.1-1.7-.2-2.6-.3-18.2-2-34.7-7.7-40.5-9.8-1.4-.5-2.2-.8-2.2-.8-.6-.3-1.2-.5-1.8-.8.4.7,1,1.3,1.7,2,.1.1.2.2.3.3,21.1,17.3,47.5,26.7,74.7,26.8h1.5c26.2,0,56.3-20.4,71.3-41.9,15-21.6,62.1-88.5,62.1-88.5l69.1,97.1c-3.5,5.9-12.7,5.1-12.7,5.1v1.5h57v-1.5c-27.5,0-37.9-20.8-55.5-45.7-17.7-24.9-48.6-70.4-48.6-70.4,0,0,33.1-47.5,79.6-115,29.4-42.7,57.7-47.4,74.6-45.1h.3c.5.1.9.1,1.4.3,2,.3,3.9.8,5.5,1.3.4.1.9.2,1.3.4.5.1,1,.3,1.4.5.7.2,1.3.4,1.8.7.8.3,1.6.7,2.3,1.1.1.1.3.1.4.2,3,1.7,5,3.9,6.1,5.5-.3-1.9-1-3.5-1.9-5.2h0Zm-237.6,207.3c3.5-5.2,7.5-11,11.9-17.3-4.2,6.3-8.2,12-11.9,17.3Z"/>
      </g>
    </mask>
    <linearGradient id="linear-gradient" x1="31.28" y1="-18.61" x2="1996.54" y2="508.18" gradientUnits="userSpaceOnUse">
      <stop offset="0" stop-color="#f5dba5"/>
      <stop offset="1" stop-color="#efc36a"/>
    </linearGradient>
  </defs>
  <g class="cls-1">
    <rect class="cls-2" width="2034.64" height="491.4"/>
  </g>
</svg>