<svg width="171" height="30" viewBox="0 0 171 30" fill="none" xmlns="http://www.w3.org/2000/svg">
<path d="M0.0032813 0.999998H6.52328C8.78995 0.999998 10.4433 1.53333 11.4833 2.6C12.5233 3.64 13.0433 5.25333 13.0433 7.44V9.16C13.0433 12.0667 12.0833 13.9067 10.1633 14.68V14.76C11.2299 15.08 11.9766 15.7333 12.4033 16.72C12.8566 17.7067 13.0833 19.0267 13.0833 20.68V25.6C13.0833 26.4 13.1099 27.0533 13.1633 27.56C13.2166 28.04 13.3499 28.52 13.5633 29H9.08328C8.92328 28.5467 8.81662 28.12 8.76328 27.72C8.70995 27.32 8.68328 26.6 8.68328 25.56V20.44C8.68328 19.16 8.46995 18.2667 8.04328 17.76C7.64328 17.2533 6.93662 17 5.92328 17H4.40328V29H0.0032813V0.999998ZM6.00328 13C6.88328 13 7.53661 12.7733 7.96328 12.32C8.41661 11.8667 8.64328 11.1067 8.64328 10.04V7.88C8.64328 6.86667 8.45661 6.13333 8.08328 5.68C7.73661 5.22667 7.17661 5 6.40328 5H4.40328V13H6.00328ZM18.1361 0.999998H30.1361V5H22.5361V12.4H28.5761V16.4H22.5361V25H30.1361V29H18.1361V0.999998ZM34.6673 0.999998H40.1873L44.4673 17.76H44.5473V0.999998H48.4673V29H43.9473L38.6673 8.56H38.5873V29H34.6673V0.999998ZM53.7377 0.999998H60.4577C62.6443 0.999998 64.2843 1.58667 65.3777 2.76C66.471 3.93333 67.0177 5.65333 67.0177 7.92V22.08C67.0177 24.3467 66.471 26.0667 65.3777 27.24C64.2843 28.4133 62.6443 29 60.4577 29H53.7377V0.999998ZM60.3777 25C61.0977 25 61.6443 24.7867 62.0177 24.36C62.4177 23.9333 62.6177 23.24 62.6177 22.28V7.72C62.6177 6.76 62.4177 6.06667 62.0177 5.64C61.6443 5.21333 61.0977 5 60.3777 5H58.1377V25H60.3777ZM71.9877 0.999998H83.9877V5H76.3877V12.4H82.4277V16.4H76.3877V25H83.9877V29H71.9877V0.999998ZM87.717 25.08L95.877 5H88.117V0.999998H100.597V4.92L92.437 25H100.597V29H87.717V25.08ZM103.929 0.999998H108.369L111.249 22.72H111.329L114.209 0.999998H118.249L114.009 29H108.169L103.929 0.999998ZM128.645 29.4C126.485 29.4 124.831 28.7867 123.685 27.56C122.538 26.3333 121.965 24.6 121.965 22.36V7.64C121.965 5.4 122.538 3.66667 123.685 2.44C124.831 1.21333 126.485 0.599998 128.645 0.599998C130.805 0.599998 132.458 1.21333 133.605 2.44C134.751 3.66667 135.325 5.4 135.325 7.64V22.36C135.325 24.6 134.751 26.3333 133.605 27.56C132.458 28.7867 130.805 29.4 128.645 29.4ZM128.645 25.4C130.165 25.4 130.925 24.48 130.925 22.64V7.36C130.925 5.52 130.165 4.6 128.645 4.6C127.125 4.6 126.365 5.52 126.365 7.36V22.64C126.365 24.48 127.125 25.4 128.645 25.4ZM146.7 29.4C144.567 29.4 142.94 28.8 141.82 27.6C140.7 26.3733 140.14 24.6267 140.14 22.36V0.999998H144.54V22.68C144.54 23.64 144.727 24.3333 145.1 24.76C145.5 25.1867 146.06 25.4 146.78 25.4C147.5 25.4 148.047 25.1867 148.42 24.76C148.82 24.3333 149.02 23.64 149.02 22.68V0.999998H153.26V22.36C153.26 24.6267 152.7 26.3733 151.58 27.6C150.46 28.8 148.833 29.4 146.7 29.4ZM164.114 29.4C161.981 29.4 160.367 28.8 159.274 27.6C158.181 26.3733 157.634 24.6267 157.634 22.36V20.76H161.794V22.68C161.794 24.4933 162.554 25.4 164.074 25.4C164.821 25.4 165.381 25.1867 165.754 24.76C166.154 24.3067 166.354 23.5867 166.354 22.6C166.354 21.4267 166.087 20.4 165.554 19.52C165.021 18.6133 164.034 17.5333 162.594 16.28C160.781 14.68 159.514 13.24 158.794 11.96C158.074 10.6533 157.714 9.18667 157.714 7.56C157.714 5.34667 158.274 3.64 159.394 2.44C160.514 1.21333 162.141 0.599998 164.274 0.599998C166.381 0.599998 167.967 1.21333 169.034 2.44C170.127 3.64 170.674 5.37333 170.674 7.64V8.8H166.514V7.36C166.514 6.4 166.327 5.70667 165.954 5.28C165.581 4.82667 165.034 4.6 164.314 4.6C162.847 4.6 162.114 5.49333 162.114 7.28C162.114 8.29333 162.381 9.24 162.914 10.12C163.474 11 164.474 12.0667 165.914 13.32C167.754 14.92 169.021 16.3733 169.714 17.68C170.407 18.9867 170.754 20.52 170.754 22.28C170.754 24.5733 170.181 26.3333 169.034 27.56C167.914 28.7867 166.274 29.4 164.114 29.4Z" fill="#EFC36A"/>
<path d="M0.00328064 0.999998V0.799998H-0.196718V0.999998H0.00328064ZM11.4833 2.6L11.3401 2.73963L11.3419 2.74142L11.4833 2.6ZM10.1633 14.68L10.0886 14.4945L9.96328 14.5449V14.68H10.1633ZM10.1633 14.76H9.96328V14.9088L10.1058 14.9516L10.1633 14.76ZM12.4033 16.72L12.2197 16.7994L12.2215 16.8035L12.4033 16.72ZM13.1633 27.56L12.9644 27.5809L12.9645 27.5821L13.1633 27.56ZM13.5633 29V29.2H13.871L13.746 28.9188L13.5633 29ZM9.08328 29L8.89468 29.0666L8.94178 29.2H9.08328V29ZM8.04328 17.76L7.88623 17.884L7.8903 17.8888L8.04328 17.76ZM4.40328 17V16.8H4.20328V17H4.40328ZM4.40328 29V29.2H4.60328V29H4.40328ZM0.00328064 29H-0.196718V29.2H0.00328064V29ZM7.96328 12.32L7.82179 12.1785L7.81764 12.1829L7.96328 12.32ZM8.08328 5.68L7.92431 5.80157L7.9289 5.80714L8.08328 5.68ZM4.40328 5V4.8H4.20328V5H4.40328ZM4.40328 13H4.20328V13.2H4.40328V13ZM0.00328064 1.2H6.52328V0.799998H0.00328064V1.2ZM6.52328 1.2C8.76376 1.2 10.3535 1.7277 11.3401 2.73962L11.6265 2.46038C10.5331 1.33896 8.81613 0.799998 6.52328 0.799998V1.2ZM11.3419 2.74142C12.3295 3.72903 12.8433 5.28077 12.8433 7.44H13.2433C13.2433 5.22589 12.7171 3.55097 11.6247 2.45858L11.3419 2.74142ZM12.8433 7.44V9.16H13.2433V7.44H12.8433ZM12.8433 9.16C12.8433 10.5933 12.6063 11.7452 12.146 12.6275C11.6879 13.5054 11.0042 14.1257 10.0886 14.4945L10.238 14.8655C11.2423 14.461 11.9986 13.7746 12.5006 12.8125C13.0003 11.8548 13.2433 10.6334 13.2433 9.16H12.8433ZM9.96328 14.68V14.76H10.3633V14.68H9.96328ZM10.1058 14.9516C11.1183 15.2553 11.8174 15.8691 12.2197 16.7994L12.5869 16.6406C12.1358 15.5976 11.3416 14.9047 10.2208 14.5684L10.1058 14.9516ZM12.2215 16.8035C12.6582 17.7539 12.8833 19.0419 12.8833 20.68H13.2833C13.2833 19.0115 13.055 17.6594 12.585 16.6365L12.2215 16.8035ZM12.8833 20.68V25.6H13.2833V20.68H12.8833ZM12.8833 25.6C12.8833 26.4035 12.91 27.0646 12.9644 27.5809L13.3622 27.5391C13.3099 27.0421 13.2833 26.3965 13.2833 25.6H12.8833ZM12.9645 27.5821C13.0203 28.0842 13.1596 28.5841 13.3805 29.0812L13.746 28.9188C13.5403 28.4559 13.4129 27.9958 13.3621 27.5379L12.9645 27.5821ZM13.5633 28.8H9.08328V29.2H13.5633V28.8ZM9.27188 28.9334C9.11563 28.4907 9.01273 28.0776 8.96153 27.6936L8.56504 27.7464C8.6205 28.1624 8.73093 28.6026 8.89468 29.0666L9.27188 28.9334ZM8.96153 27.6936C8.91017 27.3084 8.88328 26.6007 8.88328 25.56H8.48328C8.48328 26.5993 8.50973 27.3316 8.56504 27.7464L8.96153 27.6936ZM8.88328 25.56V20.44H8.48328V25.56H8.88328ZM8.88328 20.44C8.88328 19.1508 8.67104 18.195 8.19626 17.6312L7.8903 17.8888C8.26886 18.3384 8.48328 19.1692 8.48328 20.44H8.88328ZM8.20026 17.6361C7.74488 17.0593 6.96267 16.8 5.92328 16.8V17.2C6.91056 17.2 7.54168 17.4474 7.8863 17.8839L8.20026 17.6361ZM5.92328 16.8H4.40328V17.2H5.92328V16.8ZM4.20328 17V29H4.60328V17H4.20328ZM4.40328 28.8H0.00328064V29.2H4.40328V28.8ZM0.203281 29V0.999998H-0.196718V29H0.203281ZM6.00328 13.2C6.91514 13.2 7.63102 12.9648 8.10892 12.4571L7.81764 12.1829C7.44221 12.5818 6.85142 12.8 6.00328 12.8V13.2ZM8.1047 12.4614C8.6139 11.9522 8.84328 11.1264 8.84328 10.04H8.44328C8.44328 11.0869 8.21933 11.7811 7.82186 12.1786L8.1047 12.4614ZM8.84328 10.04V7.88H8.44328V10.04H8.84328ZM8.84328 7.88C8.84328 6.85079 8.65534 6.06003 8.23767 5.55286L7.9289 5.80714C8.25789 6.20664 8.44328 6.88254 8.44328 7.88H8.84328ZM8.24215 5.55851C7.84523 5.03946 7.21514 4.8 6.40328 4.8V5.2C7.13809 5.2 7.628 5.41387 7.92441 5.80149L8.24215 5.55851ZM6.40328 4.8H4.40328V5.2H6.40328V4.8ZM4.20328 5V13H4.60328V5H4.20328ZM4.40328 13.2H6.00328V12.8H4.40328V13.2ZM18.1361 0.999998V0.799998H17.9361V0.999998H18.1361ZM30.1361 0.999998H30.3361V0.799998H30.1361V0.999998ZM30.1361 5V5.2H30.3361V5H30.1361ZM22.5361 5V4.8H22.3361V5H22.5361ZM22.5361 12.4H22.3361V12.6H22.5361V12.4ZM28.5761 12.4H28.7761V12.2H28.5761V12.4ZM28.5761 16.4V16.6H28.7761V16.4H28.5761ZM22.5361 16.4V16.2H22.3361V16.4H22.5361ZM22.5361 25H22.3361V25.2H22.5361V25ZM30.1361 25H30.3361V24.8H30.1361V25ZM30.1361 29V29.2H30.3361V29H30.1361ZM18.1361 29H17.9361V29.2H18.1361V29ZM18.1361 1.2H30.1361V0.799998H18.1361V1.2ZM29.9361 0.999998V5H30.3361V0.999998H29.9361ZM30.1361 4.8H22.5361V5.2H30.1361V4.8ZM22.3361 5V12.4H22.7361V5H22.3361ZM22.5361 12.6H28.5761V12.2H22.5361V12.6ZM28.3761 12.4V16.4H28.7761V12.4H28.3761ZM28.5761 16.2H22.5361V16.6H28.5761V16.2ZM22.3361 16.4V25H22.7361V16.4H22.3361ZM22.5361 25.2H30.1361V24.8H22.5361V25.2ZM29.9361 25V29H30.3361V25H29.9361ZM30.1361 28.8H18.1361V29.2H30.1361V28.8ZM18.3361 29V0.999998H17.9361V29H18.3361ZM34.6673 0.999998V0.799998H34.4673V0.999998H34.6673ZM40.1873 0.999998L40.3811 0.950512L40.3427 0.799998H40.1873V0.999998ZM44.4673 17.76L44.2736 17.8095L44.312 17.96H44.4673V17.76ZM44.5473 17.76V17.96H44.7473V17.76H44.5473ZM44.5473 0.999998V0.799998H44.3473V0.999998H44.5473ZM48.4673 0.999998H48.6673V0.799998H48.4673V0.999998ZM48.4673 29V29.2H48.6673V29H48.4673ZM43.9473 29L43.7537 29.05L43.7924 29.2H43.9473V29ZM38.6673 8.56L38.861 8.50998L38.8222 8.36H38.6673V8.56ZM38.5873 8.56V8.36H38.3873V8.56H38.5873ZM38.5873 29V29.2H38.7873V29H38.5873ZM34.6673 29H34.4673V29.2H34.6673V29ZM34.6673 1.2H40.1873V0.799998H34.6673V1.2ZM39.9936 1.04948L44.2736 17.8095L44.6611 17.7105L40.3811 0.950512L39.9936 1.04948ZM44.4673 17.96H44.5473V17.56H44.4673V17.96ZM44.7473 17.76V0.999998H44.3473V17.76H44.7473ZM44.5473 1.2H48.4673V0.799998H44.5473V1.2ZM48.2673 0.999998V29H48.6673V0.999998H48.2673ZM48.4673 28.8H43.9473V29.2H48.4673V28.8ZM44.141 28.95L38.861 8.50998L38.4737 8.61002L43.7537 29.05L44.141 28.95ZM38.6673 8.36H38.5873V8.76H38.6673V8.36ZM38.3873 8.56V29H38.7873V8.56H38.3873ZM38.5873 28.8H34.6673V29.2H38.5873V28.8ZM34.8673 29V0.999998H34.4673V29H34.8673ZM53.7377 0.999998V0.799998H53.5377V0.999998H53.7377ZM65.3777 2.76L65.2313 2.89634L65.3777 2.76ZM53.7377 29H53.5377V29.2H53.7377V29ZM62.0177 24.36L61.8717 24.2231L61.8671 24.2283L62.0177 24.36ZM62.0177 5.64L61.8671 5.77178L61.8717 5.77679L62.0177 5.64ZM58.1377 5V4.8H57.9377V5H58.1377ZM58.1377 25H57.9377V25.2H58.1377V25ZM53.7377 1.2H60.4577V0.799998H53.7377V1.2ZM60.4577 1.2C62.6097 1.2 64.188 1.77672 65.2313 2.89634L65.524 2.62365C64.3806 1.39661 62.6789 0.799998 60.4577 0.799998V1.2ZM65.2313 2.89634C66.2782 4.01976 66.8177 5.683 66.8177 7.92H67.2177C67.2177 5.62366 66.6638 3.84691 65.524 2.62365L65.2313 2.89634ZM66.8177 7.92V22.08H67.2177V7.92H66.8177ZM66.8177 22.08C66.8177 24.317 66.2782 25.9802 65.2313 27.1037L65.524 27.3763C66.6638 26.1531 67.2177 24.3763 67.2177 22.08H66.8177ZM65.2313 27.1037C64.188 28.2233 62.6097 28.8 60.4577 28.8V29.2C62.6789 29.2 64.3806 28.6034 65.524 27.3763L65.2313 27.1037ZM60.4577 28.8H53.7377V29.2H60.4577V28.8ZM53.9377 29V0.999998H53.5377V29H53.9377ZM60.3777 25.2C61.1386 25.2 61.7471 24.9729 62.1682 24.4917L61.8671 24.2283C61.5416 24.6004 61.0567 24.8 60.3777 24.8V25.2ZM62.1636 24.4968C62.6148 24.0155 62.8177 23.2601 62.8177 22.28H62.4177C62.4177 23.2199 62.2205 23.8512 61.8717 24.2232L62.1636 24.4968ZM62.8177 22.28V7.72H62.4177V22.28H62.8177ZM62.8177 7.72C62.8177 6.73992 62.6148 5.98452 62.1636 5.50321L61.8717 5.77679C62.2205 6.14881 62.4177 6.78008 62.4177 7.72H62.8177ZM62.1682 5.5083C61.7471 5.02706 61.1386 4.8 60.3777 4.8V5.2C61.0567 5.2 61.5416 5.39961 61.8671 5.7717L62.1682 5.5083ZM60.3777 4.8H58.1377V5.2H60.3777V4.8ZM57.9377 5V25H58.3377V5H57.9377ZM58.1377 25.2H60.3777V24.8H58.1377V25.2ZM71.9877 0.999998V0.799998H71.7877V0.999998H71.9877ZM83.9877 0.999998H84.1877V0.799998H83.9877V0.999998ZM83.9877 5V5.2H84.1877V5H83.9877ZM76.3877 5V4.8H76.1877V5H76.3877ZM76.3877 12.4H76.1877V12.6H76.3877V12.4ZM82.4277 12.4H82.6277V12.2H82.4277V12.4ZM82.4277 16.4V16.6H82.6277V16.4H82.4277ZM76.3877 16.4V16.2H76.1877V16.4H76.3877ZM76.3877 25H76.1877V25.2H76.3877V25ZM83.9877 25H84.1877V24.8H83.9877V25ZM83.9877 29V29.2H84.1877V29H83.9877ZM71.9877 29H71.7877V29.2H71.9877V29ZM71.9877 1.2H83.9877V0.799998H71.9877V1.2ZM83.7877 0.999998V5H84.1877V0.999998H83.7877ZM83.9877 4.8H76.3877V5.2H83.9877V4.8ZM76.1877 5V12.4H76.5877V5H76.1877ZM76.3877 12.6H82.4277V12.2H76.3877V12.6ZM82.2277 12.4V16.4H82.6277V12.4H82.2277ZM82.4277 16.2H76.3877V16.6H82.4277V16.2ZM76.1877 16.4V25H76.5877V16.4H76.1877ZM76.3877 25.2H83.9877V24.8H76.3877V25.2ZM83.7877 25V29H84.1877V25H83.7877ZM83.9877 28.8H71.9877V29.2H83.9877V28.8ZM72.1877 29V0.999998H71.7877V29H72.1877ZM87.717 25.08L87.5317 25.0047L87.517 25.0409V25.08H87.717ZM95.877 5L96.0623 5.07529L96.1742 4.8H95.877V5ZM88.117 5H87.917V5.2H88.117V5ZM88.117 0.999998V0.799998H87.917V0.999998H88.117ZM100.597 0.999998H100.797V0.799998H100.597V0.999998ZM100.597 4.92L100.782 4.99529L100.797 4.95908V4.92H100.597ZM92.437 25L92.2517 24.9247L92.1399 25.2H92.437V25ZM100.597 25H100.797V24.8H100.597V25ZM100.597 29V29.2H100.797V29H100.597ZM87.717 29H87.517V29.2H87.717V29ZM87.9023 25.1553L96.0623 5.07529L95.6917 4.9247L87.5317 25.0047L87.9023 25.1553ZM95.877 4.8H88.117V5.2H95.877V4.8ZM88.317 5V0.999998H87.917V5H88.317ZM88.117 1.2H100.597V0.799998H88.117V1.2ZM100.397 0.999998V4.92H100.797V0.999998H100.397ZM100.412 4.8447L92.2517 24.9247L92.6223 25.0753L100.782 4.99529L100.412 4.8447ZM92.437 25.2H100.597V24.8H92.437V25.2ZM100.397 25V29H100.797V25H100.397ZM100.597 28.8H87.717V29.2H100.597V28.8ZM87.917 29V25.08H87.517V29H87.917ZM103.929 0.999998V0.799998H103.697L103.731 1.02994L103.929 0.999998ZM108.369 0.999998L108.567 0.973709L108.544 0.799998H108.369V0.999998ZM111.249 22.72L111.051 22.7463L111.074 22.92H111.249V22.72ZM111.329 22.72V22.92H111.504L111.527 22.7463L111.329 22.72ZM114.209 0.999998V0.799998H114.034L114.011 0.973709L114.209 0.999998ZM118.249 0.999998L118.447 1.02994L118.482 0.799998H118.249V0.999998ZM114.009 29V29.2H114.181L114.207 29.0299L114.009 29ZM108.169 29L107.971 29.0299L107.997 29.2H108.169V29ZM103.929 1.2H108.369V0.799998H103.929V1.2ZM108.171 1.02629L111.051 22.7463L111.447 22.6937L108.567 0.973709L108.171 1.02629ZM111.249 22.92H111.329V22.52H111.249V22.92ZM111.527 22.7463L114.407 1.02629L114.011 0.973709L111.131 22.6937L111.527 22.7463ZM114.209 1.2H118.249V0.799998H114.209V1.2ZM118.051 0.970054L113.811 28.9701L114.207 29.0299L118.447 1.02994L118.051 0.970054ZM114.009 28.8H108.169V29.2H114.009V28.8ZM108.367 28.9701L104.127 0.970054L103.731 1.02994L107.971 29.0299L108.367 28.9701ZM123.685 27.56L123.831 27.4234L123.685 27.56ZM123.685 2.44L123.831 2.57658L123.685 2.44ZM133.605 2.44L133.458 2.57658L133.605 2.44ZM133.605 27.56L133.458 27.4234L133.605 27.56ZM128.645 29.2C126.523 29.2 124.929 28.5988 123.831 27.4234L123.538 27.6966C124.733 28.9745 126.446 29.6 128.645 29.6V29.2ZM123.831 27.4234C122.729 26.2448 122.165 24.5666 122.165 22.36H121.765C121.765 24.6334 122.347 26.4219 123.538 27.6966L123.831 27.4234ZM122.165 22.36V7.64H121.765V22.36H122.165ZM122.165 7.64C122.165 5.43339 122.729 3.75523 123.831 2.57658L123.538 2.30342C122.347 3.5781 121.765 5.36661 121.765 7.64H122.165ZM123.831 2.57658C124.929 1.40117 126.523 0.799998 128.645 0.799998V0.399999C126.446 0.399999 124.733 1.02549 123.538 2.30342L123.831 2.57658ZM128.645 0.799998C130.766 0.799998 132.36 1.40117 133.458 2.57658L133.751 2.30342C132.556 1.02549 130.843 0.399999 128.645 0.399999V0.799998ZM133.458 2.57658C134.56 3.75523 135.125 5.43339 135.125 7.64H135.525C135.525 5.36661 134.942 3.5781 133.751 2.30342L133.458 2.57658ZM135.125 7.64V22.36H135.525V7.64H135.125ZM135.125 22.36C135.125 24.5666 134.56 26.2448 133.458 27.4234L133.751 27.6966C134.942 26.4219 135.525 24.6334 135.525 22.36H135.125ZM133.458 27.4234C132.36 28.5988 130.766 29.2 128.645 29.2V29.6C130.843 29.6 132.556 28.9745 133.751 27.6966L133.458 27.4234ZM128.645 25.6C129.447 25.6 130.081 25.3555 130.509 24.8374C130.931 24.3266 131.125 23.5825 131.125 22.64H130.725C130.725 23.5375 130.538 24.1734 130.2 24.5826C129.868 24.9845 129.363 25.2 128.645 25.2V25.6ZM131.125 22.64V7.36H130.725V22.64H131.125ZM131.125 7.36C131.125 6.41748 130.931 5.67339 130.509 5.16262C130.081 4.64454 129.447 4.4 128.645 4.4V4.8C129.363 4.8 129.868 5.01546 130.2 5.41738C130.538 5.82661 130.725 6.46252 130.725 7.36H131.125ZM128.645 4.4C127.843 4.4 127.208 4.64454 126.78 5.16262C126.358 5.67339 126.165 6.41748 126.165 7.36H126.565C126.565 6.46252 126.751 5.82661 127.089 5.41738C127.421 5.01546 127.926 4.8 128.645 4.8V4.4ZM126.165 7.36V22.64H126.565V7.36H126.165ZM126.165 22.64C126.165 23.5825 126.358 24.3266 126.78 24.8374C127.208 25.3555 127.843 25.6 128.645 25.6V25.2C127.926 25.2 127.421 24.9845 127.089 24.5826C126.751 24.1734 126.565 23.5375 126.565 22.64H126.165ZM141.82 27.6L141.672 27.7349L141.674 27.7365L141.82 27.6ZM140.14 0.999998V0.799998H139.94V0.999998H140.14ZM144.54 0.999998H144.74V0.799998H144.54V0.999998ZM145.1 24.76L144.95 24.8918L144.954 24.8968L145.1 24.76ZM148.42 24.76L148.274 24.6231L148.27 24.6283L148.42 24.76ZM149.02 0.999998V0.799998H148.82V0.999998H149.02ZM153.26 0.999998H153.46V0.799998H153.26V0.999998ZM151.58 27.6L151.726 27.7365L151.728 27.7349L151.58 27.6ZM146.7 29.2C144.605 29.2 143.038 28.6118 141.966 27.4635L141.674 27.7365C142.842 28.9882 144.529 29.6 146.7 29.6V29.2ZM141.968 27.4651C140.892 26.287 140.34 24.5952 140.34 22.36H139.94C139.94 24.6582 140.508 26.4597 141.672 27.7349L141.968 27.4651ZM140.34 22.36V0.999998H139.94V22.36H140.34ZM140.14 1.2H144.54V0.799998H140.14V1.2ZM144.34 0.999998V22.68H144.74V0.999998H144.34ZM144.34 22.68C144.34 23.6575 144.529 24.4106 144.95 24.8917L145.251 24.6283C144.925 24.2561 144.74 23.6225 144.74 22.68H144.34ZM144.954 24.8968C145.401 25.3728 146.019 25.6 146.78 25.6V25.2C146.102 25.2 145.6 25.0005 145.246 24.6232L144.954 24.8968ZM146.78 25.6C147.541 25.6 148.15 25.3729 148.571 24.8917L148.27 24.6283C147.944 25.0004 147.459 25.2 146.78 25.2V25.6ZM148.566 24.8968C149.017 24.4155 149.22 23.6601 149.22 22.68H148.82C148.82 23.6199 148.623 24.2512 148.274 24.6232L148.566 24.8968ZM149.22 22.68V0.999998H148.82V22.68H149.22ZM149.02 1.2H153.26V0.799998H149.02V1.2ZM153.06 0.999998V22.36H153.46V0.999998H153.06ZM153.06 22.36C153.06 24.5952 152.508 26.287 151.432 27.4651L151.728 27.7349C152.892 26.4597 153.46 24.6582 153.46 22.36H153.06ZM151.434 27.4635C150.362 28.6118 148.796 29.2 146.7 29.2V29.6C148.871 29.6 150.558 28.9882 151.726 27.7365L151.434 27.4635ZM159.274 27.6L159.125 27.7331L159.126 27.7347L159.274 27.6ZM157.634 20.76V20.56H157.434V20.76H157.634ZM161.794 20.76H161.994V20.56H161.794V20.76ZM165.754 24.76L165.604 24.6277L165.603 24.6283L165.754 24.76ZM165.554 19.52L165.382 19.6214L165.383 19.6237L165.554 19.52ZM162.594 16.28L162.462 16.43L162.463 16.4309L162.594 16.28ZM158.794 11.96L158.619 12.0565L158.62 12.0581L158.794 11.96ZM159.394 2.44L159.54 2.57647L159.542 2.57485L159.394 2.44ZM169.034 2.44L168.883 2.57127L168.886 2.5747L169.034 2.44ZM170.674 8.8V9H170.874V8.8H170.674ZM166.514 8.8H166.314V9H166.514V8.8ZM165.954 5.28L165.799 5.4072L165.803 5.4117L165.954 5.28ZM162.914 10.12L162.743 10.2237L162.745 10.2274L162.914 10.12ZM165.914 13.32L165.783 13.4709L165.783 13.4709L165.914 13.32ZM169.714 17.68L169.537 17.7737L169.714 17.68ZM169.034 27.56L168.888 27.4234L168.886 27.4251L169.034 27.56ZM164.114 29.2C162.018 29.2 160.466 28.6117 159.422 27.4653L159.126 27.7347C160.268 28.9883 161.943 29.6 164.114 29.6V29.2ZM159.423 27.4669C158.373 26.2888 157.834 24.5963 157.834 22.36H157.434C157.434 24.6571 157.988 26.4579 159.125 27.7331L159.423 27.4669ZM157.834 22.36V20.76H157.434V22.36H157.834ZM157.634 20.96H161.794V20.56H157.634V20.96ZM161.594 20.76V22.68H161.994V20.76H161.594ZM161.594 22.68C161.594 23.6097 161.788 24.3443 162.211 24.8485C162.639 25.3594 163.273 25.6 164.074 25.6V25.2C163.355 25.2 162.849 24.9872 162.517 24.5915C162.18 24.189 161.994 23.5636 161.994 22.68H161.594ZM164.074 25.6C164.859 25.6 165.482 25.3745 165.904 24.8917L165.603 24.6283C165.279 24.9988 164.782 25.2 164.074 25.2V25.6ZM165.904 24.8923C166.351 24.3854 166.554 23.6065 166.554 22.6H166.154C166.154 23.5668 165.957 24.2279 165.604 24.6277L165.904 24.8923ZM166.554 22.6C166.554 21.3953 166.28 20.3318 165.725 19.4163L165.383 19.6237C165.895 20.4682 166.154 21.458 166.154 22.6H166.554ZM165.726 19.4186C165.176 18.484 164.171 17.3871 162.725 16.1291L162.463 16.4309C163.897 17.6796 164.865 18.7427 165.382 19.6214L165.726 19.4186ZM162.726 16.13C160.92 14.5366 159.672 13.1139 158.968 11.8619L158.62 12.0581C159.355 13.3661 160.641 14.8234 162.462 16.43L162.726 16.13ZM158.969 11.8635C158.267 10.589 157.914 9.15604 157.914 7.56H157.514C157.514 9.21729 157.881 10.7177 158.619 12.0565L158.969 11.8635ZM157.914 7.56C157.914 5.37935 158.465 3.7281 159.54 2.57646L159.248 2.30354C158.083 3.5519 157.514 5.31398 157.514 7.56H157.914ZM159.542 2.57485C160.614 1.40075 162.18 0.799998 164.274 0.799998V0.399999C162.101 0.399999 160.414 1.02591 159.246 2.30514L159.542 2.57485ZM164.274 0.799998C166.341 0.799998 167.865 1.40038 168.883 2.57123L169.185 2.30876C168.07 1.02628 166.42 0.399999 164.274 0.399999V0.799998ZM168.886 2.5747C169.935 3.72547 170.474 5.40338 170.474 7.64H170.874C170.874 5.34329 170.32 3.55453 169.182 2.3053L168.886 2.5747ZM170.474 7.64V8.8H170.874V7.64H170.474ZM170.674 8.6H166.514V9H170.674V8.6ZM166.714 8.8V7.36H166.314V8.8H166.714ZM166.714 7.36C166.714 6.3825 166.525 5.62941 166.104 5.1483L165.803 5.4117C166.129 5.78392 166.314 6.4175 166.314 7.36H166.714ZM166.108 5.15286C165.688 4.64305 165.079 4.4 164.314 4.4V4.8C164.989 4.8 165.473 5.01028 165.8 5.40714L166.108 5.15286ZM164.314 4.4C163.538 4.4 162.924 4.63815 162.509 5.1431C162.101 5.64049 161.914 6.36437 161.914 7.28H162.314C162.314 6.40896 162.493 5.79284 162.818 5.3969C163.137 5.00851 163.623 4.8 164.314 4.8V4.4ZM161.914 7.28C161.914 8.33047 162.191 9.31291 162.743 10.2237L163.085 10.0163C162.57 9.16709 162.314 8.25619 162.314 7.28H161.914ZM162.745 10.2274C163.321 11.1318 164.338 12.2135 165.783 13.4709L166.045 13.1691C164.61 11.9198 163.627 10.8682 163.083 10.0126L162.745 10.2274ZM165.783 13.4709C167.615 15.0639 168.86 16.4983 169.537 17.7737L169.891 17.5863C169.181 16.2484 167.893 14.7761 166.045 13.1691L165.783 13.4709ZM169.537 17.7737C170.213 19.0465 170.554 20.5465 170.554 22.28H170.954C170.954 20.4935 170.602 18.9268 169.891 17.5863L169.537 17.7737ZM170.554 22.28C170.554 24.5414 169.989 26.2456 168.888 27.4234L169.18 27.6966C170.372 26.4211 170.954 24.6052 170.954 22.28H170.554ZM168.886 27.4251C167.815 28.5987 166.236 29.2 164.114 29.2V29.6C166.312 29.6 168.013 28.9746 169.182 27.6949L168.886 27.4251Z" fill="#EFC36A"/>
</svg>
